<svg viewBox="0 0 800 800" xmlns="http://www.w3.org/2000/svg"><path d="M636.0865392454407,265.0564505678864 L636.3437045048458,250.54502847587008 M636.3437045048458,250.54502847587008 L647.1702582580176,256.8038677706804 M647.1702582580176,256.8038677706804 L657.5082804216731,263.34317177561746 M657.5082804216731,263.34317177561746 L667.3357582576002,270.1508226662817 M667.3357582576002,270.1508226662817 L676.6315382896855,277.214097651051 M676.6315382896855,277.214097651051 L685.3752798040989,284.51972987868066 M685.3752798040989,284.51972987868066 L693.5475679493738,292.0539092266573 M693.5475679493738,292.0539092266573 L701.130002977367,299.80224727984677 M701.130002977367,299.80224727984677 L708.105126389705,307.7498837567543 M708.105126389705,307.7498837567543 L714.4565571752962,315.8814337301177 M714.4565571752962,315.8814337301177 L720.1690631165018,324.1810249203077 M720.1690631165018,324.1810249203077 L725.2284968648914,332.63236633206014 M725.2284968648914,332.63236633206014 L729.6219303603875,341.2187140377635 M729.6219303603875,341.2187140377635 L733.3377180112509,349.9229034254289 M733.3377180112509,349.9229034254289 L736.3654473048759,358.7274049316168 M736.3654473048759,358.7274049316168 L738.6960439030247,367.61435938195314 M738.6960439030247,367.61435938195314 L740.3218377236335,376.5655703575738 M740.3218377236335,376.5655703575738 L741.2365176635085,385.5625644206002 M741.2365176635085,385.5625644206002 L741.4352108207918,394.5866142214907 M741.4352108207918,394.5866142214907 L740.9146028964319,403.6187855249794 M740.9146028964319,403.6187855249794 L739.6728069097585,412.63998612506344 M739.6728069097585,412.63998612506344 L737.7095001574285,421.6309489826953 M737.7095001574285,421.6309489826953 L735.0259425312499,430.5723576365319 M735.0259425312499,430.5723576365319 L731.6249579249018,439.44483295481666 M731.6249579249018,439.44483295481666 L727.5109764066217,448.2289776165637 M727.5109764066217,448.2289776165637 L722.6900673730008,456.9054508600493 M722.6900673730008,456.9054508600493 L717.1699302158977,465.45499966327156 M717.1699302158977,465.45499966327156 L710.9598798156287,473.8585171198878 M710.9598798156287,473.8585171198878 L704.0708875902212,482.0970680804456 M704.0708875902212,482.0970680804456 L696.515549179451,490.15195914031597 M696.515549179451,490.15195914031597 L688.3080726597564,498.00477280114796 M688.3080726597564,498.00477280114796 L679.4643439036101,505.6374735673316 M679.4643439036101,505.6374735673316 L670.0017386168679,513.0323579235203 M670.0017386168679,513.0323579235203 L659.9392787744691,520.1721993822277 M659.9392787744691,520.1721993822277 L649.2974996137689,527.0402585936197 M649.2974996137689,527.0402585936197 L638.098422654376,533.620323162838 M638.098422654376,533.620323162838 L626.3655451932827,539.896783865552 M626.3655451932827,539.896783865552 L614.1237552685643,545.8546588110736 M614.1237552685643,545.8546588110736 L601.3993582505177,551.479691739276 M601.3993582505177,551.479691739276 L588.2198738636416,556.758299879736 M588.2198738636416,556.758299879736 L574.6141232487498,561.6777271405022 M574.6141232487498,561.6777271405022 L560.6120687033263,566.2260093495428 M560.6120687033263,566.2260093495428 L546.2447489805802,570.3920466333648 M546.2447489805802,570.3920466333648 L531.5442727141024,574.1656383762293 M531.5442727141024,574.1656383762293 L516.5435797008097,577.5375112911734 M516.5435797008097,577.5375112911734 L501.27656841928956,580.4993640790365 M501.27656841928956,580.4993640790365 L485.7778116883434,583.0438694310632 M485.7778116883434,583.0438694310632 L470.0825600712089,585.1647396608197 M470.0825600712089,585.1647396608197 L454.2266222886456,586.8566961026087 M454.2266222886456,586.8566961026087 L438.2462752042554,588.1155612043123 M438.2462752042554,588.1155612043123 L422.1781207505408,588.9381651650746 M422.1781207505408,588.9381651650746 L406.05905330165774,589.3224937712952 M406.05905330165774,589.3224937712952 L389.92607485441215,589.2675675278673 M389.92607485441215,589.2675675278673 L373.8162804920079,588.7735382571576 M373.8162804920079,588.7735382571576 L357.76664356120136,587.841629541501 M357.76664356120136,587.841629541501 L341.8139709514154,586.4741641809674 M341.8139709514154,586.4741641809674 L325.9948089710959,584.6745481948581 M325.9948089710959,584.6745481948581 L310.3453505097472,582.4472292666809 M310.3453505097472,582.4472292666809 L294.90124237927046,579.7977599657246 M294.90124237927046,579.7977599657246 L279.69760597168033,576.7326756476007 M279.69760597168033,576.7326756476007 L264.7688178773216,573.2595601596375 M264.7688178773216,573.2595601596375 L250.14857433794393,569.3869443918785 M250.14857433794393,569.3869443918785 L235.8696114626777,565.1243541113165 M235.8696114626777,565.1243541113165 L221.9637497741546,560.4822148236127 M221.9637497741546,560.4822148236127 L208.46180523919082,555.4718411836926 M208.46180523919082,555.4718411836926 L195.3934468881855,550.1053915711607 M195.3934468881855,550.1053915711607 L182.7871536028437,544.3958556471987 M182.7871536028437,544.3958556471987 L170.6701963041281,538.3569592564054 M170.6701963041281,538.3569592564054 L159.0684997083859,532.003161727703 M159.0684997083859,532.003161727703 L148.00659858361996,525.3496121580149 M148.00659858361996,525.3496121580149 L137.50762626144575,518.4120755207443 M137.50762626144575,518.4120755207443 L127.59326663896957,511.20688282918803 M127.59326663896957,511.20688282918803 L118.28366841376095,503.7509044732731 M118.28366841376095,503.7509044732731 L109.59741441263026,496.0615075786573 M109.59741441263026,496.0615075786573 L101.55156452004974,488.15646180292447 M101.55156452004974,488.15646180292447 L94.16154270703169,480.05391660841394 M94.16154270703169,480.05391660841394 L87.44116520236082,471.77236771834254 M87.44116520236082,471.77236771834254 L81.4026170897572,463.3305687742551 M81.4026170897572,463.3305687742551 L76.05648623594561,454.7474776248258 M76.05648623594561,454.7474776248258 L71.41165341264963,446.04228082271516 M71.41165341264963,446.04228082271516 L67.47542828913777,437.2342370725189 M67.47542828913777,437.2342370725189 L64.25342780249542,428.3427190127442 M64.25342780249542,428.3427190127442 L61.74973736452313,419.38709736812376 M61.74973736452313,419.38709736812376 L59.96675391879876,410.38676287208466 M59.96675391879876,410.38676287208466 L58.90533822993842,401.36103109108785 M58.90533822993842,401.36103109108785 L58.564789179208276,392.32910576885683 M58.564789179208276,392.32910576885683 L58.94285739189684,383.31004385161737 M58.94285739189684,383.31004385161737 L60.035825165609765,374.32274998663235 M60.035825165609765,374.32274998663235 L61.838445680707935,365.38587792051857 M61.838445680707935,365.38587792051857 L64.34412741286911,356.5178452172285 M64.34412741286911,356.5178452172285 L67.5447649304786,347.7367550281302 M67.5447649304786,347.7367550281302 L71.43099890389499,339.0604026841432 M71.43099890389499,339.0604026841432 L75.99208224987439,330.50622281914474 M75.99208224987439,330.50622281914474 L81.21604216528317,322.0912656392237 M81.21604216528317,322.0912656392237 L87.08963907140662,313.83215806723194 M87.08963907140662,313.83215806723194 L93.5984742964082,305.7451316436391 M93.5984742964082,305.7451316436391 L100.7269976720022,297.84589321744363 M100.7269976720022,297.84589321744363 L108.45856936477401,290.14972038509507 M108.45856936477401,290.14972038509507 L116.77550022874806,282.6713560661474 M116.77550022874806,282.6713560661474 L125.65909342482007,275.42502911279126 M125.65909342482007,275.42502911279126 L135.08974473385337,268.4244413580496 M135.08974473385337,268.4244413580496 L145.04686738959737,261.682703405884 M145.04686738959737,261.682703405884 L155.50911364073028,255.21240005597116 M155.50911364073028,255.21240005597116 L166.45426606112952,249.02550031504518 M166.45426606112952,249.02550031504518 L177.85936577294677,243.13338758577683 M177.85936577294677,243.13338758577683 L189.70072014538545,237.5468288588314 M189.70072014538545,237.5468288588314 L201.95399193449524,232.2759812211884 M201.95399193449524,232.2759812211884 L214.59422795234704,227.33038811898024 M214.59422795234704,227.33038811898024 L227.59583918019533,222.71891713403963 M227.59583918019533,222.71891713403963 L240.93279657956077,218.44984859443423 M240.93279657956077,218.44984859443423 L254.57851205271524,214.53078080890526 M254.57851205271524,214.53078080890526 L268.50597110140063,210.96866612782617 M268.50597110140063,210.96866612782617 L282.68774895415805,207.76980492716916 M282.68774895415805,207.76980492716916 L297.09608636962054,204.93982549474472 M297.09608636962054,204.93982549474472 L311.70289224544445,202.48370255194274 M311.70289224544445,202.48370255194274 L326.4798019475557,200.40574296812395 M326.4798019475557,200.40574296812395 L341.3981916964511,198.7095730190445 M341.3981916964511,198.7095730190445 L356.4292668101993,197.39814552887057 M356.4292668101993,197.39814552887057 L371.5441019427682,196.47375098718715 M371.5441019427682,196.47375098718715 L386.7135866967528,195.9379957753397 M386.7135866967528,195.9379957753397 L401.90860561560373,195.7917948808733 M401.90860561560373,195.7917948808733 L417.09998259467017,196.03543166698805 M417.09998259467017,196.03543166698805 L432.2585381487277,196.66846891475222 M432.2585381487277,196.66846891475222 L447.3551464356479,197.68979532942961 M447.3551464356479,197.68979532942961 L462.36075531227107,199.0976496518334 M462.36075531227107,199.0976496518334 L477.2464722090595,200.88957497549035 M477.2464722090595,200.88957497549035 L491.98353793218786,203.06243489594993 M491.98353793218786,203.06243489594993 L506.5433771163475,205.61244951971346 M506.5433771163475,205.61244951971346 L520.8976862784491,208.53514585639135 M520.8976862784491,208.53514585639135 L535.0184861126154,211.82537021650393 M535.0184861126154,211.82537021650393 L548.8780631017014,215.4773418627471 M548.8780631017014,215.4773418627471 L562.4490896191353,219.48459460291707 M562.4490896191353,219.48459460291707 L575.7046953557028,223.8399939294257 M575.7046953557028,223.8399939294257 L588.6183860647452,228.53579320173029 M588.6183860647452,228.53579320173029 L601.1642398575109,233.56356965167998 M601.1642398575109,233.56356965167998 L613.316862416731,238.91425505099664 M613.316862416731,238.91425505099664 L625.0514076612906,244.57818000521715 M625.0514076612906,244.57818000521715 L636.3437045048458,250.54502847587008 M636.0865392454407,265.0564505678864 L624.8067565706365,259.08266192682464 M624.8067565706365,259.08266192682464 L613.0851721909708,253.41213799844127 M613.0851721909708,253.41213799844127 L600.9459311417229,248.0552086097947 M600.9459311417229,248.0552086097947 L588.4138530470586,243.02155616492593 M588.4138530470586,243.02155616492593 L575.5143054871357,238.32026115969828 M575.5143054871357,238.32026115969828 L562.2731833447874,233.95975782076823 M562.2731833447874,233.95975782076823 L548.7169535296584,229.94780338740742 M548.7169535296584,229.94780338740742 L534.8724588771677,226.29154216736947 M534.8724588771677,226.29154216736947 L520.7669992985784,222.99744927574193 M520.7669992985784,222.99744927574193 L506.428260411779,220.07131346329106 M506.428260411779,220.07131346329106 L491.88419354653905,217.51829558141137 M491.88419354653905,217.51829558141137 L477.16307404815467,215.34287485806436 M477.16307404815467,215.34287485806436 L462.29344901492397,213.548836476751 M462.29344901492397,213.548836476751 L447.3040493137363,212.13932123550086 M447.3040493137363,212.13932123550086 L432.22373915626275,211.11678948943606 M432.22373915626275,211.11678948943606 L417.08154224187035,210.48300497757984 M417.08154224187035,210.48300497757984 L401.9065559481317,210.23908055611787 M401.9065559481317,210.23908055611787 L386.72793126925654,210.38545405642373 M386.72793126925654,210.38545405642373 L371.57481582594403,210.92184172298164 M371.57481582594403,210.92184172298164 L356.4762966319091,211.84732727670232 M356.4762966319091,211.84732727670232 L341.4614555951491,213.1603020767371 M341.4614555951491,213.1603020767371 L326.5591896924788,214.8584724178152 M326.5591896924788,214.8584724178152 L311.79826527147577,216.93888133406418 M311.79826527147577,216.93888133406418 L297.20727782931203,219.39789747463624 M297.20727782931203,219.39789747463624 L282.81456383951286,222.23120796031355 M282.81456383951286,222.23120796031355 L268.6481863570045,225.43383114836217 M268.6481863570045,225.43383114836217 L254.7358767290627,229.0001309443566 M254.7358767290627,229.0001309443566 L241.10503196693523,232.9237982692128 M241.10503196693523,232.9237982692128 L227.7826390045696,237.19787120822835 M227.7826390045696,237.19787120822835 L214.7952585701718,241.81474104678176 M214.7952585701718,241.81474104678176 L202.16889265310166,246.7661161807975 M202.16889265310166,246.7661161807975 L189.92910340219683,252.04311700763722 M189.92910340219683,252.04311700763722 L178.10081751114038,257.6361872271588 M178.10081751114038,257.6361872271588 L166.7083460749063,263.535156153872 M166.7083460749063,263.535156153872 L155.77535594325118,269.72924247489544 M155.77535594325118,269.72924247489544 L145.32478067128878,276.2070477510976 M145.32478067128878,276.2070477510976 L135.37881282649187,282.9565872782227 M135.37881282649187,282.9565872782227 L125.95877590274438,289.9652598808106 M125.95877590274438,289.9652598808106 L117.08523289669358,297.2199380227469 M117.08523289669358,297.2199380227469 L108.77776498848567,304.70690232473316 M108.77776498848567,304.70690232473316 L101.055046636248,312.4119058660746 M101.055046636248,312.4119058660746 L93.93474538251178,320.32018716877025 M93.93474538251178,320.32018716877025 L87.43348029111439,328.41644958164215 M87.43348029111439,328.41644958164215 L81.56678165874553,336.6849668418717 M81.56678165874553,336.6849668418717 L76.34902926350583,345.10948754316456 M76.34902926350583,345.10948754316456 L71.79344480281156,353.6733646075538 M71.79344480281156,353.6733646075538 L67.91198434990258,362.3595273669488 M67.91198434990258,362.3595273669488 L64.71537939043083,371.1505204759924 M64.71537939043083,371.1505204759924 L62.21297499520949,380.0285276817792 M62.21297499520949,380.0285276817792 L60.41286355887706,388.9754247707968 M60.41286355887706,388.9754247707968 L59.3216251080043,397.97277297879765 M59.3216251080043,397.97277297879765 L58.94449635225038,407.0018973163338 M58.94449635225038,407.0018973163338 L59.285186508326376,416.043871840594 M59.285186508326376,416.043871840594 L60.34593806168226,425.079618371586 M60.34593806168226,425.079618371586 L62.12744696211507,434.0899120022131 M62.12744696211507,434.0899120022131 L64.62884904889751,443.05541611278454 M64.62884904889751,443.05541611278454 L67.84774576389623,451.95671906647465 M67.84774576389623,451.95671906647465 L71.78005207338072,460.7744294868617 M71.78005207338072,460.7744294868617 L76.42015326906284,469.4891543063589 M76.42015326906284,469.4891543063589 L81.76074398235949,478.0816147341145 M81.76074398235949,478.0816147341145 L87.79294970850128,486.532604419604 M87.79294970850128,486.532604419604 L94.50619100691881,494.82314616486906 M94.50619100691881,494.82314616486906 L101.88829328429495,502.9344673882339 M101.88829328429495,502.9344673882339 L109.9254529353201,510.8480538798501 M109.9254529353201,510.8480538798501 L118.60226074907052,518.5457382240431 M118.60226074907052,518.5457382240431 L127.90167379402953,526.009733361915 M127.90167379402953,526.009733361915 L137.8051282824681,533.2226553244476 M137.8051282824681,533.2226553244476 L148.29249671153153,540.1676175177441 M148.29249671153153,540.1676175177441 L159.34211851482428,546.8282733885948 M159.34211851482428,546.8282733885948 L170.93088574089077,553.1888430945862 M170.93088574089077,553.1888430945862 L183.03429100467008,559.2341633717355 M183.03429100467008,559.2341633717355 L195.62643896724583,564.9497614820508 M195.62643896724583,564.9497614820508 L208.68009002932686,570.3218989533711 M208.68009002932686,570.3218989533711 L222.1667984117723,575.3375742586435 M222.1667984117723,575.3375742586435 L236.05692994031773,579.9846179924601 M236.05692994031773,579.9846179924601 L250.31970519485208,584.2517053053642 M250.31970519485208,584.2517053053642 L264.92334171095365,588.1284013553548 M264.92334171095365,588.1284013553548 L279.8351428262567,591.6051718884697 M279.8351428262567,591.6051718884697 L295.0214531622967,594.673478458445 M295.0214531622967,594.673478458445 L310.4479380592485,597.3257305247832 M310.4479380592485,597.3257305247832 L326.07951916693327,599.5553869927312 M326.07951916693327,599.5553869927312 L341.8805935404746,601.3568904250513 M341.8805935404746,601.3568904250513 L357.81501297134844,602.7257892577747 M357.81501297134844,602.7257892577747 L373.8462763861339,603.658674502568 M373.8462763861339,603.658674502568 L389.9376225385569,604.153221337891 M389.9376225385569,604.153221337891 L406.0521239840796,604.2082051191267 M406.0521239840796,604.2082051191267 L422.15273170757416,603.8234738893175 M422.15273170757416,603.8234738893175 L438.2024896577622,603.0000079987587 M438.2024896577622,603.0000079987587 L454.16454922505477,601.7398234069342 M454.16454922505477,601.7398234069342 L470.00235380668437,600.0460926824755 M470.00235380668437,600.0460926824755 L485.67967135725297,597.9229970191043 M485.67967135725297,597.9229970191043 L501.16073725906966,595.3758197049915 M501.16073725906966,595.3758197049915 L516.410344197855,592.4108539446261 M516.410344197855,592.4108539446261 L531.3939615776173,589.0354335058812 M531.3939615776173,589.0354335058812 L546.0777320892164,585.2578670343717 M546.0777320892164,585.2578670343717 L560.4287556976974,581.0874360656675 M560.4287556976974,581.0874360656675 L574.4149622446187,576.534350337707 M574.4149622446187,576.534350337707 L588.0053498706329,571.6097197099376 M588.0053498706329,571.6097197099376 L601.169991565431,566.3255191880688 M601.169991565431,566.3255191880688 L613.8800997820699,560.6945164905161 M613.8800997820699,560.6945164905161 L626.108186501695,554.7303068662137 M626.108186501695,554.7303068662137 L637.8279762687505,548.4471597659339 M637.8279762687505,548.4471597659339 L649.0146089330835,541.8600710613332 M649.0146089330835,541.8600710613332 L659.6446130936924,534.9846646662102 M659.6446130936924,534.9846646662102 L669.6959910442542,527.8371683700316 M669.6959910442542,527.8371683700316 L679.1482292779747,520.4343375627203 M679.1482292779747,520.4343375627203 L687.9823254511891,512.7934153956494 M687.9823254511891,512.7934153956494 L696.1809212557662,504.9321226813561 M696.1809212557662,504.9321226813561 L703.7281461862344,496.868512708593 M703.7281461862344,496.868512708593 L710.6098053096916,488.6210213364346 M710.6098053096916,488.6210213364346 L716.813314010403,480.2083607994349 M716.813314010403,480.2083607994349 L722.3277097906002,471.6494855237146 M722.3277097906002,471.6494855237146 L727.143684583277,462.9635220757604 M727.143684583277,462.9635220757604 L731.253543781713,454.1697435043318 M731.253543781713,454.1697435043318 L734.6512207658736,445.2875109100189 M734.6512207658736,445.2875109100189 L737.3322862607583,436.3362422380634 M737.3322862607583,436.3362422380634 L739.2939152587724,427.3353374531075 M739.2939152587724,427.3353374531075 L740.534844931926,418.3041340122306 M740.534844931926,418.3041340122306 L741.0553932390187,409.26192012947683 M741.0553932390187,409.26192012947683 L740.8574406709172,400.2278092256835 M740.8574406709172,400.2278092256835 L739.9442934777603,391.22075680709617 M739.9442934777603,391.22075680709617 L738.3208148443771,382.25951149194464 M738.3208148443771,382.25951149194464 L735.9933046585938,373.36256792613 M735.9933046585938,373.36256792613 L732.9694204095722,364.5481436425252 M732.9694204095722,364.5481436425252 L729.2582224487028,355.834118758692 M729.2582224487028,355.834118758692 L724.8701080092274,347.23804360856633 M724.8701080092274,347.23804360856633 L719.8167062556352,338.7771033504464 M719.8167062556352,338.7771033504464 L714.1109276460813,330.46806215790315 M714.1109276460813,330.46806215790315 L707.7669008462785,322.32723092084007 M707.7669008462785,322.32723092084007 L700.7998384762868,314.37050148624604 M700.7998384762868,314.37050148624604 L693.2261009857282,306.61327792747056 M693.2261009857282,306.61327792747056 L685.0631254429245,299.0704391914058 M685.0631254429245,299.0704391914058 L676.3292894563835,291.7563919215022 M676.3292894563835,291.7563919215022 L667.0439849625011,284.684963891762 M667.0439849625011,284.684963891762 L657.2275290877476,277.8694390505104 M657.2275290877476,277.8694390505104 L646.9010511766505,271.32255671347656 M646.9010511766505,271.32255671347656 L636.0865392454407,265.0564505678864 M336.21717754624797,438.18610726663644 L342.0773829867173,441.3158909644031 M342.0773829867173,441.3158909644031 L348.39917870841845,444.13371308957875 M348.39917870841845,444.13371308957875 L355.1327157575899,446.6166955912323 M355.1327157575899,446.6166955912323 L362.22467470966956,448.74462984352493 M362.22467470966956,448.74462984352493 L369.61869430748374,450.5001638726011 M369.61869430748374,450.5001638726011 L377.2558597190971,451.8689591215825 M377.2558597190971,451.8689591215825 L385.07518591065616,452.83981294139295 M385.07518591065616,452.83981294139295 L393.0141092382582,453.4047828805983 M393.0141092382582,453.4047828805983 L401.0090773547171,453.55923478630217 M401.0090773547171,453.55923478630217 L408.9960304885054,453.30190503396796 M408.9960304885054,453.30190503396796 L416.9109869596436,452.6348999775186 M416.9109869596436,452.6348999775186 L424.6905820958815,451.56368504712793 M424.6905820958815,451.56368504712793 L432.27260979232676,450.0970309815502 M432.27260979232676,450.0970309815502 L439.59654772922056,448.2469331458211 M439.59654772922056,448.2469331458211 L446.6040729611673,446.0284938378151 M446.6040729611673,446.0284938378151 L453.23954272979176,443.4597991113987 M453.23954272979176,443.4597991113987 L459.45047240431006,440.56174313934736 M459.45047240431006,440.56174313934736 L465.1879317319461,437.357835144854 M465.1879317319461,437.357835144854 L470.40698131650714,433.8740093473989 M470.40698131650714,433.8740093473989 L475.0669735976807,430.1383652178868 M475.0669735976807,430.1383652178868 L479.1319159201119,426.180951131758 M479.1319159201119,426.180951131758 L482.57069365853073,422.0334834433942 M482.57069365853073,422.0334834433942 L485.35731356490044,417.7290793387963 M485.35731356490044,417.7290793387963 L487.47107575782746,413.30198458963326 M487.47107575782746,413.30198458963326 L488.89670096774535,408.7872823133202 M488.89670096774535,408.7872823133202 L489.62438995628526,404.2206034884925 M489.62438995628526,404.2206034884925 L489.64989432232375,399.6378397126873 M489.64989432232375,399.6378397126873 L488.9744661068457,395.074863405115 M488.9744661068457,395.074863405115 L487.6048284375003,390.5672472047746 M487.6048284375003,390.5672472047746 L485.55307216389616,386.1499797992108 M485.55307216389616,386.1499797992108 L482.83651711609684,381.8572127776065 M482.83651711609684,381.8572127776065 L479.4775235350365,377.7220039149213 M479.4775235350365,377.7220039149213 L475.5033073399028,373.7760751540672 M475.5033073399028,373.7760751540672 L470.9456989113247,370.04957694169985 M470.9456989113247,370.04957694169985 L465.84084006926685,366.5708928745775 M465.84084006926685,366.5708928745775 L460.2289265636984,363.36642346760596 M460.2289265636984,363.36642346760596 L454.1538624422381,360.4604145490798 M454.1538624422381,360.4604145490798 L447.66292128633313,357.87479529158173 M447.66292128633313,357.87479529158173 L440.80640152698265,355.6290176755354 M440.80640152698265,355.6290176755354 L433.6372169793076,353.73995085208 M433.6372169793076,353.73995085208 L426.21053672785763,352.22175223291725 M426.21053672785763,352.22175223291725 L418.58336934068,351.0857758329796 M418.58336934068,351.0857758329796 L410.81415049107187,350.3405130844761 M410.81415049107187,350.3405130844761 L402.9623192477966,349.9915304141233 M402.9623192477966,349.9915304141233 L395.08791406658594,350.04143271212325 M395.08791406658594,350.04143271212325 L387.25112795833775,350.48984341865577 M387.25112795833775,350.48984341865577 L379.5118810888686,351.3334217108395 M379.5118810888686,351.3334217108395 L371.929404343939,352.56586178940046 M371.929404343939,352.56586178940046 L364.56181760733506,354.17795424713177 M364.56181760733506,354.17795424713177 L357.46570966911196,356.1576335267102 M357.46570966911196,356.1576335267102 L350.69571816531453,358.4900560002642 M350.69571816531453,358.4900560002642 L344.3041424824283,361.15769522497834 M344.3041424824283,361.15769522497834 L338.34056316384186,364.14046965566683 M338.34056316384186,364.14046965566683 L332.85143367291295,367.4158512511216 M332.85143367291295,367.4158512511216 L327.87977485113225,370.9590460048187 M327.87977485113225,370.9590460048187 L323.4647869218956,374.7431331292448 M323.4647869218956,374.7431331292448 L319.6415686721873,378.73927551994217 M319.6415686721873,378.73927551994217 L316.44081938750844,382.916903287662 M316.44081938750844,382.916903287662 L313.88855641891803,387.2439408827066 M313.88855641891803,387.2439408827066 L312.0059077036142,391.6870344019979 M312.0059077036142,391.6870344019979 L310.8088987738733,396.21179894995964 M310.8088987738733,396.21179894995964 L310.3082882654939,400.78307319308334 M310.3082882654939,400.78307319308334 L310.5094353509514,405.3651865074251 M310.5094353509514,405.3651865074251 L311.41222758798784,409.9222293176955 M311.41222758798784,409.9222293176955 L313.01101495069247,414.4183562353703 M313.01101495069247,414.4183562353703 L315.29464267377875,418.81803657806637 M315.29464267377875,418.81803657806637 L318.24645225547596,423.0863753189281 M318.24645225547596,423.0863753189281 L321.8444091184667,427.18938644200756 M321.8444091184667,427.18938644200756 L326.0612257190601,431.09427059571124 M326.0612257190601,431.09427059571124 L330.8645445005889,434.76970487268176 M330.8645445005889,434.76970487268176 L336.21717754624797,438.18610726663644 M319.3881343441385,436.08105678333135 L314.30777799087355,433.1114956524073 M314.30777799087355,433.1114956524073 L157.55419050882125,523.3717226465085 M157.55419050882125,523.3717226465085 L162.6325734907882,526.4227773868483 M162.6325734907882,526.4227773868483 L319.3881343441385,436.08105678333135 M336.145822229061,423.4787741304259 L330.7872418003607,420.06613996945293 M330.7872418003607,420.06613996945293 L325.97859886064265,416.3947640263012 M325.97859886064265,416.3947640263012 L321.7571220714644,412.4941965487965 M321.7571220714644,412.4941965487965 L318.15520399804126,408.3957266601519 M318.15520399804126,408.3957266601519 L315.2001612227629,404.1321181614576 M315.2001612227629,404.1321181614576 L312.91405123178805,399.73732004335506 M312.91405123178805,399.73732004335506 L311.3135492209644,395.2461891158633 M311.3135492209644,395.2461891158633 L310.4098203516842,390.69421693728776 M310.4098203516842,390.69421693728776 L310.20851881157745,386.1172092084964 M310.20851881157745,386.1172092084964 L310.709755000187,381.55103552567135 M310.709755000187,381.55103552567135 L311.90816163948017,377.03132657977926 M311.90816163948017,377.03132657977926 L313.7929660719977,372.59320412542246 M313.7929660719977,372.59320412542246 L316.3481230383567,368.2710141442751 M316.3481230383567,368.2710141442751 L319.5524794096728,364.09807259347053 M319.5524794096728,364.09807259347053 L323.379987466472,360.1064183450845 M323.379987466472,360.1064183450845 L327.7999126514519,356.3265861616233 M327.7999126514519,356.3265861616233 L332.7771163495628,352.78737985782254 M332.7771163495628,352.78737985782254 L338.2723543067545,349.5156890083816 M338.2723543067545,349.5156890083816 L344.24255777250943,346.5362787558382 M344.24255777250943,346.5362787558382 L350.64122192712085,343.8716508184869 M350.64122192712085,343.8716508184869 L357.4187117529455,341.541863198063 M357.4187117529455,341.541863198063 L364.5226707031676,339.56442172912455 M364.5226707031676,339.56442172912455 L371.8984016870176,337.95415254124475 M371.8984016870176,337.95415254124475 L379.48925455514234,336.72310693811096 M379.48925455514234,336.72310693811096 L387.237046578424,335.88048342902493 M387.237046578424,335.88048342902493 L395.08248295202213,335.432580342631 M395.08248295202213,335.432580342631 L402.965578926791,335.38273454036215 M402.965578926791,335.38273454036215 L410.8260766448902,335.73132213565674 M410.8260766448902,335.73132213565674 L418.60387295168334,336.4757413272029 M418.60387295168334,336.4757413272029 L426.23946465908324,337.61043228468463 M426.23946465908324,337.61043228468463 L433.67435294304596,339.12691362741754 M433.67435294304596,339.12691362741754 L440.851467468393,341.01384475994627 M440.851467468393,341.01384475994627 L447.7155791753474,343.25708496946953 M447.7155791753474,343.25708496946953 L454.2137164849144,345.83978495350874 M454.2137164849144,345.83978495350874 L460.29552578034617,348.74251555470937 M460.29552578034617,348.74251555470937 L465.9136813032173,351.9433732461463 M465.9136813032173,351.9433732461463 L471.02423020753935,355.4181404521952 M471.02423020753935,355.4181404521952 L475.5869316976784,359.14044729974347 M475.5869316976784,359.14044729974347 L479.56560305347693,363.08194299450855 M479.56560305347693,363.08194299450855 L482.92837744613047,367.2125117758012 M482.92837744613047,367.2125117758012 L485.648007327311,371.50046801895036 M485.648007327311,371.50046801895036 L487.70210595463385,375.91279160652056 M487.70210595463385,375.91279160652056 L489.07333237880033,380.41536965051057 M489.07333237880033,380.41536965051057 L489.7495802792554,384.9732529014263 M489.7495802792554,384.9732529014263 L489.7241169218933,389.55090859831574 M489.7241169218933,389.55090859831574 L488.9956867048196,394.112504314961 M488.9956867048196,394.112504314961 L487.56854061417636,398.6221882475488 M487.56854061417636,398.6221882475488 L485.4524867427666,403.0443687054895 M485.4524867427666,403.0443687054895 L482.662819470248,407.3440010458617 M482.662819470248,407.3440010458617 L479.220260038258,411.4868768541261 M479.220260038258,411.4868768541261 L475.1508292177933,415.439914884357 M475.1508292177933,415.439914884357 L470.4856751740595,419.1714330318659 M470.4856751740595,419.1714330318659 L465.2608298841995,422.65141521722524 M465.2608298841995,422.65141521722524 L459.5169857889627,425.8517920367944 M459.5169857889627,425.8517920367944 L453.2991323315128,428.7466569080257 M453.2991323315128,428.7466569080257 L446.6562546437142,431.3125255658704 M446.6562546437142,431.3125255658704 L439.64089656850507,433.52852594495437 M439.64089656850507,433.52852594495437 L432.30876394354254,435.3765910711682 M432.30876394354254,435.3765910711682 L424.7182460918042,436.8416345382379 M424.7182460918042,436.8416345382379 L416.92993442642626,437.9116735777444 M416.92993442642626,437.9116735777444 L409.00610623138255,438.5779466467858 M409.00610623138255,438.5779466467858 L401.01019879581185,438.8349940393436 M401.01019879581185,438.8349940393436 L393.0062671832912,438.68071160613965 M393.0062671832912,438.68071160613965 L385.0584446448842,438.1163616492396 M385.0584446448842,438.1163616492396 L377.23035637993496,437.1465734687297 M377.23035637993496,437.1465734687297 L369.5846376527869,435.77928119167757 M369.5846376527869,435.77928119167757 L362.1823431641008,434.0256757079634 M362.1823431641008,434.0256757079634 L355.08245485390506,431.90008049482833 M355.08245485390506,431.90008049482833 L348.34139794109427,429.4198292332893 M348.34139794109427,429.4198292332893 L342.01255208240275,426.60510918380425 M342.01255208240275,426.60510918380425 L336.145822229061,423.4787741304259 M336.21717754624797,438.18610726663644 L336.145822229061,423.4787741304259 M319.4242587741899,441.9735003250612 L314.3461616223238,439.0026300988909 M314.3461616223238,439.0026300988909 L314.30777799087355,433.1114956524073 M319.4242587741899,441.9735003250612 L319.3881343441385,436.08105678333135 M162.74038602973252,532.354476786713 L319.4242587741899,441.9735003250612 M162.74038602973252,532.354476786713 L162.6325734907882,526.4227773868483 M157.664259577305,529.3021142971236 L162.74038602973252,532.354476786713 M157.664259577305,529.3021142971236 L157.55419050882125,523.3717226465085 M314.3461616223238,439.0026300988909 L157.664259577305,529.3021142971236" stroke="black"  stroke-width="4"  fill="red"/>
<path d="M462.46818758573,365.29505263487937 L462.5788146631185,341.87777803982056 M462.5788146631185,341.87777803982056 L467.97053780496566,345.23260224191307 M467.97053780496566,345.23260224191307 L472.8232444523659,348.85265661602773 M472.8232444523659,348.85265661602773 L477.09749136953764,352.7096192359048 M477.09749136953764,352.7096192359048 L480.7582388417141,356.7732056571617 M480.7582388417141,356.7732056571617 L483.7751466303493,361.01140796063754 M483.7751466303493,361.01140796063754 L486.122870543806,365.3906933486098 M486.122870543806,365.3906933486098 L487.78127853380624,369.87628829100356 M487.78127853380624,369.87628829100356 L488.73565170856136,374.4324274811862 M488.73565170856136,374.4324274811862 L488.97685141913337,379.02263550269737 M488.97685141913337,379.02263550269737 L488.50144400777987,383.60999653165334 M488.50144400777987,383.60999653165334 L487.3117701078588,388.1574835525112 M487.3117701078588,388.1574835525112 L485.41597660860964,392.62822304181526 M485.41597660860964,392.62822304181526 L482.8279891659324,396.98582483481 M482.8279891659324,396.98582483481 L479.567455850499,401.1946707280518 M479.567455850499,401.1946707280518 L475.65961967071905,405.2202298569821 M475.65961967071905,405.2202298569821 L471.13515897347634,409.0293539650425 M471.13515897347634,409.0293539650425 L466.02994726925164,412.59056198089274 M466.02994726925164,412.59056198089274 L460.38480205459877,415.8743284171279 M460.38480205459877,415.8743284171279 L454.2451593624669,418.8533428190682 M454.2451593624669,418.8533428190682 L447.6607054214339,421.5027601804367 M447.6607054214339,421.5027601804367 L440.6849792633493,423.80043302775107 M440.6849792633493,423.80043302775107 L433.37490985685434,425.72710556604943 M433.37490985685434,425.72710556604943 L425.790343594557,427.2666047595485 M425.790343594557,427.2666047595485 L417.9935360594573,428.4059862782124 M417.9935360594573,428.4059862782124 L410.0485915837916,429.1356617439215 M410.0485915837916,429.1356617439215 L402.02093277012057,429.44948242017915 M402.02093277012057,429.44948242017915 L393.97668224636345,429.34480280919746 M393.97668224636345,429.34480280919746 L385.9821443195398,428.8225039349797 M385.9821443195398,428.8225039349797 L378.1031614746041,427.88698888341327 M378.1031614746041,427.88698888341327 L370.4045653463069,426.54613790702547 M370.4045653463069,426.54613790702547 L362.94959968941725,424.81123047019554 M362.94959968941725,424.81123047019554 L355.79939668563463,422.69683828343244 M355.79939668563463,422.69683828343244 L349.0123898536106,420.2207006208454 M349.0123898536106,420.2207006208454 L342.64387958890774,417.4035428524383 M342.64387958890774,417.4035428524383 L336.74553194367627,414.2688869708653 M336.74553194367627,414.2688869708653 L331.3649543585597,410.84284176225924 M331.3649543585597,410.84284176225924 L326.5453184661117,407.1538561999495 M326.5453184661117,407.1538561999495 L322.32500421716475,403.2324676256213 M322.32500421716475,403.2324676256213 L318.73731754706813,399.1110310914123 M318.73731754706813,399.1110310914123 L315.81025067346314,394.82341352379706 M315.81025067346314,394.82341352379706 L313.5662599479043,390.40473588776035 M313.5662599479043,390.40473588776035 L312.02214356258173,385.89103758039215 M312.02214356258173,385.89103758039215 L311.1889472646575,381.3189870189684 M311.1889472646575,381.3189870189684 L311.0719154020366,376.72557093898223 M311.0719154020366,376.72557093898223 L311.67049085309037,372.1478082526804 M311.67049085309037,372.1478082526804 L312.9783748822574,367.6224175436458 M312.9783748822574,367.6224175436458 L314.98362138150696,363.18556224524275 M314.98362138150696,363.18556224524275 L317.6687870673203,358.87254365880904 M317.6687870673203,358.87254365880904 L321.0111004725626,354.7175472142661 M321.0111004725626,354.7175472142661 L324.98269007323853,350.7533732195647 M324.98269007323853,350.7533732195647 L329.55082836205133,347.0111971807973 M329.55082836205133,347.0111971807973 L334.67823761591615,343.52034849431396 M334.67823761591615,343.52034849431396 L340.32338658887153,340.30809133577975 M340.32338658887153,340.30809133577975 L346.4408387686701,337.3994377759593 M346.4408387686701,337.3994377759593 L352.9816207786714,334.8169712748606 M352.9816207786714,334.8169712748606 L359.8935970777447,332.58068740521776 M359.8935970777447,332.58068740521776 L367.1218874034091,330.70786859994 M367.1218874034091,330.70786859994 L374.6092737499672,329.21295681142146 M374.6092737499672,329.21295681142146 L382.29662414419175,328.10746307033895 M382.29662414419175,328.10746307033895 L390.1233524095504,327.399886476749 M390.1233524095504,327.399886476749 L398.0278359377993,327.09566532548735 M398.0278359377993,327.09566532548735 L405.9479111272552,327.19713650859353 M405.9479111272552,327.19713650859353 L413.8212654050233,327.70352210128556 M413.8212654050233,327.70352210128556 L421.5859514508394,328.61093062570353 M421.5859514508394,328.61093062570353 L429.1808114370245,329.91238539796 M429.1808114370245,329.91238539796 L436.54593584164843,331.5978733333706 M436.54593584164843,331.5978733333706 L443.62308036611375,333.65441119497126 M443.62308036611375,333.65441119497126 L450.356159216439,336.06611953755436 M450.356159216439,336.06611953755436 L456.6916051788081,338.81434394603406 M456.6916051788081,338.81434394603406 L462.5788146631185,341.87777803982056 M462.46818758573,365.29505263487937 L456.59143391278025,362.226071163433 M456.59143391278025,362.226071163433 L450.2672214942973,359.4728658401755 M450.2672214942973,359.4728658401755 L443.5460649322674,357.05678311466306 M443.5460649322674,357.05678311466306 L436.48143775479315,354.99651259086636 M436.48143775479315,354.99651259086636 L429.12932811323094,353.30796374716965 M429.12932811323094,353.30796374716965 L421.54787928185704,352.00414443107104 M421.54787928185704,352.00414443107104 L413.79689717308287,351.09508674102483 M413.79689717308287,351.09508674102483 L405.937434070569,350.5877806259631 M405.937434070569,350.5877806259631 L398.0313305322744,350.48612496888387 M398.0313305322744,350.48612496888387 L390.1407918002043,350.79089917556274 M390.1407918002043,350.79089917556274 L382.327874382628,351.49976190595265 M382.327874382628,351.49976190595265 L374.65409462314136,352.6072645202561 M374.65409462314136,352.6072645202561 L367.1799340401003,354.1048917679481 M367.1799340401003,354.1048917679481 L359.9644222026145,355.9811107783327 M359.9644222026145,355.9811107783327 L353.06467769790294,358.2214522524456 M353.06467769790294,358.2214522524456 L346.5354850360019,360.8086011119719 M346.5354850360019,360.8086011119719 L340.42888833721247,363.7225241208737 M340.42888833721247,363.7225241208737 L334.79377458925103,366.9405954198391 M334.79377458925103,366.9405954198391 L329.6754995901637,370.43775614945906 M329.6754995901637,370.43775614945906 L325.1155201968277,374.1866913351769 M325.1155201968277,374.1866913351769 L321.1510467020318,378.1580171687839 M321.1510467020318,378.1580171687839 L317.8147467030251,382.3205005723608 M317.8147467030251,382.3205005723608 L315.1344399291859,386.64128095874935 M315.1344399291859,386.64128095874935 L313.13285467096097,391.0861103910959 M313.13285467096097,391.0861103910959 L311.82740014231194,395.61962335851945 M311.82740014231194,395.61962335851945 L311.2299978846706,400.2055910036162 M311.2299978846706,400.2055910036162 L311.3469319427453,404.807228677646 M311.3469319427453,404.807228677646 L312.1787549011487,409.387451230837 M312.1787549011487,409.387451230837 L313.7202282501542,413.90920611402447 M313.7202282501542,413.90920611402447 L315.9603225685872,418.33576002142445 M315.9603225685872,418.33576002142445 L318.8822664995717,422.63101012621917 M318.8822664995717,422.63101012621917 L322.46364096835157,426.7597739771192 M322.46364096835157,426.7597739771192 L326.676501347469,430.68812566144743 M326.676501347469,430.68812566144743 L331.48759928285756,434.3836540504842 M331.48759928285756,434.3836540504842 L336.8586220265416,437.8157691232691 M336.8586220265416,437.8157691232691 L342.7464743051577,440.95597304427463 M342.7464743051577,440.95597304427463 L349.10363357637806,443.77811236535666 M349.10363357637806,443.77811236535666 L355.8785265491108,446.25862500476734 M355.8785265491108,446.25862500476734 L363.01595266958185,448.37675038510105 M363.01595266958185,448.37675038510105 L370.4575844015376,450.1147191826867 M370.4575844015376,450.1147191826867 L378.14240084688805,451.45793506267023 M378.14240084688805,451.45793506267023 L386.00727370592017,452.3950995360118 M386.00727370592017,452.3950995360118 L393.9874899402832,452.9183190774344 M393.9874899402832,452.9183190774344 L402.01732766643914,453.023183191574 M402.01732766643914,453.023183191574 L410.03060409059367,452.70880937256175 M410.03060409059367,452.70880937256175 L417.96131774432763,451.97784756880606 M417.96131774432763,451.97784756880606 L425.7441657905907,450.8364568678039 M425.7441657905907,450.8364568678039 L433.31516105451476,449.2942418074684 M433.31516105451476,449.2942418074684 L440.6121614542261,447.3641685702443 M440.6121614542261,447.3641685702443 L447.57542935271874,445.06243755363306 M447.57542935271874,445.06243755363306 L454.14813881102555,442.40833721551314 M454.14813881102555,442.40833721551314 L460.276847202753,439.4240527120623 M460.276847202753,439.4240527120623 L465.9119572190673,436.1344714695747 M465.9119572190673,436.1344714695747 L471.0081135378209,432.5669507527747 M471.0081135378209,432.5669507527747 L475.5245705143597,428.7510668693583 M475.5245705143597,428.7510668693583 L479.425517078752,424.71835532320296 M479.425517078752,424.71835532320296 L482.68032751371084,420.50202196192504 M482.68032751371084,420.50202196192504 L485.26380126740764,416.13665794637404 M485.26380126740764,416.13665794637404 L487.15632235036196,411.6579440012215 M487.15632235036196,411.6579440012215 L488.3439866807852,407.10233451172206 M488.3439866807852,407.10233451172206 L488.8186584406746,402.50676843255786 M488.8186584406746,402.50676843255786 L488.57799762799243,397.90833884756165 M488.57799762799243,397.90833884756165 L487.62542826193334,393.3440278170946 M487.62542826193334,393.3440278170946 L485.97006932027085,388.8503765661028 M485.97006932027085,388.8503765661028 L483.62661032112334,384.4632152806102 M483.62661032112334,384.4632152806102 L480.6151446345888,380.2173809077323 M480.6151446345888,380.2173809077323 L476.96096891652377,376.1464677157303 M476.96096891652377,376.1464677157303 L472.6943674734159,372.282542591727 M472.6943674734159,372.282542591727 L467.85031627843597,368.6559460366417 M467.85031627843597,368.6559460366417 L462.46818758573,365.29505263487937 M338.78252554484754,436.70500290908 L344.5780056264558,439.79089143655926 M344.5780056264558,439.79089143655926 L350.84079210610713,442.5590309432746 M350.84079210610713,442.5590309432746 L357.51860568624693,444.98565724233913 M357.51860568624693,444.98565724233913 L364.5554645898694,447.04989229868545 M364.5554645898694,447.04989229868545 L371.89218661807575,448.7339405034579 M371.89218661807575,448.7339405034579 L379.46689916893945,450.0232519939779 M379.46689916893945,450.0232519939779 L387.2155844469004,450.9066856464285 M387.2155844469004,450.9066856464285 L395.07266529987555,451.37658968434107 M395.07266529987555,451.37658968434107 L402.97157947650504,451.4288948686952 M402.97157947650504,451.4288948686952 L410.84538195187145,451.06315030676785 M410.84538195187145,451.06315030676785 L418.6273608108178,450.2825200293788 M418.6273608108178,450.2825200293788 L426.25164257879885,449.09377009289005 M426.25164257879885,449.09377009289005 L433.6537578176197,447.50717409580096 M433.6537578176197,447.50717409580096 L440.77124438710763,445.53644177825186 M440.77124438710763,445.53644177825186 L447.544199613568,443.1985714042026 M447.544199613568,443.1985714042026 L453.91579576318316,440.513691295268 M453.91579576318316,440.513691295268 L459.8327862679032,437.50486337242353 M459.8327862679032,437.50486337242353 L465.24594698458804,434.1978647261241 M465.24594698458804,434.1978647261241 L470.1105152678122,430.62095688228476 M470.1105152678122,430.62095688228476 L474.38652771730705,426.804605229558 M474.38652771730705,426.804605229558 L478.03915652418823,422.78121093328843 M478.03915652418823,422.78121093328843 L481.0389813465171,418.5848141848721 M481.0389813465171,418.5848141848721 L483.3621723982128,414.25078476824916 M483.3621723982128,414.25078476824916 L484.9907076305989,409.815520582228 M484.9907076305989,409.815520582228 L485.9124342971743,405.3161137308044 M485.9124342971743,405.3161137308044 L486.1211328378612,400.79004657397803 M486.1211328378612,400.79004657397803 L485.6165430903714,396.2748690749222 M485.6165430903714,396.2748690749222 L484.4042972003217,391.8078857387646 M484.4042972003217,391.8078857387646 L482.4958244038723,387.42585767663087 M482.4958244038723,387.42585767663087 L479.9082365187567,383.16469033984595 M479.9082365187567,383.16469033984595 L476.6641051468438,379.0591705607936 M476.6641051468438,379.0591705607936 L472.7912655940521,375.1426875109203 M472.7912655940521,375.1426875109203 L468.3225540143574,371.446965439855 M468.3225540143574,371.446965439855 L463.29549613165983,368.00184446071347 M463.29549613165983,368.00184446071347 L457.7519947759085,364.8350466313219 M457.7519947759085,364.8350466313219 L451.73796921613155,361.9719761546227 M451.73796921613155,361.9719761546227 L445.3029777033804,359.4355372678031 M445.3029777033804,359.4355372678031 L438.49982131653076,357.2459676457645 M438.49982131653076,357.2459676457645 L431.38410235856355,355.42070412693045 M431.38410235856355,355.42070412693045 L424.01382288243946,353.97425211661937 M424.01382288243946,353.97425211661937 L416.44891548282845,352.9180846134308 M416.44891548282845,352.9180846134308 L408.7507695838322,352.2605794545885 M408.7507695838322,352.2605794545885 L400.98180070126995,352.00693972364166 M400.98180070126995,352.00693972364166 L393.20494945526553,352.1591732296587 M393.20494945526553,352.1591732296587 L385.483218753491,352.7160784109475 M385.483218753491,352.7160784109475 L377.8791968508143,353.6732406761936 M377.8791968508143,353.6732406761936 L370.4545738522852,355.02307504124485 M370.4545738522852,355.02307504124485 L363.2696977821259,356.7548823172264 M363.2696977821259,356.7548823172264 L356.3830845488689,358.8548958623303 M356.3830845488689,358.8548958623303 L349.85098542815217,361.30640772013527 M349.85098542815217,361.30640772013527 L343.7269405808437,364.08986661827214 M343.7269405808437,364.08986661827214 L338.06135076341917,367.1830176368729 M338.06135076341917,367.1830176368729 L332.90109166449633,370.5610701687882 M332.90109166449633,370.5610701687882 L328.2890984795162,374.196859327394 M328.2890984795162,374.196859327394 L324.2640241124954,378.061058289665 M324.2640241124954,378.061058289665 L320.85990554176277,382.1223867350699 M320.85990554176277,382.1223867350699 L318.10585293220265,386.34785249108 M318.10585293220265,386.34785249108 L316.02578804347394,390.70299625493067 M316.02578804347394,390.70299625493067 L314.6381849655113,395.15215679599515 M314.6381849655113,395.15215679599515 L313.9559244377025,399.65876659564526 M313.9559244377025,399.65876659564526 L313.98609379023094,404.18562911622564 M313.98609379023094,404.18562911622564 L314.72991144023587,408.6952234016694 M314.72991144023587,408.6952234016694 L316.1826549122604,413.15002103272445 M316.1826549122604,413.15002103272445 L318.33364539349435,417.51280290778044 M318.33364539349435,417.51280290778044 L321.16632259754874,421.7469686084348 M321.16632259754874,421.7469686084348 L324.65829281003136,425.8168618109114 M324.65829281003136,425.8168618109114 L328.78151606453076,429.6880824102994 M328.78151606453076,429.6880824102994 L333.50249519369896,433.32778836912615 M333.50249519369896,433.32778836912615 L338.78252554484754,436.70500290908 M338.6728992143792,413.16008450598275 L333.38347569951145,409.7888447091252 M333.38347569951145,409.7888447091252 L328.65411808298785,406.1555847629107 M328.65411808298785,406.1555847629107 L324.5235989265608,402.2912280354477 M324.5235989265608,402.2912280354477 L321.0254734341779,398.2285596770282 M321.0254734341779,398.2285596770282 L318.187829349202,394.00191991736347 M318.187829349202,394.00191991736347 L316.0330976416868,389.6469027039588 M316.0330976416868,389.6469027039588 L314.5778650890031,385.20004409211214 M314.5778650890031,385.20004409211214 L313.8328262470586,380.6984973818157 M313.8328262470586,380.6984973818157 L313.80270856313246,376.17972428329597 M313.80270856313246,376.17972428329597 L314.4862879629459,371.68117869240547 M314.4862879629459,371.68117869240547 L315.87646107388827,367.23999030410255 M315.87646107388827,367.23999030410255 L317.96032097557867,362.89266057041766 M317.96032097557867,362.89266057041766 L320.71935771965576,358.6747859523374 M320.71935771965576,358.6747859523374 L324.1296043656959,354.6207628441221 M324.1296043656959,354.6207628441221 L328.16189678936485,350.76352288969565 M328.16189678936485,350.76352288969565 L332.78213580642915,347.1342887504158 M332.78213580642915,347.1342887504158 L337.95159866319153,343.7623329494968 M337.95159866319153,343.7623329494968 L343.62727329480015,340.67476986728656 M343.62727329480015,340.67476986728656 L349.7622007430412,337.8963438415803 M349.7622007430412,337.8963438415803 L356.30589131155654,335.4492681113882 M356.30589131155654,335.4492681113882 L363.2047108878327,333.3530572183349 M363.2047108878327,333.3530572183349 L370.4023099486201,331.62438764508755 M370.4023099486201,331.62438764508755 L377.8400707731356,330.27700004275954 M377.8400707731356,330.27700004275954 L385.45754065288577,329.3215733628173 M385.45754065288577,329.3215733628173 L393.19292270838514,328.7656782235141 M393.19292270838514,328.7656782235141 L400.9835205116441,328.61372084788565 M400.9835205116441,328.61372084788565 L408.76622233842227,328.86690051860336 M408.76622233842227,328.86690051860336 L416.47797884928025,329.52321323413497 M416.47797884928025,329.52321323413497 L424.05626662255685,330.5774657729093 M424.05626662255685,330.5774657729093 L431.43958992907193,332.02129616005806 M431.43958992907193,332.02129616005806 L438.5679121400545,333.84325308877493 M438.5679121400545,333.84325308877493 L445.3831301952874,336.028858525625 M445.3831301952874,336.028858525625 L451.82954457200583,338.56070845767334 M451.82954457200583,338.56070845767334 L457.8542614149416,341.41860320251897 M457.8542614149416,341.41860320251897 L463.4076348836669,344.57968138432955 M463.4076348836669,344.57968138432955 L468.4436639884918,348.01858617057553 M468.4436639884918,348.01858617057553 L472.92037071528824,351.7076469937941 M472.92037071528824,351.7076469937941 L476.80016135001665,355.6170789307829 M476.80016135001665,355.6170789307829 L480.0501395342774,359.7152161421358 M480.0501395342774,359.7152161421358 L482.64241815074774,363.9687306386974 M482.64241815074774,363.9687306386974 L484.55438271812005,368.34289901407635 M484.55438271812005,368.34289901407635 L485.7688879062608,372.80188094528086 M485.7688879062608,372.80188094528086 L486.2744808278291,377.3089816487545 M486.2744808278291,377.3089816487545 L486.0655158590073,381.82696356530886 M486.0655158590073,381.82696356530886 L485.14225013954206,386.3183437524343 M485.14225013954206,386.3183437524343 L483.5109108977302,390.74570638678847 M483.5109108977302,390.74570638678847 L481.1836693064697,395.0720248533383 M481.1836693064697,395.0720248533383 L478.17857659336556,399.26096517598046 M478.17857659336556,399.26096517598046 L474.51950246629536,403.27721936649823 M474.51950246629536,403.27721936649823 L470.2359176312488,407.0868064093328 M470.2359176312488,407.0868064093328 L465.362710448498,410.6573811967119 M465.362710448498,410.6573811967119 L459.93991462536695,413.95853081043356 M459.93991462536695,413.95853081043356 L454.01237230268214,416.96204219478466 M454.01237230268214,416.96204219478466 L447.6293957167326,419.6421822969124 M447.6293957167326,419.6421822969124 L440.84432733207444,421.97592845718515 M440.84432733207444,421.97592845718515 L433.714097762655,423.9431865153316 M433.714097762655,423.9431865153316 L426.29871858918943,425.52698697976723 M426.29871858918943,425.52698697976723 L418.6607658935188,426.71364326564634 M418.6607658935188,426.71364326564634 L410.86482701587215,427.49289909566573 M410.86482701587215,427.49289909566573 L402.976896113721,427.85799980812754 M402.976896113721,427.85799980812754 L395.0638074447336,427.80578669636037 M395.0638074447336,427.80578669636037 L387.1926288373667,427.3367098946423 M387.1926288373667,427.3367098946423 L379.4300445885456,426.4548317934055 M379.4300445885456,426.4548317934055 L371.84175194584765,425.1677912798071 M371.84175194584765,425.1677912798071 L364.4918857154619,423.48671068651936 M364.4918857154619,423.48671068651936 L357.4424312798341,421.42611528933537 M357.4424312798341,421.42611528933537 L350.7526783303753,419.003770556422 M350.7526783303753,419.003770556422 L344.4787098706303,416.24051906332085 M344.4787098706303,416.24051906332085 L338.6728992143792,413.16008450598275 M338.78252554484754,436.70500290908 L338.6728992143792,413.16008450598275" stroke="black"  stroke-width="4"  fill="red"/>
<path d="M340.3070811849979,426.9532316285512 L347.51109383287064,429.6349145803783 M347.51109383287064,429.6349145803783 L355.07983852250163,431.9643942205554 M355.07983852250163,431.9643942205554 L362.96105630422943,433.9251006304764 M362.96105630422943,433.9251006304764 L371.1001548667498,435.50305918427466 M371.1001548667498,435.50305918427466 L379.4406314881801,436.68700159194185 M379.4406314881801,436.68700159194185 L387.92445600430557,437.46846886530125 M387.92445600430557,437.46846886530125 L396.49253737657494,437.84187013913896 M396.49253737657494,437.84187013913896 L405.0851328642445,437.8045295389201 M405.0851328642445,437.8045295389201 L413.64233288780025,437.35671939077946 M413.64233288780025,437.35671939077946 L422.10448539538316,436.50164127659343 M422.10448539538316,436.50164127659343 L430.41265106111507,435.24540892083866 M430.41265106111507,435.24540892083866 L438.5090584315186,433.5970075037266 M438.5090584315186,433.5970075037266 L446.33750343776035,431.5681928484433 M446.33750343776035,431.5681928484433 L453.8438048524477,429.1734302762481 M453.8438048524477,429.1734302762481 L460.97616091518086,426.4297410995602 M460.97616091518086,426.4297410995602 L467.685559781152,423.35660137727604 M467.685559781152,423.35660137727604 L473.9260997921941,419.9757551045893 M473.9260997921941,419.9757551045893 L479.65533166485346,416.31106492532774 M479.65533166485346,416.31106492532774 L484.8345283856942,412.38830802049716 M484.8345283856942,412.38830802049716 L489.42895797005605,408.23498806336613 M489.42895797005605,408.23498806336613 L493.408111252961,403.88012386843695 M493.408111252961,403.88012386843695 L496.74587088783534,399.35401836330266 M496.74587088783534,399.35401836330266 L499.420678393406,394.688049738157 M499.420678393406,394.688049738157 L501.41563158040196,389.9144233817931 M501.41563158040196,389.9144233817931 L502.7186007905566,385.06595335541977 M502.7186007905566,385.06595335541977 L503.32223331392646,380.17582612476775 M503.32223331392646,380.17582612476775 L503.2239836330893,375.277358237629 M503.2239836330893,375.277358237629 L502.4260839345917,370.4037760787002 M502.4260839345917,370.4037760787002 L500.93548286674053,365.5879995213286 M500.93548286674053,365.5879995213286 L498.7637656779524,360.8624002855009 M498.7637656779524,360.8624002855009 L495.92701972473526,356.2586154721637 M495.92701972473526,356.2586154721637 L492.44571550774316,351.80732829847176 M492.44571550774316,351.80732829847176 L488.34451364621845,347.53808506832917 M488.34451364621845,347.53808506832917 L483.65206846999,343.4791103026103 M483.65206846999,343.4791103026103 L478.4008424441644,339.6571270701573 M478.4008424441644,339.6571270701573 L472.6268252849089,336.09721970308783 M472.6268252849089,336.09721970308783 L466.36932608779733,332.82265810409683 M466.36932608779733,332.82265810409683 L459.670661638862,329.8547903983652 M459.670661638862,329.8547903983652 L452.57592042622855,327.2128969994788 M452.57592042622855,327.2128969994788 L445.1326178279429,324.9141085095503 M445.1326178279429,324.9141085095503 L437.3904288579269,322.9732849225526 M437.3904288579269,322.9732849225526 L429.4008591052371,321.40295159200684 M429.4008591052371,321.40295159200684 L421.2169186949821,320.2132301515833 M421.2169186949821,320.2132301515833 L412.89281165018303,319.41177141960674 M412.89281165018303,319.41177141960674 L404.483574782267,319.00372953809483 M404.483574782267,319.00372953809483 L396.04478480181695,318.9917248906885 M396.04478480181695,318.9917248906885 L387.6321810962616,319.37583529123543 M387.6321810962616,319.37583529123543 L379.30134208948226,320.15359338853335 M379.30134208948226,320.15359338853335 L371.1073633676528,321.31999713173275 M371.1073633676528,321.31999713173275 L363.104504875221,322.86754849781323 M363.104504875221,322.86754849781323 L355.34585410516905,324.7862713834902 M355.34585410516905,324.7862713834902 L347.88302295823746,327.0637857846019 M347.88302295823746,327.0637857846019 L340.76579571453084,329.6853647186458 M340.76579571453084,329.6853647186458 L334.0418434921777,332.6340231463245 M334.0418434921777,332.6340231463245 L327.7563984265788,335.89060134417343 M327.7563984265788,335.89060134417343 L321.95195690858776,339.4338747525426 M321.95195690858776,339.4338747525426 L316.6680160779325,343.2406830403947 M316.6680160779325,343.2406830403947 L311.94077505526224,347.2860522949566 M311.94077505526224,347.2860522949566 L307.80291970930523,351.5433532137646 M307.80291970930523,351.5433532137646 L304.28333296774815,355.98444353061717 M304.28333296774815,355.98444353061717 L301.4069385241189,360.57985860845884 M301.4069385241189,360.57985860845884 L299.19444359845284,365.2989704736715 M299.19444359845284,365.2989704736715 L297.66222556538355,370.11020249735225 M297.66222556538355,370.11020249735225 L296.82213884605056,374.9812136758128 M296.82213884605056,374.9812136758128 L296.68141155183093,379.87911676951757 M296.68141155183093,379.87911676951757 L297.24257092006485,384.7707001728728 M297.24257092006485,384.7707001728728 L298.50335554696596,389.6226369074499 M298.50335554696596,389.6226369074499 L300.45670721026755,394.4017338943845 M300.45670721026755,394.4017338943845 L303.0907795762294,399.0751446111693 M303.0907795762294,399.0751446111693 L306.38896156466075,403.61062184222175 M306.38896156466075,403.61062184222175 L310.3299739195987,407.9767303339768 M310.3299739195987,407.9767303339768 L314.88797846704944,412.1430903781354 M314.840331093986,404.7685696003564 L314.88797846704944,412.1430903781354 M314.840331093986,404.7685696003564 L310.27980684154517,400.60453436984943 M310.27980684154517,400.60453436984943 L306.33662452146064,396.2408653068389 M306.33662452146064,396.2408653068389 L303.03663600735723,391.7079255545565 M303.03663600735723,391.7079255545565 L300.4011315692766,387.0371331328017 M300.4011315692766,387.0371331328017 L298.4467305789737,382.2607174792441 M298.4467305789737,382.2607174792441 L297.18528491222276,377.4115069040546 M297.18528491222276,377.4115069040546 L296.62385560032345,372.52267597428585 M296.62385560032345,372.52267597428585 L296.7647041489704,367.62753297242807 M296.7647041489704,367.62753297242807 L297.6053007519339,362.7592707629413 M297.6053007519339,362.7592707629413 L299.1384121383023,357.9507579182896 M299.1384121383023,357.9507579182896 L301.35217620869565,353.2343169785592 M301.35217620869565,353.2343169785592 L304.2302054777501,348.64150644261366 M304.2302054777501,348.64150644261366 L307.75178031553304,344.20293660105864 M307.75178031553304,344.20293660105864 L311.8919624056621,339.9480549879227 M311.8919624056621,339.9480549879227 L316.6218521466047,335.90498744969466 M316.6218521466047,335.90498744969466 L321.9087450469419,332.10034767524405 M321.9087450469419,332.10034767524405 L327.71642158581227,328.5590948664461 M327.71642158581227,328.5590948664461 L334.0053625713169,325.30437565240914 M334.0053625713169,325.30437565240914 L340.73304807534555,322.3574019858738 M340.73304807534555,322.3574019858738 L347.85422108287526,319.7373221682452 M347.85422108287526,319.7373221682452 L355.3211844102507,317.4611110799251 M355.3211844102507,317.4611110799251 L363.08412669404015,315.5434868698941 M363.08412669404015,315.5434868698941 L371.09140807432505,313.99682209821754 M371.09140807432505,313.99682209821754 L379.28991239816435,312.83108685758674 M379.28991239816435,312.83108685758674 L387.62535050551276,312.05377464595165 M387.62535050551276,312.05377464595165 L396.0425972001904,311.669884492198 M396.0425972001904,311.669884492198 L404.4860442222858,311.6818822558271 M404.4860442222858,311.6818822558271 L412.8999222725397,312.0896901700231 M412.8999222725397,312.0896901700231 L421.2286248036083,312.89068943534545 M421.2286248036083,312.89068943534545 L429.4170854231877,314.0797290234691 M429.4170854231877,314.0797290234691 L437.4110709186607,315.6491627328936 M437.4110709186607,315.6491627328936 L445.1575425413877,317.5888750276177 M445.1575425413877,317.5888750276177 L452.6049667942757,319.88634808454526 M452.6049667942757,319.88634808454526 L459.70364163182074,322.5267308217444 M459.70364163182074,322.5267308217444 L466.4060256869554,325.49290288084745 M466.4060256869554,325.49290288084745 L472.6670056612567,328.76559534004025 M472.6670056612567,328.76559534004025 L478.4442413202753,332.3234727514458 M478.4442413202753,332.3234727514458 L483.6984016097783,336.1432789757208 M483.6984016097783,336.1432789757208 L488.3934765189067,340.19994445256015 M488.3934765189067,340.19994445256015 L492.4969850737223,344.46676177718314 M492.4969850737223,344.46676177718314 L495.9802563881053,348.91552289144505 M495.9802563881053,348.91552289144505 L498.8186153576247,353.5166986363116 M498.8186153576247,353.5166986363116 L500.99157919618347,358.23962350376314 M500.99157919618347,358.23962350376314 L502.4830505919585,363.05267855135696 M502.4830505919585,363.05267855135696 L503.2814367639521,367.9235105338628 M503.2814367639521,367.9235105338628 L503.3797840573679,372.8192182569151 M503.3797840573679,372.8192182569151 L502.77585788041415,377.706594078611 M502.77585788041415,377.706594078611 L501.4722040119912,382.55234013457437 M501.4722040119912,382.55234013457437 L499.4761781381705,387.32328846068305 M499.4761781381705,387.32328846068305 L496.7999156220515,391.98664318368054 M496.7999156220515,391.98664318368054 L493.4603271132869,396.51021666355524 M493.4603271132869,396.51021666355524 L489.4789822709691,400.8626479068618 M489.4789822709691,400.8626479068618 L484.88201230640067,405.01365050382304 M484.88201230640067,405.01365050382304 L479.6999428626226,408.9342213760116 M479.6999428626226,408.9342213760116 L473.967524936803,412.59687169107985 M473.967524936803,412.59687169107985 L467.72350697252864,415.97583811271755 M467.72350697252864,415.97583811271755 L461.01036195371034,419.0472707583178 M461.01036195371034,419.0472707583178 L453.8740173582808,421.7894372146052 M453.8740173582808,421.7894372146052 L446.36351277290254,424.1828717597558 M446.36351277290254,424.1828717597558 L438.5306794319336,426.2105620865116 M438.5306794319336,426.2105620865116 L430.4297295229054,427.8580505060539 M430.4297295229054,427.8580505060539 L422.11689934097245,429.11358738345893 M422.11689934097245,429.11358738345893 L413.64999355240707,429.9681922602141 M413.64999355240707,429.9681922602141 L405.08798543099107,430.41575462016664 M405.08798543099107,430.41575462016664 L396.49056142644434,430.45307456012927 M396.49056142644434,430.45307456012927 L387.9176656794311,430.07987989686836 M387.9176656794311,430.07987989686836 L379.4290753852153,429.29884510182694 M379.4290753852153,429.29884510182694 L371.08391562671795,428.1155581067395 M371.08391562671795,428.1155581067395 L362.9402499427526,426.5384734561231 M362.9402499427526,426.5384734561231 L355.0546134703924,424.57885351018535 M355.0546134703924,424.57885351018535 L347.481629737211,422.25066552481894 M347.481629737211,422.25066552481894 L340.27358745207266,419.5704706567659 M340.27358745207266,419.5704706567659 L340.3070811849979,426.9532316285512 M323.4074939815057,407.25275259036346 L314.88797846704944,412.1430903781354 M340.3070811849979,426.9532316285512 L348.8268230963342,422.04094118235514 M348.8268230963342,422.04094118235514 L323.4074939815057,407.25275259036346 M338.6728992143792,413.16008450598275 L344.4787098706303,416.24051906332085 M344.4787098706303,416.24051906332085 L350.7526783303753,419.003770556422 M350.7526783303753,419.003770556422 L357.4424312798341,421.42611528933537 M357.4424312798341,421.42611528933537 L364.4918857154619,423.48671068651936 M364.4918857154619,423.48671068651936 L371.84175194584765,425.1677912798071 M371.84175194584765,425.1677912798071 L379.4300445885456,426.4548317934055 M379.4300445885456,426.4548317934055 L387.1926288373667,427.3367098946423 M387.1926288373667,427.3367098946423 L395.0638074447336,427.80578669636037 M395.0638074447336,427.80578669636037 L402.976896113721,427.85799980812754 M402.976896113721,427.85799980812754 L410.86482701587215,427.49289909566573 M410.86482701587215,427.49289909566573 L418.6607658935188,426.71364326564634 M418.6607658935188,426.71364326564634 L426.29871858918943,425.52698697976723 M426.29871858918943,425.52698697976723 L433.714097762655,423.9431865153316 M433.714097762655,423.9431865153316 L440.84432733207444,421.97592845718515 M440.84432733207444,421.97592845718515 L447.6293957167326,419.6421822969124 M447.6293957167326,419.6421822969124 L454.01237230268214,416.96204219478466 M454.01237230268214,416.96204219478466 L459.93991462536695,413.95853081043356 M459.93991462536695,413.95853081043356 L465.362710448498,410.6573811967119 M465.362710448498,410.6573811967119 L470.2359176312488,407.0868064093328 M470.2359176312488,407.0868064093328 L474.51950246629536,403.27721936649823 M474.51950246629536,403.27721936649823 L478.17857659336556,399.26096517598046 M478.17857659336556,399.26096517598046 L481.1836693064697,395.0720248533383 M481.1836693064697,395.0720248533383 L483.5109108977302,390.74570638678847 M483.5109108977302,390.74570638678847 L485.14225013954206,386.3183437524343 M485.14225013954206,386.3183437524343 L486.0655158590073,381.82696356530886 M486.0655158590073,381.82696356530886 L486.2744808278291,377.3089816487545 M486.2744808278291,377.3089816487545 L485.7688879062608,372.80188094528086 M485.7688879062608,372.80188094528086 L484.55438271812005,368.34289901407635 M484.55438271812005,368.34289901407635 L482.64241815074774,363.9687306386974 M482.64241815074774,363.9687306386974 L480.0501395342774,359.7152161421358 M480.0501395342774,359.7152161421358 L476.80016135001665,355.6170789307829 M476.80016135001665,355.6170789307829 L472.92037071528824,351.7076469937941 M472.92037071528824,351.7076469937941 L468.4436639884918,348.01858617057553 M468.4436639884918,348.01858617057553 L463.4076348836669,344.57968138432955 M463.4076348836669,344.57968138432955 L457.8542614149416,341.41860320251897 M457.8542614149416,341.41860320251897 L451.82954457200583,338.56070845767334 M451.82954457200583,338.56070845767334 L445.3831301952874,336.028858525625 M445.3831301952874,336.028858525625 L438.5679121400545,333.84325308877493 M438.5679121400545,333.84325308877493 L431.43958992907193,332.02129616005806 M431.43958992907193,332.02129616005806 L424.05626662255685,330.5774657729093 M424.05626662255685,330.5774657729093 L416.47797884928025,329.52321323413497 M416.47797884928025,329.52321323413497 L408.76622233842227,328.86690051860336 M408.76622233842227,328.86690051860336 L400.9835205116441,328.61372084788565 M400.9835205116441,328.61372084788565 L393.19292270838514,328.7656782235141 M393.19292270838514,328.7656782235141 L385.45754065288577,329.3215733628173 M385.45754065288577,329.3215733628173 L377.8400707731356,330.27700004275954 M377.8400707731356,330.27700004275954 L370.4023099486201,331.62438764508755 M370.4023099486201,331.62438764508755 L363.2047108878327,333.3530572183349 M363.2047108878327,333.3530572183349 L356.30589131155654,335.4492681113882 M356.30589131155654,335.4492681113882 L349.7622007430412,337.8963438415803 M349.7622007430412,337.8963438415803 L343.62727329480015,340.67476986728656 M343.62727329480015,340.67476986728656 L337.95159866319153,343.7623329494968 M337.95159866319153,343.7623329494968 L332.78213580642915,347.1342887504158 M332.78213580642915,347.1342887504158 L328.16189678936485,350.76352288969565 M328.16189678936485,350.76352288969565 L324.1296043656959,354.6207628441221 M324.1296043656959,354.6207628441221 L320.71935771965576,358.6747859523374 M320.71935771965576,358.6747859523374 L317.96032097557867,362.89266057041766 M317.96032097557867,362.89266057041766 L315.87646107388827,367.23999030410255 M315.87646107388827,367.23999030410255 L314.4862879629459,371.68117869240547 M314.4862879629459,371.68117869240547 L313.80270856313246,376.17972428329597 M313.80270856313246,376.17972428329597 L313.8328262470586,380.6984973818157 M313.8328262470586,380.6984973818157 L314.5778650890031,385.20004409211214 M314.5778650890031,385.20004409211214 L316.0330976416868,389.6469027039588 M316.0330976416868,389.6469027039588 L318.187829349202,394.00191991736347 M318.187829349202,394.00191991736347 L321.0254734341779,398.2285596770282 M321.0254734341779,398.2285596770282 L324.5235989265608,402.2912280354477 M324.5235989265608,402.2912280354477 L328.65411808298785,406.1555847629107 M328.65411808298785,406.1555847629107 L333.38347569951145,409.7888447091252 M333.38347569951145,409.7888447091252 L338.6728992143792,413.16008450598275 M348.8268230963342,422.04094118235514 L348.7981304132895,414.6609092337867 M340.27358745207266,419.5704706567659 L348.7981304132895,414.6609092337867 M348.7981304132895,414.6609092337867 L323.36464727766304,399.8809609031231 M323.36464727766304,399.8809609031231 L314.840331093986,404.7685696003564 M338.6385604326655,405.78499669580873 L333.3461946967046,402.4156372303745 M333.3461946967046,402.4156372303745 L328.6142127010404,398.784405915159 M328.6142127010404,398.784405915159 L324.48140827786364,394.92220930627894 M324.48140827786364,394.92220930627894 L320.9813548087595,390.8618146481711 M320.9813548087595,390.8618146481711 L318.1421550006954,386.637543324832 M318.1421550006954,386.637543324832 L315.98625149139883,382.28496965154613 M315.98625149139883,382.28496965154613 L314.53023935381503,377.8406094268065 M314.53023935381503,377.8406094268065 L313.78481807266326,373.3415952418424 M313.78481807266326,373.3415952418424 L313.75471665002743,368.8253678133427 M313.75471665002743,368.8253678133427 L314.4387092370874,364.3293599339072 M314.4387092370874,364.3293599339072 L315.8296874337562,359.8906802644903 M315.8296874337562,359.8906802644903 L317.9147361166033,355.5458094681174 M317.9147361166033,355.5458094681174 L320.6753341031616,351.3303236256244 M320.6753341031616,351.3303236256244 L324.08750029914006,347.2785993374381 M324.08750029914006,347.2785993374381 L328.1220536769219,343.42354920311993 M328.1220536769219,343.42354920311993 L332.7448755663342,339.79637774307145 M332.7448755663342,339.79637774307145 L337.9172213338932,336.42634039700675 M337.9172213338932,336.42634039700675 L343.5960548366042,333.3405356557237 M343.5960548366042,333.3405356557237 L349.73439103382094,330.56369330080594 M349.73439103382094,330.56369330080594 L356.2817123710808,328.1180134588878 M356.2817123710808,328.1180134588878 L363.18435530834256,326.0229991167155 M363.18435530834256,326.0229991167155 L370.3859395495807,324.2953168560189 M370.3859395495807,324.2953168560189 L377.82781548501475,322.9486991519441 M377.82781548501475,322.9486991519441 L385.44949761782766,321.9938185898978 M385.44949761782766,321.9938185898978 L393.18915562571925,321.4382412691086 M393.18915562571925,321.4382412691086 L400.98405919991643,321.28637078024997 M400.98405919991643,321.28637078024997 L408.77106253391565,321.53940568909763 M408.77106253391565,321.53940568909763 L416.4870822364671,322.1953431918311 M416.4870822364671,322.1953431918311 L424.0695610888174,323.24899316910785 M424.0695610888174,323.24899316910785 L431.4569700659424,324.6919986358299 M431.4569700659424,324.6919986358299 L438.58923995433645,326.51291510877434 M438.58923995433645,326.51291510877434 L445.408236056856,328.697273164987 M445.408236056856,328.697273164987 L451.8582283998161,331.22767911774054 M451.8582283998161,331.22767911774054 L457.88629406844524,334.0839452364989 M457.88629406844524,334.0839452364989 L463.44275978712363,337.2432236292536 M463.44275978712363,337.2432236292536 L468.4815989687917,340.68017236617084 M468.4815989687917,340.68017236617084 L472.96081004893426,344.36713707904795 M472.96081004893426,344.36713707904795 L476.8427780160834,348.2743502083511 M476.8427780160834,348.2743502083511 L480.0945876527252,352.370164292073 M480.0945876527252,352.370164292073 L482.688335610999,356.6212705912542 M482.688335610999,356.6212705912542 L484.60139397649925,360.9929656563358 M484.60139397649925,360.9929656563358 L485.81660691977464,365.4494296575261 M485.81660691977464,365.4494296575261 L486.32251414280785,369.9539886825866 M486.32251414280785,369.9539886825866 L486.1134657974775,374.4694262390204 M486.1134657974775,374.4694262390204 L485.18971807422514,378.95828047532495 M485.18971807422514,378.95828047532495 L483.55750060076684,383.38315650765037 M483.55750060076684,383.38315650765037 L481.2289903193455,387.7070483315251 M481.2289903193455,387.7070483315251 L478.2222475951487,391.8936420892319 M478.2222475951487,391.8936420892319 L474.5611546389223,395.9076492422318 M474.5611546389223,395.9076492422318 L470.2751979307134,399.71510740071983 M470.2751979307134,399.71510740071983 L465.399284796248,403.283689101799 M465.399284796248,403.283689101799 L459.9734709645278,406.58299794358294 M459.9734709645278,406.58299794358294 L454.04262347660483,409.58483612796397 M454.04262347660483,409.58483612796397 L447.6560821625568,412.2634844647748 M447.6560821625568,412.2634844647748 L440.8672195254576,414.5959326538545 M440.8672195254576,414.5959326538545 L433.7329984057098,416.5620972891635 M433.7329984057098,416.5620972891635 L426.31346449870495,418.14501793703835 M426.31346449870495,418.14501793703835 L418.67122957832385,419.3310153023404 M418.67122957832385,419.3310153023404 L410.8709179176337,420.1098385608633 M410.8709179176337,420.1098385608633 L402.97856147821585,420.4747366382316 M402.97856147821585,420.4747366382316 L395.0610328418069,420.4225525039577 M395.0610328418069,420.4225525039577 L387.18543830537476,419.95373605354035 M387.18543830537476,419.95373605354035 L379.41850039687733,419.0723475212966 M379.41850039687733,419.0723475212966 L371.8259539839555,417.78602173651586 M371.8259539839555,417.78602173651586 L364.4719705263552,416.105875116018 M364.4719705263552,416.105875116018 L357.41857073477127,414.0464251952273 M357.41857073477127,414.0464251952273 L350.72507797212444,411.6254279536692 M350.72507797212444,411.6254279536692 L344.4476069503498,408.86371480403574 M344.4476069503498,408.86371480403574 L338.6385604326655,405.78499669580873 M323.4074939815057,407.25275259036346 L323.36464727766304,399.8809609031231 M338.6728992143792,413.16008450598275 L338.6385604326655,405.78499669580873" stroke="black"  stroke-width="4"  fill="red"/>
<path d="M314.3461616223238,439.0026300988909 L157.664259577305,529.3021142971236 M157.664259577305,529.3021142971236 L157.27857991361535,508.5221486913051 M163.90289043359047,504.7163323167041 L157.27857991361535,508.5221486913051 M164.01013819224494,510.6585651573683 L163.90289043359047,504.7163323167041 M314.25013800446806,424.2648884769429 L164.01013819224494,510.6585651573683 M314.3461616223238,439.0026300988909 L314.25013800446806,424.2648884769429 M157.664259577305,529.3021142971236 L162.74038602973252,532.354476786713 M162.74038602973252,532.354476786713 L319.4242587741899,441.9735003250612 M319.4242587741899,441.9735003250612 L314.3461616223238,439.0026300988909 M162.74038602973252,532.354476786713 L162.36261300219428,511.56991811964485 M157.27857991361535,508.5221486913051 L162.36261300219428,511.56991811964485 M168.98704594506515,507.7606393544278 L163.90289043359047,504.7163323167041 M162.36261300219428,511.56991811964485 L168.98704594506515,507.7606393544278 M164.01013819224494,510.6585651573683 L169.09203198694942,513.7041891347887 M168.98704594506515,507.7606393544278 L169.09203198694942,513.7041891347887 M319.3338869312638,427.2324793194384 L314.25013800446806,424.2648884769429 M169.09203198694942,513.7041891347887 L319.3338869312638,427.2324793194384 M319.4242587741899,441.9735003250612 L319.3338869312638,427.2324793194384" stroke="black"  stroke-width="4"  fill="red"/>
<path d="M323.4074939815057,407.25275259036346 L323.36464727766304,399.8809609031231 M153.86018829866904,504.575610256244 L153.72047400487136,497.15026894577596 M323.4074939815057,407.25275259036346 L153.86018829866904,504.575610256244 M323.36464727766304,399.8809609031231 L153.72047400487136,497.15026894577596 M179.26968874295756,519.8037490040552 L179.1441118045297,512.3701739772974 M153.86018829866904,504.575610256244 L179.26968874295756,519.8037490040552 M153.72047400487136,497.15026894577596 L179.1441118045297,512.3701739772974 M348.8268230963342,422.04094118235514 L348.7981304132895,414.6609092337867 M179.26968874295756,519.8037490040552 L348.8268230963342,422.04094118235514 M179.1441118045297,512.3701739772974 L348.7981304132895,414.6609092337867 M348.8268230963342,422.04094118235514 L323.4074939815057,407.25275259036346 M348.7981304132895,414.6609092337867 L323.36464727766304,399.8809609031231" stroke="black"  stroke-width="4"  fill="red"/></svg>