<svg viewBox="0 0 800 800" xmlns="http://www.w3.org/2000/svg"><path d="M812.653756641733,379.1752554189761 L812.6156556567603,287.9379910083247 M490.79609652002307,192.01414209739886 L493.6076671952203,208.8232730557625 M493.6076671952203,208.8232730557625 L498.8950337379571,225.44409231947753 M498.8950337379571,225.44409231947753 L506.624524487937,241.755044554976 M506.624524487937,241.755044554976 L516.74430083811,257.63640138100885 M516.74430083811,257.63640138100885 L529.1847859147827,272.97111249097526 M529.1847859147827,272.97111249097526 L543.8589363161709,287.6457675777022 M543.8589363161709,287.6457675777022 L560.6628213360491,301.55145418251425 M560.6628213360491,301.55145418251425 L579.4763020592336,314.5846263819061 M579.4763020592336,314.5846263819061 L600.1638207845433,326.64794227752725 M600.1638207845433,326.64794227752725 L622.5754020469911,337.6510372354053 M622.5754020469911,337.6510372354053 L646.5477250628468,347.5112569017691 M646.5477250628468,347.5112569017691 L671.9053029647907,356.15436732007095 M671.9053029647907,356.15436732007095 L698.4618159179306,363.51515689053235 M698.4618159179306,363.51515689053235 L726.0215441108484,369.53798434810074 M726.0215441108484,369.53798434810074 L754.3808297007843,374.1772740060925 M754.3808297007843,374.1772740060925 L783.3297685875623,377.3978329978015 M783.3297685875623,377.3978329978015 L812.653756641733,379.1752554189761 M490.79609652002307,192.01414209739886 L490.18447021702997,101.10992574450268 M812.6156556567603,287.9379910083247 L783.2390106317516,286.1637084389661 M783.2390106317516,286.1637084389661 L754.2381035887017,282.94883975299405 M754.2381035887017,282.94883975299405 L725.8279322711954,278.3177496597052 M725.8279322711954,278.3177496597052 L698.2187850715078,272.30557154347633 M698.2187850715078,272.30557154347633 L671.6146917446981,264.95780393285145 M671.6146917446981,264.95780393285145 L646.2117283523215,256.32999369068193 M646.2117283523215,256.32999369068193 L622.196552493778,246.48724149490215 M622.196552493778,246.48724149490215 L599.7449675956241,235.50365466129603 M599.7449675956241,235.50365466129603 L579.0205873115498,223.46174606858068 M579.0205873115498,223.46174606858068 L560.1736541393943,210.45172511195273 M560.1736541393943,210.45172511195273 L543.339965079622,196.5707657987599 M543.339965079622,196.5707657987599 L528.6398689040512,181.92223469823284 M528.6398689040512,181.92223469823284 L516.1774754599785,166.6148547664789 M516.1774754599785,166.6148547664789 L506.0399755514925,150.7618380475796 M506.0399755514925,150.7618380475796 L498.29706091689957,134.48002921480355 M498.29706091689957,134.48002921480355 L493.00065228158445,117.88894524793994 M493.00065228158445,117.88894524793994 L490.18447021702997,101.10992574450268 M812.6207343220015,281.840048286691 L812.6156556567603,287.9379910083247 M812.6588171334088,373.066519646231 L812.653756641733,379.1752554189761 M812.6588171334088,373.066519646231 L812.6207343220015,281.840048286691 M490.79609652002307,192.01414209739886 L501.2320511160321,192.01413669387938 M501.2320511160321,192.01413669387938 L504.2617585772358,209.27821436010043 M504.2617585772358,209.27821436010043 L509.98455531286714,226.32560634261768 M509.98455531286714,226.32560634261768 L518.3589759260791,243.0163096790564 M518.3589759260791,243.0163096790564 L529.3214968806551,259.2127013587904 M529.3214968806551,259.2127013587904 L542.7869488071168,274.7807015422747 M542.7869488071168,274.7807015422747 L558.6489906925885,289.59100099400996 M558.6489906925885,289.59100099400996 L576.780981159422,303.5201038128665 M576.780981159422,303.5201038128665 L597.0368137266337,316.45149585687295 M597.0368137266337,316.45149585687295 L619.2520798084987,328.2766848741545 M619.2520798084987,328.2766848741545 L643.245448752342,338.8961511476016 M643.245448752342,338.8961511476016 L668.8200909701993,348.220299696609 M668.8200909701993,348.220299696609 L695.7653094687519,356.17030857092857 M695.7653094687519,356.17030857092857 L723.8584537091742,362.67880285506044 M723.8584537091742,362.67880285506044 L752.8666777074633,367.69055804095115 M752.8666777074633,367.69055804095115 L782.5490835600866,371.1629758907212 M782.5490835600866,371.1629758907212 L812.6588171334088,373.066519646231 M490.18447021702997,101.10992574450268 L500.6390299002286,101.10992035066926 M501.2320511160321,192.01413669387938 L500.6390299002286,101.10992035066926 M812.6207343220015,281.840048286691 L782.4569460974426,279.93986882055236 M782.4569460974426,279.93986882055236 L752.7212696879446,276.4735893646383 M752.7212696879446,276.4735893646383 L723.6610115251674,271.47069671918626 M723.6610115251674,271.47069671918626 L695.5175100244878,264.9737169738894 M695.5175100244878,264.9737169738894 L668.5240357874336,257.03778093324814 M668.5240357874336,257.03778093324814 L642.903643933831,247.7301489267706 M642.903643933831,247.7301489267706 L618.8674126149832,237.1295084842385 M618.8674126149832,237.1295084842385 L596.612525557652,225.32530130681664 M596.612525557652,225.32530130681664 L576.3206375222459,212.41687624476106 M576.3206375222459,212.41687624476106 L558.1564486131456,198.51253854749194 M558.1564486131456,198.51253854749194 L542.2663218389306,183.72860067213458 M542.2663218389306,183.72860067213458 L528.7771181784385,168.18834377692605 M528.7771181784385,168.18834377692605 L517.7953600441106,152.02085116950286 M517.7953600441106,152.02085116950286 L509.40635872476105,135.3599672527912 M509.40635872476105,135.3599672527912 L503.67373968497066,118.3430721306101 M503.67373968497066,118.3430721306101 L500.6390299002286,101.10992035066926" stroke="black"  stroke-width="4"  fill="red"/>
<path d="M435.37721661871575,220.35539377765815 L435.1556034650405,192.01414209739886 M469.77184039211414,276.20590372052055 L458.44998326818626,260.04789841241364 M458.44998326818626,260.04789841241364 L449.2855363007195,243.45294114149573 M449.2855363007195,243.45294114149573 L442.3268322226146,226.51707215228612 M442.3268322226146,226.51707215228612 L437.60938644644955,209.33792860726288 M437.60938644644955,209.33792860726288 L435.1556034650405,192.01414209739886 M469.9748816906318,304.59383329598796 L469.77184039211414,276.20590372052055 M435.37721661871575,220.35539377765815 L437.829785455712,237.68881029541996 M437.829785455712,237.68881029541996 L442.54475409732146,254.87749050196544 M442.54475409732146,254.87749050196544 L449.4997272017419,271.82274848863767 M449.4997272017419,271.82274848863767 L458.6592059771553,288.42689361117436 M458.6592059771553,288.42689361117436 L469.9748816906318,304.59383329598796 M435.1556034650405,192.01414209739886 L501.2320511160321,192.01413669387938 M501.41693762848587,220.35538837113302 L501.2320511160321,192.01413669387938 M435.37721661871575,220.35539377765815 L501.41693762848587,220.35538837113302 M812.6588171334088,373.066519646231 L782.5490835600866,371.1629758907212 M782.5490835600866,371.1629758907212 L752.8666777074633,367.69055804095115 M752.8666777074633,367.69055804095115 L723.8584537091742,362.67880285506044 M723.8584537091742,362.67880285506044 L695.7653094687519,356.17030857092857 M695.7653094687519,356.17030857092857 L668.8200909701993,348.220299696609 M668.8200909701993,348.220299696609 L643.245448752342,338.8961511476016 M643.245448752342,338.8961511476016 L619.2520798084987,328.2766848741545 M619.2520798084987,328.2766848741545 L597.0368137266339,316.4514958568731 M597.0368137266339,316.4514958568731 L576.780981159422,303.5201038128665 M576.780981159422,303.5201038128665 L558.6489906925885,289.59100099400996 M558.6489906925885,289.59100099400996 L542.7869488071168,274.7807015422747 M542.7869488071168,274.7807015422747 L529.3214968806551,259.2127013587904 M529.3214968806551,259.2127013587904 L518.3589759260791,243.0163096790564 M518.3589759260791,243.0163096790564 L509.98455531286714,226.32560634261768 M509.98455531286714,226.32560634261768 L504.2617585772358,209.27821436010043 M504.2617585772358,209.27821436010043 L501.2320511160321,192.01413669387938 M812.6588171334088,373.066519646231 L812.6267856762418,411.7938547099991 M812.6267856762418,411.7938547099991 L782.3667486174742,410.19553021973775 M782.3667486174742,410.19553021973775 L752.4079132289895,407.27434670636865 M752.4079132289895,407.27434670636865 L722.9252970806721,403.0478133119218 M722.9252970806721,403.0478133119218 L694.0909426577894,397.5413027374142 M694.0909426577894,397.5413027374142 L666.0728063241645,390.787766824449 M685.4840780782004,379.54311911836714 L666.0728063241645,390.787766824449 M489.18211005307745,265.0613965973334 L685.4840780782004,379.54311911836714 M469.77184039211414,276.20590372052055 L489.18211005307745,265.0613965973334 M489.18211005307745,265.0613965973334 L489.3742433061415,293.4431651701701 M469.9748816906318,304.59383329598796 L489.3742433061415,293.4431651701701 M501.41693762848587,220.35538837113302 L504.4450852222568,237.62906287659894 M504.4450852222568,237.62906287659894 L510.1648193760514,254.6859184748589 M510.1648193760514,254.6859184748589 L518.5346939004676,271.38587512141163 M518.5346939004676,271.38587512141163 L529.4912170458665,287.5912344353989 M529.4912170458665,287.5912344353989 L542.9492636963512,303.16784352761493 M542.9492636963512,303.16784352761493 L558.8025494001464,317.98632306571983 M558.8025494001464,317.98632306571983 L576.9245012493826,331.92311052430193 M576.9245012493826,331.92311052430193 L597.1690927437937,344.861629190435 M597.1690927437937,344.861629190435 L619.3720061858186,356.6933287981565 M619.3720061858186,356.6933287981565 L643.3520119694742,367.31863662354954 M643.3520119694742,367.31863662354954 L668.9123909145144,376.6479101364539 M668.9123909145144,376.6479101364539 L695.8425648574199,384.60228568836806 M695.8425648574199,384.60228568836806 L723.9200093902006,391.1143528190528 M723.9200093902006,391.1143528190528 L752.9120109051,396.12885795397267 M752.9120109051,396.12885795397267 L782.5778088290638,399.6031804754572 M782.5778088290638,399.6031804754572 L812.6706900326453,401.50776812897936 M812.6706900326453,401.50776812897936 L812.6386944476403,440.2563067976905 M666.1667984041535,419.238725995756 L694.1692608084791,425.99595902599003 M694.1692608084791,425.99595902599003 L722.9874725813676,431.50548257930916 M722.9874725813676,431.50548257930916 L752.4535735012441,435.73432769359465 M752.4535735012441,435.73432769359465 L782.3956197876589,438.6571085044267 M782.3956197876589,438.6571085044267 L812.6386944476403,440.2563067976905 M685.5671604342875,407.9879181649226 L666.1667984041535,419.238725995756 M489.3742433061415,293.4431651701701 L685.5671604342875,407.9879181649226 M812.6706900326453,401.50776812897936 L812.6588171334088,373.066519646231 M812.6386944476403,440.2563067976905 L812.6267856762418,411.7938547099991 M666.1667984041535,419.238725995756 L666.0728063241645,390.787766824449 M685.4840780782004,379.54311911836714 L685.5671604342875,407.9879181649226" stroke="black"  stroke-width="4"  fill="red"/>
<path d="M526.9315247312169,316.81568353560016 L440.2514026970194,366.7267104292363 M440.6931910400258,423.7606587146636 L440.2514026970194,366.7267104292363 M527.2753554036922,373.79466699334716 L440.6931910400258,423.7606587146636 M526.9315247312169,316.81568353560016 L527.2753554036922,373.79466699334716 M497.4542462170733,299.60477557340545 L526.9315247312169,316.81568353560016 M410.7750814103877,349.44863737380626 L417.5374838125064,349.6786401339366 M417.5374838125064,349.6786401339366 L423.9922817849702,350.84451860441914 M423.9922817849702,350.84451860441914 L429.7630423374509,352.87835201967494 M429.7630423374509,352.87835201967494 L434.5128917111467,355.66172500387995 M434.5128917111467,355.66172500387995 L437.9643175541377,359.03244816321717 M437.9643175541377,359.03244816321717 L439.9153811979178,362.7939342070491 M439.9153811979178,362.7939342070491 L440.2514026970194,366.7267104292363 M410.7750814103877,349.44863737380626 L497.4542462170733,299.60477557340545 M411.24963378316113,406.46358277779655 L418.00445550031236,406.6938386728392 M418.00445550031236,406.6938386728392 L424.45203444372464,407.86100020681226 M424.45203444372464,407.86100020681226 L430.21635795169414,409.89707159544764 M430.21635795169414,409.89707159544764 L434.96092766248813,412.68350673794555 M434.96092766248813,412.68350673794555 L438.4085397055241,416.0579373264517 M438.4085397055241,416.0579373264517 L440.35747895350704,419.8235594207455 M440.35747895350704,419.8235594207455 L440.6931910400258,423.7606587146636 M411.24963378316113,406.46358277779655 L410.7750814103877,349.44863737380626 M411.24963378316113,406.46358277779655 L497.83084413471903,356.56475479728647 M497.83084413471903,356.56475479728647 L527.2753554036922,373.79466699334716 M497.4542462170733,299.60477557340545 L497.83084413471903,356.56475479728647" stroke="black"  stroke-width="4"  fill="red"/>
<path d="M413.75437385514584,381.9838869085962 L163.2928847844608,526.2013824942076 M164.05020054846813,583.4094902523285 L163.2928847844608,526.2013824942076 M414.22618211938584,439.03459369118 L164.05020054846813,583.4094902523285 M414.22618211938584,439.03459369118 L413.75437385514584,381.9838869085962 M413.75437385514584,381.9838869085962 L406.9834813286389,381.75330393592094 M406.9834813286389,381.75330393592094 L400.5216739861969,380.58461177258107 M400.5216739861969,380.58461177258107 L394.7469988389149,378.54637923756025 M394.7469988389149,378.54637923756025 L389.99723120186087,375.7580346793343 M389.99723120186087,375.7580346793343 L386.54986460310147,372.382912374301 M386.54986460310147,372.382912374301 L384.60590284400246,368.61861269235715 M384.60590284400246,368.61861269235715 L384.2783905442551,364.68525623884636 M133.82114547273193,508.70782888471547 L140.62307041420274,508.9406991225753 M140.62307041420274,508.9406991225753 L147.10530661459234,510.1211131683773 M147.10530661459234,510.1211131683773 L152.889862549569,512.180282738951 M152.889862549569,512.180282738951 L157.63898279885944,514.9983628644545 M157.63898279885944,514.9983628644545 L161.07519286298384,518.4111444395365 M161.07519286298384,518.4111444395365 L162.9975103187138,522.2195464362586 M162.9975103187138,522.2195464362586 L163.2928847844608,526.2013824942076 M133.82114547273193,508.70782888471547 L384.2783905442551,364.68525623884636 M134.61120980909584,565.8969410622472 L141.40546525117475,566.1300643410938 M141.40546525117475,566.1300643410938 L147.88042106387525,567.3117609729267 M147.88042106387525,567.3117609729267 L153.6585095734534,569.373167654402 M153.6585095734534,569.373167654402 L158.40235261921026,572.1943087797704 M158.40235261921026,572.1943087797704 L161.8347840555063,575.6107963880364 M161.8347840555063,575.6107963880364 L163.75504288655924,579.423332828121 M163.75504288655924,579.423332828121 L164.05020054846813,583.4094902523285 M134.61120980909584,565.8969410622472 L133.82114547273193,508.70782888471547 M134.61120980909584,565.8969410622472 L384.7829617015739,421.7169606418071 M384.7829617015739,421.7169606418071 L385.11018368903757,425.65464015288603 M385.11018368903757,425.65464015288603 L387.0520370365751,429.42307581661237 M387.0520370365751,429.42307581661237 L390.49559902291935,432.8019054434327 M390.49559902291935,432.8019054434327 L395.24008727197236,435.5933120385947 M395.24008727197236,435.5933120385947 L401.00831667369425,437.6337824396104 M401.00831667369425,437.6337824396104 L407.46288931399556,438.8037575977563 M407.46288931399556,438.8037575977563 L414.22618211938584,439.03459369118 M384.7829617015739,421.7169606418071 L384.2783905442551,364.68525623884636" stroke="black"  stroke-width="4"  fill="red"/>
<path d="M136.4651911017304,541.648958125962 L124.51892938961976,548.5277000520101 M124.51892938961976,548.5277000520101 L125.32072687651959,605.7600121535297 M137.25327569570186,598.8738175210045 L125.32072687651959,605.7600121535297 M137.25327569570186,598.8738175210045 L136.4651911017304,541.648958125962 M136.4651911017304,541.648958125962 L129.6546764691094,541.4154967844713 M129.6546764691094,541.4154967844713 L123.1653742413186,540.2322162303916 M123.1653742413186,540.2322162303916 L117.37690293846299,538.1685650096549 M117.37690293846299,538.1685650096549 L112.62791984042428,535.3454199797244 M112.62791984042428,535.3454199797244 L109.19586786087791,531.9281566481477 M109.19586786087791,531.9281566481477 L107.28077167074332,528.1168881989441 M107.28077167074332,528.1168881989441 L106.99401890560438,524.1344610182387 M124.51892938961976,548.5277000520101 L95.04801673445132,531.0038728614908 M95.04801673445132,531.0038728614908 L106.99401890560438,524.1344610182387 M95.04801673445132,531.0038728614908 L95.88255999584919,588.2171907688722 M125.32072687651959,605.7600121535297 L95.88255999584919,588.2171907688722 M95.88255999584919,588.2171907688722 L107.81485015276166,581.3403257823967 M107.81485015276166,581.3403257823967 L108.10140559417027,585.3270743025562 M108.10140559417027,585.3270743025562 L110.01445954790745,589.1424770651421 M110.01445954790745,589.1424770651421 L113.44274242256375,592.5634462266748 M113.44274242256375,592.5634462266748 L118.18644878120335,595.3896520267969 M118.18644878120335,595.3896520267969 L123.96844395710019,597.4555401552082 M123.96844395710019,597.4555401552082 L130.45044993426131,598.640103165332 M130.45044993426131,598.640103165332 L137.25327569570186,598.8738175210045 M107.81485015276166,581.3403257823967 L106.99401890560438,524.1344610182387" stroke="black"  stroke-width="4"  fill="red"/>
<path d="M685.4840780782004,379.54311911836714 L685.5671604342875,407.9879181649226 M183.580975986708,670.2877770223523 L183.94920259489783,698.8900796493308 M685.4840780782004,379.54311911836714 L183.580975986708,670.2877770223523 M685.5671604342875,407.9879181649226 L183.94920259489783,698.8900796493308 M489.18211005307745,265.0613965973334 L489.3742433061415,293.4431651701701 M489.18211005307745,265.0613965973334 L685.4840780782004,379.54311911836714 M489.3742433061415,293.4431651701701 L685.5671604342875,407.9879181649226 M-12.670690032645325,553.2027878833532 L-12.19349732910382,581.7421066141217 M183.580975986708,670.2877770223523 L-12.670690032645325,553.2027878833532 M183.94920259489783,698.8900796493308 L-12.19349732910382,581.7421066141217 M-12.670690032645325,553.2027878833532 L489.18211005307745,265.0613965973334 M457.64767159112205,485.6314312389736 L452.6830597657909,483.3461231599382 M452.6830597657909,483.3461231599382 L446.9160770867543,481.82551889956153 M446.9160770867543,481.82551889956153 L440.68147025153144,481.1577142023822 M440.68147025153144,481.1577142023822 L434.3409312101064,481.3814007386494 M434.3409312101064,481.3814007386494 L428.26233368259636,482.4836160590654 M428.26233368259636,482.4836160590654 L422.79842325115453,484.4005043992239 M422.79842325115453,484.4005043992239 L418.26643373503543,487.0210030250812 M418.26643373503543,487.0210030250812 L414.92972920948495,490.1932007196525 M414.92972920948495,490.1932007196525 L412.9825070626455,493.7330761941988 M412.9825070626455,493.7330761941988 L412.5384794775933,497.4351115609659 M412.5384794775933,497.4351115609659 L413.62410340324743,501.08419004272343 M413.62410340324743,501.08419004272343 L416.1768655511784,504.4681317955009 M416.1768655511784,504.4681317955009 L420.04883267037104,507.3899857294283 M420.04883267037104,507.3899857294283 L425.01518547626563,509.6795645444902 M425.01518547626563,509.6795645444902 L430.7871053140082,511.2034562765681 M430.7871053140082,511.2034562765681 L437.02872745312686,511.87281973010454 M437.02872745312686,511.87281973010454 L443.37674817194795,511.64860334038656 M443.37674817194795,511.64860334038656 L449.461584452739,510.543893727668 M449.461584452739,510.543893727668 L454.92904846821847,508.62311041818975 M454.92904846821847,508.62311041818975 L459.4611053485746,505.9982160916211 M459.4611053485746,505.9982160916211 L462.794375587233,502.8221289551734 M462.794375587233,502.8221289551734 L464.73543551816607,499.2797536567739 M464.73543551816607,499.2797536567739 L465.17199766858914,495.57718844398426 M465.17199766858914,495.57718844398426 L464.0793106644128,491.92966869786005 M464.0793106644128,491.92966869786005 L461.5215105095573,488.549019947735 M461.5215105095573,488.549019947735 L457.64767159112205,485.6314312389736 M301.82680843970377,575.8054057272818 L296.858691996757,573.5040734053025 M296.858691996757,573.5040734053025 L291.08075784065716,571.9728076839772 M291.08075784065716,571.9728076839772 L284.8283878959244,571.3003209864336 M284.8283878959244,571.3003209864336 L278.46430281731807,571.5255757826624 M278.46430281731807,571.5255757826624 L272.3577401101488,572.6355189033499 M272.3577401101488,572.6355189033499 L266.86306567486037,574.5658476326685 M266.86306567486037,574.5658476326685 L262.29929700199784,577.204721684215 M262.29929700199784,577.204721684215 L258.93164263535493,580.3991659351036 M258.93164263535493,580.3991659351036 L256.95606008738247,583.9638920172863 M256.95606008738247,583.9638920172863 L256.48802560664546,587.6918744632591 M256.48802560664546,587.6918744632591 L257.555243756079,591.366576788757 M257.555243756079,591.366576788757 L260.09638911905546,594.7742631786087 M260.09638911905546,594.7742631786087 L263.9642083414982,597.7165995575896 M263.9642083414982,597.7165995575896 L268.9340133928132,600.0222699363787 M268.9340133928132,600.0222699363787 L274.7168993312503,601.5568577955316 M274.7168993312503,601.5568577955316 L280.9763628407422,602.2308973657838 M280.9763628407422,602.2308973657838 L287.34794677545005,602.0051294463437 M287.34794677545005,602.0051294463437 L293.4608457174753,600.8926434153901 M293.4608457174753,600.8926434153901 L298.95912241395877,598.9583786690627 M298.95912241395877,598.9583786690627 L303.52298570637157,596.3150625810817 M303.52298570637157,596.3150625810817 L306.887205375813,593.1166878793908 M306.887205375813,593.1166878793908 L308.8565591927701,589.5494579165097 M308.8565591927701,589.5494579165097 L309.31711763014874,585.8209177549287 M309.31711763014874,585.8209177549287 L308.2427388118831,582.1478128930819 M308.2427388118831,582.1478128930819 L305.6965000162437,578.7434542140181 M305.6965000162437,578.7434542140181 L301.82680843970377,575.8054057272818 M205.78341585010276,631.3859888275648 L200.81322610929652,629.0747293864607 M200.81322610929652,629.0747293864607 L195.02857386195828,627.536873708236 M195.02857386195828,627.536873708236 L188.76523070235376,626.8615153783198 M188.76523070235376,626.8615153783198 L182.38666649755714,627.0877171730921 M182.38666649755714,627.0877171730921 L176.2628436430914,628.2024369243 M176.2628436430914,628.2024369243 L170.74912807044075,630.141095660559 M170.74912807044075,630.141095660559 L166.16571635108414,632.7913277649349 M166.16571635108414,632.7913277649349 L162.77887974073138,635.9995452443734 M162.77887974073138,635.9995452443734 L160.7858041865851,639.5795957397444 M160.7858041865851,639.5795957397444 L160.30287076340613,643.3236300913844 M160.30287076340613,643.3236300913844 L161.35869061885813,647.0141571811821 M161.35869061885813,647.0141571811821 L163.89260423220128,650.4365204713886 M163.89260423220128,650.4365204713886 L167.7577814856923,653.3915310491222 M167.7577814856923,653.3915310491222 L172.72968963756733,655.7071341799596 M172.72968963756733,655.7071341799596 L178.5193026027684,657.2483334851843 M178.5193026027684,657.2483334851843 L184.789725340191,657.9252771361748 M184.789725340191,657.9252771361748 L191.17586135173312,657.6985364934828 M191.17586135173312,657.6985364934828 L197.30601843546023,656.5812798398096 M197.30601843546023,656.5812798398096 L202.8233665052981,654.6386595937844 M202.8233665052981,654.6386595937844 L207.4068898308488,651.9839567313642 M207.4068898308488,651.9839567313642 L210.79029159168718,648.7717833592817 M210.79029159168718,648.7717833592817 L212.7771597186927,645.1891903833581 M212.7771597186927,645.1891903833581 L213.25254824208548,641.4446171481759 M213.25254824208548,641.4446171481759 L212.18956965808408,637.7556754256713 M212.18956965808408,637.7556754256713 L209.6505282468596,634.3366613626661 M209.6505282468596,634.3366613626661 L205.78341585010276,631.3859888275648 M421.48832887872163,417.69178383577434 L423.28935254024486,419.04606256610145 M423.28935254024486,419.04606256610145 L424.47733314744465,420.61510297250027 M424.47733314744465,420.61510297250027 L424.98318928492137,422.30774802095664 M424.98318928492137,422.30774802095664 L424.77737105280534,424.0256684936594 M424.77737105280534,424.0256684936594 L423.8717225378932,425.6690025802169 M423.8717225378932,425.6690025802169 L422.3187067111676,427.1422330440398 M422.3187067111676,427.1422330440398 L420.20858083575683,428.35963062919905 M420.20858083575683,428.35963062919905 L417.6639178813663,429.25039872947934 M417.6639178813663,429.25039872947934 L414.8327372724392,429.7626595926108 M414.8327372724392,429.7626595926108 L411.87963447839127,429.8666286844498 M411.87963447839127,429.8666286844498 L408.97639381828344,429.55624187386127 M408.97639381828344,429.55624187386127 L406.2918495521712,428.84957842043116 M406.2918495521712,428.84957842043116 L403.98216259682465,427.78773719772585 M403.98216259682465,427.78773719772585 L402.18154414939715,426.4325369563919 M402.18154414939715,426.4325369563919 L400.99465619252777,424.86278613783657 M400.99465619252777,424.86278613783657 L400.4903297909005,423.1698045383979 M400.4903297909005,423.1698045383979 L400.697764416539,421.45199846867047 M400.697764416539,421.45199846867047 L401.60474568016105,419.8092035250103 M401.60474568016105,419.8092035250103 L403.15850531038154,418.3368134462987 M403.15850531038154,418.3368134462987 L405.2686156345491,417.12036494665244 M405.2686156345491,417.12036494665244 L407.8125072450993,416.2304372340503 M407.8125072450993,416.2304372340503 L410.64233743710923,415.718715504035 M410.64233743710923,415.718715504035 L413.5938200884377,415.6148608129355 M413.5938200884377,415.6148608129355 L416.49554204177304,415.9249110718654 M416.49554204177304,415.9249110718654 L419.17901693826445,416.6308641324897 M419.17901693826445,416.6308641324897 L421.48832887872163,417.69178383577434 M305.52517166215364,396.0842792321831 L300.5912552519256,393.8148258662885 M300.5912552519256,393.8148258662885 L294.8532642026005,392.3047748521145 M294.8532642026005,392.3047748521145 L288.64425111134733,391.6416034292939 M288.64425111134733,391.6416034292939 L282.3244301723428,391.86373802648416 M282.3244301723428,391.86373802648416 L276.2604705168006,392.9583032273639 M276.2604705168006,392.9583032273639 L270.80428321100976,394.8618938088134 M270.80428321100976,394.8618938088134 L266.27263966135854,397.46420827487395 M266.27263966135854,397.46420827487395 L262.92888168256786,400.61438825249513 M262.92888168256786,400.61438825249513 L260.9676263393295,404.12969664511934 M260.9676263393295,404.12969664511934 L260.5033827316164,407.80603306090006 M260.5033827316164,407.80603306090006 L261.5637826859706,411.4297766165299 M261.5637826859706,411.4297766165299 L264.0877707046377,414.7902183045404 M264.0877707046377,414.7902183045404 L267.92909822035756,417.69178383577434 M267.92909822035756,417.69178383577434 L272.86470918400505,419.9654580576756 M272.86470918400505,419.9654580576756 L278.6075931612207,421.4787678556504 M278.6075931612207,421.4787678556504 L284.82356371980165,422.1434818314816 M284.82356371980165,422.1434818314816 L291.1508175031058,421.9208228886928 M291.1508175031058,421.9208228886928 L297.22097790980206,420.8237838382738 M297.22097790980206,420.8237838382738 L302.6807262691172,418.9163442614149 M302.6807262691172,418.9163442614149 L307.2124624780185,416.30967978815136 M307.2124624780185,416.30967978815136 L310.5528234957329,413.1556453140554 M310.5528234957329,413.1556453140554 L312.50798336374504,409.63786856887464 M312.50798336374504,409.63786856887464 L312.9648164679156,405.96100781484336 M312.9648164679156,405.96100781484336 L311.8973933320183,402.33880679172273 M311.8973933320183,402.33880679172273 L309.3683736700049,398.98161838993815 M309.3683736700049,398.98161838993815 L305.52517166215364,396.0842792321831 M144.7918038574041,577.2649974706773 L146.58930042815302,578.6361711648813 M146.58930042815302,578.6361711648813 L147.7676982458525,580.2247387798997 M147.7676982458525,580.2247387798997 L148.25835803171157,581.9384747170335 M148.25835803171157,581.9384747170335 L148.0326494587452,583.6778024517236 M148.0326494587452,583.6778024517236 L147.1035712202489,585.3416157197622 M147.1035712202489,585.3416157197622 L145.52494630876282,586.8332066621014 M145.52494630876282,586.8332066621014 L143.3885211079329,588.0657771502753 M143.3885211079329,588.0657771502753 L140.81839714711634,588.9676477018244 M140.81839714711634,588.9676477018244 L137.9640759812471,589.4862935128612 M137.9640759812471,589.4862935128612 L134.9914991568209,589.5915585172191 M134.9914991568209,589.5915585172191 L132.0735848547228,589.2773029364355 M132.0735848547228,589.2773029364355 L129.3800598073259,588.5618092651147 M129.3800598073259,588.5618092651147 L127.06749429670242,587.4867558966029 M127.06749429670242,587.4867558966029 L125.27041806733303,586.114643400619 M125.27041806733303,586.114643400619 L124.09313423239024,584.5253520664461 M124.09313423239024,584.5253520664461 L123.6040269141647,582.811273268162 M123.6040269141647,582.811273268162 L123.83137077495513,581.0720620814477 M123.83137077495513,581.0720620814477 L124.76179249050881,579.4087980649749 M124.76179249050881,579.4087980649749 L126.34116131020454,577.918063264562 M126.34116131020454,577.918063264562 L128.4775604169355,576.6864596567962 M128.4775604169355,576.6864596567962 L131.04689425843924,575.7854452497888 M131.04689425843924,575.7854452497888 L133.89984230108115,575.2673486803543 M133.89984230108115,575.2673486803543 L136.8707775468315,575.1622002216944 M136.8707775468315,575.1622002216944 L139.78715788748963,575.4761129406381 M139.78715788748963,575.4761129406381 L142.47960801599038,576.1908828783131 M142.47960801599038,576.1908828783131 L144.7918038574041,577.2649974706773 M149.71720747958722,485.6314312389736 L144.77990459492116,483.34612039601984 M144.77990459492116,483.34612039601984 L139.0311005745006,481.8255188995614 M139.0311005745006,481.8255188995614 L132.80447522433428,481.15771420238207 M132.80447522433428,481.15771420238207 L126.46126272051225,481.3814007386494 M126.46126272051225,481.3814007386494 L120.36948704866722,482.48361329533213 M120.36948704866722,482.48361329533213 L114.88267096213093,484.4005043992238 M114.88267096213093,484.4005043992238 L110.31936170430987,487.0210030250812 M110.31936170430987,487.0210030250812 L106.94473896681848,490.19319795426486 M106.94473896681848,490.19319795426486 L104.9551749760941,493.7330983233787 M104.9551749760941,493.7330983233787 L104.46693984128302,497.43511156096577 M104.46693984128302,497.43511156096577 L105.50891207790914,501.08421218452906 M105.50891207790914,501.08421218452906 L108.02122528031578,504.46815117466736 M108.02122528031578,504.46815117466736 L111.85831411739406,507.3899857294283 M111.85831411739406,507.3899857294283 L116.7972590696346,509.6795839314915 M116.7972590696346,509.6795839314915 L122.55097028627654,511.2034784357596 M122.55097028627654,511.2034784357596 L128.78463085145012,511.8728197301044 M128.78463085145012,511.8728197301044 L135.13529283443688,511.6486255003432 M135.13529283443688,511.6486255003432 L141.2333662757137,510.5438909579108 M141.2333662757137,510.5438909579108 L146.72379182442285,508.62311041818975 M146.72379182442285,508.62311041818975 L151.2872209831276,505.9982160916211 M151.2872209831276,505.9982160916211 L154.6584465935162,502.8221261870747 M154.6584465935162,502.8221261870747 L156.64184904183725,499.2797536567739 M156.64184904183725,499.2797536567739 L157.12266360474172,495.57718844398414 M157.12266360474172,495.57718844398414 L156.07357111924745,491.9296686978598 M156.07357111924745,491.9296686978598 L153.55617122348804,488.54901718270014 M153.55617122348804,488.54901718270014 L149.71720747958722,485.6314312389736 M53.683653687182584,540.824574184634 L48.744350021152115,538.5294397473671 M48.744350021152115,538.5294397473671 L42.988913184920136,537.0023170832899 M42.988913184920136,537.0023170832899 L36.751407717890345,536.3316708001875 M36.751407717890345,536.3316708001875 L30.39381161232842,536.5562943746174 M30.39381161232842,536.5562943746174 L24.284868234301143,537.6632336989524 M24.284868234301143,537.6632336989524 L18.779095019172587,539.5883679583012 M18.779095019172587,539.5883679583012 L14.196213415806369,542.2201060820117 M14.196213415806369,542.2201060820117 L10.80246172892356,545.4059305246676 M10.80246172892356,545.4059305246676 L8.79543749623491,548.9609952469588 M8.79543749623491,548.9609952469588 L8.292313737760765,552.6788927769057 M8.292313737760765,552.6788927769057 L9.322874922527035,556.3436528997549 M9.322874922527035,556.3436528997549 L11.82792125360686,559.7421154801434 M11.82792125360686,559.7421154801434 L15.662312656377082,562.6764918491132 M15.662312656377082,562.6764918491132 L20.603288118168848,564.9759190219779 M20.603288118168848,564.9759190219779 L26.363640867245067,566.506355908074 M26.363640867245067,566.506355908074 L32.60816725102114,567.1785709401466 M32.60816725102114,567.1785709401466 L38.97328544294459,566.953414150627 M38.97328544294459,566.953414150627 L45.08852430264119,565.8439588957388 M45.08852430264119,565.8439588957388 L50.597937047781784,563.9149100856563 M50.597937047781784,563.9149100856563 L55.180955528250536,561.2787479388209 M55.180955528250536,561.2787479388209 L58.571310085811604,558.0890034087942 M58.571310085811604,558.0890034087942 L60.57219435006948,554.5314283311948 M60.57219435006948,554.5314283311948 L61.067829020965576,550.8129975509056 M61.067829020965576,550.8129975509056 L60.03014984642738,547.149806222769 M60.03014984642738,547.149806222769 L57.51998269123635,543.754652311038 M57.51998269123635,543.754652311038 L53.683653687182584,540.824574184634 M-12.19349732910382,581.7421066141217 L489.3742433061415,293.4431651701701 M447.84472342749734,519.9359691464031 L445.5289973252922,518.8683728165169 M445.5289973252922,518.8683728165169 L442.83860821955574,518.157975721916 M442.83860821955574,518.157975721916 L439.9298808138374,517.8459759218084 M439.9298808138374,517.8459759218084 L436.9716985714468,517.9504831726013 M436.9716985714468,517.9504831726013 L434.13587093802147,518.4654260829208 M434.13587093802147,518.4654260829208 L431.5870256162816,519.3609532288914 M431.5870256162816,519.3609532288914 L429.4732988162612,520.5850577560661 M429.4732988162612,520.5850577560661 L427.91747009414763,522.0667164368958 M427.91747009414763,522.0667164368958 L427.01008212035765,523.7198508967867 M427.01008212035765,523.7198508967867 L426.8039336641808,525.4484708748957 M426.8039336641808,525.4484708748957 L427.3111575278308,527.1521078760126 M427.3111575278308,527.1521078760126 L428.5023957500106,528.7317416896893 M428.5023957500106,528.7317416896893 L430.30855753626645,530.09547309118 M430.30855753626645,530.09547309118 L432.6246613336864,531.1639988792102 M432.6246613336864,531.1639988792102 L435.3161207844958,531.8751097182713 M435.3161207844958,531.8751097182713 L438.226383643905,532.1874545071316 M438.226383643905,532.1874545071316 L441.18618869841316,532.0828291013762 M441.18618869841316,532.0828291013762 L444.02337242833676,531.567342412462 M444.02337242833676,531.567342412462 L446.5729870967321,530.6709648704999 M446.5729870967321,530.6709648704999 L448.6867285425912,529.4459030813191 M448.6867285425912,529.4459030813191 L450.2418138549783,527.9633995436404 M450.2418138549783,527.9633995436404 L451.14786237183694,526.309721296309 M451.14786237183694,526.309721296309 L451.3523915468281,524.5809886978342 M451.3523915468281,524.5809886978342 L450.84362184251233,522.8776856109383 M450.84362184251233,522.8776856109383 L449.6512913499639,521.2987710980733 M449.6512913499639,521.2987710980733 L447.84472342749734,519.9359691464031 M292.0423215154776,610.1994353253141 L289.72496351244746,609.1243555286095 M289.72496351244746,609.1243555286095 L287.0294674455083,608.4089789780304 M287.0294674455083,608.4089789780304 L284.11245491785405,608.0947922907103 M284.11245491785405,608.0947922907103 L281.14329000943667,608.2000320568646 M281.14329000943667,608.2000320568646 L278.29441955428086,608.7185843640633 M278.29441955428086,608.7185843640633 L275.73122776211176,609.62038871407 M275.73122776211176,609.62038871407 L273.60268416685545,610.8530739651711 M273.60268416685545,610.8530739651711 L272.03242848666406,612.3451193197028 M272.03242848666406,612.3451193197028 L271.1118423059462,614.0098432347529 M271.1118423059462,614.0098432347529 L270.89449154421754,615.7505826647248 M270.89449154421754,615.7505826647248 L271.3931611055948,617.4661647592143 M271.3931611055948,617.4661647592143 L272.57899112272435,619.0568749231188 M272.57899112272435,619.0568749231188 L274.38320651206453,620.4301693210597 M274.38320651206453,620.4301693210597 L276.70093920476114,621.5061883679111 M276.70093920476114,621.5061883679111 L279.3975087960632,622.2222861921275 M279.3975087960632,622.2222861921275 L282.31606541142435,622.5368214832067 M282.31606541142435,622.5368214832067 L285.2868652449054,622.4314623270616 M285.2868652449054,622.4314623270616 L288.1371046120421,621.9123605124662 M288.1371046120421,621.9123605124662 L290.7010763340355,621.0096968171538 M290.7010763340355,621.0096968171538 L292.82964050057257,619.7760442191253 M292.82964050057257,619.7760442191253 L294.3991526814678,618.283145097276 M294.3991526814678,618.283145097276 L295.3183933217963,616.6178716658908 M295.3183933217963,616.6178716658908 L295.53411411789176,614.8770184193229 M295.53411411789176,614.8770184193229 L295.033885879431,613.161773776409 M295.033885879431,613.161773776409 L293.8469515421052,611.5717904815192 M293.8469515421052,611.5717904815192 L292.0423215154776,610.1994353253141 M196.01049119661982,665.8350722712709 L193.69211116965374,664.7553892620222 M193.69211116965374,664.7553892620222 L190.9935209287823,664.0369124787638 M190.9935209287823,664.0369124787638 L188.0714082761973,663.7213740571559 M188.0714082761973,663.7213740571559 L185.09547179143928,663.8270665975053 M185.09547179143928,663.8270665975053 L182.23855130096658,664.3478499049223 M182.23855130096658,664.3478499049223 L179.66649792821948,665.2535342513077 M179.66649792821948,665.2535342513077 L177.52879593512222,666.4915233270366 M177.52879593512222,666.4915233270366 L175.94961671127714,667.989988783271 M175.94961671127714,667.989988783271 L175.0208607343132,669.6618762543609 M175.0208607343132,669.6618762543609 L174.79656879423288,671.4101068407036 M174.79656879423288,671.4101068407036 L175.2899298490468,673.1330723229747 M175.2899298490468,673.1330723229747 L176.47243180417286,674.7306064953933 M176.47243180417286,674.7306064953933 L178.27538008659823,676.1098342917091 M178.27538008659823,676.1098342917091 L180.59413294581213,677.1904625992609 M180.59413294581213,677.1904625992609 L183.2937986236932,677.9096653446537 M183.2937986236932,677.9096653446537 L186.21746068987375,678.2255546107319 M186.21746068987375,678.2255546107319 L189.19503959054984,678.1197419148879 M189.19503959054984,678.1197419148879 L192.0533369316367,677.5984055490478 M192.0533369316367,677.5984055490478 L194.62617680272348,676.6918563101138 M194.62617680272348,676.6918563101138 L196.76390306004905,675.452893636269 M196.76390306004905,675.452893636269 L198.34233875606836,673.9535688894852 M198.34233875606836,673.9535688894852 L199.26974544964787,672.281128350976 M199.26974544964787,672.281128350976 L199.49240082353214,670.5327832065142 M199.49240082353214,670.5327832065142 L198.9974731466589,668.8101573685333 M198.9974731466589,668.8101573685333 L197.81385943004256,667.2133547433078 M197.81385943004256,667.2133547433078 L196.01049119661982,665.8350722712709 M431.71126294497566,440.3887517643142 L435.5689233902957,443.2912546867857 M435.5689233902957,443.2912546867857 L438.1145827800763,446.65442314971494 M438.1145827800763,446.65442314971494 L439.1998721190364,450.2830799235527 M439.1998721190364,450.2830799235527 L438.7610843002427,453.9664914716968 M438.7610843002427,453.9664914716968 L436.8231060852245,457.4905369847319 M436.8231060852245,457.4905369847319 L433.49805881189155,460.65019076900865 M433.49805881189155,460.65019076900865 L428.9788802630737,463.2614999455802 M428.9788802630737,463.2614999455802 L423.528201879844,465.17233901466864 M423.528201879844,465.17233901466864 L417.46309165872503,466.2713321609732 M417.46309165872503,466.2713321609732 L411.13657834565925,466.49438854338575 M411.13657834565925,466.49438854338575 L404.91698895548365,465.8284884078423 M404.91698895548365,465.8284884078423 L399.16634771542556,464.3124838097888 M399.16634771542556,464.3124838097888 L394.21928237992506,462.0347568359982 M394.21928237992506,462.0347568359982 L390.36348054066406,459.1280225245803 M390.36348054066406,459.1280225245803 L387.82283268973396,455.7615920435576 M387.82283268973396,455.7615920435576 L386.7445597412226,452.131389901602 M386.7445597412226,452.131389901602 L387.19076147109513,448.4485036559324 M387.19076147109513,448.4485036559324 L389.1348526537255,444.9269337845652 M389.1348526537255,444.9269337845652 L392.4633115395907,441.77113882973276 M392.4633115395907,441.77113882973276 L396.98241880036096,439.16418765593573 M396.98241880036096,439.16418765593573 L402.4295593252012,437.2572074079915 M402.4295593252012,437.2572074079915 L408.48847558336604,436.1606899071719 M408.48847558336604,436.1606899071719 L414.8075577966526,435.9381588357611 M414.8075577966526,435.9381588357611 L421.02018135391154,436.6025135790385 M421.02018135391154,436.6025135790385 L426.7659177773252,438.11525615703147 M426.7659177773252,438.11525615703147 L431.71126294497566,440.3887517643142 M295.8074328227308,430.2997365580204 L293.50602202436687,429.2395458291271 M293.50602202436687,429.2395458291271 L290.8291563584656,428.5340791283885 M290.8291563584656,428.5340791283885 L287.9323571650998,428.2242379669582 M287.9323571650998,428.2242379669582 L284.98384324448875,428.3280230713207 M284.98384324448875,428.3280230713207 L282.1548446346368,428.83939413897656 M282.1548446346368,428.83939413897656 L279.6096020662624,429.7287121421223 M279.6096020662624,429.7287121421223 L277.49603330805644,430.9443252304337 M277.49603330805644,430.9443252304337 L275.9369082665795,432.4157025713105 M275.9369082665795,432.4157025713105 L275.02296940337953,434.0573681811045 M275.02296940337953,434.0573681811045 L274.8073857702045,435.77399208688735 M274.8073857702045,435.77399208688735 L275.3028559098643,437.46581381557553 M275.3028559098643,437.46581381557553 L276.48067671884047,439.03448381743067 M276.48067671884047,439.03448381743067 L278.27255529876106,440.3887517643142 M278.27255529876106,440.3887517643142 L280.5743357333941,441.44986229499034 M280.5743357333941,441.44986229499034 L283.2522694475633,442.15604081345305 M283.2522694475633,442.15604081345305 L286.15057281131385,442.4662124024163 M286.15057281131385,442.4662124024163 L289.10070828169245,442.36231585915596 M289.10070828169245,442.36231585915596 L291.93105676090636,441.85040666235057 M291.93105676090636,441.85040666235057 L294.4770776195745,440.9602525867035 M294.4770776195745,440.9602525867035 L296.59066652310736,439.7436921816079 M296.59066652310736,439.7436921816079 L298.14904895047863,438.27147327277623 M298.14904895047863,438.27147327277623 L299.0616608319697,436.62926952507826 M299.0616608319697,436.62926952507826 L299.275627772116,434.9125286804458 M299.275627772116,434.9125286804458 L298.7786391747846,433.2210483739119 M298.7786391747846,433.2210483739119 L297.5997201593749,431.653084711358 M297.5997201593749,431.653084711358 L295.8074328227308,430.2997365580204 M155.29668823236426,599.9767808825762 L159.1469388305008,602.9153956806884 M159.1469388305008,602.9153956806884 L161.6720313031106,606.3204384082043 M161.6720313031106,606.3204384082043 L162.7247835930657,609.9943034878429 M162.7247835930657,609.9943034878429 L162.24348373671745,613.7235671729237 M162.24348373671745,613.7235671729237 L160.25536843300705,617.2915085217808 M160.25536843300705,617.2915085217808 L156.87546877126294,620.4905467135725 M156.87546877126294,620.4905467135725 L152.2999851612406,623.1343905469236 M152.2999851612406,623.1343905469236 L146.79474803197286,625.0690614490915 M146.79474803197286,625.0690614490915 L140.6800783880405,626.1817491246128 M140.6800783880405,626.1817491246128 L134.31189432443676,626.4075627593493 M134.31189432443676,626.4075627593493 L128.06083958390514,625.7333870343198 M128.06083958390514,625.7333870343198 L122.29088628866907,624.1984920190096 M122.29088628866907,624.1984920190096 L117.33778676496547,621.8923628629213 M117.33778676496547,621.8923628629213 L113.48946391907344,618.949437412016 M113.48946391907344,618.949437412016 L110.96948091431813,615.5410715281353 M110.96948091431813,615.5410715281353 L109.92384927629058,611.8656321060465 M109.92384927629058,611.8656321060465 L110.4126496210194,608.1369035573933 M110.4126496210194,608.1369035573933 L112.40692708699567,604.5714842286479 M112.40692708699567,604.5714842286479 L115.79023886446964,601.376377198319 M115.79023886446964,601.376377198319 L120.36560285780928,598.7369730318084 M120.36560285780928,598.7369730318084 L125.8672160376841,596.8062333094308 M125.8672160376841,596.8062333094308 L131.97558761623782,595.6960676740413 M131.97558761623782,595.6960676740413 L138.33624235345053,595.4707891415427 M138.33624235345053,595.4707891415427 L144.5802612740024,596.1433905663486 M144.5802612740024,596.1433905663486 L150.34528417326936,597.6749624297242 M150.34528417326936,597.6749624297242 L155.29668823236426,599.9767808825762 M140.01815824944566,519.9359691464031 L137.71517060582846,518.8683728165169 M137.71517060582846,518.8683728165169 L135.03326255079924,518.15797848869 M135.03326255079924,518.15797848869 L132.12824857827547,517.8459731551012 M132.12824857827547,517.8459731551012 L129.1688240245319,517.9504831726013 M129.1688240245319,517.9504831726013 L126.32685214093021,518.4654260829207 M126.32685214093021,518.4654260829207 L123.76732613252602,519.3609559959234 M123.76732613252602,519.3609559959234 L121.63899343288062,520.5850605233609 M121.63899343288062,520.5850605233609 L120.06548104064683,522.0667164368958 M120.06548104064683,522.0667164368958 L119.13836802259806,523.7198508967867 M119.13836802259806,523.7198508967867 L118.91158917683822,525.4484681065576 M118.91158917683822,525.4484681065576 L119.3984947235353,527.1521106447162 M119.3984947235353,527.1521106447162 L120.57088024461655,528.7317416896893 M120.57088024461655,528.7317416896893 L122.36077011657642,530.09547309118 M122.36077011657642,530.09547309118 L124.66412436520147,531.1639988792102 M124.66412436520147,531.1639988792102 L127.34710356994924,531.8751124879884 M127.34710356994924,531.8751124879884 L130.25363023783643,532.1874517373475 M130.25363023783643,532.1874517373475 L133.2146883344888,532.0828291013762 M133.2146883344888,532.0828291013762 L136.05802280290385,531.567342412462 M136.05802280290385,531.567342412462 L138.61833762578578,530.6709676399587 M138.61833762578578,530.6709676399587 L140.74669639322917,529.4459058505149 M140.74669639322917,529.4459058505149 L142.3194661355114,527.9633995436403 M142.3194661355114,527.9633995436403 L143.2452461850492,526.309721296309 M143.2452461850492,526.309721296309 L143.47039777242202,524.5809859296822 M143.47039777242202,524.5809859296822 L142.98196104277935,522.8776883787249 M142.98196104277935,522.8776883787249 L141.80846534772365,521.2987710980733 M141.80846534772365,521.2987710980733 L140.01815824944566,519.9359691464031 M43.99630596748153,575.1839129364272 L41.692330099249375,574.1117615022905 M41.692330099249375,574.1117615022905 L39.007367621631715,573.3982992235818 M39.007367621631715,573.3982992235818 L36.0972969345097,573.0849562354921 M36.0972969345097,573.0849562354921 L33.13114535087021,573.189914314984 M33.13114535087021,573.189914314984 L30.28116653283564,573.7070649478812 M30.28116653283564,573.7070649478812 L27.712818099929166,574.6064343852111 M27.712818099929166,574.6064343852111 L25.575359940765452,575.8357873948586 M25.575359940765452,575.8357873948586 L23.992948812347095,577.3237964045849 M23.992948812347095,577.3237964045849 L23.057681228567105,578.984019664407 M23.057681228567105,578.984019664407 L22.823965969261224,580.7200498387468 M22.823965969261224,580.7200498387468 L23.30555702371879,582.430998728096 M23.30555702371879,582.430998728096 L24.474598086335902,584.0173824655831 M24.474598086335902,584.0173824655831 L26.2631950036033,585.3869854086985 M26.2631950036033,585.3869854086985 L28.567535603814292,586.4600722650459 M28.567535603814292,586.4600722650459 L31.25357109583433,587.1742584718506 M31.25357109583433,587.1742584718506 L34.16515973699927,587.4879375378932 M34.16515973699927,587.4879375378932 L37.13295227997776,587.3828661087609 M37.13295227997776,587.3828661087609 L39.98430155921517,586.8651681955702 M39.98430155921517,586.8651681955702 L42.55344533806584,585.9649484522554 M42.55344533806584,585.9649484522554 L44.69093325571151,584.7346320162483 M44.69093325571151,584.7346320162483 L46.27260173868791,583.2457671429727 M46.27260173868791,583.2457671429727 L47.20653267063392,581.5849965939542 M47.20653267063392,581.5849965939542 L47.438614144867984,579.8488475078346 M47.438614144867984,579.8488475078346 L46.955484031304024,578.138245815345 M46.955484031304024,578.138245815345 L45.78532540472219,576.5525804316266 M45.78532540472219,576.5525804316266 L43.99630596748153,575.1839129364272 M457.64767159112205,485.6314312389736 L457.73230846735356,497.03635748627323 M457.73230846735356,497.03635748627323 L452.7688059039695,494.7505520815197 M452.7688059039695,494.7505520815197 L447.0031153457392,493.2296168587138 M447.0031153457392,493.2296168587138 L440.7699085829606,492.5616667997998 M440.7699085829606,492.5616667997998 L434.43079647694344,492.78540202701276 M434.43079647694344,492.78540202701276 L428.3535701017151,493.887857259282 M428.3535701017151,493.887857259282 L422.89089559056424,495.8051627851896 M422.89089559056424,495.8051627851896 L418.35993507467975,498.4262316245547 M418.35993507467975,498.4262316245547 L415.0239928346069,501.59911942039435 M415.0239928346069,501.59911942039435 L413.0772218294934,505.13976477580275 M413.0772218294934,505.13976477580275 L412.6333077831925,508.84260505713644 M412.6333077831925,508.84260505713644 L413.7187007560674,512.4924767050405 M413.7187007560674,512.4924767050405 L416.27090061506516,515.877153785814 M416.27090061506516,515.877153785814 L420.1420065936223,518.7996424754893 M420.1420065936223,518.7996424754893 L425.1072493697868,521.0897185840038 M425.1072493697868,521.0897185840038 L430.8778748749312,522.6139412525715 M430.8778748749312,522.6139412525715 L437.11809378959856,523.2834500558389 M437.11809378959856,523.2834500558389 L443.46468420390306,523.0591849792554 M443.46468420390306,523.0591849792554 L449.54814651699144,521.9542354745148 M449.54814651699144,521.9542354745148 L455.0143729983323,520.0330350086595 M455.0143729983323,520.0330350086595 L459.5454008329812,517.4075705024334 M459.5454008329812,517.4075705024334 L462.87791031948086,514.2307932952918 M462.87791031948086,514.2307932952918 L464.8185218724436,510.6876481346577 M464.8185218724436,510.6876481346577 L465.25497384225935,506.98427801138155 M465.25497384225935,506.98427801138155 L464.1625209751182,503.3359650871075 M464.1625209751182,503.3359650871075 L461.60528538906334,499.9545809842509 M461.60528538906334,499.9545809842509 L457.73230846735356,497.03635748627323 M301.82680843970377,575.8054057272818 L301.9469184620218,587.2298827000592 M301.9469184620218,587.2298827000592 L296.97991279649,584.9280531896492 M296.97991279649,584.9280531896492 L291.20327565308696,583.3964565967032 M291.20327565308696,583.3964565967032 L284.9523137656372,582.7238245771691 M284.9523137656372,582.7238245771691 L278.589666238567,582.9491280510406 M278.589666238567,582.9491280510406 L272.4844873172834,584.0593110178926 M272.4844873172834,584.0593110178926 L266.9910627225042,585.9900568181798 M266.9910627225042,585.9900568181798 L262.4283374505703,588.6295009252126 M262.4283374505703,588.6295009252126 L259.0614594152937,591.8246350843642 M259.0614594152937,591.8246350843642 L257.0863408926741,595.3901308346252 M257.0863408926741,595.3901308346252 L256.6184308957203,599.1189179602877 M256.6184308957203,599.1189179602877 L257.68542649458084,602.7944132274612 M257.68542649458084,602.7944132274612 L260.2260149104466,606.2028347304627 M260.2260149104466,606.2028347304627 L264.09297496001057,609.1458056731508 M264.09297496001057,609.1458056731508 L269.06166848448214,611.4519732023725 M269.06166848448214,611.4519732023725 L274.8432551886862,612.9868918990793 M274.8432551886862,612.9868918990793 L281.1013074532799,613.6610767706571 M281.1013074532799,613.6610767706571 L287.4714504384601,613.4352601837744 M287.4714504384601,613.4352601837744 L293.582962730395,612.3225343278449 M293.582962730395,612.3225343278449 L299.0799879394363,610.3878525495354 M299.0799879394363,610.3878525495354 L303.6428077668262,607.7439664507767 M303.6428077668262,607.7439664507767 L307.0062526383281,604.5449018810116 M307.0062526383281,604.5449018810116 L308.9751452213147,600.9769022796587 M308.9751452213147,600.9769022796587 L309.4355825574477,597.2475574389665 M309.4355825574477,597.2475574389665 L308.36142952282523,593.5736596244008 M308.36142952282523,593.5736596244008 L305.8157499917862,590.1685657993239 M305.8157499917862,590.1685657993239 L301.9469184620218,587.2298827000592 M205.78341585010276,631.3859888275648 L205.92551267998877,642.8224455403137 M205.92551267998877,642.8224455403137 L200.95643461179765,640.5106890097301 M200.95643461179765,640.5106890097301 L195.17308237914943,638.9725025285888 M195.17308237914943,638.9725025285888 L188.91115221165748,638.2969989115801 M188.91115221165748,638.2969989115801 L182.53403211465175,638.5232493691125 M182.53403211465175,638.5232493691125 L176.411600870778,639.6382089167682 M176.411600870778,639.6382089167682 L170.8991437791479,641.5772846420059 M170.8991437791479,641.5772846420059 L166.3167843994213,644.2280866825151 M166.3167843994213,644.2280866825151 L162.9307328566274,647.4369939294771 M162.9307328566274,647.4369939294771 L160.93812932776007,651.0178139243131 M160.93812932776007,651.0178139243131 L160.45532721199964,654.7626527827764 M160.45532721199964,654.7626527827764 L161.51092975727602,658.4539726422923 M161.51092975727602,658.4539726422923 L164.04428977383526,661.8770708847998 M164.04428977383526,661.8770708847998 L167.9086091179845,664.8327158862835 M167.9086091179845,664.8327158862835 L172.8794048450573,667.1488160571852 M172.8794048450573,667.1488160571852 L178.66771556808516,668.6903461261672 M178.66771556808516,668.6903461261672 L184.93672211801243,669.3674350459843 M184.93672211801243,669.3674350459843 L191.32141059159332,669.1406457467409 M191.32141059159332,669.1406457467409 L197.4501731844849,668.0231493264837 M197.4501731844849,668.0231493264837 L202.96626110573794,666.0801121364916 M202.96626110573794,666.0801121364916 L207.5487320158951,663.4248393894497 M207.5487320158951,663.4248393894497 L210.9313502425666,660.2119762960571 M210.9313502425666,660.2119762960571 L212.9177491384569,656.6286138493293 M212.9177491384569,656.6286138493293 L213.39300976633572,652.8832361135326 M213.39300976633572,652.8832361135326 L212.33025174162336,649.1935016030436 M212.33025174162336,649.1935016030436 L209.79176626808774,645.7737525497813 M209.79176626808774,645.7737525497813 L205.92551267998877,642.8224455403137 M421.5808557809055,429.0818861905477 L419.2720581457786,428.02073436365947 M419.2720581457786,428.02073436365947 L416.589182750114,427.31462683335644 M416.589182750114,427.31462683335644 L413.68811068097017,427.0045087295389 M413.68811068097017,427.0045087295389 L410.7372905912536,427.108386146205 M410.7372905912536,427.108386146205 L407.9080971897337,427.6202198488281 M407.9080971897337,427.6202198488281 L405.36477965566627,428.5103422804467 M405.36477965566627,428.5103422804467 L403.25514734544055,429.7270569205191 M403.25514734544055,429.7270569205191 L401.7017419009716,431.1997691012043 M401.7017419009716,431.1997691012043 L400.7949703679031,432.84292338013336 M400.7949703679031,432.84292338013336 L400.5875887906258,434.5611051422027 M400.5875887906258,434.5611051422027 L401.09180840874444,436.2544569543227 M401.09180840874444,436.2544569543227 L402.2784359019703,437.8245509933429 M402.2784359019703,437.8245509933429 L404.0786552886017,439.18004750979753 M404.0786552886017,439.18004750979753 L406.38782777370494,440.2421208507909 M406.38782777370494,440.2421208507909 L409.07177206168694,440.9489387698019 M409.07177206168694,440.9489387698019 L411.9743621572709,441.25939342333675 M411.9743621572709,441.25939342333675 L414.9268016621945,441.1554016065911 M414.9268016621945,441.1554016065911 L417.757344872606,440.64302877396165 M417.757344872606,440.64302877396165 L420.30143340125926,439.7520659595126 M420.30143340125926,439.7520659595126 L422.41108125226066,438.53440223940197 M422.41108125226066,438.53440223940197 L423.963743223952,437.060849678453 M423.963743223952,437.060849678453 L424.8691826044435,435.41715625973654 M424.8691826044435,435.41715625973654 L425.07494851318734,433.69886009535173 M425.07494851318734,433.69886009535173 L424.5691998469753,432.0058448322726 M424.5691998469753,432.0058448322726 L423.38148019639266,430.4364612013112 M423.38148019639266,430.4364612013112 L421.5808557809055,429.0818861905477 M421.5808557809055,429.0818861905477 L421.48832887872163,417.69178383577434 M305.52517166215364,396.0842792321831 L305.64361784276457,407.4696501021923 M305.64361784276457,407.4696501021923 L300.7107969716737,405.1996993114428 M300.7107969716737,405.1996993114428 L294.9740850679974,403.6893172704066 M294.9740850679974,403.6893172704066 L288.76646057575067,403.0260004574235 M288.76646057575067,403.0260004574235 L282.4480572628512,403.24818375507255 M282.4480572628512,403.24818375507255 L276.38546215368524,404.3429889142129 M276.38546215368524,404.3429889142129 L270.93050724488495,406.24699676429634 M270.93050724488495,406.24699676429634 L266.3998924624551,408.8498815574376 M266.3998924624551,408.8498815574376 L263.05689984139156,412.00075177488895 M263.05689984139156,412.00075177488895 L261.096101838465,415.5168302064427 M261.096101838465,415.5168302064427 L260.63198074052593,419.19397170392153 M260.63198074052593,419.19397170392153 L261.69216096631527,422.81850859289284 M261.69216096631527,422.81850859289284 L264.2155995245107,426.1796857655223 M264.2155995245107,426.1796857655223 L268.0560795846161,429.0818861905477 M268.0560795846161,429.0818861905477 L272.9905942682195,431.3560578140923 M272.9905942682195,431.3560578140923 L278.7321969218862,432.8696986221007 M278.7321969218862,432.8696986221007 L284.94677576836074,433.53455797983656 M284.94677576836074,433.53455797983656 L291.27260858938,433.31185033939585 M291.27260858938,433.31185033939585 L297.34140165576684,432.2145713433433 M297.34140165576684,432.2145713433433 L302.79991600360376,430.3067145190712 M302.79991600360376,430.3067145190712 L307.3306233829537,427.6994797420133 M307.3306233829537,427.6994797420133 L310.6702205470466,424.5447550481043 M310.6702205470466,424.5447550481043 L312.6249257978628,421.02620827782334 M312.6249257978628,421.02620827782334 L313.08163971341,417.3485424449008 M313.08163971341,417.3485424449008 L312.0144394633821,413.7255480801815 M312.0144394633821,413.7255480801815 L309.4859715330522,410.36762417574664 M309.4859715330522,410.36762417574664 L305.64361784276457,407.4696501021923 M144.94737374304088,588.6897897311645 L142.63569343269586,587.6154431219686 M142.63569343269586,587.6154431219686 L139.9438468103798,586.9005187774434 M139.9438468103798,586.9005187774434 L137.02812293217482,586.5865382432665 M137.02812293217482,586.5865382432665 L134.05785900903925,586.6917094175636 M134.05785900903925,586.6917094175636 L131.20555819259005,587.209917910628 M131.20555819259005,587.209917910628 L128.63680993312096,588.1111269512677 M128.63680993312096,588.1111269512677 L126.50090074778933,589.3429965823221 M126.50090074778933,589.3429965823221 L124.92189773215165,590.8340533422677 M124.92189773215165,590.8340533422677 L123.99169640072182,592.4976765342333 M123.99169640072182,592.4976765342333 L123.76441465768812,594.237263245259 M123.76441465768812,594.237263245259 L124.25342214933482,595.9517120896625 M124.25342214933482,595.9517120896625 L125.43044995072404,597.5413464842002 M125.43044995072404,597.5413464842002 L127.22712878963108,598.9137551253926 M127.22712878963108,598.9137551253926 L129.5391786079731,599.9890405013953 M129.5391786079731,599.9890405013953 L132.23209966819365,600.7046885723652 M132.23209966819365,600.7046885723652 L135.14935681723728,601.0190119649706 M135.14935681723728,601.0190119649706 L138.12126157705222,600.9137242461351 M138.12126157705222,600.9137242461351 L140.97493489332305,600.3949665169333 M140.97493489332305,600.3949665169333 L143.5444729100966,599.4929013402705 M143.5444729100966,599.4929013402705 L145.68040817185397,598.2600648384283 M145.68040817185397,598.2600648384283 L147.25866760999287,596.768151945075 M147.25866760999287,596.768151945075 L148.18752606769243,595.1039795070087 M148.18752606769243,595.1039795070087 L148.41317326063773,593.3642762491669 M148.41317326063773,593.3642762491669 L147.92261400449274,591.6501702625022 M147.92261400449274,591.6501702625022 L146.7444727277956,590.0612595799179 M146.7444727277956,590.0612595799179 L144.94737374304088,588.6897897311645 M144.94737374304088,588.6897897311645 L144.7918038574041,577.2649974706773 M149.71720747958722,485.6314312389736 L149.87111810270125,497.03635748627323 M149.87111810270125,497.03635748627323 L144.93491219370225,494.7505493169999 M144.93491219370225,494.7505493169999 L139.1873921178954,493.2296168587138 M139.1873921178954,493.2296168587138 L132.96216325003576,492.5616667997997 M132.96216325003576,492.5616667997997 L126.62037888415648,492.78540202701276 M126.62037888415648,492.78540202701276 L120.52998029126718,493.8878544949473 M120.52998029126718,493.8878544949473 L115.0444104300193,495.8051627851895 M115.0444104300193,495.8051627851895 L110.48214426261711,498.4262316245547 M110.48214426261711,498.4262316245547 L107.10830087017132,501.5991166544052 M107.10830087017132,501.5991166544052 L105.11920706716143,505.1397869097948 M105.11920706716143,505.1397869097948 L104.63110537542525,508.8426050571363 M104.63110537542525,508.8426050571363 L105.67286629916828,512.4924988516582 M105.67286629916828,512.4924988516582 L108.18463542087176,515.8771731691909 M108.18463542087176,515.8771731691909 L112.02087883033374,518.7996424754893 M112.02087883033374,518.7996424754893 L116.95872608445558,521.0897379752156 M116.95872608445558,521.0897379752156 L122.7111511691557,522.613963416575 M122.7111511691557,522.613963416575 L128.94341210377507,523.2834500558388 M128.94341210377507,523.2834500558388 L135.29264258424746,523.0592071440238 M135.29264258424746,523.0592071440238 L141.38933610426926,521.9542327041561 M141.38933610426926,521.9542327041561 L146.878513780361,520.0330350086595 M146.878513780361,520.0330350086595 L151.4408997677105,517.4075705024333 M151.4408997677105,517.4075705024333 L154.81134753705055,514.2307905265915 M154.81134753705055,514.2307905265915 L156.79428254799853,510.6876481346577 M156.79428254799853,510.6876481346577 L157.27496701288584,506.98427801138155 M157.27496701288584,506.98427801138155 L156.2260890459226,503.3359650871074 M156.2260890459226,503.3359650871074 L153.70923553936007,499.95457821861476 M153.70923553936007,499.95457821861476 L149.87111810270125,497.03635748627323 M53.683653687182584,540.824574184634 L53.859544460717814,552.241483784089 M53.859544460717814,552.241483784089 L48.92133861708197,549.9458520951698 M48.92133861708197,549.9458520951698 L43.16718867016101,548.4183985218189 M43.16718867016101,548.4183985218189 L36.931084557459144,547.7476069047901 M36.931084557459144,547.7476069047901 L30.574923081409054,547.9722791576571 M30.574923081409054,547.9722791576571 L24.467364544205793,549.079458355232 M24.467364544205793,549.079458355232 L18.96284613751652,551.0050097393056 M18.96284613751652,551.0050097393056 L14.381016514713394,553.6373179850228 M14.381016514713394,553.6373179850228 L10.988052872129515,556.8238324213451 M10.988052872129515,556.8238324213451 L8.981506803927914,560.3796668989739 M8.981506803927914,560.3796668989739 L8.478523304153327,564.0983692052442 M8.478523304153327,564.0983692052442 L9.508878424060754,567.7639223659979 M9.508878424060754,567.7639223659979 L12.01338404761026,571.1631201490378 M12.01338404761026,571.1631201490378 L15.846931323057447,574.0981311607854 M15.846931323057447,574.0981311607854 L20.786808237308037,576.3980555454064 M20.786808237308037,576.3980555454064 L26.54587190399485,577.9288233110848 M26.54587190399485,577.9288233110848 L32.788993777708356,578.6011836627326 M32.788993777708356,578.6011836627326 L39.15267394367868,578.375978199654 M39.15267394367868,578.375978199654 L45.266525104470304,577.2662830939148 M45.266525104470304,577.2662830939148 L50.774681373364956,575.336817195544 M50.774681373364956,575.336817195544 L55.356647780676894,572.7000849671717 M55.356647780676894,572.7000849671717 L58.74621579776772,569.5096504787119 M58.74621579776772,569.5096504787119 L60.746624650418255,565.9513056693655 M60.746624650418255,565.9513056693655 L61.24212243673287,562.2320701176309 M61.24212243673287,562.2320701176309 L60.20465254845533,558.568085737239 M60.20465254845533,558.568085737239 L57.69502843249063,555.1721965919631 M57.69502843249063,555.1721965919631 L53.859544460717814,552.241483784089 M447.7144308133307,502.83630894992336 L449.5216016435366,504.1986673165129 M449.5216016435366,504.1986673165129 L450.71432668298667,505.7770679615086 M450.71432668298667,505.7770679615086 L451.2232596019788,507.4798167705933 M451.2232596019788,507.4798167705933 L451.0186527220346,509.20798689374783 M451.0186527220346,509.20798689374783 L450.1122900136075,510.8611271592441 M450.1122900136075,510.8611271592441 L448.5566721854377,512.3431484632007 M448.5566721854377,512.3431484632007 L446.4422108279848,513.5678118035562 M446.4422108279848,513.5678118035562 L443.891730671181,514.4638978254387 M443.891730671181,514.4638978254387 L441.05358624182804,514.9792168771896 M441.05358624182804,514.9792168771896 L438.0927811690396,515.0838082594307 M438.0927811690396,515.0838082594307 L435.18153718788494,514.7715650439515 M435.18153718788494,514.7715650439515 L432.4891726179048,514.0606854650489 M432.4891726179048,514.0606854650489 L430.1722923824308,512.9925071968639 M430.1722923824308,512.9925071968639 L428.36552796750146,511.62921936920657 M428.36552796750146,511.62921936920657 L427.173895941328,510.05009941562923 M427.173895941328,510.05009941562923 L426.66650990545645,508.34701668641446 M426.66650990545645,508.34701668641446 L426.8727371610825,506.6189591859227 M426.8727371610825,506.6189591859227 L427.78044022815953,504.9663627144473 M427.78044022815953,504.9663627144473 L429.33680196529536,503.4851862784976 M429.33680196529536,503.4851862784976 L431.4512486620717,502.26148021173196 M431.4512486620717,502.26148021173196 L434.00095894670335,501.3662445951975 M434.00095894670335,501.3662445951975 L436.83774636098167,500.8514693286214 M436.83774636098167,500.8514693286214 L439.7969275235793,500.7469961018386 M439.7969275235793,500.7469961018386 L442.70663501911133,501.05889432625884 M442.70663501911133,501.05889432625884 L445.39792852332323,501.7690601511299 M445.39792852332323,501.7690601511299 L447.7144308133307,502.83630894992336 M447.7144308133307,502.83630894992336 L447.84472342749734,519.9359691464031 M291.8588017397455,593.0704997817963 L293.6640333054661,594.4424114838087 M293.6640333054661,594.4424114838087 L294.85135847283044,596.031881063123 M294.85135847283044,596.031881063123 L295.35174407610293,597.7465715932999 M295.35174407610293,597.7465715932999 L295.13593793094714,599.4868625329168 M295.13593793094714,599.4868625329168 L294.2163741041225,601.1515981443092 M294.2163741041225,601.1515981443092 L292.6463195836518,602.6440151781773 M292.6463195836518,602.6440151781773 L290.51702542409714,603.8772694482772 M290.51702542409714,603.8772694482772 L287.9521784607632,604.7796417122364 M287.9521784607632,604.7796417122364 L285.100969537801,605.2985759407951 M285.100969537801,605.2985759407951 L282.1291622417242,605.4039010838118 M282.1291622417242,605.4039010838118 L279.20961890617593,605.0894673351171 M279.20961890617593,605.0894673351171 L276.51214076914187,604.3736007005912 M276.51214076914187,604.3736007005912 L274.1936305833774,603.2979290679651 M274.1936305833774,603.2979290679651 L272.38881394269845,601.9250781095224 M272.38881394269845,601.9250781095224 L271.2025938507144,600.3348816507652 M271.2025938507144,600.3348816507652 L270.70376798002997,598.619853661845 M270.70376798002997,598.619853661845 L270.92120519615105,596.8796765415489 M270.92120519615105,596.8796765415489 L271.842115471222,595.2154904550891 M271.842115471222,595.2154904550891 L273.4129139902642,593.7239272028401 M273.4129139902642,593.7239272028401 L275.54218755762406,592.4916402948019 M275.54218755762406,592.4916402948019 L278.10625405482097,591.5901273886492 M278.10625405482097,591.5901273886492 L280.95609313418424,591.0717426760843 M280.95609313418424,591.0717426760843 L283.9262643948232,590.9665369239821 M283.9262643948232,590.9665369239821 L286.8442626019924,591.2806220653522 M286.8442626019924,591.2806220653522 L289.54066649078834,591.995767414012 M289.54066649078834,591.995767414012 L291.8588017397455,593.0704997817963 M291.8588017397455,593.0704997817963 L292.0423215154776,610.1994353253141 M195.79398045925,648.6881984634485 L197.5979493433003,650.0660375718978 M197.5979493433003,650.0660375718978 L198.78195157200946,651.6623266024731 M198.78195157200946,651.6623266024731 L199.27703296134374,653.3843984508869 M199.27703296134374,653.3843984508869 L199.05428747645496,655.1321814139243 M199.05428747645496,655.1321814139243 L198.126552001078,656.8040842530049 M198.126552001078,656.8040842530049 L196.54756786151017,658.3029270202978 M196.54756786151017,658.3029270202978 L194.40910535345978,659.5414914561545 M194.40910535345978,659.5414914561545 L191.83538419340968,660.4477493297107 M191.83538419340968,660.4477493297107 L188.97611181119657,660.9689181475187 M188.97611181119657,660.9689181475187 L185.9975208442567,661.0746968379534 M185.9975208442567,661.0746968379534 L183.07286860411884,660.7589090912207 M183.07286860411884,660.7589090912207 L180.3722922910785,660.0399374903312 M180.3722922910785,660.0399374903312 L178.05276129626571,658.9596565112486 M178.05276129626571,658.9596565112486 L176.24921265641245,657.5808720616653 M176.24921265641245,657.5808720616653 L175.06632295199768,655.9838514718039 M175.06632295199768,655.9838514718039 L174.57280924833083,654.2614399711437 M174.57280924833083,654.2614399711437 L174.79719241145966,652.5137715692182 M174.79719241145966,652.5137715692182 L175.72627808185973,650.8424218074176 M175.72627808185973,650.8424218074176 L177.3060062485141,649.3444383469453 M177.3060062485141,649.3444383469453 L179.44444446761472,648.1068475265638 M179.44444446761472,648.1068475265638 L182.01737858628388,647.2014545600271 M182.01737858628388,647.2014545600271 L184.8752731781571,646.6808388105034 M184.8752731781571,646.6808388105034 L187.85222061117494,646.5751802767553 M187.85222061117494,646.5751802767553 L190.77532239164196,646.8906171746625 M190.77532239164196,646.8906171746625 L193.47482254187807,647.6088627995235 M193.47482254187807,647.6088627995235 L195.79398045925,648.6881984634485 M195.79398045925,648.6881984634485 L196.01049119661982,665.8350722712709 M431.71126294497566,440.3887517643142 L431.57594357091114,423.31506795829614 M431.57594357091114,423.31506795829614 L435.4348869241691,426.21662014991966 M435.4348869241691,426.21662014991966 L437.9813855630103,429.57868726406343 M437.9813855630103,429.57868726406343 L439.0670214298185,433.20615608053026 M439.0670214298185,433.20615608053026 L438.62806686274075,436.8883620978238 M438.62806686274075,436.8883620978238 L436.6894178942078,440.4112545705515 M436.6894178942078,440.4112545705515 L433.36323449810226,443.56987481686235 M433.36323449810226,443.56987481686235 L428.84252028605414,446.180330018723 M428.84252028605414,446.180330018723 L423.3899959477371,448.09054430039066 M423.3899959477371,448.09054430039066 L417.3228369625733,449.18917815195505 M417.3228369625733,449.18917815195505 L410.99419150704927,449.4121616142163 M410.99419150704927,449.4121616142163 L404.7725109429241,448.7464791742991 M404.7725109429241,448.7464791742991 L399.0199414189062,447.2309702307148 M399.0199414189062,447.2309702307148 L394.071223035945,444.95398806791354 M394.071223035945,444.95398806791354 L390.2141395635797,442.0482044483964 M390.2141395635797,442.0482044483964 L387.6726558561487,438.6828752861351 M387.6726558561487,438.6828752861351 L386.5940411128815,435.0538610873267 M386.5940411128815,435.0538610873267 L387.04041458039603,431.3721803773426 M387.04041458039603,431.3721803773426 L388.98518061914547,427.8517635690689 M388.98518061914547,427.8517635690689 L392.314777903774,424.69700218772005 M392.314777903774,424.69700218772005 L396.8354207557587,422.0909050287464 M396.8354207557587,422.0909050287464 L402.28440483216065,420.18454960374106 M402.28440483216065,420.18454960374106 L408.34536566994313,419.08839142044894 M408.34536566994313,419.08839142044894 L414.6665750189649,418.8659332740244 M414.6665750189649,418.8659332740244 L420.88128506815406,419.53007030745107 M420.88128506815406,419.53007030745107 L426.6289464907806,421.0423172009498 M426.6289464907806,421.0423172009498 L431.57594357091114,423.31506795829614 M295.62645513966527,413.2293591788547 L297.41933581589626,414.5822636509639 M297.41933581589626,414.5822636509639 L298.59864040257014,416.1497133327164 M298.59864040257014,416.1497133327164 L299.0957843472249,417.84063924161774 M299.0957843472249,417.84063924161774 L298.88173341022843,419.55681748577695 M298.88173341022843,419.55681748577695 L297.96880298126564,421.1984831320153 M297.96880298126564,421.1984831320153 L296.4098858755404,422.6702196983447 M296.4098858755404,422.6702196983447 L294.29557721470326,423.8863815650144 M294.29557721470326,423.8863815650144 L291.7486933302858,424.7762440556612 M291.7486933302858,424.7762440556612 L288.91738878252704,425.28798557735115 M288.91738878252704,425.28798557735115 L285.9662598202018,425.3918480902863 M285.9662598202018,425.3918480902863 L283.0669833824356,425.08177809591587 M283.0669833824356,425.08177809591587 L280.38815364023446,424.37583089080795 M280.38815364023446,424.37583089080795 L278.08560637889974,423.31506795829614 M278.08560637889974,423.31506795829614 L276.2931347410488,421.9612436847476 M276.2931347410488,421.9612436847476 L275.114929103332,420.39308765670773 M275.114929103332,420.39308765670773 L274.6193046437726,418.7018203245715 M274.6193046437726,418.7018203245715 L274.83497335934146,416.98575901934066 M274.83497335934146,416.98575901934066 L275.74923165914964,415.3446315156243 M275.74923165914964,415.3446315156243 L277.30889187112757,413.87373652354734 M277.30889187112757,413.87373652354734 L279.42318036629945,412.65852198179107 M279.42318036629945,412.65852198179107 L281.9692854322576,411.76949557174487 M281.9692854322576,411.76949557174487 L284.79923919841076,411.2582921838226 M284.79923919841076,411.2582921838226 L287.74874552052137,411.1545411116663 M287.74874552052137,411.1545411116663 L290.64651677490343,411.46428067381873 M290.64651677490343,411.46428067381873 L293.3242777567607,412.16951605601867 M293.3242777567607,412.16951605601867 L295.62645513966527,413.2293591788547 M295.62645513966527,413.2293591788547 L295.8074328227308,430.2997365580204 M155.29668823236426,599.9767808825762 L155.06694273300445,582.8511501734206 M155.06694273300445,582.8511501734206 L158.91847096818918,585.7888146804835 M158.91847096818918,585.7888146804835 L161.44438850757103,589.1927565657096 M161.44438850757103,589.1927565657096 L162.49746504741955,592.8654342335659 M162.49746504741955,592.8654342335659 L162.0159693935865,596.5934929628381 M162.0159693935865,596.5934929628381 L160.02714915777028,600.1602818209823 M160.02714915777028,600.1602818209823 L156.64607604748215,603.3582869656298 M156.64607604748215,603.3582869656298 L152.06901849621187,606.0012772396193 M152.06901849621187,606.0012772396193 L146.56189838373,607.9353236532504 M146.56189838373,607.9353236532504 L140.44514638269442,609.0476522108976 M140.44514638269442,609.0476522108976 L134.0748019801643,609.273392968657 M134.0748019801643,609.273392968657 L127.82163487405086,608.5994348247383 M127.82163487405086,608.5994348247383 L122.04974038453491,607.0650352204112 M122.04974038453491,607.0650352204112 L117.09498393686789,604.7596505188433 M117.09498393686789,604.7596505188433 L113.24538479943311,601.8176752922866 M113.24538479943311,601.8176752922866 L110.72458022014894,598.4104101992758 M110.72458022014894,598.4104101992758 L109.67862917116736,594.7361581646093 M109.67862917116736,594.7361581646093 L110.16763039041257,591.0086345800449 M110.16763039041257,591.0086345800449 L112.16261694060603,587.4443677810362 M112.16261694060603,587.4443677810362 L115.54710444258643,584.2502938586796 M115.54710444258643,584.2502938586796 L120.12404225558538,581.6117433202271 M120.12404225558538,581.6117433202271 L125.62753592738522,579.6816281472155 M125.62753592738522,579.6816281472155 L131.73798557278684,578.571821668725 M131.73798557278684,578.571821668725 L138.10079554257987,578.3466160214832 M138.10079554257987,578.3466160214832 L144.3469220760045,579.0189998408185 M144.3469220760045,579.0189998408185 L150.11388285933288,580.5500762417901 M150.11388285933288,580.5500762417901 L155.06694273300445,582.8511501734206 M139.78396670179563,502.83630894992336 L141.574865728825,504.1986673165129 M141.574865728825,504.1986673165129 L142.748743251574,505.7770707283944 M142.748743251574,505.7770707283944 L143.23732946901112,507.4798140033421 M143.23732946901112,507.4798140033421 L143.01208624863256,509.20798689374783 M143.01208624863256,509.20798689374783 L142.0859786818164,510.861127159244 M142.0859786818164,510.861127159244 L140.51266447822877,512.3431512314958 M140.51266447822877,512.3431512314958 L138.38357592625061,513.5678145721142 M138.38357592625061,513.5678145721142 L135.8223883890846,514.4638978254387 M135.8223883890846,514.4638978254387 L132.9780890665778,514.9792168771896 M132.9780890665778,514.9792168771896 L130.01603010683823,515.0838054905471 M130.01603010683823,515.0838054905471 L127.10852483772453,514.7715678127679 M127.10852483772453,514.7715678127679 L124.42464624352198,514.0606854650489 M124.42464624352198,514.0606854650489 L122.12052416842926,512.9925071968639 M122.12052416842926,512.9925071968639 L120.33004265801935,511.62921936920657 M120.33004265801935,511.62921936920657 L119.15727606393239,510.05010218343216 M119.15727606393239,510.05010218343216 L118.67022206976321,508.3470139189769 M118.67022206976321,508.3470139189769 L118.897093644748,506.6189591859227 M118.897093644748,506.6189591859227 L119.82453507522035,504.9663627144473 M119.82453507522035,504.9663627144473 L121.39859242087084,503.4851890448915 M121.39859242087084,503.4851890448915 L123.52765487864121,502.26148297786324 M123.52765487864121,502.26148297786324 L126.08805306244824,501.3662445951975 M126.08805306244824,501.3662445951975 L128.93098887499184,500.8514693286214 M128.93098887499184,500.8514693286214 L131.89141318923663,500.74699333603223 M131.89141318923663,500.74699333603223 L134.7974047413946,501.05889709213216 M134.7974047413946,501.05889709213216 L137.48021147072677,501.7690601511299 M137.48021147072677,501.7690601511299 L139.78396670179563,502.83630894992336 M139.78396670179563,502.83630894992336 L140.01815824944566,519.9359691464031 M43.72913359323945,558.0663087523089 L45.51874404502598,559.4345327312625 M45.51874404502598,559.4345327312625 L46.689282165267,561.0196843419104 M46.689282165267,561.0196843419104 L47.172558108791975,562.7297318543336 M47.172558108791975,562.7297318543336 L46.94038024505238,564.4653185621156 M46.94038024505238,564.4653185621156 L46.00611621659061,566.1255512234102 M46.00611621659061,566.1255512234102 L44.423897194092945,567.6139339468303 M44.423897194092945,567.6139339468303 L42.28567326816233,568.8438520043426 M42.28567326816233,568.8438520043426 L39.71565076758901,569.7437802801016 M39.71565076758901,569.7437802801016 L36.86333119302856,570.261310585879 M36.86333119302856,570.261310585879 L33.89453322868292,570.366347998441 M33.89453322868292,570.366347998441 L30.981962576580656,570.0527704859416 M30.981962576580656,570.0527704859416 L28.295025645836915,569.3388155063979 M28.295025645836915,569.3388155063979 L25.98991661055834,568.2660761012429 M25.98991661055834,568.2660761012429 L24.200728974464198,566.8969166610243 M24.200728974464198,566.8969166610243 L23.03130918042575,565.3110466854166 M23.03130918042575,565.3110466854166 L22.549573344338853,563.6006519730595 M22.549573344338853,563.6006519730595 L22.783386095981427,561.8651841778141 M22.783386095981427,561.8651841778141 L23.7189876751238,560.2054988135257 M23.7189876751238,560.2054988135257 L25.301949835116147,558.7179719649281 M25.301949835116147,558.7179719649281 L27.440143972351734,557.4890173475238 M27.440143972351734,557.4890173475238 L30.00937058142165,556.5899393908242 M30.00937058142165,556.5899393908242 L32.86031876160678,556.0729563731504 M32.86031876160678,556.0729563731504 L35.827474656498225,555.9680323127865 M35.827474656498225,555.9680323127865 L38.7385263276538,556.2812737406566 M38.7385263276538,556.2812737406566 L41.42438952698751,556.9945047827138 M41.42438952698751,556.9945047827138 L43.72913359323945,558.0663087523089 M43.72913359323945,558.0663087523089 L43.99630596748153,575.1839129364272" stroke="black"  stroke-width="4"  fill="red"/>
<path d="M432.2845234848568,354.18555686419074 L432.735033516902,411.2057146602443 M432.735033516902,411.2057146602443 L427.45713037134084,408.7821237074402 M427.45713037134084,408.7821237074402 L421.32510382134245,407.16952476618974 M421.32510382134245,407.16952476618974 L414.6948205420774,406.46133536718764 M414.6948205420774,406.46133536718764 L407.9509805365151,406.6985341430495 M407.9509805365151,406.6985341430495 L401.48470898322756,407.8674333662508 M401.48470898322756,407.8674333662508 L395.67127108041353,409.9002986468728 M395.67127108041353,409.9002986468728 L390.84814174053474,412.6793842606321 M390.84814174053474,412.6793842606321 L387.2956373718565,416.0435911365614 M387.2956373718565,416.0435911365614 L385.22050938659123,419.7978000913156 M385.22050938659123,419.7978000913156 L384.7440251813725,423.72402998732 M384.7440251813725,423.72402998732 L385.89451743390237,427.5942001255214 M385.89451743390237,427.5942001255214 L388.6058572672221,431.1832118142953 M388.6058572672221,431.1832118142953 L392.72093263737315,434.2821832482242 M392.72093263737315,434.2821832482242 L398.0007950911052,436.71058863750227 M398.0007950911052,436.71058863750227 L404.1384084524974,438.3268991004736 M404.1384084524974,438.3268991004736 L410.7766262175459,439.03684680562617 M410.7766262175459,439.03684680562617 L417.528930624989,438.7990503820806 M417.528930624989,438.7990503820806 L424.00225748658306,437.6273343616506 M424.00225748658306,437.6273343616506 L429.81972525095983,435.59007852872344 M429.81972525095983,435.59007852872344 L434.6429358375612,432.8060343810623 M434.6429358375612,432.8060343810623 L438.1915542261933,429.4374369507932 M438.1915542261933,429.4374369507932 L440.25971921354244,425.68041122508 M440.25971921354244,425.68041122508 L440.7277586062436,421.7535836487833 M440.7277586062436,421.7535836487833 L439.5692742485261,417.8851718297228 M439.5692742485261,417.8851718297228 L436.85222597288384,414.2998716475289 M436.85222597288384,414.2998716475289 L432.735033516902,411.2057146602443 M432.2845234848568,354.18555686419074 L436.4062861575666,357.2763139168908 M436.4062861575666,357.2763139168908 L439.1263244211412,360.85767553025516 M439.1263244211412,360.85767553025516 L440.2860436392408,364.72183903230734 M440.2860436392408,364.72183903230734 L439.81741073283206,368.64435547574203 M439.81741073283206,368.64435547574203 L437.7468566364622,372.3972577490381 M437.7468566364622,372.3972577490381 L434.19419113728264,375.76215908721804 M434.19419113728264,375.76215908721804 L429.3655098553113,378.5431492742979 M429.3655098553113,378.5431492742979 L423.54146579308934,380.57817076591516 M423.54146579308934,380.57817076591516 L417.0608399616867,381.7486018819386 M417.0608399616867,381.7486018819386 L410.30093954581935,381.9861375524375 M410.30093954581935,381.9861375524375 L403.65527172657454,381.27696834725225 M403.65527172657454,381.27696834725225 L397.51078881648937,379.66243042922054 M397.51078881648937,379.66243042922054 L392.22503759082105,377.23668860679186 M392.22503759082105,377.23668860679186 L388.1053968529523,374.1411169899243 M388.1053968529523,374.1411169899243 L385.3910799353555,370.55604377938175 M385.3910799353555,370.55604377938175 L384.2393708247658,366.69012191526815 M384.2393708247658,366.69012191526815 L384.71646752043193,362.7682031667151 M384.71646752043193,362.7682031667151 L386.79400021872135,359.01811773313534 M386.79400021872135,359.01811773313534 L390.3505603543809,355.65760705647006 M390.3505603543809,355.65760705647006 L395.1791601154585,352.88157552433336 M395.1791601154585,352.88157552433336 L400.99916517414647,350.8509446921996 M400.99916517414647,350.8509446921996 L407.47271978172944,349.68333044216683 M407.47271978172944,349.68333044216683 L414.2241367528669,349.4463924339411 M414.2241367528669,349.4463924339411 L420.8618522784443,350.15380329005313 M420.8618522784443,350.15380329005313 L427.0007358839336,351.76462959576077 M427.0007358839336,351.76462959576077 L432.2845234848568,354.18555686419074 M421.02507071356166,360.66449995066114 L422.8280932635196,362.01729123102155 M422.8280932635196,362.01729123102155 L424.01738037495886,363.58460850777 M424.01738037495886,363.58460850777 L424.5237745524386,365.27539492430424 M424.5237745524386,365.27539492430424 L424.3176943093069,366.9914292669231 M424.3176943093069,366.9914292669231 L423.4109986726162,368.63295935409826 M423.4109986726162,368.63295935409826 L421.8562111491703,370.10457275333704 M421.8562111491703,370.10457275333704 L419.7436918988392,371.32063422725287 M419.7436918988392,371.32063422725287 L417.1961529205276,372.210424778822 M417.1961529205276,372.210424778822 L414.36178100821115,372.722123506883 M414.36178100821115,372.722123506883 L411.4053572931196,372.8259785098978 M411.4053572931196,372.8259785098978 L408.4988594311207,372.5159323001217 M408.4988594311207,372.5159323001217 L405.81131124629667,371.81004433031364 M405.81131124629667,371.81004433031364 L403.4990484974757,370.7493684408706 M403.4990484974757,370.7493684408706 L401.69643208972263,369.39565562700943 M401.69643208972263,369.39565562700943 L400.508240098496,367.82762792076335 M400.508240098496,367.82762792076335 L400.0033791026157,366.1365049450317 M400.0033791026157,366.1365049450317 L400.2110793715444,364.42058500818075 M400.2110793715444,364.42058500818075 L401.11911074362024,362.77959407706317 M401.11911074362024,362.77959407706317 L402.67464372746196,361.30882108344963 M402.67464372746196,361.30882108344963 L404.7871473740709,360.093708718214 M404.7871473740709,360.093708718214 L407.33391325870457,359.2047585748368 M407.33391325870457,359.2047585748368 L410.16693170780604,358.6935989930522 M410.16693170780604,358.6935989930522 L413.1217316352512,358.58985839356956 M413.1217316352512,358.58985839356956 L416.0267073819459,358.89956804347173 M416.0267073819459,358.89956804347173 L418.71318380582943,359.6047456031331 M418.71318380582943,359.6047456031331 L421.02507071356166,360.66449995066114 M421.48832887872163,417.69178383577434 L423.28935254024486,419.04606256610145 M423.28935254024486,419.04606256610145 L424.47733314744465,420.61510297250027 M424.47733314744465,420.61510297250027 L424.98318928492137,422.30774802095664 M424.98318928492137,422.30774802095664 L424.77737105280534,424.0256684936594 M424.77737105280534,424.0256684936594 L423.8717225378932,425.6690025802169 M423.8717225378932,425.6690025802169 L422.3187067111676,427.1422330440398 M422.3187067111676,427.1422330440398 L420.20858083575683,428.35963062919905 M420.20858083575683,428.35963062919905 L417.6639178813663,429.25039872947934 M417.6639178813663,429.25039872947934 L414.8327372724392,429.7626595926108 M414.8327372724392,429.7626595926108 L411.87963447839127,429.8666286844498 M411.87963447839127,429.8666286844498 L408.97639381828344,429.55624187386127 M408.97639381828344,429.55624187386127 L406.2918495521712,428.84957842043116 M406.2918495521712,428.84957842043116 L403.98216259682465,427.78773719772585 M403.98216259682465,427.78773719772585 L402.18154414939715,426.4325369563919 M402.18154414939715,426.4325369563919 L400.99465619252777,424.86278613783657 M400.99465619252777,424.86278613783657 L400.4903297909005,423.1698045383979 M400.4903297909005,423.1698045383979 L400.697764416539,421.45199846867047 M400.697764416539,421.45199846867047 L401.60474568016105,419.8092035250103 M401.60474568016105,419.8092035250103 L403.15850531038154,418.3368134462987 M403.15850531038154,418.3368134462987 L405.2686156345491,417.12036494665244 M405.2686156345491,417.12036494665244 L407.8125072450993,416.2304372340503 M407.8125072450993,416.2304372340503 L410.64233743710923,415.718715504035 M410.64233743710923,415.718715504035 L413.5938200884377,415.6148608129355 M413.5938200884377,415.6148608129355 L416.49554204177304,415.9249110718654 M416.49554204177304,415.9249110718654 L419.17901693826445,416.6308641324897 M419.17901693826445,416.6308641324897 L421.48832887872163,417.69178383577434 M421.48832887872163,417.69178383577434 L421.02507071356166,360.66449995066114" stroke="black"  stroke-width="4"  fill="red"/>
<path d="M155.4127687917598,513.5038094777616 L156.17860737089774,570.6981320952 M156.17860737089774,570.6981320952 L150.89423111323583,568.2443337813572 M150.89423111323583,568.2443337813572 L144.74157180870492,566.6116742502855 M144.74157180870492,566.6116742502855 L138.0778445721724,565.8946434114172 M138.0778445721724,565.8946434114172 L131.289534678478,566.1348182844102 M131.289534678478,566.1348182844102 L124.77049338890407,567.3182519930197 M124.77049338890407,567.3182519930197 L118.89889123263339,569.3764571569069 M118.89889123263339,569.3764571569069 L114.01568819421715,572.1901572169324 M114.01568819421715,572.1901572169324 L110.40461022418884,575.5962937480864 M110.40461022418884,575.5962937480864 L108.27592608039663,579.3972525501682 M108.27592608039663,579.3972525501682 L107.75386897144,583.3724273620422 M107.75386897144,583.3724273620422 L108.86957992397481,587.2908067017293 M108.86957992397481,587.2908067017293 L111.55880979198804,590.9245748220075 M111.55880979198804,590.9245748220075 L115.66589311914623,594.0621552094276 M115.66589311914623,594.0621552094276 L120.95220053388493,596.5208582768549 M120.95220053388493,596.5208582768549 L127.11047586338913,598.1572988701902 M127.11047586338913,598.1572988701902 L133.78221723088546,598.876121039449 M133.78221723088546,598.876121039449 L140.5791035707773,598.6353372563282 M140.5791035707773,598.6353372563282 L147.1053187737624,597.4490339887996 M147.1053187737624,597.4490339887996 L152.98104890894018,595.3863558999218 M152.98104890894018,595.3863558999218 L157.86438827560147,592.567604335857 M157.86438827560147,592.567604335857 L161.47157969459914,589.1569949062133 M161.47157969459914,589.1569949062133 L163.593244813509,585.3531665434443 M163.593244813509,585.3531665434443 L164.10675834537943,581.3773828484992 M164.10675834537943,581.3773828484992 L162.98293657688555,577.4607947921496 M162.98293657688555,577.4607947921496 L160.28788659523389,573.8308077968669 M160.28788659523389,573.8308077968669 L156.17860737089774,570.6981320952 M155.4127687917598,513.5038094777616 L159.52659944100117,516.6330865628711 M159.52659944100117,516.6330865628711 L162.224588804443,520.2591364843057 M162.224588804443,520.2591364843057 L163.3495660953365,524.1714779108407 M163.3495660953365,524.1714779108407 L162.8353553831352,528.1429521623525 M162.8353553831352,528.1429521623525 L160.7111793284938,531.9426587603317 M160.7111793284938,531.9426587603317 L157.0998077034153,535.3495735851775 M157.0998077034153,535.3495735851775 L152.2108611413667,538.1652724520665 M152.2108611413667,538.1652724520665 L146.32842266470203,540.2257171081616 M146.32842266470203,540.2257171081616 L139.7947887366522,541.4107360349886 M139.7947887366522,541.4107360349886 L132.99020574275738,541.6512591506904 M132.99020574275738,541.6512591506904 L126.31093883963803,540.9332151780799 M126.31093883963803,540.9332151780799 L120.14574788019996,539.2985463631195 M120.14574788019996,539.2985463631195 L114.85353787321134,536.8425057794343 M114.85353787321134,536.8425057794343 L110.74190823923527,533.7083237861546 M110.74190823923527,533.7083237861546 L108.04975227274014,530.0784925682598 M108.04975227274014,530.0784925682598 L106.93290420284262,526.1643597771578 M106.93290420284262,526.1643597771578 L107.45567780286348,522.193494436328 M107.45567780286348,522.193494436328 L109.58688867477639,518.396657529163 M109.58688867477639,518.396657529163 L113.20215550720206,514.9942158056425 M113.20215550720206,514.9942158056425 L118.09096527809368,512.1835686718689 M118.09096527809368,512.1835686718689 L123.9692662997482,510.1275971436048 M123.9692662997482,510.1275971436048 L130.49570999605953,508.945447905828 M130.49570999605953,508.945447905828 L137.29169712140958,508.70553372786765 M137.29169712140958,508.70553372786765 L143.9629318168275,509.4217862888528 M143.9629318168275,509.4217862888528 L150.1224941609848,511.0526738700836 M150.1224941609848,511.0526738700836 L155.4127687917598,513.5038094777616 M144.0128993306654,520.0635514947022 L145.81238647200064,521.4332382937305 M145.81238647200064,521.4332382937305 L146.99206867007973,523.0200834778158 M146.99206867007973,523.0200834778158 L147.48323171672246,524.731961515317 M147.48323171672246,524.731961515317 L147.25721575654688,526.4694038680157 M147.25721575654688,526.4694038680157 L146.32703705534573,528.1314138568742 M146.32703705534573,528.1314138568742 L144.7465822367593,529.6213883840977 M144.7465822367593,529.6213883840977 L142.60770396601777,530.852623300436 M142.60770396601777,530.852623300436 L140.03464627228868,531.7535166995186 M140.03464627228868,531.7535166995186 L137.1770814412136,532.2716006039539 M137.1770814412136,532.2716006039539 L134.2011397291663,532.3767515659113 M134.2011397291663,532.3767515659113 L131.27993521583863,532.0628364474017 M131.27993521583863,532.0628364474017 L128.58338616421918,531.3481179690398 M128.58338616421918,531.3481179690398 L126.26823873822195,530.2742294381518 M126.26823873822195,530.2742294381518 L124.46917291797433,528.9036037947715 M124.46917291797433,528.9036037947715 L123.29060724510629,527.316034858713 M123.29060724510629,527.316034858713 L122.80100018895138,525.6038139445135 M122.80100018895138,525.6038139445135 L123.02865513313174,523.8664881450759 M123.02865513313174,523.8664881450759 L123.96018033413344,522.20502743269 M123.96018033413344,522.20502743269 L125.54138071779772,520.7159090862169 M125.54138071779772,520.7159090862169 L127.68023280583566,519.485641094132 M127.68023280583566,519.485641094132 L130.25249856647042,518.5856038784149 M130.25249856647042,518.5856038784149 L133.10868715090885,518.0680692404889 M133.10868715090885,518.0680692404889 L136.08298356673816,517.9630348295148 M136.08298356673816,517.9630348295148 L139.0026506586109,518.2766070706363 M139.0026506586109,518.2766070706363 L141.6981223815244,518.9906017825328 M141.6981223815244,518.9906017825328 L144.0128993306654,520.0635514947022 M144.7918038574041,577.2649974706773 L146.58930042815302,578.6361711648813 M146.58930042815302,578.6361711648813 L147.7676982458525,580.2247387798997 M147.7676982458525,580.2247387798997 L148.25835803171157,581.9384747170335 M148.25835803171157,581.9384747170335 L148.0326494587452,583.6778024517236 M148.0326494587452,583.6778024517236 L147.1035712202489,585.3416157197622 M147.1035712202489,585.3416157197622 L145.52494630876282,586.8332066621014 M145.52494630876282,586.8332066621014 L143.3885211079329,588.0657771502753 M143.3885211079329,588.0657771502753 L140.81839714711634,588.9676477018244 M140.81839714711634,588.9676477018244 L137.9640759812471,589.4862935128612 M137.9640759812471,589.4862935128612 L134.9914991568209,589.5915585172191 M134.9914991568209,589.5915585172191 L132.0735848547228,589.2773029364355 M132.0735848547228,589.2773029364355 L129.3800598073259,588.5618092651147 M129.3800598073259,588.5618092651147 L127.06749429670242,587.4867558966029 M127.06749429670242,587.4867558966029 L125.27041806733303,586.114643400619 M125.27041806733303,586.114643400619 L124.09313423239024,584.5253520664461 M124.09313423239024,584.5253520664461 L123.6040269141647,582.811273268162 M123.6040269141647,582.811273268162 L123.83137077495513,581.0720620814477 M123.83137077495513,581.0720620814477 L124.76179249050881,579.4087980649749 M124.76179249050881,579.4087980649749 L126.34116131020454,577.918063264562 M126.34116131020454,577.918063264562 L128.4775604169355,576.6864596567962 M128.4775604169355,576.6864596567962 L131.04689425843924,575.7854452497888 M131.04689425843924,575.7854452497888 L133.89984230108115,575.2673486803543 M133.89984230108115,575.2673486803543 L136.8707775468315,575.1622002216944 M136.8707775468315,575.1622002216944 L139.78715788748963,575.4761129406381 M139.78715788748963,575.4761129406381 L142.47960801599038,576.1908828783131 M142.47960801599038,576.1908828783131 L144.7918038574041,577.2649974706773 M144.7918038574041,577.2649974706773 L144.0128993306654,520.0635514947022" stroke="black"  stroke-width="4"  fill="red"/></svg>