<svg viewBox="0 0 800 800" xmlns="http://www.w3.org/2000/svg"><path d="M224.62316007628843,248.73920323903587 L175.56483498610748,220.50303655311768 M175.56483498610748,220.50303655311768 L175.37694018759078,204.45217114718037 M224.46701383989978,232.66893056524376 L175.37694018759078,204.45217114718037 M224.46701383989978,232.66893056524376 L224.62316007628843,248.73920323903587 M131.11415222943293,301.3567810036692 L144.64761666036915,291.418210806311 M144.64761666036915,291.418210806311 L159.059362075914,281.91503005283397 M159.059362075914,281.91503005283397 L174.30753872180173,272.87239044023323 M174.30753872180173,272.87239044023323 L190.3483455697338,264.314143832435 M190.3483455697338,264.314143832435 L207.13603584273852,256.2627297617497 M207.13603584273852,256.2627297617497 L224.62316007628843,248.73920323903587 M82.06222640225445,272.87239044023283 L131.11415222943293,301.3567810036692 M82.47849586218024,259.73708400497594 L81.61229499414213,264.10577677206214 M81.61229499414213,264.10577677206214 L81.47288768096257,268.4973149555726 M81.47288768096257,268.4973149555726 L82.06222640225445,272.87239044023283 M175.56483498610748,220.50303655311768 L167.93285416320532,220.09141080259508 M167.93285416320532,220.09141080259508 L160.25663166608848,220.0913933998769 M160.25663166608848,220.0913933998769 L152.604090607365,220.50303655311768 M152.604090607365,220.50303655311768 L82.47849586218024,259.73708400497594 M194.00228450337946,243.0311912395059 L194.86244074894154,242.4167005911616 M194.86244074894154,242.4167005911616 L195.44157698370634,241.704945812121 M195.44157698370634,241.704945812121 L195.70605546360014,240.93729996853676 M195.70605546360014,240.93729996853676 L195.64056357191873,240.15839775482215 M195.64056357191873,240.15839775482215 L195.24898470735823,239.41350467728714 M195.24898470735823,239.41350467728714 L194.5541014162762,238.74587651054242 M194.5541014162762,238.74587651054242 L193.59635895868374,238.19429827710553 M193.59635895868374,238.19429827710553 L192.43139088009414,237.7907739250496 M192.43139088009414,237.7907739250496 L191.1269011394298,237.55874110156043 M191.1269011394298,237.55874110156043 L189.75862571815816,237.51164894654463 M189.75862571815816,237.51164894654463 L188.4060263104672,237.65223834126363 M188.4060263104672,237.65223834126363 L187.14766817836065,237.97235115612418 M187.14766817836065,237.97235115612418 L186.056608252229,238.45339785760223 M186.056608252229,238.45339785760223 L185.19628500697115,239.067481865232 M185.19628500697115,239.067481865232 L184.61666533122735,239.77892441356107 M184.61666533122735,239.77892441356107 L184.35150607831082,240.54641925245397 M184.35150607831082,240.54641925245397 L184.41626351553563,241.32537319613948 M184.41626351553563,241.32537319613948 L184.80723087982045,242.07050418116944 M184.80723087982045,242.07050418116944 L185.5017612604264,242.7385044320057 M185.5017612604264,242.7385044320057 L186.45949418611374,243.29050146843116 M186.45949418611374,243.29050146843116 L187.62479829477147,243.6943954110376 M187.62479829477147,243.6943954110376 L188.92988870635642,243.92666613815015 M188.92988870635642,243.92666613815015 L190.29889628420415,243.97380752760833 M190.29889628420415,243.97380752760833 L191.65218322509224,243.83307211692005 M191.65218322509224,243.83307211692005 L192.9110390677169,243.51264457052383 M192.9110390677169,243.51264457052383 L194.00228450337946,243.0311912395059 M121.53488308672155,283.7306968503465 L122.4016926708544,283.1120230152103 M122.4016926708544,283.1120230152103 L122.98711979690432,282.3954219308043 M122.98711979690432,282.3954219308043 L123.25715245593017,281.6225534131747 M123.25715245593017,281.6225534131747 L123.1961686645771,280.83834848222057 M123.1961686645771,280.83834848222057 L122.8077814962104,280.0883857447764 M122.8077814962104,280.0883857447764 L122.11459295532813,279.41621278851613 M122.11459295532813,279.41621278851613 L121.1569458691597,278.86088098938114 M121.1569458691597,278.86088098938114 L119.99046846671058,278.4546119639498 M119.99046846671058,278.4546119639498 L118.68295675302437,278.22100023058033 M118.68295675302437,278.22100023058033 L117.31031764696519,278.1735888872782 M117.31031764696519,278.1735888872782 L115.95227482741484,278.3151324305003 M115.95227482741484,278.3151324305003 L114.6876963261733,278.6374247920297 M114.6876963261733,278.6374247920297 L113.59000891103182,279.1217450118504 M113.59000891103182,279.1217450118504 L112.72303366810615,279.7400080475545 M112.72303366810615,279.7400080475545 L112.13712619437536,280.4562911921175 M112.13712619437536,280.4562911921175 L111.86640008582378,281.2290121926218 M111.86640008582378,281.2290121926218 L111.92664858997603,282.0132668666436 M111.92664858997603,282.0132668666436 L112.31441864640999,282.76346994466434 M112.31441864640999,282.76346994466434 L113.00725408917674,283.4360162743763 M113.00725408917674,283.4360162743763 L113.96488902688367,283.99177115960094 M113.96488902688367,283.99177115960094 L115.13169801327797,284.3984160713343 M115.13169801327797,284.3984160713343 L116.43981303681636,284.63226814136914 M116.43981303681636,284.63226814136914 L117.8131845014006,284.67973173858115 M117.8131845014006,284.67973173858115 L119.17192938634872,284.5380356541905 M119.17192938634872,284.5380356541905 L120.43700642188293,284.21542785831 M120.43700642188293,284.21542785831 L121.53488308672155,283.7306968503465 M144.2132527048094,255.47429514918045 L145.0768599666497,254.85852688119897 M145.0768599666497,254.85852688119897 L145.6595609130478,254.14529182166197 M145.6595609130478,254.14529182166197 L145.92750537340982,253.37605207556743 M145.92750537340982,253.37605207556743 L145.86518799827465,252.59553016657748 M145.86518799827465,252.59553016657748 L145.47630263387333,251.84908864774692 M145.47630263387333,251.84908864774692 L144.7834769406296,251.18007239085395 M144.7834769406296,251.18007239085395 L143.82703514951527,250.62734792560573 M143.82703514951527,250.62734792560573 L142.6625354044503,250.22298566988957 M142.6625354044503,250.22298566988957 L141.3576560808852,249.9904710045926 M141.3576560808852,249.9904710045926 L139.98815439254088,249.94328177605666 M139.98815439254088,249.94328177605666 L138.63356837084388,250.08416158940454 M138.63356837084388,250.08416158940454 L137.37256990737012,250.40494033421777 M137.37256990737012,250.40494033421777 L136.278374484531,250.8869868700823 M136.278374484531,250.8869868700823 L135.41460156988848,251.5023472287834 M135.41460156988848,251.5023472287834 L134.8314197099195,252.21526783241882 M134.8314197099195,252.21526783241882 L134.56278922773402,252.98435860537697 M134.56278922773402,252.98435860537697 L134.62437263782925,253.76493115445112 M134.62437263782925,253.76493115445112 L135.0126442394411,254.5116113230333 M135.0126442394411,254.5116113230333 L135.7051169701819,255.18099957350887 M135.7051169701819,255.18099957350887 L136.66154746484892,255.73414414819817 M136.66154746484892,255.73414414819817 L137.82638016711155,256.13887839863173 M137.82638016711155,256.13887839863173 L139.13186041938297,256.3716317093494 M139.13186041938297,256.3716317093494 L140.5020933494987,256.4188715769794 M140.5020933494987,256.4188715769794 L141.8573734046135,256.2778427901966 M141.8573734046135,256.2778427901966 L143.11886969277776,255.9567495831874 M143.11886969277776,255.9567495831874 L144.2132527048094,255.47429514918045 M152.604090607365,220.50303655311768 L152.40116422496698,204.45217114718037 M175.37694018759078,204.45217114718037 L167.73996962394722,204.04082896038594 M167.73996962394722,204.04082896038594 L160.05872195002308,204.04081156965663 M160.05872195002308,204.04081156965663 L152.40116422496698,204.45217114718037 M130.89568855746575,285.2505760613684 L144.43824597893394,275.3187696488476 M144.43824597893394,275.3187696488476 L158.8596403161813,265.8220664829233 M158.8596403161813,265.8220664829233 L174.1179935595013,256.7855997200038 M174.1179935595013,256.7855997200038 L190.1694754557902,248.23320354021322 M190.1694754557902,248.23320354021322 L206.96830903782129,240.1873007446489 M206.96830903782129,240.1873007446489 L224.46701383989978,232.66893056524376 M81.81202678801787,256.7855997200035 L130.89568855746575,285.2505760613684 M82.22884355094334,243.65927588667225 L81.3619825480722,248.0249790197866 M81.3619825480722,248.0249790197866 L81.22239192467737,252.41351404081334 M81.22239192467737,252.41351404081334 L81.81202678801787,256.7855997200035 M152.40116422496698,204.45217114718037 L82.22884355094334,243.65927588667225 M193.8261284943825,226.96483475651306 L194.68685793025534,226.35076591460887 M194.68685793025534,226.35076591460887 L195.26638441938277,225.63949975894087 M195.26638441938277,225.63949975894087 L195.53104757724762,224.8723809703858 M195.53104757724762,224.8723809703858 L195.4655241304463,224.09401360609058 M195.4655241304463,224.09401360609058 L195.07369940329147,223.3496320870101 M195.07369940329147,223.3496320870101 L194.3783702822269,222.68246246832507 M194.3783702822269,222.68246246832507 L193.42000799725156,222.1312631129991 M193.42000799725156,222.1312631129991 L192.25428209958775,221.72801596219696 M192.25428209958775,221.72801596219696 L190.9489405714863,221.49614254184115 M190.9489405714863,221.49614254184115 L189.57976881408808,221.4490827391618 M189.57976881408808,221.4490827391618 L188.22628053470686,221.5895755496084 M188.22628053470686,221.5895755496084 L186.9670925862375,221.9094684564971 M186.9670925862375,221.9094684564971 L185.87531004828872,222.3901847143062 M185.87531004828872,222.3901847143062 L185.0144133996974,223.0038469282343 M185.0144133996974,223.0038469282343 L184.43440284145169,223.71480086215448 M184.43440284145169,223.71480086215448 L184.16905801674633,224.48176865238355 M184.16905801674633,224.48176865238355 L184.23384604618838,225.26018774421166 M184.23384604618838,225.26018774421166 L184.62505846723775,226.0048071633344 M184.62505846723775,226.0048071633344 L185.32003421071292,226.6723488536375 M185.32003421071292,226.6723488536375 L186.2783869450185,227.22396699883242 M186.2783869450185,227.22396699883242 L187.4444493066327,227.62758372942474 M187.4444493066327,227.62758372942474 L188.7503922901659,227.85969504595124 M188.7503922901659,227.85969504595124 L190.1202971625192,227.90680408234803 M190.1202971625192,227.90680408234803 L191.4744738822235,227.76616525887147 M191.4744738822235,227.76616525887147 L192.7341601974415,227.4459576311238 M192.7341601974415,227.4459576311238 L193.8261284943825,226.96483475651306 M121.31043517054508,267.63649491614484 L122.1778267601432,267.01824300313854 M122.1778267601432,267.01824300313854 L122.76365248825306,266.3021306774854 M122.76365248825306,266.3021306774854 L123.03387721473746,265.5297893588869 M123.03387721473746,265.5297893588869 L122.9728678794429,264.74611942672715 M122.9728678794429,264.74611942672715 L122.58423912704507,263.99666839039855 M122.58423912704507,263.99666839039855 L121.89060705740877,263.3249541114395 M121.89060705740877,263.3249541114395 L120.93234033190299,262.7700012968557 M120.93234033190299,262.7700012968557 L119.76510317476533,262.36400954990404 M119.76510317476533,262.36400954990404 L118.45673572974727,262.13055726464836 M118.45673572974727,262.13055726464836 L117.08319456117454,262.0831782819621 M117.08319456117454,262.0831782819621 L115.72425569891419,262.22462521535704 M115.72425569891419,262.22462521535704 L114.45883917274176,262.5466976060519 M114.45883917274176,262.5466976060519 L113.36042038167608,263.03068728923716 M113.36042038167608,263.03068728923716 L112.49286292297734,263.64852841293475 M112.49286292297734,263.64852841293475 L111.9065562193802,264.3643228074053 M111.9065562193802,264.3643228074053 L111.63563713622273,265.13651661086226 M111.63563713622273,265.13651661086226 L111.69591021394194,265.9202362856896 M111.69591021394194,265.9202362856896 L112.08392103746985,266.6699276566722 M112.08392103746985,266.6699276566722 L112.77719953562189,267.3420153007078 M112.77719953562189,267.3420153007078 L113.7354540886692,267.8973911909552 M113.7354540886692,267.8973911909552 L114.90302326062363,268.30375881412044 M114.90302326062363,268.30375881412044 L116.21199480516776,268.5374514301192 M116.21199480516776,268.5374514301192 L117.58626929685516,268.58488266460176 M117.58626929685516,268.58488266460176 L118.9459111486795,268.44328319544866 M118.9459111486795,268.44328319544866 L120.21182687287518,268.1208953773504 M120.21182687287518,268.1208953773504 L121.31043517054508,267.63649491614484 M144.00422304135162,239.3994062050348 L144.8684080445637,238.78405978192242 M144.8684080445637,238.78405978192242 L145.45150394795274,238.07131339078245 M145.45150394795274,238.07131339078245 L145.71963766367855,237.30260074674146 M145.71963766367855,237.30260074674146 L145.65729292541764,236.52261373681833 M145.65729292541764,236.52261373681833 L145.26816525821744,235.7766838238149 M145.26816525821744,235.7766838238149 L144.57489645707938,235.1081261578356 M144.57489645707938,235.1081261578356 L143.61783656403037,234.55578060586257 M143.61783656403037,234.55578060586257 L142.45257962877133,234.15169557676202 M142.45257962877133,234.15169557676202 L141.1468480146885,233.91934032923896 M141.1468480146885,233.91934032923896 L139.77644838347237,233.8721834555211 M139.77644838347237,233.8721834555211 L138.42097087626723,234.01296667676962 M138.42097087626723,234.01296667676962 L137.15913912134818,234.3335254926238 M137.15913912134818,234.3335254926238 L136.06421695545663,234.81524155397608 M136.06421695545663,234.81524155397608 L135.1998660890933,235.43018007975283 M135.1998660890933,235.43018007975283 L134.6162886460878,236.14261202419948 M134.6162886460878,236.14261202419948 L134.34746801019077,236.91117569946636 M134.34746801019077,236.91117569946636 L134.4090778185701,237.6912133479908 M134.4090778185701,237.6912133479908 L134.79759091268284,238.43738190375748 M134.79759091268284,238.43738190375748 L135.4905062811829,239.1063115524263 M135.4905062811829,239.1063115524263 L136.4475548555231,239.65907720153848 M136.4475548555231,239.65907720153848 L137.61314517869118,240.06353421446337 M137.61314517869118,240.06353421446337 L138.91947850648683,240.2961281004189 M138.91947850648683,240.2961281004189 L140.29061033894942,240.34333561174793 M140.29061033894942,240.34333561174793 L141.64678279370816,240.20240342142696 M141.64678279370816,240.20240342142696 L142.9091130326894,239.88153015258504 M142.9091130326894,239.88153015258504 L144.00422304135162,239.3994062050348 M130.89568855746575,285.2505760613684 L131.11415222943293,301.3567810036692 M82.06222640225445,272.87239044023283 L81.81202678801787,256.7855997200035 M82.47849586218024,259.73708400497594 L82.22884355094334,243.65927588667225 M193.8261284943825,226.96483475651306 L194.00228450337946,243.0311912395059 M121.31043517054508,267.63649491614484 L121.53488308672155,283.7306968503465 M144.00422304135162,239.3994062050348 L144.2132527048094,255.47429514918045" stroke="black"  stroke-width="4"  fill="red"/>
<path d="M750.8407407189757,272.87239044023283 L751.0302858812761,256.7855997200035 M165.99246831553322,594.5573411776966 L150.08328413930133,584.5560360704139 M150.08328413930133,584.5560360704139 L135.1959534334805,574.0577808939893 M135.1959534334805,574.0577808939893 L121.37645100301495,563.0981019195071 M121.37645100301495,563.0981019195071 L108.66691195709916,551.713897308209 M108.66691195709916,551.713897308209 L97.1055150087866,539.9432937474721 M97.1055150087866,539.9432937474721 L86.72637560366161,527.8255064929285 M86.72637560366161,527.8255064929285 L77.559489020385,515.4006633332618 M77.559489020385,515.4006633332618 L69.63069631475588,502.70968412733293 M69.63069631475588,502.70968412733293 L62.9615773304065,489.7940956954856 M62.9615773304065,489.7940956954856 L57.56949146510328,476.6958925290216 M57.56949146510328,476.6958925290216 L53.4675222987766,463.4574481485799 M53.4675222987766,463.4574481485799 L50.66452069699869,450.12127474078375 M50.66452069699869,450.12127474078375 L49.16511935039722,436.72991764239794 M49.16511935039722,436.72991764239794 L48.969714118723914,423.32583335539374 M48.969714118723914,423.32583335539374 L50.0747151853779,409.95124116613874 M50.0747151853779,409.95124116613874 L52.47228006148799,396.6479898794794 M52.47228006148799,396.6479898794794 L56.15072401109052,383.4574292093726 M56.15072401109052,383.4574292093726 L61.094411520771814,370.4202754974021 M61.094411520771814,370.4202754974021 L67.28391179132473,357.5765125299322 M67.28391179132473,357.5765125299322 L74.69611448354368,344.9653166198325 M74.69611448354368,344.9653166198325 L83.30431897132326,332.6248582166147 M83.30431897132326,332.6248582166147 L93.07840252944663,320.5922602213147 M93.07840252944663,320.5922602213147 L103.98488732189901,308.9035133228465 M103.98488732189901,308.9035133228465 L115.98714451965907,297.5933537271236 M115.98714451965907,297.5933537271236 L129.0455103525236,286.69520923518974 M129.0455103525236,286.69520923518974 L143.11741485241146,276.24109677049603 M143.11741485241146,276.24109677049603 L158.15754342710866,266.2615588219392 M158.15754342710866,266.2615588219392 L174.11799355950254,256.7855997200031 M174.11799355950254,256.7855997200031 L190.94843098210563,247.84061885648097 M190.94843098210563,247.84061885648097 L208.59624925717281,239.45235796948774 M208.59624925717281,239.45235796948774 L227.00672218785041,231.64484821931205 M227.00672218785041,231.64484821931205 L246.1231732122955,224.44036289162563 M246.1231732122955,224.44036289162563 L265.88713126541813,217.8593727956554 M265.88713126541813,217.8593727956554 L286.2384778562548,211.92050146677514 M286.2384778562548,211.92050146677514 L307.1156522451505,206.64050155147987 M307.1156522451505,206.64050155147987 L328.4557630741877,202.03423886079142 M328.4557630741877,202.03423886079142 L350.19480925366076,198.11462915840724 M350.19480925366076,198.11462915840724 L372.26782488023,194.8926516340186 M372.26782488023,194.8926516340186 L394.6089419052733,192.3773045888769 M394.6089419052733,192.3773045888769 L417.1517114866103,190.57560742710766 M417.1517114866103,190.57560742710766 L439.82920364275657,189.4925842029047 M439.82920364275657,189.4925842029047 L462.5741397203889,189.1312236666133 M462.5741397203889,189.1312236666133 L485.3190757980213,189.49258420290462 M485.3190757980213,189.49258420290462 L507.9965679541675,190.57560742710766 M507.9965679541675,190.57560742710766 L530.5393375355046,192.3773045888769 M530.5393375355046,192.3773045888769 L552.8804545605478,194.8926516340186 M552.8804545605478,194.8926516340186 L574.9534701871171,198.11462915840724 M574.9534701871171,198.11462915840724 L596.6925163665901,202.03423886079142 M596.6925163665901,202.03423886079142 L618.0326271956274,206.64050155148007 M618.0326271956274,206.64050155148007 L638.9098015845232,211.92050146677514 M638.9098015845232,211.92050146677514 L659.2611481753597,217.8593727956554 M659.2611481753597,217.8593727956554 L679.0251062284824,224.44036289162563 M679.0251062284824,224.44036289162563 L698.1415572529274,231.64484821931205 M698.1415572529274,231.64484821931205 L716.5520301836052,239.45235796948774 M716.5520301836052,239.45235796948774 L734.1998484586722,247.84061885648106 M734.1998484586722,247.84061885648106 L751.0302858812761,256.7855997200035 M165.99246831553322,594.5573411776966 L166.1928387725154,610.8687763333867 M750.8407407189757,272.87239044023283 L734.0214956731004,263.9212904011699 M734.0214956731004,263.9212904011699 L716.385381844209,255.52728321226974 M716.385381844209,255.52728321226974 L697.9870897215085,247.71441806432426 M697.9870897215085,247.71441806432426 L678.8832592392819,240.5049850399311 M678.8832592392819,240.5049850399311 L659.132324003619,233.91947045902208 M659.132324003619,233.91947045902208 L638.7943642938351,227.9765120297399 M638.7943642938351,227.9765120297399 L617.9309019982036,222.6928751975666 M617.9309019982036,222.6928751975666 L596.6047890317848,218.0834371697025 M596.6047890317848,218.0834371697025 L574.8799865670153,214.16112364328683 M574.8799865670153,214.16112364328683 L552.8214201794647,210.93692227346787 M552.8214201794647,210.93692227346787 L530.494917187724,208.4198383158788 M530.494917187724,208.4198383158788 L507.96688547668447,206.61689660890562 M507.96688547668447,206.61689660890562 L485.30421387180917,205.533125101325 M485.30421387180917,205.533125101325 L462.5741397203889,205.17151486486532 M462.5741397203889,205.17151486486532 L439.84406556896863,205.53312510132508 M439.84406556896863,205.53312510132508 L417.1813939640934,206.61689660890562 M417.1813939640934,206.61689660890562 L394.65336225305396,208.4198383158788 M394.65336225305396,208.4198383158788 L372.3268592613132,210.93692227346787 M372.3268592613132,210.93692227346787 L350.26829287376256,214.16112364328683 M350.26829287376256,214.16112364328683 L328.543490408993,218.0834371697025 M328.543490408993,218.0834371697025 L307.2173774425743,222.6928751975666 M307.2173774425743,222.6928751975666 L286.35391514694277,227.9765120297399 M286.35391514694277,227.9765120297399 L266.0159554371589,233.91947045902208 M266.0159554371589,233.91947045902208 L246.26502020149618,240.5049850399311 M246.26502020149618,240.5049850399311 L227.16118971926946,247.71441806432418 M227.16118971926946,247.71441806432418 L208.76289759656893,255.52728321226974 M208.76289759656893,255.52728321226974 L191.12678376767744,263.9212904011699 M191.12678376767744,263.9212904011699 L174.30753872180145,272.8723904402333 M174.30753872180145,272.8723904402333 L158.35773421049714,282.3548223825982 M158.35773421049714,282.3548223825982 L143.32767093128854,292.3411665092747 M143.32767093128854,292.3411665092747 L129.2652190514827,302.802397104122 M129.2652190514827,302.802397104122 L116.21566214008459,313.7079493037972 M116.21566214008459,313.7079493037972 L104.22154057988644,325.0257828889873 M104.22154057988644,325.0257828889873 L93.32249011282306,336.7224459081901 M93.32249011282306,336.7224459081901 L83.55511319939313,348.76317724285127 M83.55511319939313,348.76317724285127 L74.95286306453733,361.11196058769536 M74.95286306453733,361.11196058769536 L67.54583974142906,373.7316468249522 M67.54583974142906,373.7316468249522 L61.36072315733884,386.58403876423984 M61.36072315733884,386.58403876423984 L56.42060508972088,399.62993287335615 M56.42060508972088,399.62993287335615 L52.74490001157881,412.8293178169304 M52.74490001157881,412.8293178169304 L50.34922946204415,426.1414494380124 M50.34922946204415,426.1414494380124 L49.245266700737034,439.52495001812997 M49.245266700737034,439.52495001812997 L49.44084521126041,452.93794265669607 M49.44084521126041,452.93794265669607 L50.93954859633402,466.33817997152863 M50.93954859633402,466.33817997152863 L53.74097744390281,479.68317745594885 M53.74097744390281,479.68317745594885 L57.840498388934066,492.930361957601 M57.840498388934066,492.930361957601 L63.22926280513781,506.0371937407361 M63.22926280513781,506.0371937407361 L69.89419232233598,518.9612720655521 M69.89419232233598,518.9612720655521 L77.81793580054176,531.6605757005452 M77.81793580054176,531.6605757005452 L86.97892470816089,544.0935516100378 M86.97892470816089,544.0935516100378 L97.35133242500285,556.2192543211754 M97.35133242500285,556.2192543211754 L108.90518119946944,567.9975311361911 M108.90518119946944,567.9975311361911 L121.60637621622277,579.3891426539383 M121.60637621622277,579.3891426539383 L135.41676248894032,590.3559388976612 M135.41676248894032,590.3559388976612 L150.29423168583557,600.8609993397927 M150.29423168583557,600.8609993397927 L166.1928387725154,610.8687763333867 M750.8407407189757,272.87239044023283 L747.4283360853024,274.8451682942997 M747.4283360853024,274.8451682942997 L747.6156682690246,258.7570301176165 M751.0302858812761,256.7855997200035 L747.6156682690246,258.7570301176165 M169.60096496530778,592.4739746655791 L165.99246831553322,594.5573411776966 M129.97838226773172,568.9523273357604 L169.60096496530778,592.4739746655791 M129.97838226773172,568.9523273357604 L129.63018843082875,565.2403616616882 M129.63018843082875,565.2403616616882 L129.73086981106906,561.5214033621389 M129.73086981106906,561.5214033621389 L130.27948405072095,557.8139249041999 M170.07441546455442,534.945032040073 L130.27948405072095,557.8139249041999 M170.07441546455442,534.945032040073 L159.0132876291965,524.2707273368978 M159.0132876291965,524.2707273368978 L149.12715826752807,513.2310975004102 M149.12715826752807,513.2310975004102 L140.4510826967117,501.8697464226324 M140.4510826967117,501.8697464226324 L133.015074413192,490.2313389079269 M133.015074413192,490.2313389079269 L126.84418265611902,478.36134915531306 M126.84418265611902,478.36134915531306 L121.95834914846836,466.30591299877864 M121.95834914846836,466.30591299877864 L118.3724426936173,454.11161718607565 M118.3724426936173,454.11161718607565 L116.09621759381469,441.82528893624993 M116.09621759381469,441.82528893624993 L115.13439036342942,429.49383764906264 M115.13439036342942,429.49383764906264 L115.48657603765025,417.1640813191444 M115.48657603765025,417.1640813191444 L117.1474598075115,404.88250662834054 M117.1474598075115,404.88250662834054 L120.10687457196718,392.69517904713183 M120.10687457196718,392.69517904713183 L124.3497922340581,380.6475142795641 M124.3497922340581,380.6475142795641 L129.8565420082391,368.7841273786082 M129.8565420082391,368.7841273786082 L136.60288189287576,357.1487073212017 M136.60288189287576,357.1487073212017 L144.56018241939665,345.7838503405558 M144.56018241939665,345.7838503405558 L153.6955246672217,334.73090305367003 M153.6955246672217,334.73090305367003 L163.97195866681474,324.0298757197106 M163.97195866681474,324.0298757197106 L175.34853559822878,313.7192624247583 M137.47217484817327,291.7488065557349 L175.34853559822878,313.7192624247583 M137.47217484817327,291.7488065557349 L137.12963142900037,288.20220792908907 M137.12963142900037,288.20220792908907 L137.2258114766429,284.648874788883 M137.2258114766429,284.648874788883 L137.75988440200177,281.1064570195623 M217.1576506818103,236.490592889323 L137.75988440200177,281.1064570195623 M217.1576506818103,236.490592889323 L223.3460069750795,236.24242776274747 M223.3460069750795,236.24242776274747 L229.54466739832716,236.24243275836864 M229.54466739832716,236.24243275836864 L235.72322441825793,236.49058789349465 M273.6039006351308,258.259418627632 L235.72322441825793,236.49058789349465 M273.6039006351308,258.259418627632 L291.61645654382323,251.9582091341916 M291.61645654382323,251.9582091341916 L310.2475688578255,246.3013313754675 M310.2475688578255,246.3013313754675 L329.42906473728925,241.30833975922323 M329.42906473728925,241.30833975922323 L349.09100917873576,236.99640191532367 M349.09100917873576,236.99640191532367 L369.16202649860304,233.3803390358943 M369.16202649860304,233.3803390358943 L389.56945023380285,230.47253766388343 M389.56945023380285,230.47253766388343 L410.23958109204733,228.28295261001355 M410.23958109204733,228.28295261001355 L431.0979496438256,226.81906073673625 M431.0979496438256,226.81906073673625 L452.06949615758606,226.08587518985095 M452.06949615758606,226.08587518985095 L473.07878328319174,226.08587518985095 M473.07878328319174,226.08587518985095 L494.05032979695227,226.81906073673625 M494.05032979695227,226.81906073673625 L514.9086983487305,228.28295261001355 M514.9086983487305,228.28295261001355 L535.578829206975,230.47253766388343 M535.578829206975,230.47253766388343 L555.9862529421748,233.3803390358944 M555.9862529421748,233.3803390358944 L576.057270262042,236.99640191532367 M576.057270262042,236.99640191532367 L595.7192147034887,241.30833975922323 M595.7192147034887,241.30833975922323 L614.9007105829523,246.3013313754675 M614.9007105829523,246.3013313754675 L633.5318228969545,251.9582091341916 M633.5318228969545,251.9582091341916 L651.544378805647,258.259418627632 M689.4250550225199,236.49058789349473 L651.544378805647,258.259418627632 M689.4250550225199,236.49058789349473 L695.6036120424508,236.2424327583688 M695.6036120424508,236.2424327583688 L701.8022724656983,236.24242776274747 M701.8022724656983,236.24242776274747 L707.9906287589674,236.490592889323 M747.6156682690246,258.7570301176165 L707.9906287589674,236.490592889323 M169.79886409826923,608.7840625706442 L166.1928387725154,610.8687763333867 M169.60096496530778,592.4739746655791 L169.79886409826923,608.7840625706442 M130.20261746586152,585.2471714717958 L169.79886409826923,608.7840625706442 M130.20261746586152,585.2471714717958 L129.8545907010065,581.5327946258801 M129.8545907010065,581.5327946258801 L129.9551364362344,577.8114190969306 M129.9551364362344,577.8114190969306 L130.50331355908742,574.1015293614141 M170.27107329349707,551.2177296518928 L130.50331355908742,574.1015293614141 M175.53816771218732,329.84479523777105 L164.16927043034752,340.1623866557942 M164.16927043034752,340.1623866557942 L153.89980795276387,350.87064401138497 M153.89980795276387,350.87064401138497 L144.77070004672254,361.9310459051514 M144.77070004672254,361.9310459051514 L136.81886994048375,373.30355388762445 M136.81886994048375,373.30355388762445 L130.0772121763418,384.94679241894295 M130.0772121763418,384.94679241894295 L124.57433441212709,396.81813569009813 M124.57433441212709,396.81813569009813 L120.33445951034776,408.87386461990553 M120.33445951034776,408.87386461990553 L117.3772419541952,421.06933365088423 M117.3772419541952,421.06933365088423 L115.71769646835145,433.3590962717679 M115.71769646835145,433.3590962717679 L115.3659799059862,445.6970560135878 M115.3659799059862,445.6970560135878 L116.32739999959989,458.0366951643004 M116.32739999959989,458.0366951643004 L118.60233791203376,470.3311647309838 M118.60233791203376,470.3311647309838 L122.18607677103927,482.53352450709554 M122.18607677103927,482.53352450709554 L127.0688653718264,494.59691676984835 M127.0688653718264,494.59691676984835 L133.23584156758022,506.4747246684648 M133.23584156758022,506.4747246684648 L140.66707387497019,518.1207827949813 M140.66707387497019,518.1207827949813 L149.33752695001334,529.4895880301001 M149.33752695001334,529.4895880301001 L159.21720479574805,540.5364473826587 M159.21720479574805,540.5364473826587 L170.27107329349707,551.2177296518928 M137.6864225383752,307.85943108523253 L175.53816771218732,329.84479523777105 M137.6864225383752,307.85943108523253 L137.34404165148544,304.310420914154 M137.34404165148544,304.310420914154 L137.44009502257614,300.75467026685925 M137.44009502257614,300.75467026685925 L137.97375317961905,297.2098410383162 M217.31864162626837,252.56348735841698 L137.97375317961905,297.2098410383162 M217.31864162626837,252.56348735841698 L223.50293516386284,252.3151520304326 M223.50293516386284,252.3151520304326 L229.69752940757428,252.3151570294801 M229.69752940757428,252.3151570294801 L235.87203651818456,252.56348235916235 M273.7280886433008,274.34721673117383 L235.87203651818456,252.56348235916235 M651.4201907974771,274.34721673117383 L633.4195314264387,268.04169857288093 M633.4195314264387,268.04169857288093 L614.8007039213285,262.38094902338133 M614.8007039213285,262.38094902338133 L595.631837638118,257.38453709030773 M595.631837638118,257.38453709030773 L575.9828232356574,253.06964326723724 M575.9828232356574,253.06964326723724 L555.9249913717595,249.45109988235546 M555.9249913717595,249.45109988235546 L535.5309628670875,246.54130280974175 M535.5309628670875,246.54130280974175 L514.874390886446,244.35021437397532 M514.874390886446,244.35021437397532 L494.0296983791948,242.88531709069244 M494.0296983791948,242.88531709069244 L473.0718983198914,242.15162789909587 M473.0718983198914,242.15162789909587 L452.0763811208864,242.15162789909587 M452.0763811208864,242.15162789909587 L431.118581061583,242.88531709069244 M431.118581061583,242.88531709069244 L410.27388855433185,244.35021437397532 M410.27388855433185,244.35021437397532 L389.6173165736903,246.54130280974175 M389.6173165736903,246.54130280974175 L369.2232880690183,249.45109988235538 M369.2232880690183,249.45109988235538 L349.1654562051206,253.06964326723724 M349.1654562051206,253.06964326723724 L329.5164418026598,257.3845370903077 M329.5164418026598,257.3845370903077 L310.34757551944926,262.38094902338133 M310.34757551944926,262.38094902338133 L291.72874801433926,268.04169857288093 M291.72874801433926,268.04169857288093 L273.7280886433008,274.34721673117383 M689.2762429225932,252.56348235916244 L651.4201907974771,274.34721673117383 M689.2762429225932,252.56348235916244 L695.4507500332036,252.3151570294801 M695.4507500332036,252.3151570294801 L701.645344276915,252.31515203043273 M701.645344276915,252.31515203043273 L707.8296378145094,252.56348735841698 M747.4283360853024,274.8451682942997 L707.8296378145094,252.56348735841698 M707.9906287589674,236.490592889323 L707.8296378145094,252.56348735841698 M129.97838226773172,568.9523273357604 L130.20261746586152,585.2471714717958 M130.27948405072095,557.8139249041999 L130.50331355908742,574.1015293614141 M170.07441546455442,534.945032040073 L170.27107329349707,551.2177296518928 M175.34853559822878,313.7192624247583 L175.53816771218732,329.84479523777105 M137.47217484817327,291.7488065557349 L137.6864225383752,307.85943108523253 M137.75988440200177,281.1064570195623 L137.97375317961905,297.2098410383162 M217.1576506818103,236.490592889323 L217.31864162626837,252.56348735841698 M235.72322441825793,236.49058789349465 L235.87203651818456,252.56348235916235 M273.6039006351308,258.259418627632 L273.7280886433008,274.34721673117383 M651.544378805647,258.259418627632 L651.4201907974771,274.34721673117383 M689.4250550225199,236.49058789349473 L689.2762429225932,252.56348235916244" stroke="black"  stroke-width="4"  fill="red"/>
<path d="M678.1645083224921,269.28327169132274 L679.7393201163609,270.00697921834205 M679.7393201163609,270.00697921834205 L681.3069452766351,270.7359806054893 M681.3069452766351,270.7359806054893 L682.8673225607502,271.4702626906743 M682.8673225607502,271.4702626906743 L683.4133986131567,269.9789575430484 M683.4133986131567,269.9789575430484 L684.1487691244504,268.51576633712943 M684.1487691244504,268.51576633712943 L685.0694545643601,267.0884380054182 M678.1645083224921,269.28327169132274 L680.3699982549024,268.4568842337847 M680.3699982549024,268.4568842337847 L682.675622024735,267.7240215371856 M682.675622024735,267.7240215371856 L685.0694545643601,267.0884380054182 M682.8673225607502,271.4702626906743 L682.8069109225389,278.17984490591607 M678.1645083224921,269.28327169132274 L678.1053971176368,275.9922316295143 M678.1053971176368,275.9922316295143 L679.6797735359746,276.71614510136953 M679.6797735359746,276.71614510136953 L681.246965212913,277.4453539156247 M681.246965212913,277.4453539156247 L682.8069109225389,278.17984490591607 M682.8069109225389,278.17984490591607 L683.3528447436574,276.6881154524171 M683.3528447436574,276.6881154524171 L684.0880210207295,275.22450784082423 M684.0880210207295,275.22450784082423 L685.0084612925903,273.7967732152915 M685.0694545643601,267.0884380054182 L685.0084612925903,273.7967732152915 M678.1053971176368,275.9922316295143 L680.3102864523783,275.1656089783313 M680.3102864523783,275.1656089783313 L682.6152817864959,274.43253767955184 M682.6152817864959,274.43253767955184 L685.0084612925903,273.7967732152915" stroke="black"  stroke-width="4"  fill="red"/>
<path d="M193.37379202407965,553.4999656052328 L192.07589518019265,552.576105375538 M192.07589518019265,552.576105375538 L190.78761234780825,551.6478860654515 M190.78761234780825,551.6478860654515 L189.50896900067315,550.7153465131084 M185.474080051562,554.8638365357326 L186.64823156130603,553.4265065252339 M186.64823156130603,553.4265065252339 L187.99552983583743,552.0412933495945 M187.99552983583743,552.0412933495945 L189.50896900067315,550.7153465131084 M185.474080051562,554.8638365357326 L188.05085962431272,554.2979232667024 M188.05085962431272,554.2979232667024 L190.68874570064872,553.842499358562 M190.68874570064872,553.842499358562 L193.37379202407965,553.4999656052328 M193.37379202407965,553.4999656052328 L193.44934935965773,560.2879638666357 M193.44934935965773,560.2879638666357 L192.15181109402667,559.3638526989462 M192.15181109402667,559.3638526989462 L190.86388406009047,558.4353812275772 M190.86388406009047,558.4353812275772 L189.5855937249166,557.5025883006617 M189.50896900067315,550.7153465131084 L189.5855937249166,557.5025883006617 M185.5518632551599,561.6522051791076 L186.72567611891452,560.214484835182 M186.72567611891452,560.214484835182 L188.0725875596221,558.8288953900694 M188.0725875596221,558.8288953900694 L189.5855937249166,557.5025883006617 M185.474080051562,554.8638365357326 L185.5518632551599,561.6522051791076 M185.5518632551599,561.6522051791076 L188.12791596691972,561.0861382371775 M188.12791596691972,561.0861382371775 L190.76505878356957,560.63059064873 M190.76505878356957,560.63059064873 L193.44934935965773,560.2879638666357" stroke="black"  stroke-width="4"  fill="red"/>
<path d="M270.27542925098464,550.6965952668013 L230.6744740622238,527.3805097252352 M211.6957079626688,527.3805044941182 L218.02189500535368,527.1206621088936 M218.02189500535368,527.1206621088936 L224.3585091461348,527.1206568779982 M224.3585091461348,527.1206568779982 L230.6744740622238,527.3805097252352 M211.6957079626688,527.3805044941182 L130.50331355908742,574.1015293614141 M130.20261746586152,585.2471714717958 L129.8545907010065,581.5327946258801 M129.8545907010065,581.5327946258801 L129.9551364362344,577.8114190969306 M129.9551364362344,577.8114190969306 L130.50331355908742,574.1015293614141 M130.20261746586152,585.2471714717958 L169.79886409826923,608.7840625706442 M270.27542925098464,550.6965952668013 L169.79886409826923,608.7840625706442 M152.23863171668347,576.5608005919316 L151.14102471072073,576.052190590844 M151.14102471072073,576.052190590844 L149.86324917032616,575.7137539643054 M149.86324917032616,575.7137539643054 L148.47954177742096,575.5651125193515 M148.47954177742096,575.5651125193515 L147.07025508725508,575.614901797112 M147.07025508725508,575.614901797112 L145.71723098371373,575.8602240657674 M145.71723098371373,575.8602240657674 L144.49902061420147,576.2868605063279 M144.49902061420147,576.2868605063279 L143.4864206272918,576.8700320129581 M143.4864206272918,576.8700320129581 L142.73824928843646,577.5759025856814 M142.73824928843646,577.5759025856814 L142.29805055555005,578.3634665041832 M142.29805055555005,578.3634665041832 L142.19143304083934,579.1869907157904 M142.19143304083934,579.1869907157904 L142.42467413457564,579.9986166595008 M142.42467413457564,579.9986166595008 L142.98426276458162,580.7511625975235 M142.98426276458162,580.7511625975235 L143.83775332952075,581.4008524978171 M143.83775332952075,581.4008524978171 L144.93553538113576,581.9099045775492 M144.93553538113576,581.9099045775492 L146.2138207827623,582.2486833181958 M146.2138207827623,582.2486833181958 L147.59824765395194,582.3974835793802 M147.59824765395194,582.3974835793802 L149.00831093472846,582.3476407389871 M149.00831093472846,582.3476407389871 L150.36198245288497,582.1020598326454 M150.36198245288497,582.1020598326454 L151.5805671982838,581.6750215532834 M151.5805671982838,581.6750215532834 L152.59317881577596,581.0913947436438 M152.59317881577596,581.0913947436438 L153.3409963758183,580.3851196957612 M153.3409963758183,580.3851196957612 L153.78056090789931,579.5972971353656 M153.78056090789931,579.5972971353656 L153.8864046359472,578.7737167226057 M153.8864046359472,578.7737167226057 L153.65243581538493,577.962254869627 M153.65243581538493,577.962254869627 L153.09231991282223,577.2100484175398 M153.09231991282223,577.2100484175398 L152.23863171668347,576.5608005919316 M226.3591631750104,533.8572637691245 L225.26231178106093,533.352176131375 M225.26231178106093,533.352176131375 L223.98693760534232,533.016083257346 M223.98693760534232,533.016083257346 L222.6071377201003,532.8684711687795 M222.6071377201003,532.8684711687795 L221.20303800699418,532.9179156523514 M221.20303800699418,532.9179156523514 L219.8561793159523,533.1615390270892 M219.8561793159523,533.1615390270892 L218.64475518774375,533.5852208653723 M218.64475518774375,533.5852208653723 L217.63916808584628,534.1643535464334 M217.63916808584628,534.1643535464334 L216.89782915538834,534.8653352715946 M216.89782915538834,534.8653352715946 L216.4638850582068,535.6474442066935 M216.4638850582068,535.6474442066935 L216.3625808562271,536.4652639882338 M216.3625808562271,536.4652639882338 L216.5998846496264,537.2712675480543 M216.5998846496264,537.2712675480543 L217.16204880987286,538.018600038275 M217.16204880987286,538.018600038275 L218.01647739301436,538.6637887964428 M218.01647739301436,538.6637887964428 L219.11350526384405,539.1693139274041 M219.11350526384405,539.1693139274041 L220.38938782265666,539.5057453715285 M220.38938782265666,539.5057453715285 L221.769903136732,539.6535146199265 M221.769903136732,539.6535146199265 L223.1747737484195,539.6040171338409 M223.1747737484195,539.6040171338409 L224.5222738227259,539.3601378041194 M224.5222738227259,539.3601378041194 L225.73406733812377,538.9360582996264 M225.73406733812377,538.9360582996264 L226.7396632671905,538.356475038157 M226.7396632671905,538.356475038157 L227.48064844285776,537.6550930286851 M227.48064844285776,537.6550930286851 L227.9139611855656,536.8727281344386 M227.9139611855656,536.8727281344386 L228.014496617068,536.0548527301448 M228.014496617068,536.0548527301448 L227.77647113451184,535.249011568123 M227.77647113451184,535.249011568123 L227.21378537662713,534.502015037998 M227.21378537662713,534.502015037998 L226.3591631750104,533.8572637691245 M230.51875780930825,511.12340098107376 L230.6744740622238,527.3805097252352 M270.14605858744073,534.4242377971445 L230.51875780930825,511.12340098107376 M270.27542925098464,550.6965952668013 L270.14605858744073,534.4242377971445 M211.52724782624261,511.12339575338456 L217.8576862665216,510.8637236404044 M217.8576862665216,510.8637236404044 L224.19855523405528,510.8637184129369 M224.19855523405528,510.8637184129369 L230.51875780930825,511.12340098107376 M211.52724782624261,511.12339575338456 L211.6957079626688,527.3805044941182 M130.27948405072095,557.8139249041999 L130.50331355908742,574.1015293614141 M211.52724782624261,511.12339575338456 L130.27948405072095,557.8139249041999 M129.97838226773172,568.9523273357604 L129.63018843082875,565.2403616616882 M129.63018843082875,565.2403616616882 L129.73086981106906,561.5214033621389 M129.73086981106906,561.5214033621389 L130.27948405072095,557.8139249041999 M129.97838226773172,568.9523273357604 L130.20261746586152,585.2471714717958 M169.60096496530778,592.4739746655791 L169.79886409826923,608.7840625706442 M129.97838226773172,568.9523273357604 L169.60096496530778,592.4739746655791 M169.60096496530778,592.4739746655791 L193.02649885011556,578.9492363712748 M193.10231030866436,585.7441318030708 L193.02649885011556,578.9492363712748 M246.9502369442117,554.6377499305836 L193.10231030866436,585.7441318030708 M246.8897279214037,547.8512865675441 L246.9502369442117,554.6377499305836 M246.8897279214037,547.8512865675441 L270.14605858744073,534.4242377971445 M152.029410890478,560.2715975400274 L150.93107258423623,559.7633180952876 M150.93107258423623,559.7633180952876 L149.6524414332344,559.4251014415267 M149.6524414332344,559.4251014415267 L148.26780380040609,559.2765566126304 M148.26780380040609,559.2765566126304 L146.8575662186889,559.3263135273862 M146.8575662186889,559.3263135273862 L145.50362574882485,559.5714763406575 M145.50362574882485,559.5714763406575 L144.28458670103595,559.9978354903346 M144.28458670103595,559.9978354903346 L143.27129386104411,560.580627998884 M143.27129386104411,560.580627998884 L142.52260573826146,561.2860398822693 M142.52260573826146,561.2860398822693 L142.08209638660065,562.0730920897724 M142.08209638660065,562.0730920897724 L141.9753925236398,562.8960812981875 M141.9753925236398,562.8960812981875 L142.20877665709702,563.7071800410561 M142.20877665709702,563.7071800410561 L142.7687294740316,564.4592372187465 M142.7687294740316,564.4592372187465 L143.62278428994273,565.1085052110675 M143.62278428994273,565.1085052110675 L144.721297870361,565.6172267451691 M144.721297870361,565.6172267451691 L146.00043956303452,565.9557855204428 M146.00043956303452,565.9557855204428 L147.38579764503447,566.1044891711972 M147.38579764503447,566.1044891711972 L148.7968128644642,566.0546786916216 M148.7968128644642,566.0546786916216 L150.15140162681365,565.809257234394 M150.15140162681365,565.809257234394 L151.37081556098116,565.3824962352851 M151.37081556098116,565.3824962352851 L152.38412005509917,564.7992484126885 M152.38412005509917,564.7992484126885 L153.13245393027108,564.093432045227 M153.13245393027108,564.093432045227 L153.57232823000496,563.3061211895599 M153.57232823000496,563.3061211895599 L153.67825726487717,562.4830757795189 M153.67825726487717,562.4830757795189 L153.4441444170094,561.6721411295821 M153.4441444170094,561.6721411295821 L152.88366361183284,560.920423446946 M152.88366361183284,560.920423446946 L152.029410890478,560.2715975400274 M152.029410890478,560.2715975400274 L152.23863171668347,576.5608005919316 M226.2004654330209,517.595913257452 L225.10288370327336,517.0911562475446 M225.10288370327336,517.0911562475446 L223.8266571147698,516.7552833937027 M223.8266571147698,516.7552833937027 L222.4459322349322,516.6077679419743 M222.4459322349322,516.6077679419743 L221.04088861906115,516.6571800555838 M221.04088861906115,516.6571800555838 L219.69312188866434,516.9006439406128 M219.69312188866434,516.9006439406128 L218.4808782646966,517.3240484281546 M218.4808782646966,517.3240484281546 L217.47460781469823,517.9028020289779 M217.47460781469823,517.9028020289779 L216.73276137612982,518.603324964837 M216.73276137612982,518.603324964837 L216.2985151674538,519.3849220767305 M216.2985151674538,519.3849220767305 L216.19713186132455,520.202206736988 M216.19713186132455,520.202206736988 L216.43458425340356,521.0076829788226 M216.43458425340356,521.0076829788226 L216.9971161503774,521.7545265994193 M216.9971161503774,521.7545265994193 L217.85211031760318,522.3992933547383 M217.85211031760318,522.3992933547383 L218.9498687557171,522.9044878653929 M218.9498687557171,522.9044878653929 L220.2266044048214,523.2406992942822 M220.2266044048214,523.2406992942822 L221.6080456762219,523.3883719103079 M221.6080456762219,523.3883719103079 L223.0138612262651,523.3389067923923 M223.0138612262651,523.3389067923923 L224.36227020556782,523.0951869479713 M224.36227020556782,523.0951869479713 L225.57488371707237,522.6713847864905 M225.57488371707237,522.6713847864905 L226.58116301204652,522.0921805974984 M226.58116301204652,522.0921805974984 L227.32265522701158,521.3912573713134 M227.32265522701158,521.3912573713134 L227.75626923580307,520.6094042958639 M227.75626923580307,520.6094042958639 L227.85688274015723,519.7920640127743 M227.85688274015723,519.7920640127743 L227.61870768356297,518.9867501697767 M227.61870768356297,518.9867501697767 L227.0556534847872,518.2402425159416 M227.0556534847872,518.2402425159416 L226.2004654330209,517.595913257452 M226.2004654330209,517.595913257452 L226.3591631750104,533.8572637691245 M193.02649885011556,578.9492363712748 L188.65153741826322,575.8202616265878 M188.65153741826322,575.8202616265878 L185.3469998739286,572.2690541188188 M185.3469998739286,572.2690541188188 L183.22472287354358,568.417177733801 M183.22472287354358,568.417177733801 L182.3559767640893,564.3962384071483 M182.3559767640893,564.3962384071483 L182.76914163542943,560.343358612673 M182.76914163542943,560.343358612673 L184.44890368503633,556.3964845648748 M184.44890368503633,556.3964845648748 L187.33696165944022,552.6896916257085 M187.33696165944022,552.6896916257085 L191.33411438637984,549.3486836893021 M191.33411438637984,549.3486836893021 L196.3038197888885,546.4865477536121 M196.3038197888885,546.4865477536121 L202.07686488726588,544.2000184926644 M202.07686488726588,544.2000184926644 L208.45713364458547,542.5662772700689 M208.45713364458547,542.5662772700689 L215.2281810894403,541.6404365801836 M215.2281810894403,541.6404365801836 L222.16055497206347,541.4536951914354 M222.16055497206347,541.4536951914354 L229.01942263250055,542.0123463818145 M229.01942263250055,542.0123463818145 L235.5724129386557,543.2975626398184 M235.5724129386557,543.2975626398184 L241.59736364180753,545.2660104261936 M241.59736364180753,545.2660104261936 L246.8897279214037,547.8512865675441 M193.10231030866436,585.7441318030708 L188.72855978167541,582.6143106505401 M188.72855978167541,582.6143106505401 L185.42492893554868,579.0621419762219 M185.42492893554868,579.0621419762219 L183.30322393966668,575.2092223943621 M183.30322393966668,575.2092223943621 L182.43469623020775,571.1871933605669 M182.43469623020775,571.1871933605669 L182.8477191385382,567.1332144551816 M182.8477191385382,567.1332144551816 L184.52698439421147,563.1852693230362 M184.52698439421147,563.1852693230362 L187.41420827906606,559.4774698034037 M187.41420827906606,559.4774698034037 L191.41021849220206,556.1355540775312 M191.41021849220206,556.1355540775312 L196.37851209944694,553.2726400616364 M196.37851209944694,553.2726400616364 L202.1499241814427,550.985488931896 M202.1499241814427,550.985488931896 L208.52839404254297,549.3513032333428 M208.52839404254297,549.3513032333428 L215.2975374966898,548.425210604913 M215.2975374966898,548.425210604913 L222.22796649964064,548.2384183955978 M222.22796649964064,548.2384183955978 L229.0849139256693,548.7972216148546 M229.0849139256693,548.7972216148546 L235.63607336397507,550.0827875718123 M235.63607336397507,550.0827875718123 L241.6593443613751,552.0517708136454 M241.6593443613751,552.0517708136454 L246.9502369442117,554.6377499305836" stroke="black"  stroke-width="4"  fill="red"/>
<path d="M747.4283360853024,274.8451682942997 L707.8296378145094,252.56348735841698 M689.2762429225932,252.56348235916244 L695.4507500332036,252.3151570294801 M695.4507500332036,252.3151570294801 L701.645344276915,252.31515203043273 M701.645344276915,252.31515203043273 L707.8296378145094,252.56348735841698 M689.2762429225932,252.56348235916244 L611.6892211954689,297.20984607488134 M611.8212200532996,307.8594361307179 L611.3390844330627,304.310420914154 M611.3390844330627,304.310420914154 L611.2951530179794,300.75467026685925 M611.2951530179794,300.75467026685925 L611.6892211954689,297.20984607488134 M611.8212200532996,307.8594361307179 L651.4236408575771,330.3473601395311 M747.4283360853024,274.8451682942997 L651.4236408575771,330.3473601395311 M622.7078866392442,305.50633354618657 L623.8004252505295,305.9928328782651 M623.8004252505295,305.9928328782651 L625.0629494303384,306.3166020630441 M625.0629494303384,306.3166020630441 L626.4220152554142,306.45880961844625 M626.4220152554142,306.45880961844625 L627.7985933408731,306.4111751105881 M627.7985933408731,306.4111751105881 L629.1126051180122,306.176474764317 M629.1126051180122,306.176474764317 L630.2876625203576,305.76835608702385 M630.2876625203576,305.76835608702385 L631.255412939167,305.21058538826765 M631.255412939167,305.21058538826765 L631.9596428036555,304.5355984877504 M631.9596428036555,304.5355984877504 L632.3594276544402,303.7826746020192 M632.3594276544402,303.7826746020192 L632.4316087717868,302.99557454501047 M632.4316087717868,302.99557454501047 L632.1720484690231,302.22005395167236 M632.1720484690231,302.22005395167236 L631.5958957644375,301.5011621748603 M631.5958957644375,301.5011621748603 L630.7366555110452,300.88066748021225 M630.7366555110452,300.88066748021225 L629.6443006169293,300.3945811822468 M629.6443006169293,300.3945811822468 L628.382276475189,300.07113166293647 M628.382276475189,300.07113166293647 L627.0239040608665,299.9290724330903 M627.0239040608665,299.9290724330903 L625.64806622732,299.976656925607 M625.64806622732,299.976656925607 L624.3346635786993,300.2111156266674 M624.3346635786993,300.2111156266674 L623.1599490894234,300.6188588941664 M623.1599490894234,300.6188588941664 L622.1921928696836,301.17620420328376 M622.1921928696836,301.17620420328376 L621.4876098190475,301.850813174396 M621.4876098190475,301.850813174396 L621.0872092492314,302.6034954109841 M621.0872092492314,302.6034954109841 L621.0142864815509,303.39054293102123 M621.0142864815509,303.39054293102123 L621.2731574876793,304.1662168908038 M621.2731574876793,304.1662168908038 L621.8488188382885,304.8854258211236 M621.8488188382885,304.8854258211236 L622.7078866392442,305.50633354618657 M693.6058168269485,264.65945464686763 L694.6975037650798,265.14265841443216 M694.6975037650798,265.14265841443216 L695.9576443020139,265.4642343013233 M695.9576443020139,265.4642343013233 L697.31293333801,265.60547848667534 M697.31293333801,265.60547848667534 L698.6845612446211,265.5581666750156 M698.6845612446211,265.5581666750156 L699.9927376599016,265.32505626909426 M699.9927376599016,265.32505626909426 L701.1614139438434,264.9197022537602 M701.1614139438434,264.9197022537602 L702.1226089263414,264.3657098331851 M702.1226089263414,264.3657098331851 L702.8204900338924,263.69529498778627 M702.8204900338924,263.69529498778627 L703.2145019636976,262.94747076605444 M703.2145019636976,262.94747076605444 L703.2818210844093,262.16570151400424 M703.2818210844093,262.16570151400424 L703.0185919348462,261.39543296202925 M703.0185919348462,261.39543296202925 L702.4401762113575,260.6814094197808 M702.4401762113575,260.6814094197808 L701.5802100084964,260.0651163958091 M701.5802100084964,260.0651163958091 L700.4887079585976,259.58232147349395 M700.4887079585976,259.58232147349395 L699.2290659500213,259.2610620143697 M699.2290659500213,259.2610620143697 L697.8744664808728,259.1199646418092 M697.8744664808728,259.1199646418092 L696.5035735278002,259.1672269496139 M696.5035735278002,259.1672269496139 L695.1960007025775,259.40009816101525 M695.1960007025775,259.40009816101525 L694.0276628215368,259.8050805780912 M694.0276628215368,259.8050805780912 L693.0664595898375,260.3586519231972 M693.0664595898375,260.3586519231972 L692.3682254705684,261.02869266778714 M692.3682254705684,261.02869266778714 L691.9736005786583,261.77627769110643 M691.9736005786583,261.77627769110643 L691.9055445157601,262.5579949347523 M691.9055445157601,262.5579949347523 L692.1680899489397,263.3284153062697 M692.1680899489397,263.3284153062697 L692.7460194932864,264.0427527813072 M692.7460194932864,264.0427527813072 L693.6058168269485,264.65945464686763 M707.9906287589674,236.490592889323 L707.8296378145094,252.56348735841698 M747.6156682690246,258.7570301176165 L707.9906287589674,236.490592889323 M747.4283360853024,274.8451682942997 L747.6156682690246,258.7570301176165 M689.4250550225199,236.49058789349473 L695.6036120424508,236.2424327583688 M695.6036120424508,236.2424327583688 L701.8022724656983,236.24242776274747 M701.8022724656983,236.24242776274747 L707.9906287589674,236.490592889323 M689.4250550225199,236.49058789349473 L689.2762429225932,252.56348235916244 M611.7874683372934,281.1064620527001 L611.6892211954689,297.20984607488134 M689.4250550225199,236.49058789349473 L611.7874683372934,281.1064620527001 M611.9196412633148,291.7488115977929 L611.4371587659218,288.2022079290891 M611.4371587659218,288.2022079290891 L611.3931694103071,284.64887478888306 M611.3931694103071,284.64887478888306 L611.7874683372934,281.1064620527001 M611.9196412633148,291.7488115977929 L611.8212200532996,307.8594361307179 M651.5484106650786,314.22148715556403 L651.4236408575771,330.3473601395311 M611.9196412633148,291.7488115977929 L651.5484106650786,314.22148715556403 M651.5484106650786,314.22148715556403 L673.9288493163422,301.30013487567504 M673.8707449288245,308.0181829331999 L673.9288493163422,301.30013487567504 M725.3211819453682,278.2967611192271 L673.8707449288245,308.0181829331999 M725.3932562951761,271.5871456527608 L725.3211819453682,278.2967611192271 M725.3932562951761,271.5871456527608 L747.6156682690246,258.7570301176165 M622.8134664289767,289.39730778717376 L623.9067296738303,289.88347652619353 M623.9067296738303,289.88347652619353 L625.1700891808603,290.2070257130125 M625.1700891808603,290.2070257130125 L626.5300524058566,290.34913664341326 M626.5300524058566,290.34913664341326 L627.9075377408458,290.3015345012708 M627.9075377408458,290.3015345012708 L629.2224137988264,290.0669936279912 M629.2224137988264,290.0669936279912 L630.3982422353433,289.65915227144745 M630.3982422353433,289.65915227144745 L631.3666255719422,289.101760612979 M631.3666255719422,289.101760612979 L632.071313474328,288.4272324540709 M632.071313474328,288.4272324540709 L632.4713548857794,287.67482033712855 M632.4713548857794,287.67482033712855 L632.5435762606246,286.8882553450795 M632.5435762606246,286.8882553450795 L632.2838376521049,286.1132620113837 M632.2838376521049,286.1132620113837 L631.7072985222912,285.3948590523017 M631.7072985222912,285.3948590523017 L630.8474862230862,284.77478631477464 M630.8474862230862,284.77478631477464 L629.7544069414107,284.28903060116676 M629.7544069414107,284.28903060116676 L628.4915481333244,283.9658010722518 M628.4915481333244,283.9658010722518 L627.132279237836,283.8238384659431 M627.132279237836,283.8238384659431 L625.7555351291071,283.8713905929673 M625.7555351291071,283.8713905929673 L624.4412690008041,284.1056898261268 M624.4412690008041,284.1056898261268 L623.2657839247549,284.5131557799546 M623.2657839247549,284.5131557799546 L622.2973947757462,285.07012205774595 M622.2973947757462,285.07012205774595 L621.5923532194854,285.7442722960408 M621.5923532194854,285.7442722960408 L621.1916952748013,286.49644276893076 M621.1916952748013,286.49644276893076 L621.1187312725071,287.2829552259453 M621.1187312725071,287.2829552259453 L621.3777796737784,288.05810192119407 M621.3777796737784,288.05810192119407 L621.9538268059252,288.77682202793267 M621.9538268059252,288.77682202793267 L622.8134664289767,289.39730778717376 M622.8134664289767,289.39730778717376 L622.7078866392442,305.50633354618657 M693.757624089113,248.5782781445428 L694.8500345038408,249.0611513981425 M694.8500345038408,249.0611513981425 L696.1110072052284,249.38250733956755 M696.1110072052284,249.38250733956755 L697.4671886568656,249.52365492293848 M697.4671886568656,249.52365492293848 L698.8397172974487,249.4763754692861 M698.8397172974487,249.4763754692861 L700.1487503263779,249.24342449833912 M700.1487503263779,249.24342449833912 L701.3181892719535,248.83834773750317 M701.3181892719535,248.83834773750317 L702.2800085819692,248.28473426637555 M702.2800085819692,248.28473426637555 L702.978339418806,247.61477805220028 M702.978339418806,247.61477805220028 L703.3726003654278,246.86746547553673 M703.3726003654278,246.86746547553673 L703.4399534022712,246.0862311584461 M703.4399534022712,246.0862311584461 L703.1765411758952,245.31648973736228 M703.1765411758952,245.31648973736228 L702.5977361026835,244.60295489290598 M702.5977361026835,244.60295489290598 L701.7371969453834,243.9870837220787 M701.7371969453834,243.9870837220787 L700.6449716671643,243.50461930237293 M700.6449716671643,243.50461930237293 L699.3844981519919,243.18357977910435 M699.3844981519919,243.18357977910435 L698.0290071783463,243.04257900609096 M698.0290071783463,243.04257900609096 L696.6572144551883,243.08980895644146 M696.6572144551883,243.08980895644146 L695.3487858065619,243.3225207395119 M695.3487858065619,243.3225207395119 L694.1796857024165,243.7272259115888 M694.1796857024165,243.7272259115888 L693.2178581269309,244.28041831894242 M693.2178581269309,244.28041831894242 L692.5191738110354,244.9500004435211 M692.5191738110354,244.9500004435211 L692.1242990935802,245.69707382841565 M692.1242990935802,245.69707382841565 L692.0562081467424,246.4782561393683 M692.0562081467424,246.4782561393683 L692.3189357571287,247.24814937413421 M692.3189357571287,247.24814937413421 L692.8972540176958,247.96199814348202 M692.8972540176958,247.96199814348202 L693.757624089113,248.5782781445428 M693.757624089113,248.5782781445428 L693.6058168269485,264.65945464686763 M673.9288493163422,301.30013487567504 L669.533063904234,298.3106634980067 M669.533063904234,298.3106634980067 L666.1674016661552,294.9177428314243 M666.1674016661552,294.9177428314243 L663.9458349467125,291.2375050108952 M663.9458349467125,291.2375050108952 L662.9430763403097,287.3956822567311 M662.9430763403097,287.3956822567311 L663.192130543983,283.5232845959136 M663.192130543983,283.5232845959136 L664.6833250980451,279.7521168029216 M664.6833250980451,279.7521168029216 L667.36481697164,276.21029258436647 M667.36481697164,276.21029258436647 L671.1444570440406,273.0179331093859 M671.1444570440406,273.0179331093859 L675.8931037604541,270.2831085449192 M675.8931037604541,270.2831085449192 L681.4490437465881,268.09826635170737 M681.4490437465881,268.09826635170737 L687.6235076923917,266.5371700452861 M687.6235076923917,266.5371700452861 L694.2070022561618,265.6524930617892 M694.2070022561618,265.6524930617892 L700.97639977059,265.4740539988643 M700.97639977059,265.4740539988643 L707.7023599010827,266.00786778102866 M707.7023599010827,266.00786778102866 L714.1569916420558,267.23593969173123 M714.1569916420558,267.23593969173123 L720.1214543667115,269.11685351781944 M720.1214543667115,269.11685351781944 L725.3932562951761,271.5871456527608 M673.8707449288245,308.0181829331999 L669.4761821085331,305.02786496441064 M669.4761821085331,305.02786496441064 L666.1114606830959,301.63398295875095 M666.1114606830959,301.63398295875095 L663.8905213033943,297.95270179687014 M663.8905213033943,297.95270179687014 L662.8880557176512,294.1097892320042 M662.8880557176512,294.1097892320042 L663.1370592724327,290.236292404749 M663.1370592724327,290.236292404749 L664.6278618866481,286.46405352044616 M664.6278618866481,286.46405352044616 L667.3086344634035,282.92122275719044 M667.3086344634035,282.92122275719044 L671.0872528298573,279.72795556007304 M671.0872528298573,279.72795556007304 L675.8346104654929,276.9923529995263 M675.8346104654929,276.9923529995263 L681.3890379009852,274.80688902225677 M681.3890379009852,274.80688902225677 L687.5618171038673,273.2453483099543 M687.5618171038673,273.2453483099543 L694.143511678006,272.36041943115134 M694.143511678006,272.36041943115134 L700.9110546717113,272.1819295566898 M700.9110546717113,272.1819295566898 L707.6351682554966,272.71589534102594 M707.6351682554966,272.71589534102594 L714.0880236738262,273.9443168927702 M714.0880236738262,273.9443168927702 L720.0508402610626,275.82576609514825 M720.0508402610626,275.82576609514825 L725.3211819453682,278.2967611192271" stroke="black"  stroke-width="4"  fill="red"/>
<path d="M313.4590582453089,297.20984607488134 L313.8531264227986,300.75467026685925 M313.8531264227986,300.75467026685925 L313.80919500771523,304.310420914154 M313.80919500771523,304.310420914154 L313.3270593874782,307.8594361307179 M313.22863817746304,291.7488115977929 L313.3270593874782,307.8594361307179 M313.3608111034844,281.1064620527001 L313.75511003047086,284.648874788883 M313.75511003047086,284.648874788883 L313.7111206748561,288.2022079290891 M313.7111206748561,288.2022079290891 L313.22863817746304,291.7488115977929 M313.3608111034844,281.1064620527001 L313.4590582453089,297.20984607488134 M313.4590582453089,297.20984607488134 L235.87203651818456,252.56348235916235 M217.31864162626837,252.56348735841698 L223.50293516386284,252.3151520304326 M223.50293516386284,252.3151520304326 L229.69752940757428,252.3151570294801 M229.69752940757428,252.3151570294801 L235.87203651818456,252.56348235916235 M233.9740290008685,352.91943198355676 L313.3270593874782,307.8594361307179 M217.31864162626837,252.56348735841698 L137.97375317961905,297.2098410383162 M233.9740290008685,352.91943198355676 L227.73804722783467,353.1719534976827 M227.73804722783467,353.1719534976827 L221.49133011606037,353.1719484141548 M221.49133011606037,353.1719484141548 L215.2652996547018,352.9194370668722 M137.6864225383752,307.85943108523253 L137.34404165148544,304.310420914154 M137.34404165148544,304.310420914154 L137.44009502257614,300.75467026685925 M137.44009502257614,300.75467026685925 L137.97375317961905,297.2098410383162 M137.6864225383752,307.85943108523253 L215.2652996547018,352.9194370668722 M159.07155079476092,305.50633354618657 L159.93801242040618,304.88542582112353 M159.93801242040618,304.88542582112353 L160.52224041190487,304.16621563020607 M160.52224041190487,304.16621563020607 L160.79034373972922,303.3905441914565 M160.79034373972922,303.3905441914565 L160.72679544075635,302.6034954109841 M160.72679544075635,302.6034954109841 L160.33535787829163,301.85081317439597 M160.33535787829163,301.85081317439597 L159.6388103677814,301.1762029433121 M159.6388103677814,301.1762029433121 L158.67769106579755,300.61885763431144 M158.67769106579755,300.61885763431144 L157.50782978360164,300.21111562666727 M157.50782978360164,300.21111562666727 L156.19721909015038,299.976656925607 M156.19721909015038,299.976656925607 L154.8219456605231,299.9290736928008 M154.8219456605231,299.9290736928008 L153.46188606530396,300.07113040319615 M153.46188606530396,300.07113040319615 L152.19600802113706,300.3945811822468 M152.19600802113706,300.3945811822468 L151.0978647679362,300.88066748021225 M151.0978647679362,300.88066748021225 L150.2312356082575,301.5011621748602 M150.2312356082575,301.5011621748602 L149.64652451357415,302.2200526914822 M149.64652451357415,302.2200526914822 L149.37772476721648,302.9955758053631 M149.37772476721648,302.9955758053631 L149.44053526434044,303.78267460201914 M149.44053526434044,303.78267460201914 L149.83135423019417,304.5355984877504 M149.83135423019417,304.5355984877504 L150.5275485282398,305.2105841274512 M150.5275485282398,305.2105841274512 L151.48865696371536,305.7683548260905 M151.48865696371536,305.7683548260905 L152.65885221446723,306.176474764317 M152.65885221446723,306.176474764317 L153.97006915890415,306.41117511058803 M153.97006915890415,306.41117511058803 L155.3460777707565,306.4588108795242 M155.3460777707565,306.4588108795242 L156.70684149120282,306.31660080199595 M156.70684149120282,306.31660080199595 L157.97321890594355,305.9928328782651 M157.97321890594355,305.9928328782651 L159.07155079476092,305.50633354618657 M231.54246261382926,264.6594546468675 L232.4022599474915,264.04275278130706 M232.4022599474915,264.04275278130706 L232.9801894918381,263.3284153062697 M232.9801894918381,263.3284153062697 L233.24273492501783,262.5579949347522 M233.24273492501783,262.5579949347522 L233.17467886211946,261.7762776911063 M233.17467886211946,261.7762776911063 L232.78005397020937,261.0286926677871 M232.78005397020937,261.0286926677871 L232.08181985094055,260.3586519231972 M232.08181985094055,260.3586519231972 L231.12061661924113,259.8050805780912 M231.12061661924113,259.8050805780912 L229.95227873820042,259.4000981610152 M229.95227873820042,259.4000981610152 L228.64470591297754,259.1672269496138 M228.64470591297754,259.1672269496138 L227.27381295990511,259.1199646418092 M227.27381295990511,259.1199646418092 L225.9192134907564,259.2610620143697 M225.9192134907564,259.2610620143697 L224.6595714821803,259.58232147349395 M224.6595714821803,259.58232147349395 L223.56806943228145,260.0651163958091 M223.56806943228145,260.0651163958091 L222.70810322942043,260.6814094197808 M222.70810322942043,260.6814094197808 L222.1296875059316,261.3954329620292 M222.1296875059316,261.3954329620292 L221.8664583563684,262.16570151400424 M221.8664583563684,262.16570151400424 L221.93377747708027,262.9474707660544 M221.93377747708027,262.9474707660544 L222.32778940688556,263.69529498778616 M222.32778940688556,263.69529498778616 L223.0256705144364,264.36570983318506 M223.0256705144364,264.36570983318506 L223.98686549693454,264.9197022537602 M223.98686549693454,264.9197022537602 L225.1555417808761,265.32505626909415 M225.1555417808761,265.32505626909415 L226.46371819615672,265.5581666750156 M226.46371819615672,265.5581666750156 L227.83534610276797,265.60547848667534 M227.83534610276797,265.60547848667534 L229.19063513876392,265.4642343013232 M229.19063513876392,265.4642343013232 L230.45077567569808,265.14265841443205 M230.45077567569808,265.14265841443205 L231.54246261382926,264.6594546468675 M243.24413063390372,299.09743187712803 L240.10699449950656,297.68137014907506 M240.10699449950656,297.68137014907506 L236.46065403274952,296.73920440430487 M236.46065403274952,296.73920440430487 L232.51663566709055,296.32544115562183 M232.51663566709055,296.32544115562183 L228.50367364347278,296.46403084970433 M228.50367364347278,296.46403084970433 L224.65444189421748,297.146952454558 M224.65444189421748,297.146952454558 L221.1922082706284,298.33469861009723 M221.1922082706284,298.33469861009723 L218.31790639255166,299.95850257031094 M218.31790639255166,299.95850257031094 L216.1985741135418,301.9243032477072 M216.1985741135418,301.9243032477072 L214.95764595134088,304.118141982162 M214.95764595134088,304.118141982162 L214.6676699481255,306.41268965337804 M214.6676699481255,306.41268965337804 L215.34604084330005,308.6746380292843 M215.34604084330005,308.6746380292843 L216.95381896011403,310.77240735138884 M216.95381896011403,310.77240735138884 L219.39796064372592,312.5838701385522 M219.39796064372592,312.5838701385522 L222.53654253805914,314.0034420956204 M222.53654253805914,314.0034420956204 L226.18702390723604,314.94831389726795 M226.18702390723604,314.94831389726795 L230.13692971232697,315.3633591538128 M230.13692971232697,315.3633591538128 L234.15617694692307,315.2243336876604 M234.15617694692307,315.2243336876604 L238.0106518206908,314.5393583728266 M238.0106518206908,314.5393583728266 L241.4758853190203,313.3484110343558 M241.4758853190203,313.3484110343558 L244.35025663222225,311.72099180302564 M244.35025663222225,311.72099180302564 L246.46671200139406,309.7519899720056 M246.46671200139406,309.7519899720056 L247.7024759300126,307.5560975270823 M247.7024759300126,307.5560975270823 L247.98618346543748,305.2611140810727 M247.98618346543748,305.2611140810727 L247.30187588794632,303.00044770021987 M247.30187588794632,303.00044770021987 L245.68985291986974,300.9053844400586 M245.68985291986974,300.9053844400586 L243.24413063390372,299.09743187712803 M229.96410785989886,346.6322688342285 L230.82986050228624,346.0071120770282 M230.82986050228624,346.0071120770282 L231.41183437879343,345.28298042010573 M231.41183437879343,345.28298042010573 L231.67627007218937,344.5020014892802 M231.67627007218937,344.5020014892802 L231.60785418497662,343.7095677191998 M231.60785418497662,343.7095677191998 L231.21063244039874,342.95173596003855 M231.21063244039874,342.95173596003855 L230.50772037125893,342.2725106159409 M230.50772037125893,342.2725106159409 L229.54002624159716,341.7113526175517 M229.54002624159716,341.7113526175517 L228.3637615678547,341.30082143962153 M228.3637615678547,341.30082143962153 L227.04729087962994,341.06475896045555 M227.04729087962994,341.06475896045555 L225.66704075900606,341.01685024581496 M225.66704075900606,341.01685024581496 L224.3031766141574,341.1598786653269 M224.3031766141574,341.1598786653269 L223.03488686984343,341.4855419845666 M223.03488686984343,341.4855419845666 L221.93586495943404,341.9749534308946 M221.93586495943404,341.9749534308946 L221.06994118852197,342.59969291143506 M221.06994118852197,342.59969291143506 L220.48747900089876,343.3235016119181 M220.48747900089876,343.3235016119181 L220.22234126009198,344.1043306843224 M220.22234126009198,344.1043306843224 L220.29001458615724,344.8968149891223 M220.29001458615724,344.8968149891223 L220.686614933971,345.6548908817507 M220.686614933971,345.6548908817507 L221.38917359148908,346.3344954982654 M221.38917359148908,346.3344954982654 L222.356859301755,346.89608325959966 M222.356859301755,346.89608325959966 L223.53346247689794,347.3069962491721 M223.53346247689794,347.3069962491721 L224.85054499647924,347.5433028578326 M224.85054499647924,347.5433028578326 L226.2315356485738,347.5912646443779 M226.2315356485738,347.5912646443779 L227.59610781200263,347.44808128967816 M227.59610781200263,347.44808128967816 L228.86489847143264,347.1220975609526 M228.86489847143264,347.1220975609526 L229.96410785989886,346.6322688342285 M302.4403928015338,305.50633354618657 L303.2994606024894,304.8854258211236 M303.2994606024894,304.8854258211236 L303.8751219530985,304.1662168908038 M303.8751219530985,304.1662168908038 L304.1339929592268,303.39054293102123 M304.1339929592268,303.39054293102123 L304.0610701915465,302.6034954109841 M304.0610701915465,302.6034954109841 L303.66066962173034,301.85081317439597 M303.66066962173034,301.85081317439597 L302.9560865710942,301.1762042032837 M302.9560865710942,301.1762042032837 L301.9883303513545,300.6188588941664 M301.9883303513545,300.6188588941664 L300.81361586207856,300.21111562666727 M300.81361586207856,300.21111562666727 L299.500213213458,299.976656925607 M299.500213213458,299.976656925607 L298.12437537991127,299.9290724330902 M298.12437537991127,299.9290724330902 L296.76600296558877,300.07113166293635 M296.76600296558877,300.07113166293635 L295.5039788238487,300.3945811822468 M295.5039788238487,300.3945811822468 L294.4116239297326,300.88066748021225 M294.4116239297326,300.88066748021225 L293.55238367634047,301.5011621748602 M293.55238367634047,301.5011621748602 L292.9762309717547,302.22005395167236 M292.9762309717547,302.22005395167236 L292.7166706689911,302.99557454501047 M292.7166706689911,302.99557454501047 L292.78885178633766,303.78267460201914 M292.78885178633766,303.78267460201914 L293.18863663712244,304.5355984877504 M293.18863663712244,304.5355984877504 L293.8928665016108,305.21058538826765 M293.8928665016108,305.21058538826765 L294.8606169204203,305.76835608702385 M294.8606169204203,305.76835608702385 L296.0356743227658,306.176474764317 M296.0356743227658,306.176474764317 L297.3496860999046,306.41117511058803 M297.3496860999046,306.41117511058803 L298.72626418536373,306.45880961844625 M298.72626418536373,306.45880961844625 L300.0853300104394,306.3166020630441 M300.0853300104394,306.3166020630441 L301.3478541902482,305.9928328782651 M301.3478541902482,305.9928328782651 L302.4403928015338,305.50633354618657 M233.82271384725846,336.7783091516128 L313.22863817746304,291.7488115977929 M233.82271384725846,336.7783091516128 L233.9740290008685,352.91943198355676 M217.1576506818103,236.490592889323 L223.3460069750795,236.24242776274747 M223.3460069750795,236.24242776274747 L229.54466739832716,236.24243275836864 M229.54466739832716,236.24243275836864 L235.72322441825793,236.49058789349465 M217.1576506818103,236.490592889323 L137.75988440200177,281.1064570195623 M313.3608111034844,281.1064620527001 L235.72322441825793,236.49058789349465 M137.47217484817327,291.7488065557349 L137.12963142900037,288.20220792908907 M137.12963142900037,288.20220792908907 L137.2258114766429,284.648874788883 M137.2258114766429,284.648874788883 L137.75988440200177,281.1064570195623 M137.47217484817327,291.7488065557349 L215.10160080511835,336.77831423150025 M233.82271384725846,336.7783091516128 L227.58260109892478,337.0306603758796 M227.58260109892478,337.0306603758796 L221.33174906918566,337.0306552957798 M221.33174906918566,337.0306552957798 L215.10160080511835,336.77831423150025 M231.3906553516648,248.5782781445428 L232.25102542308207,247.96199814348202 M232.25102542308207,247.96199814348202 L232.8293436836492,247.24814937413421 M232.8293436836492,247.24814937413421 L233.09207129403552,246.4782561393683 M233.09207129403552,246.4782561393683 L233.0239803471975,245.69707382841565 M233.0239803471975,245.69707382841565 L232.62910562974236,244.9500004435211 M232.62910562974236,244.9500004435211 L231.93042131384695,244.28041831894225 M231.93042131384695,244.28041831894225 L230.9685937383613,243.7272259115888 M230.9685937383613,243.7272259115888 L229.79949363421608,243.3225207395119 M229.79949363421608,243.3225207395119 L228.49106498558953,243.08980895644146 M228.49106498558953,243.08980895644146 L227.11927226243156,243.04257900609096 M227.11927226243156,243.04257900609096 L225.76378128878602,243.18357977910426 M225.76378128878602,243.18357977910426 L224.50330777361344,243.50461930237293 M224.50330777361344,243.50461930237293 L223.41108249539437,243.9870837220787 M223.41108249539437,243.9870837220787 L222.5505433380943,244.60295489290598 M222.5505433380943,244.60295489290598 L221.97173826488253,245.3164897373622 M221.97173826488253,245.3164897373622 L221.70832603850667,246.0862311584461 M221.70832603850667,246.0862311584461 L221.77567907534998,246.86746547553673 M221.77567907534998,246.86746547553673 L222.16994002197197,247.61477805220028 M222.16994002197197,247.61477805220028 L222.86827085880861,248.28473426637555 M222.86827085880861,248.28473426637555 L223.8300901688242,248.83834773750317 M223.8300901688242,248.83834773750317 L224.9995291143999,249.24342449833904 M224.9995291143999,249.24342449833904 L226.3085621433293,249.4763754692861 M226.3085621433293,249.4763754692861 L227.68109078391225,249.52365492293848 M227.68109078391225,249.52365492293848 L229.03727223554944,249.38250733956755 M229.03727223554944,249.38250733956755 L230.29824493693704,249.0611513981425 M230.29824493693704,249.0611513981425 L231.3906553516648,248.5782781445428 M158.8714446950874,289.39730778717365 L159.73848789562135,288.77682202793267 M159.73848789562135,288.77682202793267 L160.323112966365,288.0581006614531 M160.323112966365,288.0581006614531 L160.59140586866062,287.2829564855237 M160.59140586866062,287.2829564855237 L160.5278286967122,286.49644276893076 M160.5278286967122,286.49644276893076 L160.13614557907798,285.7442722960408 M160.13614557907798,285.7442722960408 L159.43915015748914,285.0701207986311 M159.43915015748914,285.0701207986311 L158.47740667750597,284.5131545209565 M158.47740667750597,284.5131545209565 L157.30678120904787,284.1056898261267 M157.30678120904787,284.1056898261267 L155.99531071706866,283.8713905929673 M155.99531071706866,283.8713905929673 L154.61913175786282,283.82383972479676 M154.61913175786282,283.82383972479676 L153.25817345406318,283.9657998133684 M153.25817345406318,283.9657998133684 L151.99145566362768,284.28903060116676 M151.99145566362768,284.28903060116676 L150.8925803906505,284.77478631477464 M150.8925803906505,284.77478631477464 L150.02536944209896,285.3948590523017 M150.02536944209896,285.3948590523017 L149.44026063495613,286.1132607520503 M149.44026063495613,286.1132607520503 L149.1712704011244,286.88825660457525 M149.1712704011244,286.88825660457525 L149.2341087958725,287.67482033712855 M149.2341087958725,287.67482033712855 L149.62517249699997,288.4272324540709 M149.62517249699997,288.4272324540709 L150.32181423249273,289.1017593530193 M150.32181423249273,289.1017593530193 L151.28354682446417,289.65915101137097 M151.28354682446417,289.65915101137097 L152.4545066970279,290.0669936279911 M152.4545066970279,290.0669936279911 L153.76658423545786,290.3015345012708 M153.76658423545786,290.3015345012708 L155.14349934705623,290.34913790363424 M155.14349934705623,290.34913790363424 L156.50516270433656,290.2070244528212 M156.50516270433656,290.2070244528212 L157.7723805307519,289.8834765261935 M157.7723805307519,289.8834765261935 L158.8714446950874,289.39730778717365 M302.3348130118013,289.39730778717376 L303.19445263485255,288.77682202793267 M303.19445263485255,288.77682202793267 L303.7704997669995,288.05810192119407 M303.7704997669995,288.05810192119407 L304.0295481682707,287.2829552259453 M304.0295481682707,287.2829552259453 L303.95658416597666,286.49644276893076 M303.95658416597666,286.49644276893076 L303.55592622129234,285.7442722960408 M303.55592622129234,285.7442722960408 L302.85088466503174,285.07012205774583 M302.85088466503174,285.07012205774583 L301.882495516023,284.5131557799546 M301.882495516023,284.5131557799546 L300.70701043997366,284.1056898261267 M300.70701043997366,284.1056898261267 L299.39274431167087,283.8713905929673 M299.39274431167087,283.8713905929673 L298.0160002029419,283.8238384659431 M298.0160002029419,283.8238384659431 L296.65673130745347,283.96580107225174 M296.65673130745347,283.96580107225174 L295.39387249936715,284.28903060116676 M295.39387249936715,284.28903060116676 L294.30079321769153,284.77478631477464 M294.30079321769153,284.77478631477464 L293.44098091848656,285.3948590523017 M293.44098091848656,285.3948590523017 L292.8644417886731,286.11326201138365 M292.8644417886731,286.11326201138365 L292.60470318015325,286.8882553450795 M292.60470318015325,286.8882553450795 L292.67692455499844,287.67482033712855 M292.67692455499844,287.67482033712855 L293.07696596644996,288.4272324540709 M293.07696596644996,288.4272324540709 L293.78165386883563,289.101760612979 M293.78165386883563,289.101760612979 L294.7500372054345,289.65915227144745 M294.7500372054345,289.65915227144745 L295.9258656419514,290.0669936279911 M295.9258656419514,290.0669936279911 L297.2407416999321,290.3015345012708 M297.2407416999321,290.3015345012708 L298.6182270349211,290.34913664341326 M298.6182270349211,290.34913664341326 L299.9781902599175,290.20702571301246 M299.9781902599175,290.20702571301246 L301.24154976694746,289.88347652619353 M301.24154976694746,289.88347652619353 L302.3348130118013,289.39730778717376 M243.09959844265566,282.99276360604847 L245.54691090200546,284.79948646545665 M245.54691090200546,284.79948646545665 L247.1599715919681,286.8931251873445 M247.1599715919681,286.8931251873445 L247.84470367133895,289.152254966955 M247.84470367133895,289.152254966955 L247.56078206215923,291.44567905817695 M247.56078206215923,291.44567905817695 L246.32417722298163,293.6400800165897 M246.32417722298163,293.6400800165897 L244.20630238849654,295.60774491774833 M244.20630238849654,295.60774491774833 L241.3300152408823,297.234059470222 M241.3300152408823,297.234059470222 L237.8624808912413,298.42419858707336 M237.8624808912413,298.42419858707336 L234.00545419344817,299.1087091222375 M234.00545419344817,299.1087091222375 L229.9835530673299,299.2476402610257 M229.9835530673299,299.2476402610257 L226.03104624312468,298.83287661473366 M226.03104624312468,298.83287661473366 L222.37816856913466,297.88864598358157 M222.37816856913466,297.88864598358157 L219.2375347924857,296.4700375024192 M219.2375347924857,296.4700375024192 L216.79180506500188,294.65980449119974 M216.79180506500188,294.65980449119974 L215.18299486006921,292.5634597632002 M215.18299486006921,292.5634597632002 L214.5042073104448,290.3030480149866 M214.5042073104448,290.3030480149866 L214.79440565072576,288.01005968956713 M214.79440565072576,288.01005968956713 L216.03618150966858,285.8177123992506 M216.03618150966858,285.8177123992506 L218.15693700838037,283.85324858567003 M218.15693700838037,283.85324858567003 L221.03315458343573,282.23054922972455 M221.03315458343573,282.23054922972455 L224.4976850605613,281.043611229761 M224.4976850605613,281.043611229761 L228.34946169150743,280.3611543622072 M228.34946169150743,280.3611543622072 L232.3650693101938,280.22265898649863 M232.3650693101938,280.22265898649863 L236.31168094500327,280.63614065137756 M236.31168094500327,280.63614065137756 L239.9604122885551,281.5776652814808 M239.9604122885551,281.5776652814808 L243.09959844265566,282.99276360604847 M229.8102185977038,330.4953880500701 L230.6765519405409,329.87065333244504 M230.6765519405409,329.87065333244504 L231.2589199901067,329.14701058592914 M231.2589199901067,329.14701058592914 L231.52354049003418,328.36655901128967 M231.52354049003418,328.36655901128967 L231.4550893781143,327.5746604005112 M231.4550893781143,327.5746604005112 L231.05761451287736,326.8173404969518 M231.05761451287736,326.8173404969518 L230.3542461933346,326.1385739694374 M230.3542461933346,326.1385739694374 L229.38591925747286,325.57779507125525 M229.38591925747286,325.57779507125525 L228.20888198117154,325.16754125675095 M228.20888198117154,325.16754125675095 L226.8915437786588,324.93163827467254 M226.8915437786588,324.93163827467254 L225.5103815604692,324.8837619305985 M225.5103815604692,324.8837619305985 L224.14561366771704,325.0266937105879 M224.14561366771704,325.0266937105879 L222.8764809585953,325.35213699836066 M222.8764809585953,325.35213699836066 L221.77672581765614,325.84121780011577 M221.77672581765614,325.84121780011577 L220.91022112524823,326.4655352470533 M220.91022112524823,326.4655352470533 L220.32736412107707,327.1888550425909 M220.32736412107707,327.1888550425909 L220.0620406496012,327.96915675927653 M220.0620406496012,327.96915675927653 L220.12974821558015,328.7611059048899 M220.12974821558015,328.7611059048899 L220.52660085856925,329.51866993842225 M220.52660085856925,329.51866993842225 L221.2296152924065,330.1978157337642 M221.2296152924065,330.1978157337642 L222.1979337921543,330.75902438874033 M222.1979337921543,330.75902438874033 L223.3753100143333,331.1696600085832 M223.3753100143333,331.1696600085832 L224.69326085469265,331.4058071166621 M224.69326085469265,331.4058071166621 L226.07516458511623,331.45373653104235 M226.07516458511623,331.45373653104235 L227.44064143244276,331.31064981976044 M227.44064143244276,331.31064981976044 L228.71027572519714,330.98488612624885 M228.71027572519714,330.98488612624885 L229.8102185977038,330.4953880500701 M235.72322441825793,236.49058789349465 L235.87203651818456,252.56348235916235 M217.1576506818103,236.490592889323 L217.31864162626837,252.56348735841698 M137.75988440200177,281.1064570195623 L137.97375317961905,297.2098410383162 M215.10160080511835,336.77831423150025 L215.2652996547018,352.9194370668722 M137.47217484817327,291.7488065557349 L137.6864225383752,307.85943108523253 M158.8714446950874,289.39730778717365 L159.07155079476092,305.50633354618657 M231.3906553516648,248.5782781445428 L231.54246261382926,264.6594546468675 M243.24413063390372,299.09743187712803 L243.09959844265566,282.99276360604847 M229.8102185977038,330.4953880500701 L229.96410785989886,346.6322688342285 M302.3348130118013,289.39730778717376 L302.4403928015338,305.50633354618657" stroke="black"  stroke-width="4"  fill="red"/></svg>