<svg viewBox="0 0 800 800" xmlns="http://www.w3.org/2000/svg"><path d="M802.5764387404432,346.40592451266673 L802.5450740671783,271.2995462949055 M537.6236992043088,192.33517879720705 L539.9381799362922,206.1724300061917 M539.9381799362922,206.1724300061917 L544.290732085898,219.85466331265076 M544.290732085898,219.85466331265076 L550.6536371932425,233.28181454964215 M550.6536371932425,233.28181454964215 L558.9842217953222,246.3553234946122 M558.9842217953222,246.3553234946122 L569.2252103148323,258.97883451201153 M569.2252103148323,258.97883451201153 L581.304948754933,271.0589884083205 M581.304948754933,271.0589884083205 L595.1378815152822,282.50612861210703 M595.1378815152822,282.50612861210703 L610.6251104224116,293.235016275583 M610.6251104224116,293.235016275583 L627.6550445815153,303.16551969509453 M627.6550445815153,303.16551969509453 L646.104224416405,312.2232508404822 M646.104224416405,312.2232508404822 L665.838204504666,320.34016877259944 M665.838204504666,320.34016877259944 L686.7125243222536,327.4551642105715 M686.7125243222536,327.4551642105715 L708.5738056625844,333.51455506398565 M708.5738056625844,333.51455506398565 L731.2609322726007,338.47253752751556 M731.2609322726007,338.47253752751556 L754.6062533238372,342.2915937647409 M754.6062533238372,342.2915937647409 L778.4369760781615,344.9427530609602 M778.4369760781615,344.9427530609602 L802.5764387404432,346.40592451266673 M537.6236992043088,192.33517879720705 L537.1202093557556,117.50296523740701 M802.5450740671783,271.2995462949055 L778.3622642660591,269.8389595644701 M778.3622642660591,269.8389595644701 L754.4887614040076,267.19248451933646 M754.4887614040076,267.19248451933646 L731.1015512987152,263.3801781513863 M731.1015512987152,263.3801781513863 L708.3737430369904,258.43096220955755 M708.3737430369904,258.43096220955755 L686.4732936049411,252.38229101380682 M686.4732936049411,252.38229101380682 L665.5616125201996,245.2798906577105 M665.5616125201996,245.2798906577105 L645.7923560365817,237.17735192098758 M645.7923560365817,237.17735192098758 L627.310245269218,228.13567983402686 M627.310245269218,228.13567983402686 L610.2499667306313,218.22279887392432 M610.2499667306313,218.22279887392432 L594.7351998180502,207.51296927851376 M594.7351998180502,207.51296927851376 L580.8777324170894,196.08618454382918 M580.8777324170894,196.08618454382918 L568.7766354548817,184.0275358734907 M568.7766354548817,184.0275358734907 L558.517612000428,171.4265238407027 M558.517612000428,171.4265238407027 L550.1724373919224,158.3763444291077 M550.1724373919224,158.3763444291077 L543.7984817630459,144.97318399720632 M543.7984817630459,144.97318399720632 L539.4384861764908,131.3154287421899 M539.4384861764908,131.3154287421899 L537.1202093557556,117.50296523740701 M802.5492548167318,266.2797290594845 L802.5450740671783,271.2995462949055 M802.5806045295452,341.37722245387727 L802.5764387404432,346.40592451266673 M802.5806045295452,341.37722245387727 L802.5492548167318,266.2797290594845 M537.6236992043088,192.33517879720705 L546.2145612606654,192.33517434903803 M546.2145612606654,192.33517434903803 L548.7086118653191,206.54693700057823 M548.7086118653191,206.54693700057823 L553.4196094918494,220.58032432467144 M553.4196094918494,220.58032432467144 L560.3134198882194,234.3200860942129 M560.3134198882194,234.3200860942129 L569.3377505753898,247.65293125478178 M569.3377505753898,247.65293125478178 L580.4224902570834,260.4684854850381 M580.4224902570834,260.4684854850381 L593.4800991721652,272.66030161768487 M593.4800991721652,272.66030161768487 L608.4063263298906,284.1267180134946 M608.4063263298906,284.1267180134946 L625.0808970958575,294.771820406831 M625.0808970958575,294.771820406831 L643.3684705706928,304.5062981398656 M643.3684705706928,304.5062981398656 L663.119775635076,313.24822673183195 M663.119775635076,313.24822673183195 L684.1727824695738,320.92385173005994 M684.1727824695738,320.92385173005994 L706.3540456276155,327.4682870241928 M706.3540456276155,327.4682870241928 L729.4802795220301,332.826069685584 M729.4802795220301,332.826069685584 L753.3598056905798,336.9517389826392 M753.3598056905798,336.9517389826392 L777.7943173430352,339.8102281102954 M777.7943173430352,339.8102281102954 L802.5806045295452,341.37722245387727 M537.1202093557556,117.50296523740701 L545.7263870917773,117.50296079721153 M546.2145612606654,192.33517434903803 L545.7263870917773,117.50296079721153 M802.5492548167318,266.2797290594845 L777.7184699229917,264.71550419382993 M777.7184699229917,264.71550419382993 L753.2401060286006,261.862068182722 M753.2401060286006,261.862068182722 L729.3177454144598,257.7436945155659 M729.3177454144598,257.7436945155659 L706.1500574994832,252.39539060514716 M706.1500574994832,252.39539060514716 L683.9290702904136,245.86254004643638 M683.9290702904136,245.86254004643638 L662.8384024248908,238.2005114410651 M662.8384024248908,238.2005114410651 L643.051813118162,229.474080244665 M643.051813118162,229.474080244665 L624.7316237161842,219.75687473050277 M624.7316237161842,219.75687473050277 L608.0273721432737,209.1306787220089 M608.0273721432737,209.1306787220089 L593.0746392765211,197.68464893687366 M593.0746392765211,197.68464893687366 L579.9939109234575,185.51453361407312 M579.9939109234575,185.51453361407312 L568.8896188501953,172.72181761680952 M568.8896188501953,172.72181761680952 L559.8494521457175,159.41276212890494 M559.8494521457175,159.41276212890494 L552.9436389340842,145.6975476606304 M552.9436389340842,145.6975476606304 L548.2245556016101,131.6892653058901 M548.2245556016101,131.6892653058901 L545.7263870917773,117.50296079721153" stroke="black"  stroke-width="4"  fill="red"/>
<path d="M492.0029609987216,215.66565436124432 L491.82052938543853,192.33517879720705 M520.3165633241424,261.6417097649149 L510.99642764526175,248.34046420747364 M510.99642764526175,248.34046420747364 L503.45226874767417,234.67952045441172 M503.45226874767417,234.67952045441172 L497.7238740640802,220.7379386899159 M497.7238740640802,220.7379386899159 L493.8404798284562,206.59609367862362 M493.8404798284562,206.59609367862362 L491.82052938543853,192.33517879720705 M520.4837066143189,285.0106105017646 L520.3165633241424,261.6417097649149 M492.0029609987216,215.66565436124432 L494.02191195989303,229.9344966506129 M494.02191195989303,229.9344966506129 L497.90326702209336,244.08419222726184 M497.90326702209336,244.08419222726184 L503.6285903737872,258.03350300028376 M503.6285903737872,258.03350300028376 L511.1686594631826,271.70201017891685 M511.1686594631826,271.70201017891685 L520.4837066143189,285.0106105017646 M491.82052938543853,192.33517879720705 L546.2145612606654,192.33517434903803 M546.366759558383,215.6656499106009 L546.2145612606654,192.33517434903803 M492.0029609987216,215.66565436124432 L546.366759558383,215.6656499106009 M802.5806045295452,341.37722245387727 L777.7943173430352,339.8102281102954 M777.7943173430352,339.8102281102954 L753.3598056905798,336.9517389826392 M753.3598056905798,336.9517389826392 L729.4802795220301,332.826069685584 M729.4802795220301,332.826069685584 L706.3540456276155,327.4682870241928 M706.3540456276155,327.4682870241928 L684.1727824695738,320.92385173005994 M684.1727824695738,320.92385173005994 L663.119775635076,313.24822673183195 M663.119775635076,313.24822673183195 L643.3684705706928,304.5062981398656 M643.3684705706928,304.5062981398656 L625.0808970958577,294.77182040683124 M625.0808970958577,294.77182040683124 L608.4063263298906,284.1267180134946 M608.4063263298906,284.1267180134946 L593.4800991721652,272.66030161768487 M593.4800991721652,272.66030161768487 L580.4224902570834,260.4684854850381 M580.4224902570834,260.4684854850381 L569.3377505753898,247.65293125478178 M569.3377505753898,247.65293125478178 L560.3134198882194,234.3200860942129 M560.3134198882194,234.3200860942129 L553.4196094918494,220.58032432467144 M553.4196094918494,220.58032432467144 L548.7086118653191,206.54693700057823 M548.7086118653191,206.54693700057823 L546.2145612606654,192.33517434903803 M802.5806045295452,341.37722245387727 L802.5542362823998,373.2575061674884 M802.5542362823998,373.2575061674884 L777.6442194937558,371.941767861921 M777.6442194937558,371.941767861921 L752.9821514650209,369.53705400716217 M752.9821514650209,369.53705400716217 L728.7121063952994,366.0577781024774 M728.7121063952994,366.0577781024774 L704.9757093985347,361.52482691701005 M704.9757093985347,361.52482691701005 L681.9112218996707,355.9653263569825 M697.8905514802293,346.7087493542215 L681.9112218996707,355.9653263569825 M536.2950679831977,252.46756833869608 L697.8905514802293,346.7087493542215 M520.3165633241424,261.6417097649149 L536.2950679831977,252.46756833869608 M536.2950679831977,252.46756833869608 L536.453231786837,275.8313973474885 M520.4837066143189,285.0106105017646 L536.453231786837,275.8313973474885 M546.366759558383,215.6656499106009 L548.8595260825228,229.8853126657084 M548.8595260825228,229.8853126657084 L553.5680025963122,243.9264904239829 M553.5680025963122,243.9264904239829 L560.458070659254,257.6738695044299 M560.458070659254,257.6738695044299 L569.4774639589715,271.01409680796746 M569.4774639589715,271.01409680796746 L580.556107628669,283.83673787888506 M580.556107628669,283.83673787888506 L593.606508468224,296.03528784627235 M593.606508468224,296.03528784627235 L608.5244718511101,307.508030225894 M608.5244718511101,307.508030225894 L625.1897889829311,318.1589992437979 M625.1897889829311,318.1589992437979 L643.4671937833126,327.8988364850461 M643.4671937833126,327.8988364850461 L663.2074983144191,336.6455738337487 M663.2074983144191,336.6455738337487 L684.2487636442833,344.3254176945137 M684.2487636442833,344.3254176945137 L706.4176421468464,350.8734476310451 M706.4176421468464,350.8734476310451 L729.5309520656501,356.23417145432063 M729.5309520656501,356.23417145432063 L753.397123910383,360.36210450526187 M753.397123910383,360.36210450526187 L777.8179639410578,363.22216155579554 M777.8179639410578,363.22216155579554 L802.5903782822586,364.7900152346442 M802.5903782822586,364.7900152346442 L802.5640395650228,396.68775372380924 M681.9885960379106,379.3861129618996 L705.0401807818562,384.94865698327703 M705.0401807818562,384.94865698327703 L728.7632891735345,389.48408844835 M728.7632891735345,389.48408844835 L753.0197389321554,392.9652673573132 M753.0197389321554,392.9652673573132 L777.6679861974322,395.37129610493025 M777.6679861974322,395.37129610493025 L802.5640395650228,396.68775372380924 M697.958944750236,370.12446495375 L681.9885960379106,379.3861129618996 M536.453231786837,275.8313973474885 L697.958944750236,370.12446495375 M802.5903782822586,364.7900152346442 L802.5806045295452,341.37722245387727 M802.5640395650228,396.68775372380924 L802.5542362823998,373.2575061674884 M681.9885960379106,379.3861129618996 L681.9112218996707,355.9653263569825 M697.8905514802293,346.7087493542215 L697.958944750236,370.12446495375" stroke="black"  stroke-width="4"  fill="red"/>
<path d="M563.3237864444858,292.7089630015758 L64.16777010979399,580.062519383735 M64.16777010979399,580.062519383735 L65.45428973126621,650.8450808680112 M86.48758796271596,638.696100925497 L65.45428973126621,650.8450808680112 M86.07141109686472,615.1351791569807 L86.48758796271596,638.696100925497 M563.6113280498483,339.61136874430724 L86.07141109686472,615.1351791569807 M563.3237864444858,292.7089630015758 L563.6113280498483,339.61136874430724 M64.16777010979399,580.062519383735 L47.996961222085645,570.3578347824468 M47.996961222085645,570.3578347824468 L547.146686702842,283.2636346407814 M547.146686702842,283.2636346407814 L563.3237864444858,292.7089630015758 M47.996961222085645,570.3578347824468 L49.31040792247711,641.1247945907656 M65.45428973126621,650.8450808680112 L49.31040792247711,641.1247945907656 M86.48758796271596,638.696100925497 L70.34331919134684,628.9868322577681 M49.31040792247711,641.1247945907656 L70.34331919134684,628.9868322577681 M86.07141109686472,615.1351791569807 L69.91817593824442,605.4310933568638 M70.34331919134684,628.9868322577681 L69.91817593824442,605.4310933568638 M547.4522109359469,330.1556108784341 L563.6113280498483,339.61136874430724 M69.91817593824442,605.4310933568638 L547.4522109359469,330.1556108784341 M547.146686702842,283.2636346407814 L547.4522109359469,330.1556108784341" stroke="black"  stroke-width="4"  fill="red"/>
<path d="M697.8905514802293,346.7087493542215 L697.958944750236,370.12446495375 M158.94279651710343,658.9127982869786 L159.31842045755508,682.4970392027884 M697.8905514802293,346.7087493542215 L158.94279651710343,658.9127982869786 M697.958944750236,370.12446495375 L159.31842045755508,682.4970392027884 M536.2950679831977,252.46756833869608 L536.453231786837,275.8313973474885 M536.2950679831977,252.46756833869608 L697.8905514802293,346.7087493542215 M536.453231786837,275.8313973474885 L697.958944750236,370.12446495375 M-2.590378282258598,561.8714457389883 L-2.125089079773204,585.4038582753986 M158.94279651710343,658.9127982869786 L-2.590378282258598,561.8714457389883 M159.31842045755508,682.4970392027884 L-2.125089079773204,585.4038582753986 M-2.590378282258598,561.8714457389883 L536.2950679831977,252.46756833869608 M510.3359658848687,434.0404876092316 L506.2491049309999,432.1592254513089 M506.2491049309999,432.1592254513089 L501.50173350261633,430.9074663215596 M501.50173350261633,430.9074663215596 L496.3694145753665,430.35773050378896 M496.3694145753665,430.35773050378896 L491.1498924160179,430.541868922489 M491.1498924160179,430.541868922489 L486.1460001151718,431.4492109089823 M486.1460001151718,431.4492109089823 L481.6481173031141,433.0271904944856 M481.6481173031141,433.0271904944856 L477.9173903805646,435.1843810041321 M477.9173903805646,435.1843810041321 L475.17062025636477,437.79572935361375 M475.17062025636477,437.79572935361375 L473.56766992703126,440.70974949606784 M473.56766992703126,440.70974949606784 L473.2021470898719,443.75725941680014 M473.2021470898719,443.75725941680014 L474.0958310652642,446.7611753098023 M474.0958310652642,446.7611753098023 L476.1972610086208,449.54683104808737 M476.1972610086208,449.54683104808737 L479.3846584912098,451.95209679203685 M479.3846584912098,451.95209679203685 L483.472952617648,453.8368746134041 M483.472952617648,453.8368746134041 L488.2243883076191,455.0913399848911 M488.2243883076191,455.0913399848911 L493.36248222243705,455.64235896853984 M493.36248222243705,455.64235896853984 L498.5881632873144,455.4577843752795 M498.5881632873144,455.4577843752795 L503.5971913204356,454.5483890911313 M503.5971913204356,454.5483890911313 L508.09799943750437,452.9672031727688 M508.09799943750437,452.9672031727688 L511.8287818141918,450.8063941289379 M511.8287818141918,450.8063941289379 L514.5727248386108,448.1918439967799 M514.5727248386108,448.1918439967799 L516.1706024411202,445.2757660031066 M516.1706024411202,445.2757660031066 L516.5299797437721,442.227819913929 M516.5299797437721,442.227819913929 L515.6304814528114,439.22518716974537 M515.6304814528114,439.22518716974537 L513.5249042297662,436.4422422262686 M513.5249042297662,436.4422422262686 L510.3359658848687,434.0404876092316 M382.064466759319,508.2715671693827 L377.974720809524,506.37711387887884 M377.974720809524,506.37711387887884 L373.21833414176797,505.11657825058444 M373.21833414176797,505.11657825058444 L368.0713926496068,504.5629882171876 M368.0713926496068,504.5629882171876 L362.8324874280247,504.7484176251188 M362.8324874280247,504.7484176251188 L357.80557423353423,505.66212112512005 M357.80557423353423,505.66212112512005 L353.2823665399894,507.2511648186735 M353.2823665399894,507.2511648186735 L349.52547906362213,509.42348195098486 M349.52547906362213,509.42348195098486 L346.75323107699523,512.0531436320161 M346.75323107699523,512.0531436320161 L345.1269345082974,514.987620757131 M345.1269345082974,514.987620757131 L344.74164923088085,518.0564902742636 M344.74164923088085,518.0564902742636 L345.62018159909655,521.081499676719 M345.62018159909655,521.081499676719 L347.71204862262977,523.8867019643693 M347.71204862262977,523.8867019643693 L350.8960315628811,526.3088288261413 M350.8960315628811,526.3088288261413 L354.98716757253345,528.2068531984569 M354.98716757253345,528.2068531984569 L359.7476305400283,529.4701236055919 M359.7476305400283,529.4701236055919 L364.9004114439819,530.0249919614561 M364.9004114439819,530.0249919614561 L370.1454897125771,529.8391401512728 M370.1454897125771,529.8391401512728 L375.1776188860281,528.9233433313824 M375.1776188860281,528.9233433313824 L379.7037919555461,527.3310595145739 M379.7037919555461,527.3310595145739 L383.4607573225841,525.1550857045808 M383.4607573225841,525.1550857045808 L386.23017787166407,522.5221884823875 M386.23017787166407,522.5221884823875 L387.85134695840077,519.5856501664645 M387.85134695840077,519.5856501664645 L388.23047796821993,516.5163215386859 M388.23047796821993,516.5163215386859 L387.34605094824013,513.4926271658945 M387.34605094824013,513.4926271658945 L385.2499910186343,510.69016424473716 M385.2499910186343,510.69016424473716 L382.064466759319,508.2715671693827 M385.10895377639747,360.3254073688362 L381.0473612418656,358.457196786817 M381.0473612418656,358.457196786817 L376.3238556792588,357.21412507339744 M376.3238556792588,357.21412507339744 L371.21260548337665,356.6682033600787 M371.21260548337665,356.6682033600787 L366.01013843463875,356.85106422487536 M366.01013843463875,356.85106422487536 L361.0182960078811,357.7521086445246 M361.0182960078811,357.7521086445246 L356.5267708611908,359.31914153514924 M356.5267708611908,359.31914153514924 L352.79632873771516,361.4613628719245 M352.79632873771516,361.4613628719245 L350.0437522214645,364.05458627007806 M350.0437522214645,364.05458627007806 L348.42924978605754,366.948382827811 M348.42924978605754,366.948382827811 L348.0470851495869,369.97473741091824 M348.0470851495869,369.97473741091824 L348.9200047899144,372.95779763100904 M348.9200047899144,372.95779763100904 L350.9977479135343,375.72410815148294 M350.9977479135343,375.72410815148294 L354.15992292083604,378.11267251298784 M354.15992292083604,378.11267251298784 L358.22291040918253,379.9843576972945 M358.22291040918253,379.9843576972945 L362.9504438226363,381.2301120366154 M362.9504438226363,381.2301120366154 L368.0674213951112,381.77730357724204 M368.0674213951112,381.77730357724204 L373.27600715004655,381.5940110719406 M373.27600715004655,381.5940110719406 L378.27295402578585,380.6909301830884 M378.27295402578585,380.6909301830884 L382.7674106263573,379.12072880525784 M382.7674106263573,379.12072880525784 L386.4979290267875,376.97492654912537 M386.4979290267875,376.97492654912537 L389.2477091698125,374.3785301352972 M389.2477091698125,374.3785301352972 L390.85719381922246,371.482701633469 M390.85719381922246,371.482701633469 L391.23325814037315,368.455915415906 M391.23325814037315,368.455915415906 L390.3545570276101,365.47412500624637 M390.3545570276101,365.47412500624637 L388.2726718627897,362.71049258607843 M388.2726718627897,362.71049258607843 L385.10895377639747,360.3254073688362 M256.84807306251815,434.0404876092316 L252.7836927873456,432.15922317605555 M252.7836927873456,432.15922317605555 L248.05128600326964,430.90746632155947 M248.05128600326964,430.90746632155947 L242.92553742245963,430.35773050378884 M242.92553742245963,430.35773050378884 L237.70381447290478,430.541868922489 M237.70381447290478,430.541868922489 L232.6890739435523,431.4492086338813 M232.6890739435523,431.4492086338813 L228.1723352308276,433.02719049448547 M228.1723352308276,433.02719049448547 L224.4158259442284,435.184381004132 M224.4158259442284,435.184381004132 L221.6378416052471,437.7957270771508 M221.6378416052471,437.7957270771508 L220.00003553399955,440.7097677127754 M220.00003553399955,440.7097677127754 L219.5981211086691,443.75725941680014 M219.5981211086691,443.75725941680014 L220.45587107960455,446.7611935369031 M220.45587107960455,446.7611935369031 L222.52400351211736,449.5468470009879 M222.52400351211736,449.5468470009879 L225.68268924556534,451.95209679203685 M225.68268924556534,451.95209679203685 L229.74842126828452,453.8368905727542 M229.74842126828452,453.8368905727542 L234.48486764887588,455.091358226304 M234.48486764887588,455.091358226304 L239.61640760805093,455.6423589685397 M239.61640760805093,455.6423589685397 L244.84426295759903,455.4578026173223 M244.84426295759903,455.4578026173223 L249.86418780123276,454.5483868110713 M249.86418780123276,454.5483868110713 L254.3838978177649,452.9672031727688 M254.3838978177649,452.9672031727688 L258.1405058065905,450.8063941289379 M258.1405058065905,450.8063941289379 L260.9156936356733,448.19184171808513 M260.9156936356733,448.19184171808513 L262.54842753452346,445.2757660031066 M262.54842753452346,445.2757660031066 L262.9442333562717,442.227819913929 M262.9442333562717,442.227819913929 L262.08062200722566,439.22518716974537 M262.08062200722566,439.22518716974537 L260.00830221643,436.4422399500961 M260.00830221643,436.4422399500961 L256.84807306251815,434.0404876092316 M-2.125089079773204,585.4038582753986 L536.453231786837,275.8313973474885 M487.83044849999214,470.64321968382785 L489.7370616467614,471.52282849816083 M489.7370616467614,471.52282849816083 L491.9526670002979,472.1082138664997 M491.9526670002979,472.1082138664997 L494.34839098921634,472.365335624786 M494.34839098921634,472.365335624786 L496.7848980382897,472.27920814884055 M496.7848980382897,472.27920814884055 L499.12046339822666,471.85486028534535 M499.12046339822666,471.85486028534535 L501.2193023411849,471.1169636470869 M501.2193023411849,471.1169636470869 L502.9593311058868,470.1084946331081 M502.9593311058868,470.1084946331081 L504.2394749855557,468.8880999607195 M504.2394749855557,468.8880999607195 L504.98533275573766,467.5267945259626 M504.98533275573766,467.5267945259626 L505.1537008635791,466.10370446274 M505.1537008635791,466.10370446274 L504.73488241165705,464.7015479350292 M504.73488241165705,464.7015479350292 L503.7533577516141,463.4017878935289 M503.7533577516141,463.4017878935289 L502.2661937672782,462.27993138589227 M502.2661937672782,462.27993138589227 L500.3598915386391,461.4010877000993 M500.3598915386391,461.4010877000993 L498.14516729154957,460.8162898851217 M498.14516729154957,460.8162898851217 L495.7507072857897,460.55945212105553 M495.7507072857897,460.55945212105553 L493.31553613319954,460.6454823320141 M493.31553613319954,460.6454823320141 L490.98108710985116,461.06938255779176 M490.98108710985116,461.06938255779176 L488.88288149189736,461.80657915135487 M488.88288149189736,461.80657915135487 L487.14286478362783,462.8142601486967 M487.14286478362783,462.8142601486967 L485.8621089301952,464.03395933620357 M485.8621089301952,464.03395933620357 L485.11514852109104,465.3948171259608 M485.11514852109104,465.3948171259608 L484.94544742342396,466.81781448026857 M484.94544742342396,466.81781448026857 L485.3629933416456,468.2202458856618 M485.3629933416456,468.2202458856618 L486.3436188463713,469.52059805450335 M486.3436188463713,469.52059805450335 L487.83044849999214,470.64321968382785 M359.4729351154316,545.0066051388155 L361.3808891663316,545.8923823924889 M361.3808891663316,545.8923823924889 L363.60070117980115,546.4818730394734 M363.60070117980115,546.4818730394734 L366.0032525760885,546.7407980158766 M366.0032525760885,546.7407980158766 L368.44881051060116,546.654066517719 M368.44881051060116,546.654066517719 L370.79512325136693,546.2267426882248 M370.79512325136693,546.2267426882248 L372.9057808991558,545.4836712980259 M372.9057808991558,545.4836712980259 L374.658011705125,544.4681303431829 M374.658011705125,544.4681303431829 L375.95003176115307,543.2391780416111 M375.95003176115307,543.2391780416111 L376.70674926744414,541.8683274688598 M376.70674926744414,541.8683274688598 L376.8843303008699,540.4352597064393 M376.8843303008699,540.4352597064393 L376.4725431707349,539.023272907856 M376.4725431707349,539.023272907856 L375.4954606175185,537.7144010617163 M375.4954606175185,537.7144010617163 L374.00989190610943,536.58468037054 M374.00989190610943,536.58468037054 L372.1022462991766,535.6996763061685 M372.1022462991766,535.6996763061685 L369.883318009341,535.1107794105528 M369.883318009341,535.1107794105528 L367.4820377037209,534.8521414042372 M367.4820377037209,534.8521414042372 L365.0378256370505,534.9387746207348 M365.0378256370505,534.9387746207348 L362.6926397825593,535.3656460965702 M362.6926397825593,535.3656460965702 L360.5826241718234,536.1080100750117 M360.5826241718234,536.1080100750117 L358.83041030010145,537.1227547113256 M358.83041030010145,537.1227547113256 L357.537778196576,538.3510041929314 M357.537778196576,538.3510041929314 L356.77995304346933,539.7214024046658 M356.77995304346933,539.7214024046658 L356.601030224797,541.1543764734365 M356.601030224797,541.1543764734365 L357.01153425431175,542.5666410616468 M357.01153425431175,542.5666410616468 L357.98770773281115,543.8761112652616 M357.98770773281115,543.8761112652616 L359.4729351154316,545.0066051388155 M362.67464116044886,396.7967822202304 L364.56946333661233,397.6702868059127 M364.56946333661233,397.6702868059127 L366.7739343241818,398.251611895387 M366.7739343241818,398.251611895387 L369.1598132743429,398.50694467880146 M369.1598132743429,398.50694467880146 L371.5883603363701,398.42141720136067 M371.5883603363701,398.42141720136067 L373.9182989282498,398.00001432396436 M373.9182989282498,398.00001432396436 L376.0141794524703,397.2672408337738 M376.0141794524703,397.2672408337738 L377.75408264455973,396.2657701463296 M377.75408264455973,396.2657701463296 L379.03694070430225,395.0538417648695 M379.03694070430225,395.0538417648695 L379.7882014263332,393.70198212087485 M379.7882014263332,393.70198212087485 L379.96433868819156,392.2887636512975 M379.96433868819156,392.2887636512975 L379.55521842573955,390.89633961851814 M379.55521842573955,390.89633961851814 L378.5847340734145,389.6055943004492 M378.5847340734145,389.6055943004492 L377.10932584575204,388.4915201453168 M377.10932584575204,388.4915201453168 L375.2148079536069,387.6187727390725 M375.2148079536069,387.6187727390725 L373.0112161817579,387.038033616873 M373.0112161817579,387.038033616873 L370.62657546238495,386.7829728409048 M370.62657546238495,386.7829728409048 L368.19936325767645,386.8684085820131 M368.19936325767645,386.8684085820131 L365.87053587621614,387.2893684723065 M365.87053587621614,387.2893684723065 L363.77529603938956,388.02145370887706 M363.77529603938956,388.02145370887706 L362.03540943090286,389.0221445665759 M362.03540943090286,389.0221445665759 L360.7519400523505,390.233380170567 M360.7519400523505,390.233380170567 L359.99958696098156,391.584796820252 M359.99958696098156,391.584796820252 L359.82211883986463,392.99791902594507 M359.82211883986463,392.99791902594507 L360.2299891102555,394.390624116926 M360.2299891102555,394.390624116926 L361.1995694207036,395.6819508924407 M361.1995694207036,395.6819508924407 L362.67464116044886,396.7967822202304 M234.32829515654106,470.64321968382785 L236.224412894005,471.52282849816083 M236.224412894005,471.52282849816083 L238.4330373217958,472.10821614652684 M238.4330373217958,472.10821614652684 L240.8256856834981,472.3653333447039 M240.8256856834981,472.3653333447039 L243.2632242349716,472.27920814884055 M243.2632242349716,472.27920814884055 L245.60385287354174,471.85486028534535 M245.60385287354174,471.85486028534535 L247.7115001675071,471.116965926901 M247.7115001675071,471.116965926901 L249.46356188925296,470.10849691270585 M249.46356188925296,470.10849691270585 L250.75826356489307,468.8880999607194 M250.75826356489307,468.8880999607194 L251.52036430296522,467.5267945259626 M251.52036430296522,467.5267945259626 L251.70570874952202,466.1037021840016 M251.70570874952202,466.1037021840016 L251.30362837163085,464.7015502134667 M251.30362837163085,464.7015502134667 L250.33760848842766,463.4017878935289 M250.33760848842766,463.4017878935289 L248.86383038999628,462.27993138589227 M248.86383038999628,462.27993138589227 L246.96801444122093,461.4010877000993 M246.96801444122093,461.4010877000993 L244.7602717822601,460.81629216272586 M244.7602717822601,460.81629216272586 L242.3688686690955,460.5594498435063 M242.3688686690955,460.5594498435063 L239.9326748476766,460.6454823320141 M239.9326748476766,460.6454823320141 L237.59316788686593,461.06938255779176 M237.59316788686593,461.06938255779176 L235.486169943787,461.8065814291714 M235.486169943787,461.8065814291714 L233.73412968101323,462.81426242672944 M233.73412968101323,462.81426242672944 L232.4388166570549,464.03395933620357 M232.4388166570549,464.03395933620357 L231.6756186213184,465.3948171259608 M231.6756186213184,465.3948171259608 L231.4889346181159,466.8178122013769 M231.4889346181159,466.8178122013769 L231.8897545285196,468.2202481648545 M231.8897545285196,468.2202481648545 L232.85486051818455,469.52059805450335 M232.85486051818455,469.52059805450335 L234.32829515654106,470.64321968382785 M510.3359658848687,434.0404876092316 L510.40563883350956,443.4290056649676 M510.40563883350956,443.4290056649676 L506.3196910223997,441.5473341092652 M506.3196910223997,441.5473341092652 L501.57338326591173,440.29530253174414 M501.57338326591173,440.29530253174414 L496.44221687618267,439.74544705241306 M496.44221687618267,439.74544705241306 L491.2238693679059,439.92962555342626 M491.2238693679059,439.92962555342626 L486.22110579754644,440.83716503499454 M486.22110579754644,440.83716503499454 L481.72424039320504,442.41548804717604 M481.72424039320504,442.41548804717604 L477.9943605420941,444.57314795572074 M477.9943605420941,444.57314795572074 L475.24821793014763,447.1850643955239 M475.24821793014763,447.1850643955239 L473.64563898000154,450.09971830274037 M473.64563898000154,450.09971830274037 L473.28020960777064,453.147890827928 M473.28020960777064,453.147890827928 L474.173703463184,456.1524596541034 M474.173703463184,456.1524596541034 L476.27467053114026,458.93872071328383 M476.27467053114026,458.93872071328383 L479.4613591240591,461.34450898720615 M479.4613591240591,461.34450898720615 L483.54873947570064,463.2296961797922 M483.54873947570064,463.2296961797922 L488.2991096730325,464.4844339776977 M488.2991096730325,464.4844339776977 L493.43604845560213,465.03557261302524 M493.43604845560213,465.03557261302524 L498.66055209596243,464.8509579408109 M498.66055209596243,464.8509579408109 L503.6684490809467,463.94136517791253 M503.6684490809467,463.94136517791253 L508.16823846178227,462.3598358570506 M508.16823846178227,462.3598358570506 L511.8981737295982,460.1985574421873 M511.8981737295982,460.1985574421873 L514.6414905039895,457.58343924487656 M514.6414905039895,457.58343924487656 L516.2389990024311,454.666727501775 M516.2389990024311,454.666727501775 L516.5982856045734,451.61811881150106 M516.5982856045734,451.61811881150106 L515.6989800548665,448.6148331242629 M515.6989800548665,448.6148331242629 L513.5938675840049,445.8312828395284 M513.5938675840049,445.8312828395284 L510.40563883350956,443.4290056649676 M382.064466759319,508.2715671693827 L382.1633411482239,517.676179352794 M382.1633411482239,517.676179352794 L378.07450958871874,515.7813167775251 M378.07450958871874,515.7813167775251 L373.319190619855,514.5205087762124 M373.319190619855,514.5205087762124 L368.17340823832194,513.9667991139726 M368.17340823832194,513.9667991139726 L362.9356864069926,514.1522685932656 M362.9356864069926,514.1522685932656 L357.90991234295245,515.0661695342673 M357.90991234295245,515.0661695342673 L353.3877335162265,516.6555565600119 M353.3877335162265,516.6555565600119 L349.6317049659273,518.8283429611383 M349.6317049659273,518.8283429611383 L346.8600960541082,521.4585725736092 M346.8600960541082,521.4585725736092 L345.2341814703797,524.3936832883236 M345.2341814703797,524.3936832883236 L344.8489986678254,527.4632152165608 M344.8489986678254,527.4632152165608 L345.72734783274575,530.4888773674056 M345.72734783274575,530.4888773674056 L347.81875637825885,533.2946847990902 M347.81875637825885,533.2946847990902 L351.00203204869433,535.717334032747 M351.00203204869433,535.717334032747 L355.0922530511287,537.6157676585477 M355.0922530511287,537.6157676585477 L359.8516464909657,538.8793104106571 M359.8516464909657,538.8793104106571 L365.0032656602513,539.4342983783534 M365.0032656602513,539.4342983783534 L370.2471577413724,539.2484065052047 M370.2471577413724,539.2484065052047 L375.27814542656404,538.3324122617564 M375.27814542656404,538.3324122617564 L379.8032882735105,536.7397851448504 M379.8032882735105,536.7397851448504 L383.5593946617182,534.5633421028463 M383.5593946617182,534.5633421028463 L386.3281773983049,531.9298769822966 M386.3281773983049,531.9298769822966 L387.94896679793396,528.9927051011464 M387.94896679793396,528.9927051011464 L388.3279981173906,525.9227140627391 M388.3279981173906,525.9227140627391 L387.44375696216485,522.8983669324676 M387.44375696216485,522.8983669324676 L385.34815741833296,520.0952988402231 M385.34815741833296,520.0952988402231 L382.1633411482239,517.676179352794 M385.10895377639747,360.3254073688362 L385.2064584933229,369.6978274675315 M385.2064584933229,369.6978274675315 L381.14576780495355,367.8292074061236 M381.14576780495355,367.8292074061236 L376.42331523311225,366.585863191891 M376.42331523311225,366.585863191891 L371.31320812983427,366.0398217936104 M371.31320812983427,366.0398217936104 L366.1119080687643,366.2227227485512 M366.1119080687643,366.2227227485512 L361.12118893452197,367.1239647014779 M361.12118893452197,367.1239647014779 L356.6306782951723,368.69134108701155 M356.6306782951723,368.69134108701155 L352.9010830513189,370.834031916178 M352.9010830513189,370.834031916178 L350.14913657639295,373.4278235187169 M350.14913657639295,373.4278235187169 L348.5350106228397,376.3222539713332 M348.5350106228397,376.3222539713332 L348.15294683622994,379.34927129647804 M348.15294683622994,379.34927129647804 L349.0256855963348,382.3329845873768 M349.0256855963348,382.3329845873768 L351.10297640492456,385.099900557678 M351.10297640492456,385.099900557678 L354.2644537880449,387.4889875627928 M354.2644537880449,387.4889875627928 L358.32653882031536,389.3610822073807 M358.32653882031536,389.3610822073807 L363.05301745015964,390.6071090336611 M363.05301745015964,390.6071090336611 L368.1688493673311,391.1544202524519 M368.1688493673311,391.1544202524519 L373.37626538826044,390.97108765931716 M373.37626538826044,390.97108765931716 L378.3720866715228,390.06780924758186 M378.3720866715228,390.06780924758186 L382.86552743570974,388.4972643923113 M382.86552743570974,388.4972643923113 L386.5951989052077,386.35099266295674 M386.5951989052077,386.35099266295674 L389.34435024508565,383.75402806122133 M389.34435024508565,383.75402806122133 L390.9534606543067,380.8575656758941 M390.9534606543067,380.8575656758941 L391.3294268595627,377.83011671860413 M391.3294268595627,377.83011671860413 L390.45090922611064,374.8476732313392 M390.45090922611064,374.8476732313392 L388.3694782459785,372.08343534650066 M388.3694782459785,372.08343534650066 L385.2064584933229,369.6978274675315 M256.84807306251815,434.0404876092316 L256.974772054931,443.4290056649676 M256.974772054931,443.4290056649676 L252.91129480847007,441.54733183351664 M252.91129480847007,441.54733183351664 L248.17994496566047,440.295302531744 M248.17994496566047,440.295302531744 L243.05534596697532,439.74544705241306 M243.05534596697532,439.74544705241306 L237.83479865841738,439.92962555342626 M237.83479865841738,439.92962555342626 L232.82119173838075,440.83716275939844 M232.82119173838075,440.83716275939844 L228.30547891643053,442.41548804717604 M228.30547891643053,442.41548804717604 L224.5498283002882,444.57314795572063 M224.5498283002882,444.57314795572063 L221.77248551697105,447.1850621185657 M221.77248551697105,447.1850621185657 L220.1350665035396,450.0997365234093 M220.1350665035396,450.0997365234093 L219.73326192834682,453.1478908279279 M219.73326192834682,453.1478908279279 L220.59083794683613,456.15247788516547 M220.59083794683613,456.15247788516547 L222.65852249293613,458.93873666965055 M222.65852249293613,458.93873666965055 L225.81651227164767,461.34450898720615 M225.81651227164767,461.34450898720615 L229.88134067093398,463.2297121426084 M229.88134067093398,463.2297121426084 L234.616728309654,464.4844522230718 M234.616728309654,464.4844522230718 L239.74711609507133,465.0355726130251 M239.74711609507133,465.0355726130251 L244.97379303391236,464.8509761868147 M244.97379303391236,464.8509761868147 L249.99258192845397,463.9413628973573 M249.99258192845397,463.9413628973573 L254.51126469813283,462.3598358570506 M254.51126469813283,462.3598358570506 L258.2670139498748,460.1985574421873 M258.2670139498748,460.1985574421873 L261.04156146138155,457.5834369656867 M261.04156146138155,457.5834369656867 L262.6739105664925,454.666727501775 M262.6739105664925,454.666727501775 L263.06960929174954,451.61811881150095 M263.06960929174954,451.61811881150095 L262.20617453403406,448.61483312426276 M262.20617453403406,448.61483312426276 L260.1343045299998,445.8312805628607 M260.1343045299998,445.8312805628607 L256.974772054931,443.4290056649676 M487.71827523122977,456.5640839995053 L489.6255275406321,457.44340673602665 M489.6255275406321,457.44340673602665 L491.8418779869024,458.0286017313525 M491.8418779869024,458.0286017313525 L494.23840963375926,458.28563987458494 M494.23840963375926,458.28563987458494 L496.6757398963702,458.1995404067451 M496.6757398963702,458.1995404067451 L499.01209610262595,457.7753305419094 M499.01209610262595,457.7753305419094 L501.1116475143344,457.03767388254016 M501.1116475143344,457.03767388254016 L502.8522689091726,456.0295328710323 M502.8522689091726,456.0295328710323 L504.1328511550293,454.8095351727151 M504.1328511550293,454.8095351727151 L504.87896756723575,453.44867260379226 M504.87896756723575,453.44867260379226 L505.04739964167715,452.0260455694033 M505.04739964167715,452.0260455694033 L504.62844683168004,450.6243453223492 M504.62844683168004,450.6243453223492 L503.6465973812237,449.3250082961026 M503.6465973812237,449.3250082961026 L502.15893708414774,448.20351694703425 M502.15893708414774,448.20351694703425 L500.25199589888246,447.32495934831184 M500.25199589888246,447.32495934831184 L498.0365271523344,446.74035191422615 M498.0365271523344,446.74035191422615 L495.6412603381207,446.4835977671124 M495.6412603381207,446.4835977671124 L493.2052668759253,446.56959996955754 M493.2052668759253,446.56959996955754 L490.8700277624288,446.9933621912588 M490.8700277624288,446.9933621912588 L488.77111010832937,447.73031879823054 M488.77111010832937,447.73031879823054 L487.0305007821378,448.7376717835655 M487.0305007821378,448.7376717835655 L485.7493061515443,449.9569739878158 M485.7493061515443,449.9569739878158 L485.0020863581223,451.3173889063223 M485.0020863581223,451.3173889063223 L484.8323203928677,452.73992322990534 M484.8323203928677,452.73992322990534 L485.24999981101706,454.1418983595062 M485.24999981101706,454.1418983595062 L486.2309494945954,455.4418275194903 M486.2309494945954,455.4418275194903 L487.71827523122977,456.5640839995053 M487.71827523122977,456.5640839995053 L487.83044849999214,470.64321968382785 M359.31687649735557,530.9033708465754 L361.22547057937453,531.7888621093834 M361.22547057937453,531.7888621093834 L363.4460305063177,532.3781624413638 M363.4460305063177,532.3781624413638 L365.84939416917246,532.6370038282297 M365.84939416917246,532.6370038282297 L368.29578144537186,532.5503003296279 M368.29578144537186,532.5503003296279 L370.6428923230283,532.1231144567059 M370.6428923230283,532.1231144567059 L372.7542704681664,531.3802829723568 M372.7542704681664,531.3802829723568 L374.50710220328483,530.3650699204627 M374.50710220328483,530.3650699204627 L375.799568712432,529.1365144729889 M375.799568712432,529.1365144729889 L376.5565522653584,527.766106632843 M376.5565522653584,527.766106632843 L376.7342035580017,526.333501760655 M376.7342035580017,526.333501760655 L376.32228688539135,524.9219711068397 M376.32228688539135,524.9219711068397 L375.3448826014777,523.6135221505854 M375.3448826014777,523.6135221505854 L373.8588187039961,522.4841665102307 M373.8588187039961,522.4841665102307 L371.9505332693905,521.5994484488212 M371.9505332693905,521.5994484488212 L369.73085766197397,521.0107418782761 M369.73085766197397,521.0107418782761 L367.3287659464663,520.7521874644333 M367.3287659464663,520.7521874644333 L364.8837254521676,520.8387926806146 M364.8837254521676,520.8387926806146 L362.5377422276923,521.2655261928006 M362.5377422276923,521.2655261928006 L360.427006561099,522.007650255102 M360.427006561099,522.007650255102 L358.6741917774443,523.0220669760082 M358.6741917774443,523.0220669760082 L357.38111280979695,524.2499195917434 M357.38111280979695,524.2499195917434 L356.6230208627084,525.6198750637948 M356.6230208627084,525.6198750637948 L356.44402687491083,527.05238624009 M356.44402687491083,527.05238624009 L356.8546595780112,528.4641946894328 M356.8546595780112,528.4641946894328 L357.8311541655415,529.7732420117463 M357.8311541655415,529.7732420117463 L359.31687649735557,530.9033708465754 M359.31687649735557,530.9033708465754 L359.4729351154316,545.0066051388155 M362.5207450920693,382.7417515067541 L364.41619851881507,383.61496995015284 M364.41619851881507,383.61496995015284 L366.62140711530657,384.196104622823 M366.62140711530657,384.196104622823 L369.0080870985272,384.45135377372185 M369.0080870985272,384.45135377372185 L371.4374520016239,384.36585430999355 M371.4374520016239,384.36585430999355 L373.76817762768525,383.9445894624989 M373.76817762768525,383.9445894624989 L375.86476859339865,383.2120560046401 M375.86476859339865,383.2120560046401 L377.6052642886135,382.2109133934259 M377.6052642886135,382.2109133934259 L378.8885624947692,380.9993820755849 M378.8885624947692,380.9993820755849 L379.64008544459773,379.64796539589884 M379.64008544459773,379.64796539589884 L379.8162918525362,378.2352100581811 M379.8162918525362,378.2352100581811 L379.40704370840234,376.8432424046953 M379.40704370840234,376.8432424046953 L378.4362419543953,375.55292019484546 M378.4362419543953,375.55292019484546 L376.9603452904812,374.4392112774299 M376.9603452904812,374.4392112774299 L375.06519634710037,373.5667500199668 M375.06519634710037,373.5667500199668 L372.86086755250903,372.9862013188391 M372.86086755250903,372.9862013188391 L370.4754266339761,372.73122417924264 M370.4754266339761,372.73122417924264 L368.0473974858526,372.8166319050903 M368.0473974858526,372.8166319050903 L365.7177838211682,373.2374537616804 M365.7177838211682,373.2374537616804 L363.6218339776338,373.969298959252 M363.6218339776338,373.969298959252 L361.88135488276413,374.9696617340285 M361.88135488276413,374.9696617340285 L360.597444952664,376.1805002692166 M360.597444952664,376.1805002692166 L359.84482890156175,377.53147395079156 M359.84482890156175,377.53147395079156 L359.6672907407467,378.9441330245601 M359.6672907407467,378.9441330245601 L360.07528804704583,380.3363817371371 M360.07528804704583,380.3363817371371 L361.0451851479318,381.6272854101836 M361.0451851479318,381.6272854101836 L362.5207450920693,382.7417515067541 M362.5207450920693,382.7417515067541 L362.67464116044886,396.7967822202304 M234.13052505500002,456.5640839995053 L236.0272748660521,457.44340673602665 M236.0272748660521,457.44340673602665 L238.2366396698832,458.0286040106381 M238.2366396698832,458.0286040106381 L240.63009361463662,458.2856375952441 M240.63009361463662,458.2856375952441 L243.06845607509143,458.1995404067451 M243.06845607509143,458.1995404067451 L245.40987898009215,457.7753305419094 M245.40987898009215,457.7753305419094 L247.51824469113762,457.0376761616129 M247.51824469113762,457.0376761616129 L249.2709071704097,456.0295351498885 M249.2709071704097,456.0295351498885 L250.56605704577393,454.80953517271496 M250.56605704577393,454.80953517271496 L251.32842739557492,453.44867260379226 M251.32842739557492,453.44867260379226 L251.51384727428353,452.0260432914064 M251.51384727428353,452.0260432914064 L251.11164383826582,450.62434760004544 M251.11164383826582,450.62434760004544 L250.14530963508238,449.3250082961026 M250.14530963508238,449.3250082961026 L248.6710442617972,448.20351694703425 M248.6710442617972,448.20351694703425 L246.77459643619136,447.32495934831184 M246.77459643619136,447.32495934831184 L244.56611398990196,446.74035419108895 M244.56611398990196,446.74035419108895 L242.1739061346595,446.4835954903049 M242.1739061346595,446.4835954903049 L239.73688931190657,446.56959996955754 M239.73688931190657,446.56959996955754 L237.39658884624725,446.9933621912588 M237.39658884624725,446.9933621912588 L235.28887292969438,447.7303210753056 M235.28887292969438,447.7303210753056 L233.53623193113478,448.73767406085676 M233.53623193113478,448.73767406085676 L232.24047030234718,449.9569739878158 M232.24047030234718,449.9569739878158 L231.47700191799973,451.3173889063223 M231.47700191799973,451.3173889063223 L231.29024158023935,452.73992095175504 M231.29024158023935,452.73992095175504 L231.69118369237782,454.1419006379573 M231.69118369237782,454.1419006379573 L232.6566033807652,455.4418275194903 M232.6566033807652,455.4418275194903 L234.13052505500002,456.5640839995053 M234.13052505500002,456.5640839995053 L234.32829515654106,470.64321968382785" stroke="black"  stroke-width="4"  fill="red"/></svg>