<svg viewBox="0 0 800 800" xmlns="http://www.w3.org/2000/svg"><path d="M224.62316007628843,248.73920323903587 L175.56483498610748,220.50303655311768 M175.56483498610748,220.50303655311768 L175.37694018759078,204.45217114718037 M224.46701383989978,232.66893056524376 L175.37694018759078,204.45217114718037 M224.46701383989978,232.66893056524376 L224.62316007628843,248.73920323903587 M131.11415222943293,301.3567810036692 L144.64761666036915,291.418210806311 M144.64761666036915,291.418210806311 L159.059362075914,281.91503005283397 M159.059362075914,281.91503005283397 L174.30753872180173,272.87239044023323 M174.30753872180173,272.87239044023323 L190.3483455697338,264.314143832435 M190.3483455697338,264.314143832435 L207.13603584273852,256.2627297617497 M207.13603584273852,256.2627297617497 L224.62316007628843,248.73920323903587 M82.06222640225445,272.87239044023283 L131.11415222943293,301.3567810036692 M82.47849586218024,259.73708400497594 L81.61229499414213,264.10577677206214 M81.61229499414213,264.10577677206214 L81.47288768096257,268.4973149555726 M81.47288768096257,268.4973149555726 L82.06222640225445,272.87239044023283 M175.56483498610748,220.50303655311768 L167.93285416320532,220.09141080259508 M167.93285416320532,220.09141080259508 L160.25663166608848,220.0913933998769 M160.25663166608848,220.0913933998769 L152.604090607365,220.50303655311768 M152.604090607365,220.50303655311768 L82.47849586218024,259.73708400497594 M194.00228450337946,243.0311912395059 L194.86244074894154,242.4167005911616 M194.86244074894154,242.4167005911616 L195.44157698370634,241.704945812121 M195.44157698370634,241.704945812121 L195.70605546360014,240.93729996853676 M195.70605546360014,240.93729996853676 L195.64056357191873,240.15839775482215 M195.64056357191873,240.15839775482215 L195.24898470735823,239.41350467728714 M195.24898470735823,239.41350467728714 L194.5541014162762,238.74587651054242 M194.5541014162762,238.74587651054242 L193.59635895868374,238.19429827710553 M193.59635895868374,238.19429827710553 L192.43139088009414,237.7907739250496 M192.43139088009414,237.7907739250496 L191.1269011394298,237.55874110156043 M191.1269011394298,237.55874110156043 L189.75862571815816,237.51164894654463 M189.75862571815816,237.51164894654463 L188.4060263104672,237.65223834126363 M188.4060263104672,237.65223834126363 L187.14766817836065,237.97235115612418 M187.14766817836065,237.97235115612418 L186.056608252229,238.45339785760223 M186.056608252229,238.45339785760223 L185.19628500697115,239.067481865232 M185.19628500697115,239.067481865232 L184.61666533122735,239.77892441356107 M184.61666533122735,239.77892441356107 L184.35150607831082,240.54641925245397 M184.35150607831082,240.54641925245397 L184.41626351553563,241.32537319613948 M184.41626351553563,241.32537319613948 L184.80723087982045,242.07050418116944 M184.80723087982045,242.07050418116944 L185.5017612604264,242.7385044320057 M185.5017612604264,242.7385044320057 L186.45949418611374,243.29050146843116 M186.45949418611374,243.29050146843116 L187.62479829477147,243.6943954110376 M187.62479829477147,243.6943954110376 L188.92988870635642,243.92666613815015 M188.92988870635642,243.92666613815015 L190.29889628420415,243.97380752760833 M190.29889628420415,243.97380752760833 L191.65218322509224,243.83307211692005 M191.65218322509224,243.83307211692005 L192.9110390677169,243.51264457052383 M192.9110390677169,243.51264457052383 L194.00228450337946,243.0311912395059 M121.53488308672155,283.7306968503465 L122.4016926708544,283.1120230152103 M122.4016926708544,283.1120230152103 L122.98711979690432,282.3954219308043 M122.98711979690432,282.3954219308043 L123.25715245593017,281.6225534131747 M123.25715245593017,281.6225534131747 L123.1961686645771,280.83834848222057 M123.1961686645771,280.83834848222057 L122.8077814962104,280.0883857447764 M122.8077814962104,280.0883857447764 L122.11459295532813,279.41621278851613 M122.11459295532813,279.41621278851613 L121.1569458691597,278.86088098938114 M121.1569458691597,278.86088098938114 L119.99046846671058,278.4546119639498 M119.99046846671058,278.4546119639498 L118.68295675302437,278.22100023058033 M118.68295675302437,278.22100023058033 L117.31031764696519,278.1735888872782 M117.31031764696519,278.1735888872782 L115.95227482741484,278.3151324305003 M115.95227482741484,278.3151324305003 L114.6876963261733,278.6374247920297 M114.6876963261733,278.6374247920297 L113.59000891103182,279.1217450118504 M113.59000891103182,279.1217450118504 L112.72303366810615,279.7400080475545 M112.72303366810615,279.7400080475545 L112.13712619437536,280.4562911921175 M112.13712619437536,280.4562911921175 L111.86640008582378,281.2290121926218 M111.86640008582378,281.2290121926218 L111.92664858997603,282.0132668666436 M111.92664858997603,282.0132668666436 L112.31441864640999,282.76346994466434 M112.31441864640999,282.76346994466434 L113.00725408917674,283.4360162743763 M113.00725408917674,283.4360162743763 L113.96488902688367,283.99177115960094 M113.96488902688367,283.99177115960094 L115.13169801327797,284.3984160713343 M115.13169801327797,284.3984160713343 L116.43981303681636,284.63226814136914 M116.43981303681636,284.63226814136914 L117.8131845014006,284.67973173858115 M117.8131845014006,284.67973173858115 L119.17192938634872,284.5380356541905 M119.17192938634872,284.5380356541905 L120.43700642188293,284.21542785831 M120.43700642188293,284.21542785831 L121.53488308672155,283.7306968503465 M144.2132527048094,255.47429514918045 L145.0768599666497,254.85852688119897 M145.0768599666497,254.85852688119897 L145.6595609130478,254.14529182166197 M145.6595609130478,254.14529182166197 L145.92750537340982,253.37605207556743 M145.92750537340982,253.37605207556743 L145.86518799827465,252.59553016657748 M145.86518799827465,252.59553016657748 L145.47630263387333,251.84908864774692 M145.47630263387333,251.84908864774692 L144.7834769406296,251.18007239085395 M144.7834769406296,251.18007239085395 L143.82703514951527,250.62734792560573 M143.82703514951527,250.62734792560573 L142.6625354044503,250.22298566988957 M142.6625354044503,250.22298566988957 L141.3576560808852,249.9904710045926 M141.3576560808852,249.9904710045926 L139.98815439254088,249.94328177605666 M139.98815439254088,249.94328177605666 L138.63356837084388,250.08416158940454 M138.63356837084388,250.08416158940454 L137.37256990737012,250.40494033421777 M137.37256990737012,250.40494033421777 L136.278374484531,250.8869868700823 M136.278374484531,250.8869868700823 L135.41460156988848,251.5023472287834 M135.41460156988848,251.5023472287834 L134.8314197099195,252.21526783241882 M134.8314197099195,252.21526783241882 L134.56278922773402,252.98435860537697 M134.56278922773402,252.98435860537697 L134.62437263782925,253.76493115445112 M134.62437263782925,253.76493115445112 L135.0126442394411,254.5116113230333 M135.0126442394411,254.5116113230333 L135.7051169701819,255.18099957350887 M135.7051169701819,255.18099957350887 L136.66154746484892,255.73414414819817 M136.66154746484892,255.73414414819817 L137.82638016711155,256.13887839863173 M137.82638016711155,256.13887839863173 L139.13186041938297,256.3716317093494 M139.13186041938297,256.3716317093494 L140.5020933494987,256.4188715769794 M140.5020933494987,256.4188715769794 L141.8573734046135,256.2778427901966 M141.8573734046135,256.2778427901966 L143.11886969277776,255.9567495831874 M143.11886969277776,255.9567495831874 L144.2132527048094,255.47429514918045 M152.604090607365,220.50303655311768 L152.40116422496698,204.45217114718037 M175.37694018759078,204.45217114718037 L167.73996962394722,204.04082896038594 M167.73996962394722,204.04082896038594 L160.05872195002308,204.04081156965663 M160.05872195002308,204.04081156965663 L152.40116422496698,204.45217114718037 M130.89568855746575,285.2505760613684 L144.43824597893394,275.3187696488476 M144.43824597893394,275.3187696488476 L158.8596403161813,265.8220664829233 M158.8596403161813,265.8220664829233 L174.1179935595013,256.7855997200038 M174.1179935595013,256.7855997200038 L190.1694754557902,248.23320354021322 M190.1694754557902,248.23320354021322 L206.96830903782129,240.1873007446489 M206.96830903782129,240.1873007446489 L224.46701383989978,232.66893056524376 M81.81202678801787,256.7855997200035 L130.89568855746575,285.2505760613684 M82.22884355094334,243.65927588667225 L81.3619825480722,248.0249790197866 M81.3619825480722,248.0249790197866 L81.22239192467737,252.41351404081334 M81.22239192467737,252.41351404081334 L81.81202678801787,256.7855997200035 M152.40116422496698,204.45217114718037 L82.22884355094334,243.65927588667225 M193.8261284943825,226.96483475651306 L194.68685793025534,226.35076591460887 M194.68685793025534,226.35076591460887 L195.26638441938277,225.63949975894087 M195.26638441938277,225.63949975894087 L195.53104757724762,224.8723809703858 M195.53104757724762,224.8723809703858 L195.4655241304463,224.09401360609058 M195.4655241304463,224.09401360609058 L195.07369940329147,223.3496320870101 M195.07369940329147,223.3496320870101 L194.3783702822269,222.68246246832507 M194.3783702822269,222.68246246832507 L193.42000799725156,222.1312631129991 M193.42000799725156,222.1312631129991 L192.25428209958775,221.72801596219696 M192.25428209958775,221.72801596219696 L190.9489405714863,221.49614254184115 M190.9489405714863,221.49614254184115 L189.57976881408808,221.4490827391618 M189.57976881408808,221.4490827391618 L188.22628053470686,221.5895755496084 M188.22628053470686,221.5895755496084 L186.9670925862375,221.9094684564971 M186.9670925862375,221.9094684564971 L185.87531004828872,222.3901847143062 M185.87531004828872,222.3901847143062 L185.0144133996974,223.0038469282343 M185.0144133996974,223.0038469282343 L184.43440284145169,223.71480086215448 M184.43440284145169,223.71480086215448 L184.16905801674633,224.48176865238355 M184.16905801674633,224.48176865238355 L184.23384604618838,225.26018774421166 M184.23384604618838,225.26018774421166 L184.62505846723775,226.0048071633344 M184.62505846723775,226.0048071633344 L185.32003421071292,226.6723488536375 M185.32003421071292,226.6723488536375 L186.2783869450185,227.22396699883242 M186.2783869450185,227.22396699883242 L187.4444493066327,227.62758372942474 M187.4444493066327,227.62758372942474 L188.7503922901659,227.85969504595124 M188.7503922901659,227.85969504595124 L190.1202971625192,227.90680408234803 M190.1202971625192,227.90680408234803 L191.4744738822235,227.76616525887147 M191.4744738822235,227.76616525887147 L192.7341601974415,227.4459576311238 M192.7341601974415,227.4459576311238 L193.8261284943825,226.96483475651306 M121.31043517054508,267.63649491614484 L122.1778267601432,267.01824300313854 M122.1778267601432,267.01824300313854 L122.76365248825306,266.3021306774854 M122.76365248825306,266.3021306774854 L123.03387721473746,265.5297893588869 M123.03387721473746,265.5297893588869 L122.9728678794429,264.74611942672715 M122.9728678794429,264.74611942672715 L122.58423912704507,263.99666839039855 M122.58423912704507,263.99666839039855 L121.89060705740877,263.3249541114395 M121.89060705740877,263.3249541114395 L120.93234033190299,262.7700012968557 M120.93234033190299,262.7700012968557 L119.76510317476533,262.36400954990404 M119.76510317476533,262.36400954990404 L118.45673572974727,262.13055726464836 M118.45673572974727,262.13055726464836 L117.08319456117454,262.0831782819621 M117.08319456117454,262.0831782819621 L115.72425569891419,262.22462521535704 M115.72425569891419,262.22462521535704 L114.45883917274176,262.5466976060519 M114.45883917274176,262.5466976060519 L113.36042038167608,263.03068728923716 M113.36042038167608,263.03068728923716 L112.49286292297734,263.64852841293475 M112.49286292297734,263.64852841293475 L111.9065562193802,264.3643228074053 M111.9065562193802,264.3643228074053 L111.63563713622273,265.13651661086226 M111.63563713622273,265.13651661086226 L111.69591021394194,265.9202362856896 M111.69591021394194,265.9202362856896 L112.08392103746985,266.6699276566722 M112.08392103746985,266.6699276566722 L112.77719953562189,267.3420153007078 M112.77719953562189,267.3420153007078 L113.7354540886692,267.8973911909552 M113.7354540886692,267.8973911909552 L114.90302326062363,268.30375881412044 M114.90302326062363,268.30375881412044 L116.21199480516776,268.5374514301192 M116.21199480516776,268.5374514301192 L117.58626929685516,268.58488266460176 M117.58626929685516,268.58488266460176 L118.9459111486795,268.44328319544866 M118.9459111486795,268.44328319544866 L120.21182687287518,268.1208953773504 M120.21182687287518,268.1208953773504 L121.31043517054508,267.63649491614484 M144.00422304135162,239.3994062050348 L144.8684080445637,238.78405978192242 M144.8684080445637,238.78405978192242 L145.45150394795274,238.07131339078245 M145.45150394795274,238.07131339078245 L145.71963766367855,237.30260074674146 M145.71963766367855,237.30260074674146 L145.65729292541764,236.52261373681833 M145.65729292541764,236.52261373681833 L145.26816525821744,235.7766838238149 M145.26816525821744,235.7766838238149 L144.57489645707938,235.1081261578356 M144.57489645707938,235.1081261578356 L143.61783656403037,234.55578060586257 M143.61783656403037,234.55578060586257 L142.45257962877133,234.15169557676202 M142.45257962877133,234.15169557676202 L141.1468480146885,233.91934032923896 M141.1468480146885,233.91934032923896 L139.77644838347237,233.8721834555211 M139.77644838347237,233.8721834555211 L138.42097087626723,234.01296667676962 M138.42097087626723,234.01296667676962 L137.15913912134818,234.3335254926238 M137.15913912134818,234.3335254926238 L136.06421695545663,234.81524155397608 M136.06421695545663,234.81524155397608 L135.1998660890933,235.43018007975283 M135.1998660890933,235.43018007975283 L134.6162886460878,236.14261202419948 M134.6162886460878,236.14261202419948 L134.34746801019077,236.91117569946636 M134.34746801019077,236.91117569946636 L134.4090778185701,237.6912133479908 M134.4090778185701,237.6912133479908 L134.79759091268284,238.43738190375748 M134.79759091268284,238.43738190375748 L135.4905062811829,239.1063115524263 M135.4905062811829,239.1063115524263 L136.4475548555231,239.65907720153848 M136.4475548555231,239.65907720153848 L137.61314517869118,240.06353421446337 M137.61314517869118,240.06353421446337 L138.91947850648683,240.2961281004189 M138.91947850648683,240.2961281004189 L140.29061033894942,240.34333561174793 M140.29061033894942,240.34333561174793 L141.64678279370816,240.20240342142696 M141.64678279370816,240.20240342142696 L142.9091130326894,239.88153015258504 M142.9091130326894,239.88153015258504 L144.00422304135162,239.3994062050348 M130.89568855746575,285.2505760613684 L131.11415222943293,301.3567810036692 M82.06222640225445,272.87239044023283 L81.81202678801787,256.7855997200035 M82.47849586218024,259.73708400497594 L82.22884355094334,243.65927588667225 M193.8261284943825,226.96483475651306 L194.00228450337946,243.0311912395059 M121.31043517054508,267.63649491614484 L121.53488308672155,283.7306968503465 M144.00422304135162,239.3994062050348 L144.2132527048094,255.47429514918045" stroke="black"  stroke-width="4"  fill="red"/>
<path d="M750.8407407189757,272.87239044023283 L751.0302858812761,256.7855997200035 M165.99246831553322,594.5573411776966 L150.08328413930133,584.5560360704139 M150.08328413930133,584.5560360704139 L135.1959534334805,574.0577808939893 M135.1959534334805,574.0577808939893 L121.37645100301495,563.0981019195071 M121.37645100301495,563.0981019195071 L108.66691195709916,551.713897308209 M108.66691195709916,551.713897308209 L97.1055150087866,539.9432937474721 M97.1055150087866,539.9432937474721 L86.72637560366161,527.8255064929285 M86.72637560366161,527.8255064929285 L77.559489020385,515.4006633332618 M77.559489020385,515.4006633332618 L69.63069631475588,502.70968412733293 M69.63069631475588,502.70968412733293 L62.9615773304065,489.7940956954856 M62.9615773304065,489.7940956954856 L57.56949146510328,476.6958925290216 M57.56949146510328,476.6958925290216 L53.4675222987766,463.4574481485799 M53.4675222987766,463.4574481485799 L50.66452069699869,450.12127474078375 M50.66452069699869,450.12127474078375 L49.16511935039722,436.72991764239794 M49.16511935039722,436.72991764239794 L48.969714118723914,423.32583335539374 M48.969714118723914,423.32583335539374 L50.0747151853779,409.95124116613874 M50.0747151853779,409.95124116613874 L52.47228006148799,396.6479898794794 M52.47228006148799,396.6479898794794 L56.15072401109052,383.4574292093726 M56.15072401109052,383.4574292093726 L61.094411520771814,370.4202754974021 M61.094411520771814,370.4202754974021 L67.28391179132473,357.5765125299322 M67.28391179132473,357.5765125299322 L74.69611448354368,344.9653166198325 M74.69611448354368,344.9653166198325 L83.30431897132326,332.6248582166147 M83.30431897132326,332.6248582166147 L93.07840252944663,320.5922602213147 M93.07840252944663,320.5922602213147 L103.98488732189901,308.9035133228465 M103.98488732189901,308.9035133228465 L115.98714451965907,297.5933537271236 M115.98714451965907,297.5933537271236 L129.0455103525236,286.69520923518974 M129.0455103525236,286.69520923518974 L143.11741485241146,276.24109677049603 M143.11741485241146,276.24109677049603 L158.15754342710866,266.2615588219392 M158.15754342710866,266.2615588219392 L174.11799355950254,256.7855997200031 M174.11799355950254,256.7855997200031 L190.94843098210563,247.84061885648097 M190.94843098210563,247.84061885648097 L208.59624925717281,239.45235796948774 M208.59624925717281,239.45235796948774 L227.00672218785041,231.64484821931205 M227.00672218785041,231.64484821931205 L246.1231732122955,224.44036289162563 M246.1231732122955,224.44036289162563 L265.88713126541813,217.8593727956554 M265.88713126541813,217.8593727956554 L286.2384778562548,211.92050146677514 M286.2384778562548,211.92050146677514 L307.1156522451505,206.64050155147987 M307.1156522451505,206.64050155147987 L328.4557630741877,202.03423886079142 M328.4557630741877,202.03423886079142 L350.19480925366076,198.11462915840724 M350.19480925366076,198.11462915840724 L372.26782488023,194.8926516340186 M372.26782488023,194.8926516340186 L394.6089419052733,192.3773045888769 M394.6089419052733,192.3773045888769 L417.1517114866103,190.57560742710766 M417.1517114866103,190.57560742710766 L439.82920364275657,189.4925842029047 M439.82920364275657,189.4925842029047 L462.5741397203889,189.1312236666133 M462.5741397203889,189.1312236666133 L485.3190757980213,189.49258420290462 M485.3190757980213,189.49258420290462 L507.9965679541675,190.57560742710766 M507.9965679541675,190.57560742710766 L530.5393375355046,192.3773045888769 M530.5393375355046,192.3773045888769 L552.8804545605478,194.8926516340186 M552.8804545605478,194.8926516340186 L574.9534701871171,198.11462915840724 M574.9534701871171,198.11462915840724 L596.6925163665901,202.03423886079142 M596.6925163665901,202.03423886079142 L618.0326271956274,206.64050155148007 M618.0326271956274,206.64050155148007 L638.9098015845232,211.92050146677514 M638.9098015845232,211.92050146677514 L659.2611481753597,217.8593727956554 M659.2611481753597,217.8593727956554 L679.0251062284824,224.44036289162563 M679.0251062284824,224.44036289162563 L698.1415572529274,231.64484821931205 M698.1415572529274,231.64484821931205 L716.5520301836052,239.45235796948774 M716.5520301836052,239.45235796948774 L734.1998484586722,247.84061885648106 M734.1998484586722,247.84061885648106 L751.0302858812761,256.7855997200035 M165.99246831553322,594.5573411776966 L166.1928387725154,610.8687763333867 M750.8407407189757,272.87239044023283 L734.0214956731004,263.9212904011699 M734.0214956731004,263.9212904011699 L716.385381844209,255.52728321226974 M716.385381844209,255.52728321226974 L697.9870897215085,247.71441806432426 M697.9870897215085,247.71441806432426 L678.8832592392819,240.5049850399311 M678.8832592392819,240.5049850399311 L659.132324003619,233.91947045902208 M659.132324003619,233.91947045902208 L638.7943642938351,227.9765120297399 M638.7943642938351,227.9765120297399 L617.9309019982036,222.6928751975666 M617.9309019982036,222.6928751975666 L596.6047890317848,218.0834371697025 M596.6047890317848,218.0834371697025 L574.8799865670153,214.16112364328683 M574.8799865670153,214.16112364328683 L552.8214201794647,210.93692227346787 M552.8214201794647,210.93692227346787 L530.494917187724,208.4198383158788 M530.494917187724,208.4198383158788 L507.96688547668447,206.61689660890562 M507.96688547668447,206.61689660890562 L485.30421387180917,205.533125101325 M485.30421387180917,205.533125101325 L462.5741397203889,205.17151486486532 M462.5741397203889,205.17151486486532 L439.84406556896863,205.53312510132508 M439.84406556896863,205.53312510132508 L417.1813939640934,206.61689660890562 M417.1813939640934,206.61689660890562 L394.65336225305396,208.4198383158788 M394.65336225305396,208.4198383158788 L372.3268592613132,210.93692227346787 M372.3268592613132,210.93692227346787 L350.26829287376256,214.16112364328683 M350.26829287376256,214.16112364328683 L328.543490408993,218.0834371697025 M328.543490408993,218.0834371697025 L307.2173774425743,222.6928751975666 M307.2173774425743,222.6928751975666 L286.35391514694277,227.9765120297399 M286.35391514694277,227.9765120297399 L266.0159554371589,233.91947045902208 M266.0159554371589,233.91947045902208 L246.26502020149618,240.5049850399311 M246.26502020149618,240.5049850399311 L227.16118971926946,247.71441806432418 M227.16118971926946,247.71441806432418 L208.76289759656893,255.52728321226974 M208.76289759656893,255.52728321226974 L191.12678376767744,263.9212904011699 M191.12678376767744,263.9212904011699 L174.30753872180145,272.8723904402333 M174.30753872180145,272.8723904402333 L158.35773421049714,282.3548223825982 M158.35773421049714,282.3548223825982 L143.32767093128854,292.3411665092747 M143.32767093128854,292.3411665092747 L129.2652190514827,302.802397104122 M129.2652190514827,302.802397104122 L116.21566214008459,313.7079493037972 M116.21566214008459,313.7079493037972 L104.22154057988644,325.0257828889873 M104.22154057988644,325.0257828889873 L93.32249011282306,336.7224459081901 M93.32249011282306,336.7224459081901 L83.55511319939313,348.76317724285127 M83.55511319939313,348.76317724285127 L74.95286306453733,361.11196058769536 M74.95286306453733,361.11196058769536 L67.54583974142906,373.7316468249522 M67.54583974142906,373.7316468249522 L61.36072315733884,386.58403876423984 M61.36072315733884,386.58403876423984 L56.42060508972088,399.62993287335615 M56.42060508972088,399.62993287335615 L52.74490001157881,412.8293178169304 M52.74490001157881,412.8293178169304 L50.34922946204415,426.1414494380124 M50.34922946204415,426.1414494380124 L49.245266700737034,439.52495001812997 M49.245266700737034,439.52495001812997 L49.44084521126041,452.93794265669607 M49.44084521126041,452.93794265669607 L50.93954859633402,466.33817997152863 M50.93954859633402,466.33817997152863 L53.74097744390281,479.68317745594885 M53.74097744390281,479.68317745594885 L57.840498388934066,492.930361957601 M57.840498388934066,492.930361957601 L63.22926280513781,506.0371937407361 M63.22926280513781,506.0371937407361 L69.89419232233598,518.9612720655521 M69.89419232233598,518.9612720655521 L77.81793580054176,531.6605757005452 M77.81793580054176,531.6605757005452 L86.97892470816089,544.0935516100378 M86.97892470816089,544.0935516100378 L97.35133242500285,556.2192543211754 M97.35133242500285,556.2192543211754 L108.90518119946944,567.9975311361911 M108.90518119946944,567.9975311361911 L121.60637621622277,579.3891426539383 M121.60637621622277,579.3891426539383 L135.41676248894032,590.3559388976612 M135.41676248894032,590.3559388976612 L150.29423168583557,600.8609993397927 M150.29423168583557,600.8609993397927 L166.1928387725154,610.8687763333867 M750.8407407189757,272.87239044023283 L741.7385024944786,278.13457236746785 M741.7385024944786,278.13457236746785 L741.8455968409146,268.75108699440466 M744.6919799216325,267.10681423227106 L741.8455968409146,268.75108699440466 M744.7692957812617,260.40038403964036 L744.6919799216325,267.10681423227106 M751.0302858812761,256.7855997200035 L744.7692957812617,260.40038403964036 M172.60711402397976,590.7383736973309 L165.99246831553322,594.5573411776966 M172.60711402397976,590.7383736973309 L168.79051468708468,588.0757642821495 M168.79051468708468,588.0757642821495 L165.75052299143016,585.0892973382427 M165.75052299143016,585.0892973382427 L163.563113182723,581.8543669752971 M135.9895010878106,565.4948452477622 L163.563113182723,581.8543669752971 M135.9895010878106,565.4948452477622 L135.63959196372417,561.7849652845259 M135.63959196372417,561.7849652845259 L135.73842851229819,558.0680959939984 M135.73842851229819,558.0680959939984 L136.28507777754754,554.3626994680749 M170.07441546455442,534.945032040073 L136.28507777754754,554.3626994680749 M170.07441546455442,534.945032040073 L159.0132876291965,524.2707273368978 M159.0132876291965,524.2707273368978 L149.12715826752807,513.2310975004102 M149.12715826752807,513.2310975004102 L140.4510826967117,501.8697464226324 M140.4510826967117,501.8697464226324 L133.015074413192,490.2313389079269 M133.015074413192,490.2313389079269 L126.84418265611902,478.36134915531306 M126.84418265611902,478.36134915531306 L121.95834914846836,466.30591299877864 M121.95834914846836,466.30591299877864 L118.3724426936173,454.11161718607565 M118.3724426936173,454.11161718607565 L116.09621759381469,441.82528893624993 M116.09621759381469,441.82528893624993 L115.13439036342942,429.49383764906264 M115.13439036342942,429.49383764906264 L115.48657603765025,417.1640813191444 M115.48657603765025,417.1640813191444 L117.1474598075115,404.88250662834054 M117.1474598075115,404.88250662834054 L120.10687457196718,392.69517904713183 M120.10687457196718,392.69517904713183 L124.3497922340581,380.6475142795641 M124.3497922340581,380.6475142795641 L129.8565420082391,368.7841273786082 M129.8565420082391,368.7841273786082 L136.60288189287576,357.1487073212017 M136.60288189287576,357.1487073212017 L144.56018241939665,345.7838503405558 M144.56018241939665,345.7838503405558 L153.6955246672217,334.73090305367003 M153.6955246672217,334.73090305367003 L163.97195866681474,324.0298757197106 M163.97195866681474,324.0298757197106 L175.34853559822878,313.7192624247583 M143.1703564096971,295.0540778133744 L175.34853559822878,313.7192624247583 M143.1703564096971,295.0540778133744 L142.82603793405724,291.50552966263535 M142.82603793405724,291.50552966263535 L142.9205602998922,287.9502438733562 M142.9205602998922,287.9502438733562 L143.45310094847036,284.4058800280357 M222.8514428754771,239.76555469121416 L143.45310094847036,284.4058800280357 M222.8514428754771,239.76555469121416 L229.041374095661,239.51725375959398 M229.041374095661,239.51725375959398 L235.24173033871165,239.51725875794904 M235.24173033871165,239.51725875794904 L241.422095848314,239.7655496926518 M273.6039006351308,258.259418627632 L241.422095848314,239.7655496926518 M273.6039006351308,258.259418627632 L291.61645654382323,251.9582091341916 M291.61645654382323,251.9582091341916 L310.2475688578255,246.3013313754675 M310.2475688578255,246.3013313754675 L329.42906473728925,241.30833975922323 M329.42906473728925,241.30833975922323 L349.09100917873576,236.99640191532367 M349.09100917873576,236.99640191532367 L369.16202649860304,233.3803390358943 M369.16202649860304,233.3803390358943 L389.56945023380285,230.47253766388343 M389.56945023380285,230.47253766388343 L410.23958109204733,228.28295261001355 M410.23958109204733,228.28295261001355 L431.0979496438256,226.81906073673625 M431.0979496438256,226.81906073673625 L452.06949615758606,226.08587518985095 M452.06949615758606,226.08587518985095 L473.07878328319174,226.08587518985095 M473.07878328319174,226.08587518985095 L494.05032979695227,226.81906073673625 M494.05032979695227,226.81906073673625 L514.9086983487305,228.28295261001355 M514.9086983487305,228.28295261001355 L535.578829206975,230.47253766388343 M535.578829206975,230.47253766388343 L555.9862529421748,233.3803390358944 M555.9862529421748,233.3803390358944 L576.057270262042,236.99640191532367 M576.057270262042,236.99640191532367 L595.7192147034887,241.30833975922323 M595.7192147034887,241.30833975922323 L614.9007105829523,246.3013313754675 M614.9007105829523,246.3013313754675 L633.5318228969545,251.9582091341916 M633.5318228969545,251.9582091341916 L651.544378805647,258.259418627632 M683.7261835924639,239.7655496926519 L651.544378805647,258.259418627632 M683.7261835924639,239.7655496926519 L689.9065491020663,239.51725875794904 M689.9065491020663,239.51725875794904 L696.1069053451167,239.51725375959407 M696.1069053451167,239.51725375959407 L702.2968365653007,239.76555469121416 M729.8725369892634,255.26950865851632 L702.2968365653007,239.76555469121416 M729.8725369892634,255.26950865851632 L735.2839606020041,256.52526055491273 M735.2839606020041,256.52526055491273 L740.2913347380277,258.2498627062049 M740.2913347380277,258.2498627062049 L744.7692957812617,260.40038403964036 M175.8062006051254,605.3111038524116 L166.1928387725154,610.8687763333867 M172.60711402397976,590.7383736973309 L172.6887465866037,597.5364541484512 M175.69319179052167,595.8008734925686 L172.6887465866037,597.5364541484512 M175.69319179052167,595.8008734925686 L175.8062006051254,605.3111038524116 M136.20962176987223,581.7874435644396 L175.8062006051254,605.3111038524116 M136.20962176987223,581.7874435644396 L135.85988206690524,578.0751523778799 M135.85988206690524,578.0751523778799 L135.9585854934296,574.3558658076665 M135.9585854934296,574.3558658076665 L136.50480032572926,570.6480579553208 M170.27107329349707,551.2177296518928 L136.50480032572926,570.6480579553208 M175.53816771218732,329.84479523777105 L164.16927043034752,340.1623866557942 M164.16927043034752,340.1623866557942 L153.89980795276387,350.87064401138497 M153.89980795276387,350.87064401138497 L144.77070004672254,361.9310459051514 M144.77070004672254,361.9310459051514 L136.81886994048375,373.30355388762445 M136.81886994048375,373.30355388762445 L130.0772121763418,384.94679241894295 M130.0772121763418,384.94679241894295 L124.57433441212709,396.81813569009813 M124.57433441212709,396.81813569009813 L120.33445951034776,408.87386461990553 M120.33445951034776,408.87386461990553 L117.3772419541952,421.06933365088423 M117.3772419541952,421.06933365088423 L115.71769646835145,433.3590962717679 M115.71769646835145,433.3590962717679 L115.3659799059862,445.6970560135878 M115.3659799059862,445.6970560135878 L116.32739999959989,458.0366951643004 M116.32739999959989,458.0366951643004 L118.60233791203376,470.3311647309838 M118.60233791203376,470.3311647309838 L122.18607677103927,482.53352450709554 M122.18607677103927,482.53352450709554 L127.0688653718264,494.59691676984835 M127.0688653718264,494.59691676984835 L133.23584156758022,506.4747246684648 M133.23584156758022,506.4747246684648 L140.66707387497019,518.1207827949813 M140.66707387497019,518.1207827949813 L149.33752695001334,529.4895880301001 M149.33752695001334,529.4895880301001 L159.21720479574805,540.5364473826587 M159.21720479574805,540.5364473826587 L170.27107329349707,551.2177296518928 M143.38090671701906,311.16694855248454 L175.53816771218732,329.84479523777105 M143.38090671701906,311.16694855248454 L143.03675307805196,307.6159888176979 M143.03675307805196,307.6159888176979 L143.13115091636064,304.05828548051164 M143.13115091636064,304.05828548051164 L143.66327878001954,300.5115101341526 M223.00874173939184,255.84069462525375 L143.66327878001954,300.5115101341526 M223.00874173939184,255.84069462525375 L229.19460813626304,255.59222348826802 M229.19460813626304,255.59222348826802 L235.3908959753652,255.59222849004942 M235.3908959753652,255.59222849004942 L241.5672092051085,255.84068962326515 M273.7280886433008,274.34721673117383 L241.5672092051085,255.84068962326515 M651.4201907974771,274.34721673117383 L633.4195314264387,268.04169857288093 M633.4195314264387,268.04169857288093 L614.8007039213285,262.38094902338133 M614.8007039213285,262.38094902338133 L595.631837638118,257.38453709030773 M595.631837638118,257.38453709030773 L575.9828232356574,253.06964326723724 M575.9828232356574,253.06964326723724 L555.9249913717595,249.45109988235546 M555.9249913717595,249.45109988235546 L535.5309628670875,246.54130280974175 M535.5309628670875,246.54130280974175 L514.874390886446,244.35021437397532 M514.874390886446,244.35021437397532 L494.0296983791948,242.88531709069244 M494.0296983791948,242.88531709069244 L473.0718983198914,242.15162789909587 M473.0718983198914,242.15162789909587 L452.0763811208864,242.15162789909587 M452.0763811208864,242.15162789909587 L431.118581061583,242.88531709069244 M431.118581061583,242.88531709069244 L410.27388855433185,244.35021437397532 M410.27388855433185,244.35021437397532 L389.6173165736903,246.54130280974175 M389.6173165736903,246.54130280974175 L369.2232880690183,249.45109988235538 M369.2232880690183,249.45109988235538 L349.1654562051206,253.06964326723724 M349.1654562051206,253.06964326723724 L329.5164418026598,257.3845370903077 M329.5164418026598,257.3845370903077 L310.34757551944926,262.38094902338133 M310.34757551944926,262.38094902338133 L291.72874801433926,268.04169857288093 M291.72874801433926,268.04169857288093 L273.7280886433008,274.34721673117383 M683.5810702356694,255.84068962326515 L651.4201907974771,274.34721673117383 M683.5810702356694,255.84068962326515 L689.7573834654127,255.59222849004942 M689.7573834654127,255.59222849004942 L695.9536713045147,255.59222348826802 M695.9536713045147,255.59222348826802 L702.139537701386,255.84069462525383 M741.7385024944786,278.13457236746785 L702.139537701386,255.84069462525383 M702.2968365653007,239.76555469121416 L702.139537701386,255.84069462525383 M729.8725369892634,255.26950865851632 L729.7993338640481,261.97447599320407 M741.8455968409146,268.75108699440466 L729.7993338640481,261.97447599320407 M729.7993338640481,261.97447599320407 L735.2092676681252,263.23058602675655 M735.2092676681252,263.23058602675655 L740.2152593890717,264.95567991263067 M740.2152593890717,264.95567991263067 L744.6919799216325,267.10681423227106 M172.6887465866037,597.5364541484512 L168.87320384986185,594.8731259430256 M168.87320384986185,594.8731259430256 L165.83404755615297,591.8858523957786 M165.83404755615297,591.8858523957786 L163.64723118442168,588.6500478631292 M163.563113182723,581.8543669752971 L163.64723118442168,588.6500478631292 M163.64723118442168,588.6500478631292 L175.69319179052167,595.8008734925686 M135.9895010878106,565.4948452477622 L136.20962176987223,581.7874435644396 M136.28507777754754,554.3626994680749 L136.50480032572926,570.6480579553208 M170.07441546455442,534.945032040073 L170.27107329349707,551.2177296518928 M175.34853559822878,313.7192624247583 L175.53816771218732,329.84479523777105 M143.1703564096971,295.0540778133744 L143.38090671701906,311.16694855248454 M143.45310094847036,284.4058800280357 L143.66327878001954,300.5115101341526 M222.8514428754771,239.76555469121416 L223.00874173939184,255.84069462525375 M241.422095848314,239.7655496926518 L241.5672092051085,255.84068962326515 M273.6039006351308,258.259418627632 L273.7280886433008,274.34721673117383 M651.544378805647,258.259418627632 L651.4201907974771,274.34721673117383 M683.7261835924639,239.7655496926519 L683.5810702356694,255.84068962326515" stroke="black"  stroke-width="4"  fill="red"/>
<path d="M680.1469435481931,270.1957078744024 L681.0561671048581,270.6187876328842 M681.0561671048581,270.6187876328842 L681.9629703305445,271.04363827650593 M681.9629703305445,271.04363827650593 L682.8673225607502,271.4702626906743 M682.8673225607502,271.4702626906743 L683.0816358600073,270.81791994887374 M683.0816358600073,270.81791994887374 L683.3322012751833,270.1700641718496 M683.3322012751833,270.1700641718496 L683.6187412037459,269.5273557566586 M680.1469435481931,270.1957078744024 L681.2905979720322,269.95087194517794 M681.2905979720322,269.95087194517794 L682.4482849957976,269.72800918380574 M682.4482849957976,269.72800918380574 L683.6187412037459,269.5273557566586 M682.8673225607502,271.4702626906743 L682.8069109225389,278.17984490591607 M680.1469435481931,270.1957078744024 L680.0872842599811,276.90492745984864 M680.0872842599811,276.90492745984864 L680.9962563932581,277.3281275990432 M680.9962563932581,277.3281275990432 L681.9028088328264,277.7530991190241 M681.9028088328264,277.7530991190241 L682.8069109225389,278.17984490591607 M682.8069109225389,278.17984490591607 L683.0211687348956,277.52731657218044 M683.0211687348956,277.52731657218044 L683.2716687064935,276.87927646051935 M683.2716687064935,276.87927646051935 L683.558133309115,276.2363851563202 M683.6187412037459,269.5273557566586 L683.558133309115,276.2363851563202 M680.0872842599811,276.90492745984864 L681.2306263122905,276.6600218626624 M681.2306263122905,276.6600218626624 L682.3879970193518,276.4370956834024 M682.3879970193518,276.4370956834024 L683.558133309115,276.2363851563202" stroke="black"  stroke-width="4"  fill="red"/>
<path d="M193.37379202407965,553.4999656052328 L192.61966859493677,552.9645296970009 M192.61966859493677,552.9645296970009 L191.86877434630185,552.4276194385707 M191.86877434630185,552.4276194385707 L191.12110421696167,551.8892536415401 M189.87496025929082,553.970129254702 L190.25083436643504,553.2687634852389 M190.25083436643504,553.2687634852389 L190.66636608581857,552.5748856423199 M190.66636608581857,552.5748856423199 L191.12110421696167,551.8892536415401 M189.87496025929082,553.970129254702 L191.03302068346213,553.7918971773681 M191.03302068346213,553.7918971773681 L192.19969341547244,553.6351199209873 M192.19969341547244,553.6351199209873 L193.37379202407965,553.4999656052328 M193.37379202407965,553.4999656052328 L193.44934935965773,560.2879638666357 M193.44934935965773,560.2879638666357 L192.6954342920585,559.752382528588 M192.6954342920585,559.752382528588 L191.9447474711464,559.2153264267388 M191.9447474711464,559.2153264267388 L191.19728383728778,558.6768143776878 M191.12110421696167,551.8892536415401 L191.19728383728778,558.6768143776878 M189.95150255116067,560.7582552065114 L190.32726679491174,560.0566989514114 M190.32726679491174,560.0566989514114 L190.7426775794495,559.3626326343997 M190.7426775794495,559.3626326343997 L191.19728383728778,558.6768143776878 M189.87496025929082,553.970129254702 L189.95150255116067,560.7582552065114 M189.95150255116067,560.7582552065114 L191.10923682113926,560.5799747248241 M191.10923682113926,560.5799747248241 L192.27558112358207,560.4231548896003 M192.27558112358207,560.4231548896003 L193.44934935965773,560.2879638666357" stroke="black"  stroke-width="4"  fill="red"/>
<path d="M276.2263638819396,547.2562435760613 L236.62518638508706,523.9532031261185 M217.65172518811409,523.9531978979255 L223.97601780254394,523.6935007520642 M223.97601780254394,523.6935007520642 L230.3108607811409,523.6934955240927 M230.3108607811409,523.6934955240927 L236.62518638508706,523.9532031261185 M217.65172518811409,523.9531978979255 L136.50480032572926,570.6480579553208 M136.20962176987223,581.7874435644396 L135.85988206690524,578.0751523778799 M135.85988206690524,578.0751523778799 L135.9585854934296,574.3558658076665 M135.9585854934296,574.3558658076665 L136.50480032572926,570.6480579553208 M136.20962176987223,581.7874435644396 L175.8062006051254,605.3111038524116 M276.2263638819396,547.2562435760613 L175.8062006051254,605.3111038524116 M158.23521751573165,573.105949183793 L157.13767085130567,572.5976246080879 M157.13767085130567,572.5976246080879 L155.86008906328757,572.2593779012941 M155.86008906328757,572.2593779012941 L154.47669756920234,572.1108198674867 M154.47669756920234,572.1108198674867 L153.0678305991386,572.1605812057712 M153.0678305991386,572.1605812057712 L151.71530567795253,572.405765809089 M151.71530567795253,572.405765809089 L150.49764499954287,572.832162831302 M150.49764499954287,572.832162831302 L149.4856132832531,573.4150070623664 M149.4856132832531,573.4150070623664 L148.7379958047054,574.1204814801372 M148.7379958047054,574.1204814801372 L148.2983043156123,574.9076033682236 M148.2983043156123,574.9076033682236 L148.1921179447233,575.7306653360083 M148.1921179447233,575.7306653360083 L148.42568898532386,576.5418356841524 M148.42568898532386,576.5418356841524 L148.9854871536615,577.2939591635754 M148.9854871536615,577.2939591635754 L149.8390546170739,577.943284325065 M149.8390546170739,577.943284325065 L150.93677644415752,578.4520506072527 M150.93677644415752,578.4520506072527 L152.21486797442614,578.7906391405174 M152.21486797442614,578.7906391405174 L153.5989786190308,578.9393558561164 M153.5989786190308,578.9393558561164 L155.00862171834046,578.889541000661 M155.00862171834046,578.889541000661 L156.36179356480437,578.64409797739 M156.36179356480437,578.64409797739 L157.57982821391747,578.2172994550313 M157.57982821391747,578.2172994550313 L158.59187133256208,577.6340003042521 M158.59187133256208,577.6340003042521 L159.33913503330257,576.9281217514576 M159.33913503330257,576.9281217514576 L159.77819255163325,576.140741439214 M159.77819255163325,576.140741439214 L159.88360554220333,575.3176233172196 M159.88360554220333,575.3176233172196 L159.6493072644039,574.5066169224078 M159.6493072644039,574.5066169224078 L159.08898228415353,573.7548326427554 M159.08898228415353,573.7548326427554 L158.23521751573165,573.105949183793 M232.31422474233705,530.4263359827339 L231.21743497849405,529.9215308108614 M231.21743497849405,529.9215308108614 L229.94225434905042,529.5856258874135 M229.94225434905042,529.5856258874135 L228.5627686740333,529.4380963451702 M228.5627686740333,529.4380963451702 L227.15908560777837,529.4875131789471 M227.15908560777837,529.4875131789471 L225.81272181942938,529.7310003156995 M225.81272181942938,529.7310003156995 L224.60184214426252,530.1544452180585 M224.60184214426252,530.1544452180585 L223.5968174205978,530.7332540170678 M223.5968174205978,530.7332540170678 L222.85602614560958,531.4338436952132 M222.85602614560958,531.4338436952132 L222.42258313554524,532.215515183816 M222.42258313554524,532.215515183816 L222.3217043266121,533.0328775153803 M222.3217043266121,533.0328775153803 L222.55933305660167,533.8384302048448 M222.55933305660167,533.8384302048448 L223.12170277704794,534.5853446182725 M223.12170277704794,534.5853446182725 L223.9762055445607,535.2301724209777 M223.9762055445607,535.2301724209777 L225.0731718988583,535.7354147190376 M225.0731718988583,535.7354147190376 L226.3488607919344,536.0716579289117 M226.3488607919344,536.0716579289117 L227.72906157061797,536.2193444984084 M227.72906157061797,536.2193444984084 L229.13351507914524,536.1698747069493 M229.13351507914524,536.1698747069493 L230.48051976779374,535.9261318299409 M230.48051976779374,535.9261318299409 L231.69176843118706,535.5022895953502 M231.69176843118706,535.5022895953502 L232.69680175844434,534.9230305939366 M232.69680175844434,534.9230305939366 L233.4372392816639,534.2220409669233 M233.4372392816639,534.2220409669233 L233.87005116620907,533.4401137339037 M233.87005116620907,533.4401137339037 L233.9701616070744,532.6226958258833 M233.9701616070744,532.6226958258833 L233.73181167165833,531.8173053987099 M233.73181167165833,531.8173053987099 L233.1689208077354,531.0707266631659 M233.1689208077354,531.0707266631659 L232.31422474233705,530.4263359827339 M236.47350836034855,507.6983408574994 L236.62518638508706,523.9532031261185 M276.1010318950514,530.9861323549785 L236.47350836034855,507.6983408574994 M276.2263638819396,547.2562435760613 L276.1010318950514,530.9861323549785 M217.48731040554398,507.6983356327342 L223.81585187100185,507.4388087613632 M223.81585187100185,507.4388087613632 L230.15494729733211,507.43880353681953 M230.15494729733211,507.43880353681953 L236.47350836034855,507.6983408574994 M217.48731040554398,507.6983356327342 L217.65172518811409,523.9531978979255 M136.28507777754754,554.3626994680749 L136.50480032572926,570.6480579553208 M217.48731040554398,507.6983356327342 L136.28507777754754,554.3626994680749 M135.9895010878106,565.4948452477622 L135.63959196372417,561.7849652845259 M135.63959196372417,561.7849652845259 L135.73842851229819,558.0680959939984 M135.73842851229819,558.0680959939984 L136.28507777754754,554.3626994680749 M135.9895010878106,565.4948452477622 L136.20962176987223,581.7874435644396 M175.61241666158548,589.0032614105128 L175.8062006051254,605.3111038524116 M135.9895010878106,565.4948452477622 L175.61241666158548,589.0032614105128 M175.61241666158548,589.0032614105128 L199.02476809793305,575.4861340063753 M199.0988716749392,582.2800926202137 L199.02476809793305,575.4861340063753 M252.9165593597273,551.191178910542 L199.0988716749392,582.2800926202137 M252.85774112986036,544.4056525351143 L252.9165593597273,551.191178910542 M252.85774112986036,544.4056525351143 L276.1010318950514,530.9861323549785 M158.03009706492116,556.8189920696218 L156.93181917677308,556.3109980569773 M156.93181917677308,556.3109980569773 L155.65338203621224,555.9729713274148 M155.65338203621224,555.9729713274148 L154.2690607267789,555.8245099116175 M154.2690607267789,555.8245099116175 L152.85924343163876,555.8742388862436 M152.85924343163876,555.8742388862436 L151.50580281965523,556.1192640309521 M151.50580281965523,556.1192640309521 L150.28731420839134,556.5453837566602 M150.28731420839134,556.5453837566602 L149.27459041106397,557.127848981932 M149.27459041106397,557.127848981932 L148.52645690244978,557.8328647009876 M148.52645690244978,557.8328647009876 L148.08645548642392,558.6194748675584 M148.08645548642392,558.6194748675584 L147.98018335688133,559.4420018210915 M147.98018335688133,559.4420018210915 L148.21389789021106,560.252644957433 M148.21389789021106,560.252644957433 L148.77406053549277,561.0042796663054 M148.77406053549277,561.0042796663054 L149.62819235994561,561.6531829109581 M149.62819235994561,561.6531829109581 L150.72664563951872,562.1616186405424 M150.72664563951872,562.1616186405424 L152.00559320253382,562.4999872037806 M152.00559320253382,562.4999872037806 L153.39063463271276,562.6486073069022 M153.39063463271276,562.6486073069022 L154.80122910326602,562.5988248129499 M154.80122910326602,562.5988248129499 L156.1553175174035,562.3535412421702 M156.1553175174035,562.3535412421702 L157.374180609037,561.9270200059232 M157.374180609037,561.9270200059232 L158.38691583179445,561.3440998501669 M158.38691583179445,561.3440998501669 L159.13469509379996,560.6386799874074 M159.13469509379996,560.6386799874074 L159.57406168840373,559.8518113905611 M159.57406168840373,559.8518113905611 L159.67955939702324,559.0292282823768 M159.67955939702324,559.0292282823768 L159.44511663990332,558.2187491014736 M159.44511663990332,558.2187491014736 L158.88442646796085,557.4674536012903 M158.88442646796085,557.4674536012903 L158.03009706492116,556.8189920696218 M158.03009706492116,556.8189920696218 L158.23521751573165,573.105949183793 M232.15957111797098,514.1672318886094 L231.06205109753384,513.6627573492412 M231.06205109753384,513.6627573492412 L229.78601831298278,513.3270724490696 M229.78601831298278,513.3270724490696 L228.40560806454715,513.1796395450182 M228.40560806454715,513.1796395450182 L227.00098165579013,513.2290240083794 M227.00098165579013,513.2290240083794 L225.65371049494516,513.4723516531868 M225.65371049494516,513.4723516531868 L224.44201205882266,513.895519200903 M224.44201205882266,513.895519200903 L223.43630474714652,514.4739489143142 M223.43630474714652,514.4739489143142 L222.6950067053106,515.1740797966279 M222.6950067053106,515.1740797966279 L222.2612622630844,515.9552394546861 M222.2612622630844,515.9552394546861 L222.16030492790534,516.7720666572332 M222.16030492790534,516.7720666572332 L222.39808269938652,517.5770920210282 M222.39808269938652,517.5770920210282 L222.96082043846963,518.3235175576538 M222.96082043846963,518.3235175576538 L223.81588889459235,518.9679233512716 M223.81588889459235,518.9679233512716 L224.91358573720404,519.4728350241096 M224.91358573720404,519.4728350241096 L226.190127462657,519.8088582154644 M226.190127462657,519.8088582154644 L227.57125377683454,519.9564481511431 M227.57125377683454,519.9564481511431 L228.9766516625337,519.9070107283385 M228.9766516625337,519.9070107283385 L230.32456458834278,519.6634273390143 M230.32456458834278,519.6634273390143 L231.53663251223009,519.2398624515685 M231.53663251223009,519.2398624515685 L232.54234844484947,518.6609825282525 M232.54234844484947,518.6609825282525 L233.28329226610572,517.9604516912865 M233.28329226610572,517.9604516912865 L233.71640473786093,517.1790362845509 M233.71640473786093,517.1790362845509 L233.8165926744855,516.3621535055006 M233.8165926744855,516.3621535055006 L233.57809272319687,515.5572904049425 M233.57809272319687,515.5572904049425 L233.01483313739305,514.8112005526718 M233.01483313739305,514.8112005526718 L232.15957111797098,514.1672318886094 M232.15957111797098,514.1672318886094 L232.31422474233705,530.4263359827339 M199.02476809793305,575.4861340063753 L194.64951298885842,572.3589188664612 M194.64951298885842,572.3589188664612 L191.3441745277938,568.8097078679752 M191.3441745277938,568.8097078679752 L189.22061733860815,564.9599963790226 M189.22061733860815,564.9599963790226 L188.35015614076838,560.9413162453391 M188.35015614076838,560.9413162453391 L188.76123020162805,556.8907128427891 M188.76123020162805,556.8907128427891 L190.4385975828761,552.9460549255748 M190.4385975828761,552.9460549255748 L193.32403903721382,549.2413426661585 M193.32403903721382,549.2413426661585 L197.31844270918086,545.902209551215 M197.31844270918086,545.902209551215 L202.28536004317195,543.0416793105207 M202.28536004317195,543.0416793105207 L208.05567263530898,540.7564325530786 M208.05567263530898,540.7564325530786 L214.43335690310948,539.1236075420345 M214.43335690310948,539.1236075420345 L221.202055161729,538.1982860148773 M221.202055161729,538.1982860148773 L228.1323943690659,538.0116493361274 M228.1323943690659,538.0116493361274 L234.9896104255601,538.5699872737698 M234.9896104255601,538.5699872737698 L241.54138786707256,539.8544828177742 M241.54138786707256,539.8544828177742 L247.56560540319424,541.8218266064498 M247.56560540319424,541.8218266064498 L252.85774112986036,544.4056525351143 M199.0988716749392,582.2800926202137 L194.7248276466518,579.1520310536812 M194.7248276466518,579.1520310536812 L191.42039634643538,575.601858867801 M191.42039634643538,575.601858867801 L189.2974118947704,571.7511041599519 M189.2974118947704,571.7511041599519 L188.42717007470054,567.7313342967202 M188.42717007470054,567.7313342967202 L188.83810336113277,563.679631761313 M188.83810336113277,563.679631761313 L190.514975306803,559.733902738993 M190.514975306803,559.733902738993 L193.3995841530785,556.0281838801661 M193.3995841530785,556.0281838801661 L197.39284686523658,552.6881429591392 M197.39284686523658,552.6881429591392 L202.3583539776289,549.8268346243492 M202.3583539776289,549.8268346243492 L208.12703509344328,547.5409659872457 M208.12703509344328,547.5409659872457 L214.50292191953744,545.9076964926023 M214.50292191953744,545.9076964926023 L221.26971750750062,544.9821230226162 M221.26971750750062,544.9821230226162 L228.1981129764683,544.7954355224394 M228.1981129764683,544.7954355224394 L235.05340972285552,545.3539254915363 M235.05340972285552,545.3539254915363 L241.6033569728247,546.6387707404697 M241.6033569728247,546.6387707404697 L247.62589520876128,548.6066499938788 M247.62589520876128,548.6066499938788 L252.9165593597273,551.191178910542" stroke="black"  stroke-width="4"  fill="red"/>
<path d="M741.7385024944786,278.13457236746785 L702.139537701386,255.84069462525383 M683.5810702356694,255.84068962326515 L689.7573834654127,255.59222849004942 M689.7573834654127,255.59222849004942 L695.9536713045147,255.59222348826802 M695.9536713045147,255.59222348826802 L702.139537701386,255.84069462525383 M683.5810702356694,255.84068962326515 L605.9515384197775,300.5115151734824 M606.0784933967379,311.1669536007419 L605.5979183531927,307.6159888176979 M605.5979183531927,307.6159888176979 L605.5556710943881,304.0582854805117 M605.5556710943881,304.0582854805117 L605.9515384197775,300.5115151734824 M606.0784933967379,311.1669536007419 L645.6810846746912,333.6672441742498 M741.7385024944786,278.13457236746785 L645.6810846746912,333.6672441742498 M616.969272078534,308.81255833146037 L618.0618787754859,309.29932490284466 M618.0618787754859,309.29932490284466 L619.3245953260284,309.6232719434997 M619.3245953260284,309.6232719434997 L620.6839666031824,309.7655576191806 M620.6839666031824,309.7655576191806 L622.060945448987,309.71789694368556 M622.060945448987,309.71789694368556 L623.3754299618006,309.4830676681646 M623.3754299618006,309.4830676681646 L624.5510045773747,309.07472480274987 M624.5510045773747,309.07472480274987 L625.5192865803888,308.5166477211831 M625.5192865803888,308.5166477211831 L626.2240315046679,307.8412900701185 M626.2240315046679,307.8412900701185 L626.6242849419398,307.087952649871 M626.6242849419398,307.087952649871 L626.6968609733497,306.30042031515245 M626.6968609733497,306.30042031515245 L626.4375989884932,305.5244738312368 M626.4375989884932,305.5244738312368 L625.8616307124942,304.8051872870611 M625.8616307124942,304.8051872870611 L625.0024503025702,304.18435187712356 M625.0024503025702,304.18435187712356 L623.9100272267435,303.6979986801529 M623.9100272267435,303.6979986801529 L622.6478108358563,303.37437156799405 M622.6478108358563,303.37437156799405 L621.2891332807692,303.2322343407677 M621.2891332807692,303.2322343407677 L619.9128951166567,303.27984495936715 M619.9128951166567,303.27984495936715 L618.599020182111,303.5144323905849 M618.599020182111,303.5144323905849 L617.4237888463233,303.9223995365576 M617.4237888463233,303.9223995365576 L616.4555012420246,304.48005087800516 M616.4555012420246,304.48005087800516 L615.7504031184424,305.15503028863327 M615.7504031184424,305.15503028863327 L615.3495337392117,305.9081258606419 M615.3495337392117,305.9081258606419 L615.2762156758188,306.6956056154497 M615.2762156758188,306.6956056154497 L615.5347879111346,307.4717055914767 M615.5347879111346,307.4717055914767 L616.1102644126952,308.1913095508104 M616.1102644126952,308.1913095508104 L616.969272078534,308.81255833146037 M687.9060803829741,267.943280333579 L688.9978365087024,268.4267486292501 M688.9978365087024,268.4267486292501 L690.258169153326,268.7485005675714 M690.258169153326,268.7485005675714 L691.6137620287723,268.8898220806137 M691.6137620287723,268.8898220806137 L692.9857878274004,268.84248436680843 M692.9857878274004,268.84248436680843 L694.2944330214655,268.60924633971035 M694.2944330214655,268.60924633971035 L695.4636217034938,268.20367041073257 M695.4636217034938,268.20367041073257 L696.4253428772779,267.6493747155986 M696.4253428772779,267.6493747155986 L697.1237333875324,266.9785928807234 M697.1237333875324,266.9785928807234 L697.5182083116558,266.23035931931986 M697.5182083116558,266.23035931931986 L697.5859171439304,265.44816217425466 M697.5859171439304,265.44816217425466 L697.3229818015441,264.6774720513322 M697.3229818015441,264.6774720513322 L696.7447469493127,263.9630577454336 M696.7447469493127,263.9630577454336 L695.8848381923783,263.3464274615012 M695.8848381923783,263.3464274615012 L694.7932668617959,262.86336834678553 M694.7932668617959,262.86336834678553 L693.5334328674171,262.54193309570985 M693.5334328674171,262.54193309570985 L692.17852986769,262.4007585166937 M692.17852986769,262.4007585166937 L690.807239447779,262.44804668565314 M690.807239447779,262.44804668565314 L689.4991982877991,262.6810453218267 M689.4991982877991,262.6810453218267 L688.3303483698639,263.08624934708143 M688.3303483698639,263.08624934708143 L687.3686191424567,263.64012362099777 M687.3686191424567,263.64012362099777 L686.6698756056489,264.3105310482297 M686.6698756056489,264.3105310482297 L686.2747874975942,265.05852521481285 M686.2747874975942,265.05852521481285 L686.2063413451044,265.840670309112 M686.2063413451044,265.840670309112 L686.4685925235285,266.6115123755517 M686.4685925235285,266.6115123755517 L687.0463407819454,267.3262408723548 M687.0463407819454,267.3262408723548 L687.9060803829741,267.943280333579 M702.2968365653007,239.76555469121416 L702.139537701386,255.84069462525383 M741.9221431234275,262.0441883930648 L702.2968365653007,239.76555469121416 M741.7385024944786,278.13457236746785 L741.9221431234275,262.0441883930648 M683.7261835924639,239.7655496926519 L689.9065491020663,239.51725875794904 M689.9065491020663,239.51725875794904 L696.1069053451167,239.51725375959407 M696.1069053451167,239.51725375959407 L702.2968365653007,239.76555469121416 M683.7261835924639,239.7655496926519 L683.5810702356694,255.84068962326515 M606.0460311274751,284.40588506393823 L605.9515384197775,300.5115151734824 M683.7261835924639,239.7655496926519 L606.0460311274751,284.40588506393823 M606.173153566996,295.0540828582043 L605.6922336895793,291.5055296626354 M605.6922336895793,291.5055296626354 L605.6499306959163,287.9502438733562 M605.6499306959163,287.9502438733562 L606.0460311274751,284.40588506393823 M606.173153566996,295.0540828582043 L606.0784933967379,311.1669536007419 M645.8020937802894,317.5391247558459 L645.6810846746912,333.6672441742498 M606.173153566996,295.0540828582043 L645.8020937802894,317.5391247558459 M645.8020937802894,317.5391247558459 L668.1948529031531,304.610659248362 M668.1383093274119,311.3296443397615 L668.1948529031531,304.610659248362 M719.617011974851,281.59189429249477 L668.1383093274119,311.3296443397615 M719.6875409561255,274.88134193968096 L719.617011974851,281.59189429249477 M719.6875409561255,274.88134193968096 L741.9221431234275,262.0441883930648 M617.0710962432063,292.70128638897506 L618.1644276658637,293.18772236185566 M618.1644276658637,293.18772236185566 L619.4279797989789,293.5114494009386 M619.4279797989789,293.5114494009386 L620.7882488797406,293.6536384500346 M620.7882488797406,293.6536384500346 L622.1661355035919,293.60601014078566 M622.1661355035919,293.60601014078566 L623.4814849197974,293.3713403408714 M623.4814849197974,293.3713403408714 L624.6578312498891,292.9632748007658 M624.6578312498891,292.9632748007658 L625.6267468692126,292.4055767657424 M625.6267468692126,292.4055767657424 L626.3319505074735,291.73067786389464 M626.3319505074735,291.73067786389464 L626.7324611197503,290.9778522209698 M626.7324611197503,290.9778522209698 L626.8050779256043,290.19085496018613 M626.8050779256043,290.19085496018613 L626.5456380245591,289.41543574481017 M626.5456380245591,289.41543574481017 L625.9692835629651,288.69663802666025 M625.9692835629651,288.69663802666025 L625.1095311830527,288.076224581041 M625.1095311830527,288.076224581041 L624.0163836273423,287.5902019740901 M624.0163836273423,287.5902019740901 L622.7533323150005,287.26679485610623 M622.7533323150005,287.26679485610623 L621.3937578756775,287.1247542540802 M621.3937578756775,287.1247542540802 L620.0166129087165,287.17233250662974 M620.0166129087165,287.17233250662974 L618.7018738728268,287.40676046720426 M618.7018738728268,287.40676046720426 L617.5258712706423,287.8144502947479 M617.5258712706423,287.8144502947479 L616.556950038947,288.37172259839 M616.556950038947,288.37172259839 L615.8513927336269,289.0462432683952 M615.8513927336269,289.0462432683952 L615.4502653647471,289.7988270680448 M615.4502653647471,289.7988270680448 L615.3769055490388,290.5857717508277 M615.3769055490388,290.5857717508277 L615.635654789035,291.3613444535028 M615.635654789035,291.3613444535028 L616.2115168316707,292.0804595811272 M616.2115168316707,292.0804595811272 L617.0710962432063,292.70128638897506 M617.0710962432063,292.70128638897506 L616.969272078534,308.81255833146037 M688.0541829867234,251.85985818019185 L689.1466626833344,252.34299595473263 M689.1466626833344,252.34299595473263 L690.4078277472236,252.66452794283066 M690.4078277472236,252.66452794283066 L691.7643134388027,252.8057528518052 M691.7643134388027,252.8057528518052 L693.1372404942531,252.75844749670605 M693.1372404942531,252.75844749670605 L694.4467429167114,252.525368908028 M694.4467429167114,252.525368908028 L695.6166949312292,252.12007023955135 M695.6166949312292,252.12007023955135 L696.5790411204273,251.5661535020928 M696.5790411204273,251.5661535020928 L697.277882024915,250.89583030843443 M697.277882024915,250.89583030843443 L697.6726065691898,250.14810840329363 M697.6726065691898,250.14810840329363 L697.7403498243104,249.36644620494343 M697.7403498243104,249.36644620494343 L697.4772317858153,248.5962832245476 M697.4772317858153,248.5962832245476 L696.8986078165103,247.882357627274 M696.8986078165103,247.882357627274 L696.0381261762632,247.2661492058724 M696.0381261762632,247.2661492058724 L694.9458315228949,246.7834206011431 M694.9458315228949,246.7834206011431 L693.685165767351,246.4622052908431 M693.685165767351,246.4622052908431 L692.3293708632466,246.32112731353786 M692.3293708632466,246.32112731353786 L690.9571801512375,246.36838312431806 M690.9571801512375,246.36838312431806 L689.6482825539829,246.60122232859152 M689.6482825539829,246.60122232859152 L688.4786697427965,247.0061491026514 M688.4786697427965,247.0061491026514 L687.5163154840875,247.55964443036973 M687.5163154840875,247.55964443036973 L686.8171210856731,248.22959322740445 M686.8171210856731,248.22959322740445 L686.4217825482983,248.97707574424493 M686.4217825482983,248.97707574424493 L686.353301004408,249.7586858940692 M686.353301004408,249.7586858940692 L686.6157339784536,250.52900081219897 M686.6157339784536,250.52900081219897 L687.1938707196273,251.24324059264245 M687.1938707196273,251.24324059264245 L688.0541829867234,251.85985818019185 M688.0541829867234,251.85985818019185 L687.9060803829741,267.943280333579 M668.1948529031531,304.610659248362 L663.799283320224,301.61954324902064 M663.799283320224,301.61954324902064 L660.4343130609188,298.2247565031865 M660.4343130609188,298.2247565031865 L658.2138902762986,294.54249517652215 M658.2138902762986,294.54249517652215 L657.2126878923282,290.6985607327628 M657.2126878923282,290.6985607327628 L657.4636568949113,286.8240352597018 M657.4636568949113,286.8240352597018 L658.9570589951718,283.0507959375931 M658.9570589951718,283.0507959375931 L661.6409755482462,279.50702676225825 M661.6409755482462,279.50702676225825 L665.423174647013,276.3129147271088 M665.423174647013,276.3129147271088 L670.1744276596417,273.57658915333604 M670.1744276596417,273.57658915333604 L675.732932779893,271.3905480546049 M675.732932779893,271.3905480546049 L681.9098338833799,269.82859524933815 M681.9098338833799,269.82859524933815 L688.4955552954987,268.94343293539 M688.4955552954987,268.94343293539 L695.2668942459525,268.76489598580713 M695.2668942459525,268.76489598580713 L701.9944449654413,269.29900260755664 M701.9944449654413,269.29900260755664 L708.4502628267444,270.52774826347354 M708.4502628267444,270.52774826347354 L714.4154671462911,272.4096941308427 M714.4154671462911,272.4096941308427 L719.6875409561255,274.88134193968096 M668.1383093274119,311.3296443397615 L663.743962225391,308.3376817359452 M663.743962225391,308.3376817359452 L660.379932407029,304.94193363547384 M660.379932407029,304.94193363547384 L658.1601363428333,301.2586289500942 M658.1601363428333,301.2586289500942 L657.1592261342648,297.4136046769685 M657.1592261342648,297.4136046769685 L657.4101434461313,293.53798001810026 M657.4101434461313,293.53798001810026 L658.9031524041438,289.76366958528075 M658.9031524041438,289.76366958528075 L661.5863483387104,286.2188938465434 M661.5863483387104,286.2188938465434 L665.3675243357795,283.0238740720005 M665.3675243357795,283.0238740720005 L670.1174868452752,280.2867704870633 M670.1174868452752,280.2867704870633 L675.6744780140996,278.1001075920238 M675.6744780140996,278.1001075920238 L681.8496930427139,276.53771037201386 M681.8496930427139,276.53771037201386 L688.4336132468961,275.6522961576975 M688.4336132468961,275.6522961576975 L695.2030966128584,275.47370839555333 M695.2030966128584,275.47370839555333 L701.9287999120754,276.00796702253626 M701.9287999120754,276.00796702253626 L708.382840796675,277.2370623264978 M708.382840796675,277.2370623264978 L714.346398566244,279.1195435807743 M714.346398566244,279.1195435807743 L719.617011974851,281.59189429249477" stroke="black"  stroke-width="4"  fill="red"/>
<path d="M319.1967410210002,300.5115151734823 L319.5926083463898,304.05828548051164 M319.5926083463898,304.05828548051164 L319.55036108758515,307.6159888176979 M319.55036108758515,307.6159888176979 L319.0697860440399,311.1669536007418 M318.975125873782,295.0540828582043 L319.0697860440399,311.1669536007418 M319.10224831330265,284.40588506393823 L319.4983487448616,287.9502438733562 M319.4983487448616,287.9502438733562 L319.4560457511985,291.50552966263535 M319.4560457511985,291.50552966263535 L318.975125873782,295.0540828582043 M319.10224831330265,284.40588506393823 L319.1967410210002,300.5115151734823 M319.1967410210002,300.5115151734823 L241.5672092051085,255.84068962326515 M223.00874173939184,255.84069462525375 L229.19460813626304,255.59222348826802 M229.19460813626304,255.59222348826802 L235.3908959753652,255.59222849004942 M235.3908959753652,255.59222849004942 L241.5672092051085,255.84068962326515 M239.71637321726976,356.251752069367 L319.0697860440399,311.1669536007418 M223.00874173939184,255.84069462525375 L143.66327878001954,300.5115101341526 M239.71637321726976,356.251752069367 L233.47879218823235,356.50441284140146 M233.47879218823235,356.50441284140146 L227.23035285652765,356.50440775507025 M227.23035285652765,356.50440775507025 L221.00248599178647,356.25175715548573 M143.38090671701906,311.16694855248454 L143.03675307805196,307.6159888176979 M143.03675307805196,307.6159888176979 L143.13115091636064,304.05828548051164 M143.13115091636064,304.05828548051164 L143.66327878001954,300.5115101341526 M143.38090671701906,311.16694855248454 L221.00248599178647,356.25175715548573 M164.77079453520284,308.81255833146025 L165.6372000870516,308.1913095508104 M165.6372000870516,308.1913095508104 L166.22124793355977,307.47170433018647 M166.22124793355977,307.47170433018647 L166.4890575635768,306.6956068765772 M166.4890575635768,306.6956068765772 L166.42511911599877,305.9081258606419 M166.42511911599877,305.9081258606419 L166.03321766615466,305.15503028863327 M166.03321766615466,305.15503028863327 L165.3361594939422,304.48004961734165 M165.3361594939422,304.48004961734165 L164.3745124516601,303.92239827601077 M164.3745124516601,303.92239827601077 L163.2041369888999,303.5144323905848 M163.2041369888999,303.5144323905848 L161.89305554245368,303.27984495936704 M161.89305554245368,303.27984495936704 L160.51738209335497,303.2322356011698 M160.51738209335497,303.2322356011698 L159.15701642860648,303.374370307562 M159.15701642860648,303.374370307562 L157.8909440204835,303.6979986801529 M157.8909440204835,303.6979986801529 L156.79272940731477,304.1843518771235 M156.79272940731477,304.1843518771235 L155.9261560338362,304.80518728706096 M155.9261560338362,304.80518728706096 L155.34162466683216,305.5244725703545 M155.34162466683216,305.5244725703545 L155.07311816680306,306.30042157619715 M155.07311816680306,306.30042157619715 L155.13631843040633,307.087952649871 M155.13631843040633,307.087952649871 L155.52760105834122,307.8412900701185 M155.52760105834122,307.8412900701185 L156.22430600126484,308.51664645967406 M156.22430600126484,308.51664645967406 L157.18594237251114,309.07472354112383 M157.18594237251114,309.07472354112383 L158.35665216682156,309.4830676681645 M158.35665216682156,309.4830676681645 L159.66834031163222,309.71789694368556 M159.66834031163222,309.71789694368556 L161.04474937220613,309.7655588809512 M161.04474937220613,309.7655588809512 L162.40581947502878,309.6232706817587 M162.40581947502878,309.6232706817587 L163.67239137840954,309.29932490284466 M163.67239137840954,309.29932490284466 L164.77079453520284,308.81255833146025 M243.24413063390372,299.09743187712803 L240.10699449950656,297.68137014907506 M240.10699449950656,297.68137014907506 L236.46065403274952,296.73920440430487 M236.46065403274952,296.73920440430487 L232.51663566709055,296.32544115562183 M232.51663566709055,296.32544115562183 L228.50367364347278,296.46403084970433 M228.50367364347278,296.46403084970433 L224.65444189421748,297.146952454558 M224.65444189421748,297.146952454558 L221.1922082706284,298.33469861009723 M221.1922082706284,298.33469861009723 L218.31790639255166,299.95850257031094 M218.31790639255166,299.95850257031094 L216.1985741135418,301.9243032477072 M216.1985741135418,301.9243032477072 L214.95764595134088,304.118141982162 M214.95764595134088,304.118141982162 L214.6676699481255,306.41268965337804 M214.6676699481255,306.41268965337804 L215.34604084330005,308.6746380292843 M215.34604084330005,308.6746380292843 L216.95381896011403,310.77240735138884 M216.95381896011403,310.77240735138884 L219.39796064372592,312.5838701385522 M219.39796064372592,312.5838701385522 L222.53654253805914,314.0034420956204 M222.53654253805914,314.0034420956204 L226.18702390723604,314.94831389726795 M226.18702390723604,314.94831389726795 L230.13692971232697,315.3633591538128 M230.13692971232697,315.3633591538128 L234.15617694692307,315.2243336876604 M234.15617694692307,315.2243336876604 L238.0106518206908,314.5393583728266 M238.0106518206908,314.5393583728266 L241.4758853190203,313.3484110343558 M241.4758853190203,313.3484110343558 L244.35025663222225,311.72099180302564 M244.35025663222225,311.72099180302564 L246.46671200139406,309.7519899720056 M246.46671200139406,309.7519899720056 L247.7024759300126,307.5560975270823 M247.7024759300126,307.5560975270823 L247.98618346543748,305.2611140810727 M247.98618346543748,305.2611140810727 L247.30187588794632,303.00044770021987 M247.30187588794632,303.00044770021987 L245.68985291986974,300.9053844400586 M245.68985291986974,300.9053844400586 L243.24413063390372,299.09743187712803 M237.24219905780367,267.943280333579 L238.10193865883235,267.3262408723548 M238.10193865883235,267.3262408723548 L238.67968691724934,266.61151237555157 M238.67968691724934,266.61151237555157 L238.9419380956734,265.840670309112 M238.9419380956734,265.840670309112 L238.87349194318372,265.05852521481285 M238.87349194318372,265.05852521481285 L238.47840383512883,264.3105310482297 M238.47840383512883,264.3105310482297 L237.77966029832123,263.64012362099777 M237.77966029832123,263.64012362099777 L236.81793107091394,263.0862493470813 M236.81793107091394,263.0862493470813 L235.6490811529787,262.6810453218267 M235.6490811529787,262.6810453218267 L234.34103999299873,262.448046685653 M234.34103999299873,262.448046685653 L232.96974957308782,262.4007585166937 M232.96974957308782,262.4007585166937 L231.61484657336084,262.54193309570985 M231.61484657336084,262.54193309570985 L230.35501257898198,262.86336834678553 M230.35501257898198,262.86336834678553 L229.26344124839954,263.3464274615011 M229.26344124839954,263.3464274615011 L228.40353249146514,263.96305774543345 M228.40353249146514,263.96305774543345 L227.8252976392337,264.6774720513321 M227.8252976392337,264.6774720513321 L227.56236229684765,265.4481621742546 M227.56236229684765,265.4481621742546 L227.63007112912203,266.23035931931986 M227.63007112912203,266.23035931931986 L228.02454605324536,266.97859288072334 M228.02454605324536,266.97859288072334 L228.72293656349996,267.64937471559847 M228.72293656349996,267.64937471559847 L229.68465773728417,268.20367041073246 M229.68465773728417,268.20367041073246 L230.8538464193123,268.60924633971035 M230.8538464193123,268.60924633971035 L232.16249161337745,268.84248436680843 M232.16249161337745,268.84248436680843 L233.5345174120057,268.8898220806137 M233.5345174120057,268.8898220806137 L234.89011028745193,268.7485005675713 M234.89011028745193,268.7485005675713 L236.15044293207546,268.42674862924997 M236.15044293207546,268.42674862924997 L237.24219905780367,267.943280333579 M235.70235939275392,349.9611226797722 L236.56805355527055,349.3356213596202 M236.56805355527055,349.3356213596202 L237.14984371149268,348.61109061079236 M237.14984371149268,348.61109061079236 L237.4139811709938,347.82968128455343 M237.4139811709938,347.82968128455343 L237.34516990231376,347.03681083478244 M237.34516990231376,347.03681083478244 L236.947478645211,346.2785614905764 M236.947478645211,346.2785614905764 L236.24405022379685,345.5989618978926 M236.24405022379685,345.5989618978926 L235.27582292858554,345.03749472111383 M235.27582292858554,345.03749472111383 L234.0990392291367,344.62673736399665 M234.0990392291367,344.62673736399665 L232.78209380415427,344.3905448313965 M232.78209380415427,344.3905448313965 L231.4014407725626,344.342609722813 M231.4014407725626,344.342609722813 L230.0372689266482,344.4857169400725 M230.0372689266482,344.4857169400725 L228.76878454136317,344.81155967843966 M228.76878454136317,344.81155967843966 L227.66969236474566,345.301240767476 M227.66969236474566,345.301240767476 L226.8038267811265,345.9263244659974 M226.8038267811265,345.9263244659974 L226.22154789062168,346.65053199174105 M226.22154789062168,346.65053199174105 L225.95670792685792,347.4317913349684 M225.95670792685792,347.4317913349684 L226.02477624858275,348.2247123615867 M226.02477624858275,348.2247123615867 L226.4218458824908,348.98320604108983 M226.4218458824908,348.98320604108983 L227.12492087712795,349.6631852200925 M227.12492087712795,349.6631852200925 L228.09313995251063,350.22508251510976 M228.09313995251063,350.22508251510976 L229.27026252193656,350.6362219991704 M229.27026252193656,350.6362219991704 L230.58782023143883,350.87265886309183 M230.58782023143883,350.87265886309183 L231.96921422842027,350.9206470871057 M231.96921422842027,350.9206470871057 L233.33409440823104,350.77738480727015 M233.33409440823104,350.77738480727015 L234.6030798330416,350.45122139417845 M234.6030798330416,350.45122139417845 L235.70235939275392,349.9611226797722 M308.17900736224396,308.81255833146025 L309.03801502808267,308.1913095508104 M309.03801502808267,308.1913095508104 L309.6134915296433,307.4717055914767 M309.6134915296433,307.4717055914767 L309.8720637649592,306.6956056154497 M309.8720637649592,306.6956056154497 L309.7987457015662,305.9081258606419 M309.7987457015662,305.9081258606419 L309.3978763223355,305.15503028863327 M309.3978763223355,305.15503028863327 L308.69277819875305,304.48005087800516 M308.69277819875305,304.48005087800516 L307.72449059445466,303.92239953655746 M307.72449059445466,303.92239953655746 L306.5492592586668,303.5144323905848 M306.5492592586668,303.5144323905848 L305.2353843241211,303.27984495936704 M305.2353843241211,303.27984495936704 L303.8591461600088,303.2322343407677 M303.8591461600088,303.2322343407677 L302.5004686049216,303.37437156799405 M302.5004686049216,303.37437156799405 L301.2382522140345,303.6979986801529 M301.2382522140345,303.6979986801529 L300.1458291382078,304.1843518771235 M300.1458291382078,304.1843518771235 L299.28664872828375,304.80518728706096 M299.28664872828375,304.80518728706096 L298.71068045228463,305.52447383123666 M298.71068045228463,305.52447383123666 L298.4514184674283,306.30042031515245 M298.4514184674283,306.30042031515245 L298.523994498838,307.087952649871 M298.523994498838,307.087952649871 L298.92424793610985,307.8412900701185 M298.92424793610985,307.8412900701185 L299.6289928603891,308.5166477211831 M299.6289928603891,308.5166477211831 L300.5972748634032,309.07472480274976 M300.5972748634032,309.07472480274976 L301.77284947897715,309.4830676681645 M301.77284947897715,309.4830676681645 L303.08733399179084,309.71789694368556 M303.08733399179084,309.71789694368556 L304.46431283759557,309.7655576191806 M304.46431283759557,309.7655576191806 L305.8236841147494,309.6232719434997 M305.8236841147494,309.6232719434997 L307.08640066529193,309.29932490284466 M307.08640066529193,309.29932490284466 L308.17900736224396,308.81255833146025 M239.56881834469243,340.1083826229418 L318.975125873782,295.0540828582043 M239.56881834469243,340.1083826229418 L239.71637321726976,356.251752069367 M222.8514428754771,239.76555469121416 L229.041374095661,239.51725375959398 M229.041374095661,239.51725375959398 L235.24173033871165,239.51725875794904 M235.24173033871165,239.51725875794904 L241.422095848314,239.7655496926518 M222.8514428754771,239.76555469121416 L143.45310094847036,284.4058800280357 M319.10224831330265,284.40588506393823 L241.422095848314,239.7655496926518 M143.1703564096971,295.0540778133744 L142.82603793405724,291.50552966263535 M142.82603793405724,291.50552966263535 L142.9205602998922,287.9502438733562 M142.9205602998922,287.9502438733562 L143.45310094847036,284.4058800280357 M143.1703564096971,295.0540778133744 L220.8425405918189,340.10838770563254 M239.56881834469243,340.1083826229418 L233.3271042204312,340.36087310336217 M233.3271042204312,340.36087310336217 L227.07452768969856,340.3608680204589 M227.07452768969856,340.3608680204589 L220.8425405918189,340.10838770563254 M237.09409645405452,251.85985818019185 L237.95440872115054,251.24324059264245 M237.95440872115054,251.24324059264245 L238.5325454623242,250.5290008121989 M238.5325454623242,250.5290008121989 L238.79497843636995,249.7586858940692 M238.79497843636995,249.7586858940692 L238.72649689247956,248.97707574424493 M238.72649689247956,248.97707574424493 L238.3311583551048,248.22959322740445 M238.3311583551048,248.22959322740445 L237.63196395669033,247.55964443036973 M237.63196395669033,247.55964443036973 L236.66960969798154,247.0061491026513 M236.66960969798154,247.0061491026513 L235.49999688679497,246.60122232859143 M235.49999688679497,246.60122232859143 L234.19109928954023,246.36838312431806 M234.19109928954023,246.36838312431806 L232.81890857753146,246.32112731353786 M232.81890857753146,246.32112731353786 L231.46311367342673,246.462205290843 M231.46311367342673,246.462205290843 L230.2024479178828,246.783420601143 M230.2024479178828,246.783420601143 L229.11015326451474,247.2661492058724 M229.11015326451474,247.2661492058724 L228.2496716242676,247.882357627274 M228.2496716242676,247.882357627274 L227.67104765496256,248.5962832245475 M227.67104765496256,248.5962832245475 L227.4079296164673,249.36644620494332 M227.4079296164673,249.36644620494332 L227.4756728715881,250.14810840329355 M227.4756728715881,250.14810840329355 L227.870397415863,250.89583030843443 M227.870397415863,250.89583030843443 L228.5692383203505,251.5661535020928 M228.5692383203505,251.5661535020928 L229.5315845095488,252.12007023955135 M229.5315845095488,252.12007023955135 L230.70153652406648,252.52536890802793 M230.70153652406648,252.52536890802793 L232.0110389465247,252.75844749670605 M232.0110389465247,252.75844749670605 L233.38396600197515,252.8057528518052 M233.38396600197515,252.8057528518052 L234.74045169355426,252.66452794283057 M234.74045169355426,252.66452794283057 L236.0016167574436,252.34299595473263 M236.0016167574436,252.34299595473263 L237.09409645405452,251.85985818019185 M164.57439212019784,292.70128638897506 L165.44137917857597,292.0804595811271 M165.44137917857597,292.0804595811271 L166.02582387317761,291.36134319306944 M166.02582387317761,291.36134319306944 L166.29382269724397,290.58577301109835 M166.29382269724397,290.58577301109835 L166.22985486917582,289.7988270680448 M166.22985486917582,289.7988270680448 L165.83770725912177,289.04624326839513 M165.83770725912177,289.04624326839513 L165.1402005084469,288.3717213385833 M165.1402005084469,288.3717213385833 L164.17792859724895,287.81444903505803 M164.17792859724895,287.81444903505803 L163.00678827387821,287.40676046720415 M163.00678827387821,287.40676046720415 L161.69484641027543,287.17233250662974 M161.69484641027543,287.17233250662974 L160.31826690454756,287.1247555136255 M160.31826690454756,287.1247555136255 L158.95700212631084,287.26679359653116 M158.95700212631084,287.26679359653116 L157.69008971262625,287.5902019740901 M157.69008971262625,287.5902019740901 L156.59114298106803,288.076224581041 M156.59114298106803,288.076224581041 L155.72398788651253,288.69663802666025 M155.72398788651253,288.69663802666025 L155.1390590373789,289.4154344847847 M155.1390590373789,289.4154344847847 L154.87036242940624,290.19085622037403 M154.87036242940624,290.19085622037403 L154.93359109739126,290.9778522209697 M154.93359109739126,290.9778522209697 L155.32511906519096,291.7306778638945 M155.32511906519096,291.7306778638945 L156.0222721129071,292.4055755050902 M156.0222721129071,292.4055755050902 L156.98453333194675,292.96327353999675 M156.98453333194675,292.96327353999675 L158.15600842313063,293.3713403408714 M158.15600842313063,293.3713403408714 L159.46855778144507,293.60601014078566 M159.46855778144507,293.60601014078566 L160.8458738696645,293.6536397109483 M160.8458738696645,293.6536397109483 L162.20784401485014,293.5114481400546 M162.20784401485014,293.5114481400546 L163.47525658944966,293.18772236185566 M163.47525658944966,293.18772236185566 L164.57439212019784,292.70128638897506 M243.09959844265566,282.99276360604847 L245.54691090200546,284.79948646545665 M245.54691090200546,284.79948646545665 L247.1599715919681,286.8931251873445 M247.1599715919681,286.8931251873445 L247.84470367133895,289.152254966955 M247.84470367133895,289.152254966955 L247.56078206215923,291.44567905817695 M247.56078206215923,291.44567905817695 L246.32417722298163,293.6400800165897 M246.32417722298163,293.6400800165897 L244.20630238849654,295.60774491774833 M244.20630238849654,295.60774491774833 L241.3300152408823,297.234059470222 M241.3300152408823,297.234059470222 L237.8624808912413,298.42419858707336 M237.8624808912413,298.42419858707336 L234.00545419344817,299.1087091222375 M234.00545419344817,299.1087091222375 L229.9835530673299,299.2476402610257 M229.9835530673299,299.2476402610257 L226.03104624312468,298.83287661473366 M226.03104624312468,298.83287661473366 L222.37816856913466,297.88864598358157 M222.37816856913466,297.88864598358157 L219.2375347924857,296.4700375024192 M219.2375347924857,296.4700375024192 L216.79180506500188,294.65980449119974 M216.79180506500188,294.65980449119974 L215.18299486006921,292.5634597632002 M215.18299486006921,292.5634597632002 L214.5042073104448,290.3030480149866 M214.5042073104448,290.3030480149866 L214.79440565072576,288.01005968956713 M214.79440565072576,288.01005968956713 L216.03618150966858,285.8177123992506 M216.03618150966858,285.8177123992506 L218.15693700838037,283.85324858567003 M218.15693700838037,283.85324858567003 L221.03315458343573,282.23054922972455 M221.03315458343573,282.23054922972455 L224.4976850605613,281.043611229761 M224.4976850605613,281.043611229761 L228.34946169150743,280.3611543622072 M228.34946169150743,280.3611543622072 L232.3650693101938,280.22265898649863 M232.3650693101938,280.22265898649863 L236.31168094500327,280.63614065137756 M236.31168094500327,280.63614065137756 L239.9604122885551,281.5776652814808 M239.9604122885551,281.5776652814808 L243.09959844265566,282.99276360604847 M308.07718319757146,292.70128638897506 L308.93676260910706,292.0804595811271 M308.93676260910706,292.0804595811271 L309.51262465174295,291.3613444535028 M309.51262465174295,291.3613444535028 L309.7713738917389,290.5857717508277 M309.7713738917389,290.5857717508277 L309.69801407603086,289.7988270680448 M309.69801407603086,289.7988270680448 L309.296886707151,289.0462432683952 M309.296886707151,289.0462432683952 L308.5913294018308,288.37172259839 M308.5913294018308,288.37172259839 L307.6224081701357,287.8144502947479 M307.6224081701357,287.8144502947479 L306.44640556795105,287.40676046720415 M306.44640556795105,287.40676046720415 L305.1316665320613,287.17233250662974 M305.1316665320613,287.17233250662974 L303.75452156510045,287.1247542540802 M303.75452156510045,287.1247542540802 L302.3949471257773,287.2667948561062 M302.3949471257773,287.2667948561062 L301.13189581343556,287.5902019740901 M301.13189581343556,287.5902019740901 L300.0387482577251,288.076224581041 M300.0387482577251,288.076224581041 L299.17899587781284,288.69663802666025 M299.17899587781284,288.69663802666025 L298.60264141621866,289.41543574481005 M298.60264141621866,289.41543574481005 L298.34320151517363,290.19085496018613 M298.34320151517363,290.19085496018613 L298.4158183210276,290.9778522209697 M298.4158183210276,290.9778522209697 L298.8163289333043,291.7306778638945 M298.8163289333043,291.7306778638945 L299.5215325715653,292.4055767657423 M299.5215325715653,292.4055767657423 L300.4904481908886,292.9632748007658 M300.4904481908886,292.9632748007658 L301.66679452098043,293.3713403408714 M301.66679452098043,293.3713403408714 L302.98214393718604,293.60601014078566 M302.98214393718604,293.60601014078566 L304.36003056103715,293.6536384500346 M304.36003056103715,293.6536384500346 L305.72029964179893,293.5114494009386 M305.72029964179893,293.5114494009386 L306.9838517749141,293.18772236185566 M306.9838517749141,293.18772236185566 L308.07718319757146,292.70128638897506 M235.55222503568376,333.82199532667914 L236.4184998255707,333.1969160508256 M236.4184998255707,333.1969160508256 L237.00068391666989,332.4728742179197 M237.00068391666989,332.4728742179197 L237.2650057933504,331.69199225386745 M237.2650057933504,331.69199225386745 L237.1961587821387,330.8996569695435 M237.1961587821387,330.8996569695435 L236.79821378824673,330.1419194868687 M236.79821378824673,330.1419194868687 L236.0943284378207,329.46277871612637 M236.0943284378207,329.46277871612637 L235.12546763478488,328.90169064401266 M235.12546763478488,328.90169064401266 L233.94791064885902,328.49121065360094 M233.94791064885902,328.49121065360094 L232.6300970830834,328.2551776199808 M232.6300970830834,328.2551776199808 L231.24853142114833,328.2072748823487 M231.24853142114833,328.2072748823487 L229.8834554191771,328.35028545893766 M229.8834554191771,328.35028545893766 L228.61412780921506,328.675908163231 M228.61412780921506,328.675908163231 L227.51430230558145,329.1652586037948 M227.51430230558145,329.1652586037948 L226.6478558729694,329.7899202637667 M226.6478558729694,329.7899202637667 L226.0651824032612,330.5136388788777 M226.0651824032612,330.5136388788777 L225.80015709727476,331.2943708603039 M225.80015709727476,331.2943708603039 L225.86826017597113,332.0867567216184 M225.86826017597113,332.0867567216184 L226.26558272073245,332.8447385362268 M226.26558272073245,332.8447385362268 L226.9691141702635,333.5242588889021 M226.9691141702635,333.5242588889021 L227.9379667371443,334.0857770733332 M227.9379667371443,334.0857770733332 L229.1158630382525,334.49663918458856 M229.1158630382525,334.49663918458856 L230.43428969593538,334.7329165461665 M230.43428969593538,334.7329165461665 L231.8165973048847,334.78087239765836 M231.8165973048847,334.78087239765836 L233.18238257737428,334.63770676230695 M233.18238257737428,334.63770676230695 L234.45221189562898,334.3117633868639 M234.45221189562898,334.3117633868639 L235.55222503568376,333.82199532667914 M241.422095848314,239.7655496926518 L241.5672092051085,255.84068962326515 M222.8514428754771,239.76555469121416 L223.00874173939184,255.84069462525375 M143.45310094847036,284.4058800280357 L143.66327878001954,300.5115101341526 M220.8425405918189,340.10838770563254 L221.00248599178647,356.25175715548573 M143.1703564096971,295.0540778133744 L143.38090671701906,311.16694855248454 M164.57439212019784,292.70128638897506 L164.77079453520284,308.81255833146025 M243.24413063390372,299.09743187712803 L243.09959844265566,282.99276360604847 M237.09409645405452,251.85985818019185 L237.24219905780367,267.943280333579 M235.55222503568376,333.82199532667914 L235.70235939275392,349.9611226797722 M308.07718319757146,292.70128638897506 L308.17900736224396,308.81255833146025" stroke="black"  stroke-width="4"  fill="red"/></svg>