<svg viewBox="0 0 800 800" xmlns="http://www.w3.org/2000/svg"><path d="M635.8453291163678,265.1602930023966 L636.1022714017658,250.6614529750792 M153.92542855797168,543.3968773176243 L153.64582982778654,528.5881289531219 M635.8453291163678,265.1602930023966 L646.5738918447247,271.3745755969883 M646.5738918447247,271.3745755969883 L656.8220402718026,277.86542930505993 M656.8220402718026,277.86542930505993 L666.5682938031568,284.62098295745255 M666.5682938031568,284.62098295745255 L675.7919405903932,291.62881292342485 M675.7919405903932,291.62881292342485 L684.4731181016463,298.8759488912729 M684.4731181016463,298.8759488912729 L692.5928645812523,306.34886216966754 M692.5928645812523,306.34886216966754 L700.133135241278,314.0335178674649 M700.133135241278,314.0335178674649 L707.0768546608507,321.91538311512977 M707.0768546608507,321.91538311512977 L713.4079592529285,329.9794289515974 M713.4079592529285,329.9794289515974 L719.111524538938,338.21015734728536 M719.111524538938,338.21015734728536 L724.1736651274866,346.5916291853627 M724.1736651274866,346.5916291853627 L728.5816799023867,355.10747955037004 M728.5816799023867,355.10747955037004 L732.3240581990705,363.7409836586846 M732.3240581990705,363.7409836586846 L735.3905391670648,372.47500286577724 M735.3905391670648,372.47500286577724 L737.7721508848113,381.29206941437303 M737.7721508848113,381.29206941437303 L739.4612388300394,390.1744233841168 M739.4612388300394,390.1744233841168 L740.4514931893386,399.10400657536826 M740.4514931893386,399.10400657536826 L740.7380380544068,408.0625132554505 M740.7380380544068,408.0625132554505 L740.3173873184898,417.03146521913584 M740.3173873184898,417.03146521913584 L739.1875394391075,425.99215974884555 M739.1875394391075,425.99215974884555 L737.3479550895029,434.9257813815373 M737.3479550895029,434.9257813815373 L734.7996566198485,443.813431729965 M734.7996566198485,443.813431729965 L731.5451613590449,452.6361438260074 M731.5451613590449,452.6361438260074 L727.5885331651469,461.3749432169236 M727.5885331651469,461.3749432169236 L722.9354418366071,470.01088253037864 M722.9354418366071,470.01088253037864 L717.5930960632679,478.5251061127468 M717.5930960632679,478.5251061127468 L711.5703348581641,486.89889077567096 M711.5703348581641,486.89889077567096 L704.8775601271741,495.1136650048623 M704.8775601271741,495.1136650048623 L697.5267429544675,503.15107814875546 M697.5267429544675,503.15107814875546 L689.5314623684596,510.9930741691807 M689.5314623684596,510.9930741691807 L680.9068579507149,518.6218990217283 M680.9068579507149,518.6218990217283 L671.6695867643984,526.0201520663945 M671.6695867643984,526.0201520663945 L661.8378726962223,533.1708762857984 M661.8378726962223,533.1708762857984 L651.4314106127154,540.0575691098643 M651.4314106127154,540.0575691098643 L640.4713567278892,546.6642350173252 M640.4713567278892,546.6642350173252 L628.9802978854493,552.9754496957216 M628.9802978854493,552.9754496957216 L616.9822156377157,558.9764020728974 M616.9822156377157,558.9764020728974 L604.5024088097443,564.652935750034 M604.5024088097443,564.652935750034 L591.5674310567142,569.9915793934683 M591.5674310567142,569.9915793934683 L578.2050974755444,574.9796290447398 M578.2050974755444,574.9796290447398 L564.4443480371609,579.60514724056 M564.4443480371609,579.60514724056 L550.315173979905,583.8570172825478 M550.315173979905,583.8570172825478 L535.8486156860818,587.7249999000433 M535.8486156860818,587.7249999000433 L521.0766399020558,591.199740417806 M521.0766399020558,591.199740417806 L506.0320197525113,594.2727954263444 M506.0320197525113,594.2727954263444 L490.748297468577,596.9367026733983 M490.748297468577,596.9367026733983 L475.25970349243914,599.1849550427517 M475.25970349243914,599.1849550427517 L459.60103025135993,601.0120706754583 M459.60103025135993,601.0120706754583 L443.80755274964935,602.4135846109373 M443.80755274964935,602.4135846109373 L427.91489823312025,603.3860446149433 M427.91489823312025,603.3860446149433 L411.9589947705905,603.9270764522787 M411.9589947705905,603.9270764522787 L395.97598835965556,604.0353465622334 M395.97598835965556,604.0353465622334 L380.00201030913126,603.7105999804587 M380.00201030913126,603.7105999804587 L364.07323340409386,602.953619280456 M364.07323340409386,602.953619280456 L348.2256987636838,601.7662706298945 M348.2256987636838,601.7662706298945 L332.49518312892616,600.1514649339888 M332.49518312892616,600.1514649339888 L316.91716655267675,598.1131527597868 M316.91716655267675,598.1131527597868 L301.52672128855295,595.6563174816679 M301.52672128855295,595.6563174816679 L286.35831245737785,592.7869607827597 M286.35831245737785,592.7869607827597 L271.44584961877985,589.5120687973938 M271.44584961877985,589.5120687973938 L256.8225205438486,585.8396122235702 M256.8225205438486,585.8396122235702 L242.52071853266258,581.7784564756348 M242.52071853266258,581.7784564756348 L228.57194422539172,577.3384211401817 M228.57194422539172,577.3384211401817 L215.00671280701476,572.530196566368 M215.00671280701476,572.530196566368 L201.85450781820396,567.3653097742663 M201.85450781820396,567.3653097742663 L189.14372557063643,561.8560822444294 M189.14372557063643,561.8560822444294 L176.90154015228708,556.0156090737498 M176.90154015228708,556.0156090737498 L165.15388875444893,549.8577126767887 M165.15388875444893,549.8577126767887 L153.92542855797168,543.3968773176243 M636.1022714017658,250.6614529750792 L646.8427800839219,256.86852877043 M646.8427800839219,256.86852877043 L657.102384679667,263.3518688455374 M657.102384679667,263.3518688455374 L666.8595804456185,270.09961754975694 M666.8595804456185,270.09961754975694 L676.0936318884148,277.09936737207903 M676.0936318884148,277.09936737207903 L684.7846534252427,284.338164697988 M684.7846534252427,284.338164697988 L692.913660903535,291.8024981070107 M692.913660903535,291.8024981070107 L700.462587819503,299.47835047539337 M700.462587819503,299.47835047539337 L707.4143377846506,307.35120717141257 M707.4143377846506,307.35120717141257 L713.7528270510268,315.406057923619 M713.7528270510268,315.406057923619 L719.4631119415664,323.6274237969471 M719.4631119415664,323.6274237969471 L724.5312887370898,331.99938512678426 M724.5312887370898,331.99938512678426 L728.944639044004,340.50559677566 M728.944639044004,340.50559677566 L732.6916360026652,349.1293539754945 M732.6916360026652,349.1293539754945 L735.7620037359524,357.85353838330155 M735.7620037359524,357.85353838330155 L738.1467565376405,366.66070272197413 M738.1467565376405,366.66070272197413 L739.8382274038546,375.53310767836695 M739.8382274038546,375.53310767836695 L740.8300954015849,384.45271578513325 M740.8300954015849,384.45271578513325 L741.1174749974666,393.4012421026251 M741.1174749974666,393.4012421026251 L740.6968719413446,402.3602291900227 M740.6968719413446,402.3602291900227 L739.5662781642036,411.31099511928596 M739.5662781642036,411.31099511928596 L737.7251494447052,420.23474511524665 M737.7251494447052,420.23474511524665 L735.1745050171764,429.11260134346804 M735.1745050171764,429.11260134346804 L731.9168608339387,437.92561723891197 M731.9168608339387,437.92561723891197 L727.9562812107873,446.65483853783815 M727.9562812107873,446.65483853783815 L723.2984383405083,455.2813378097497 M723.2984383405083,455.2813378097497 L717.9505452051391,463.78627903168353 M717.9505452051391,463.78627903168353 L711.9214471445157,472.1509582989963 M711.9214471445157,472.1509582989963 L705.2215543816712,480.3568230235329 M705.2215543816712,480.3568230235329 L697.8628483477031,488.3855410590434 M697.8628483477031,488.3855410590434 L689.858920522004,496.2190743858291 M689.858920522004,496.2190743858291 L681.224925012539,503.8396864985102 M681.224925012539,503.8396864985102 L671.9775354600175,511.2299937777426 M671.9775354600175,511.2299937777426 L662.1349944590349,518.3730556294336 M662.1349944590349,518.3730556294336 L651.7170176222057,525.2523853170619 M651.7170176222057,525.2523853170619 L640.7447839519157,531.8520025268303 M640.7447839519157,531.8520025268303 L629.2409050996292,538.1564974799774 M629.2409050996292,538.1564974799774 L617.2293894112845,544.1510729409761 M617.2293894112845,544.1510729409761 L604.7355644067742,549.8215856283111 M604.7355644067742,549.8215856283111 L591.7860142653818,555.1545765959113 M591.7860142653818,555.1545765959113 L578.4085864420266,560.1373534778579 M578.4085864420266,560.1373534778579 L564.6322549340784,564.7579896309319 M564.6322549340784,564.7579896309319 L550.4870465789784,569.0053783679857 M550.4870465789784,569.0053783679857 L536.0040389127777,572.8692895813508 M536.0040389127777,572.8692895813508 L521.2152372294015,576.340376922366 M521.2152372294015,576.340376922366 L506.1534544343194,579.4102044617373 M506.1534544343194,579.4102044617373 L490.8522737041609,582.0713165243674 M490.8522737041609,582.0713165243674 L475.3459674680871,584.3172117107226 M475.3459674680871,584.3172117107226 L459.6693710056541,586.1424129579502 M459.6693710056541,586.1424129579502 L443.85780291249046,587.5424592013403 M443.85780291249046,587.5424592013403 L427.9469345785133,588.5139012161721 M427.9469345785133,588.5139012161721 L411.97273867247293,589.0543668294836 M411.97273867247293,589.0543668294836 L395.97140611268816,589.1625236397826 M395.97140611268816,589.1625236397826 L379.97911314243714,588.838116902125 M379.97911314243714,588.838116902125 L364.03207751865165,588.0819285131515 M364.03207751865165,588.0819285131515 L348.16638513044086,586.8958230174671 M348.16638513044086,586.8958230174671 L332.41785709471407,585.2827087876335 M332.41785709471407,585.2827087876335 L316.8220173700237,583.2465329474771 M316.8220173700237,583.2465329474771 L301.4139814803514,580.7922745162832 M301.4139814803514,580.7922745162832 L286.22825691724637,577.9259299148162 M286.22825691724637,577.9259299148162 L271.29879473706995,574.6544791307454 M271.29879473706995,574.6544791307454 L256.6588231116821,570.9858858165951 M256.6588231116821,570.9858858165951 L242.34077453604556,566.9290075208892 M242.34077453604556,566.9290075208892 L228.37618749993393,562.4936550640116 M228.37618749993393,562.4936550640116 L214.79561356605745,557.6905091974513 M214.79561356605745,557.6905091974513 L201.62857111024582,552.5310865282713 M201.62857111024582,552.5310865282713 L188.90348965923297,547.0276973325774 M188.90348965923297,547.0276973325774 L176.6475747310416,541.1934247120487 M176.6475747310416,541.1934247120487 L164.88679313909176,535.042078322464 M164.88679313909176,535.042078322464 L153.64582982778654,528.5881289531219 M153.92542855797168,543.3968773176243 L143.23942825665034,536.6482376034546 M143.23942825665034,536.6482376034546 L133.11778386508422,529.627497030318 M133.11778386508422,529.627497030318 L123.58091655285125,522.3509167204229 M123.58091655285125,522.3509167204229 L114.64779464478033,514.8352348015108 M114.64779464478033,514.8352348015108 L106.33586587787363,507.0976257305964 M106.33586587787363,507.0976257305964 L98.66102374787158,499.155678972556 M98.66102374787158,499.155678972556 L91.63762122379603,491.0273107843839 M91.63762122379603,491.0273107843839 L85.27844806622784,482.7307248239296 M85.27844806622784,482.7307248239296 L79.5947223505948,474.28438094049795 M79.5947223505948,474.28438094049795 L74.59600226694556,465.706939372029 M74.59600226694556,465.706939372029 L70.29033459936153,457.0172064467763 M70.29033459936153,457.0172064467763 L66.68415465659359,448.2340960300815 M66.68415465659359,448.2340960300815 L63.78233690145049,439.3765415605131 M63.78233690145049,439.3765415605131 L61.588181878649436,430.46353430895607 M61.588181878649436,430.46353430895607 L60.10344040715944,421.51402151126763 M60.10344040715944,421.51402151126763 L59.328345543933665,412.54685754733185 M59.328345543933665,412.54685754733185 L59.26164248805634,403.5808016329176 M59.26164248805634,403.5808016329176 L59.90056343748836,394.6344608635186 M59.90056343748836,394.6344608635186 L61.240938942397804,385.7262130006655 M61.240938942397804,385.7262130006655 L63.2771570402665,376.8742590299248 M63.2771570402665,376.8742590299248 L66.0022557441826,368.0965156103773 M66.0022557441826,368.0965156103773 L69.4078849220316,359.41059295488276 M69.4078849220316,359.41059295488276 L73.4844299832248,350.8337905346977 M73.4844299832248,350.8337905346977 L78.2210208088519,342.3830499169559 M78.2210208088519,342.3830499169559 L83.60552844066865,334.0749365744451 M83.60552844066865,334.0749365744451 L89.6246860416714,325.9255955188959 M89.6246860416714,325.9255955188959 L96.264048598307,317.9507328529892 M96.264048598307,317.9507328529892 L103.50810285802709,310.1656199932937 M103.50810285802709,310.1656199932937 L111.34030543742642,302.5850523909456 M111.34030543742642,302.5850523909456 L119.74308542360302,295.2233066534488 M119.74308542360302,295.2233066534488 L128.69792049612875,288.0941620387822 M128.69792049612875,288.0941620387822 L138.1854076351898,281.2108816244039 M138.1854076351898,281.2108816244039 L148.18524246980618,274.5861590503229 M148.18524246980618,274.5861590503229 L158.67632725564454,268.2321404172327 M158.67632725564454,268.2321404172327 L169.63679364828573,262.1604078201738 M169.63679364828573,262.1604078201738 L181.04404115963243,256.3819529869047 M181.04404115963243,256.3819529869047 L192.87477353024855,250.9071716786948 M192.87477353024855,250.9071716786948 L205.105069314916,245.74585852061938 M205.105069314916,245.74585852061938 L217.7104320260712,240.90721145853735 M217.7104320260712,240.90721145853735 L230.6657721617976,236.39978859402214 M230.6657721617976,236.39978859402214 L243.94551575460687,232.23153967219457 M243.94551575460687,232.23153967219457 L257.5236508953425,228.4097863436599 M257.5236508953425,228.4097863436599 L271.3737015431481,224.94119917744612 M271.3737015431481,224.94119917744612 L285.46880919927133,221.83181755937778 M285.46880919927133,221.83181755937778 L299.78180860035957,219.08705006579626 M299.78180860035957,219.08705006579626 L314.2852224253551,216.7116342951353 M314.2852224253551,216.7116342951353 L328.95129083026575,214.70968016483332 M328.95129083026575,214.70968016483332 L343.75204338633824,213.08462497791558 M343.75204338633824,213.08462497791558 L358.6593218658674,211.83925593872843 M358.6593218658674,211.83925593872843 L373.6448494498827,210.97572611920364 M373.6448494498827,210.97572611920364 L388.6802244131598,210.49550599204238 M388.6802244131598,210.49550599204238 L403.7369408497904,210.3994232365585 M403.7369408497904,210.3994232365585 L418.7865502653348,210.68763277683848 M418.7865502653348,210.68763277683848 L433.800550620579,211.35965396410603 M433.800550620579,211.35965396410603 L448.750491325672,212.41432747560103 M448.750491325672,212.41432747560103 L463.6080410409596,213.84984461879048 M463.6080410409596,213.84984461879048 L478.3449619850557,215.66374376669552 M478.3449619850557,215.66374376669552 L492.9331599102818,217.85290552330042 M492.9331599102818,217.85290552330042 L507.34481953970925,220.41355191353153 M507.34481953970925,220.41355191353153 L521.5523062603523,223.34126022075014 M521.5523062603523,223.34126022075014 L535.52827523763,226.63094399598702 M535.52827523763,226.63094399598702 L549.2456988414638,230.27691230827278 M549.2456988414638,230.27691230827278 L562.6779163900864,234.27279311647615 M562.6779163900864,234.27279311647615 L575.7986880588185,238.6115825797565 M575.7986880588185,238.6115825797565 L588.5822074201193,243.28564862371957 M588.5822074201193,243.28564862371957 L601.0031277967224,248.28674038556056 M601.0031277967224,248.28674038556056 L613.0366679654385,253.60597701129336 M613.0366679654385,253.60597701129336 L624.6586097495018,259.233858416435 M624.6586097495018,259.233858416435 L635.8453291163678,265.1602930023966 M153.64582982778654,528.5881289531219 L142.94797927282787,521.8466970107268 M142.94797927282787,521.8466970107268 L132.8151613140485,514.8334711302377 M132.8151613140485,514.8334711302377 L123.26781888139686,507.56469690299855 M123.26781888139686,507.56469690299855 L114.32494003464967,500.0570963218211 M114.32494003464967,500.0570963218211 L106.003990159752,492.3278271288033 M106.003990159752,492.3278271288033 L98.32087829581553,484.39446149810783 M98.32087829581553,484.39446149810783 L91.28997088994345,476.2748978978422 M91.28997088994345,476.2748978978422 L84.92406911504156,467.9873217254506 M84.92406911504156,467.9873217254506 L79.23440041069352,459.5501741175185 M79.23440041069352,459.5501741175185 L74.23053021445139,450.9820961944732 M74.23053021445139,450.9820961944732 L69.9205106408906,442.30187481008625 M69.9205106408906,442.30187481008625 L66.31078033288719,433.52840403079114 M66.31078033288719,433.52840403079114 L63.406215185217775,424.68059726062324 M63.406215185217775,424.68059726062324 L61.210115288898805,415.77742545238635 M61.210115288898805,415.77742545238635 L59.72422919030146,406.83781534815876 M59.72422919030146,406.83781534815876 L58.94878592760517,397.8806007103135 M58.94878592760517,397.8806007103135 L58.882525002533384,388.9245200156261 M58.882525002533384,388.9245200156261 L59.522671246255356,379.988159563656 M59.522671246255356,379.988159563656 L60.86504633435152,371.08987635249645 M60.86504633435152,371.08987635249645 L62.904027905750866,362.2478505829952 M62.904027905750866,362.2478505829952 L65.63264219114433,353.4799782348904 M65.63264219114433,353.4799782348904 L69.04252588107386,344.8038489802303 M69.04252588107386,344.8038489802303 L73.12404997821079,336.2367419023166 M73.12404997821079,336.2367419023166 L77.86632876641784,327.79557839710907 M77.86632876641784,327.79557839710907 L83.25721652181545,319.49690401558473 M83.25721652181545,319.49690401558473 L89.28342863172179,311.3568441604771 M89.28342863172179,311.3568441604771 L95.93050127373931,303.39108567345863 M95.93050127373931,303.39108567345863 L103.1829014921505,295.61488106809253 M103.1829014921505,295.61488106809253 L111.0240653656104,288.043007313126 M111.0240653656104,288.043007313126 L119.43640062664247,280.6897230197072 M119.43640062664247,280.6897230197072 L128.40136287667673,273.56878992752576 M128.40136287667673,273.56878992752576 L137.8995263806288,266.69345411223077 M137.8995263806288,266.69345411223077 L147.9105634005644,260.07639280705155 M147.9105634005644,260.07639280705155 L158.4133522935287,253.72973629293426 M158.4133522935287,253.72973629293426 L169.38600031092832,247.6650514682848 M169.38600031092832,247.6650514682848 L180.80588209606952,241.89331553485414 M180.80588209606952,241.89331553485414 L192.64967609203407,236.42491042176312 M192.64967609203407,236.42491042176312 L204.89343519761283,231.2696176380967 M204.89343519761283,231.2696176380967 L217.512636956244,226.43662274040824 M217.512636956244,226.43662274040824 L230.48216555494858,221.9344722332271 M230.48216555494858,221.9344722332271 L243.77642047691546,217.77110503464246 M243.77642047691546,217.77110503464246 L257.36936306150346,213.95383277500122 M257.36936306150346,213.95383277500122 L271.23449026964005,210.48931684971663 M271.23449026964005,210.48931684971663 L285.3449164272078,207.38358830631347 M285.3449164272078,207.38358830631347 L299.67344898040966,204.64204822865108 M299.67344898040966,204.64204822865108 L314.1925831763246,202.26942762568643 M314.1925831763246,202.26942762568643 L328.8745316062893,200.26983068635718 M328.8745316062893,200.26983068635718 L343.69129619891356,198.6466899067688 M343.69129619891356,198.6466899067688 L358.61469100550715,197.40278858600598 M358.61469100550715,197.40278858600598 L373.6164114571529,196.5402767789069 M373.6164114571529,196.5402767789069 L388.6680280172762,196.06062289049382 M388.6680280172762,196.06062289049382 L403.7410069028795,195.96465343776669 M403.7410069028795,195.96465343776669 L418.8068718245859,196.25252312478258 M418.8068718245859,196.25252312478258 L433.8370928837269,196.92375198149537 M433.8370928837269,196.92375198149537 L448.80319165299255,197.97718231250025 M448.80319165299255,197.97718231250025 L463.67680902394955,199.41100796445676 M463.67680902394955,199.41100796445676 L478.42967946116715,201.22277076213032 M478.42967946116715,201.22277076213032 L493.03368100587323,203.40935567476032 M493.03368100587323,203.40935567476032 L507.46097083434864,205.9669900010179 M507.46097083434864,205.9669900010179 L521.6838868209053,208.8912571830565 M521.6838868209053,208.8912571830565 L535.6750567467876,212.1770778297485 M535.6750567467876,212.1770778297485 L549.4074257352634,215.8187688880169 M549.4074257352634,215.8187688880169 L562.8543060269542,219.8099670941776 M562.8543060269542,219.8099670941776 L575.9894309288218,224.1436782149422 M575.9894309288218,224.1436782149422 L588.7869673503715,228.8122805969737 M588.7869673503715,228.8122805969737 L601.2215421697648,233.8075345876935 M601.2215421697648,233.8075345876935 L613.2683480379877,239.12057133147152 M613.2683480379877,239.12057133147152 L624.9031409568856,244.7419035028312 M624.9031409568856,244.7419035028312 L636.1022714017658,250.6614529750792 M336.23596782831345,438.13983839378665 L336.1646743794404,423.44525718608423 M463.00438542671213,364.95005836860827 L463.07411117262563,350.3370656919366 M336.23596782831345,438.13983839378665 L330.9585864125396,434.77564583027544 M330.9585864125396,434.77564583027544 L326.2143793382808,431.159393860545 M326.2143793382808,431.159393860545 L322.0390716553537,427.31938988343114 M322.0390716553537,427.31938988343114 L318.4638283041823,423.28558914352794 M318.4638283041823,423.28558914352794 L315.5150366599846,419.0893521373415 M315.5150366599846,419.0893521373415 L313.2141243445371,414.7631812865452 M313.2141243445371,414.7631812865452 L311.577443729731,410.34045668438984 M311.577443729731,410.34045668438984 L310.61617219497873,405.85516525608335 M310.61617219497873,405.85516525608335 L310.33627004949875,401.341643436683 M310.33627004949875,401.341643436683 L310.73846350981574,396.8342987476341 M310.73846350981574,396.8342987476341 L311.8183109561529,392.36735106051594 M311.8183109561529,392.36735106051594 L313.56624940950917,387.9745795225152 M313.56624940950917,387.9745795225152 L315.9677212973163,383.6890611194879 M315.9677212973163,383.6890611194879 L319.00331892964215,379.54294093134723 M319.00331892964215,379.54294093134723 L322.6489770771541,375.5671987968751 M322.6489770771541,375.5671987968751 L326.876168700858,371.79143129066574 M326.876168700858,371.79143129066574 L331.6521522378109,368.24364205680564 M331.6521522378109,368.24364205680564 L336.9402368149711,364.95005836860827 M336.9402368149711,364.95005836860827 L342.7000746828826,361.934950888305 M342.7000746828826,361.934950888305 L348.8879635128958,359.2204709531477 M348.8879635128958,359.2204709531477 L355.45717770419816,356.82650994850076 M355.45717770419816,356.82650994850076 L362.3583193792771,354.7705688072471 M362.3583193792771,354.7705688072471 L369.5396630470477,353.0676464137371 M369.5396630470477,353.0676464137371 L376.947533121911,351.73014058060534 M376.947533121911,351.73014058060534 L384.52668274243626,350.76777942820956 M384.52668274243626,350.76777942820956 L392.220685991589,350.1875543339127 M392.220685991589,350.1875543339127 L399.97231112084165,349.9936787067331 M399.97231112084165,349.9936787067331 L407.7239362500943,350.1875543339127 M407.7239362500943,350.1875543339127 L415.41793949924704,350.76777942820956 M415.41793949924704,350.76777942820956 L422.9970891197723,351.73014058060534 M422.9970891197723,351.73014058060534 L430.4049591946355,353.0676464137371 M430.4049591946355,353.0676464137371 L437.5863028624062,354.7705688072471 M437.5863028624062,354.7705688072471 L444.48744453748515,356.82650994850076 M444.48744453748515,356.82650994850076 L451.05665872878757,359.2204709531477 M451.05665872878757,359.2204709531477 L457.2445475588008,361.934950888305 M457.2445475588008,361.934950888305 L463.00438542671213,364.95005836860827 M336.1646743794404,423.44525718608423 L330.8814291047572,420.0847752410633 M330.8814291047572,420.0847752410633 L326.1319631031697,416.4725161631056 M326.1319631031697,416.4725161631056 L321.9520405754881,412.63675696385536 M321.9520405754881,412.63675696385536 L318.3728601968628,408.60742058438194 M318.3728601968628,408.60742058438194 L315.420837449411,404.41583353863956 M315.420837449411,404.41583353863956 L313.1174222712924,400.0944628507606 M313.1174222712924,400.0944628507606 L311.47898347991526,395.6766520712098 M311.47898347991526,395.6766520712098 L310.5167089730254,391.1963507195812 M310.5167089730254,391.1963507195812 L310.23656366343494,386.6878572357452 M310.23656366343494,386.6878572357452 L310.6392725000705,382.18554085932095 M310.6392725000705,382.18554085932095 L311.7203868612649,377.72358318083434 M311.7203868612649,377.72358318083434 L313.4703311457588,373.33572535457125 M313.4703311457588,373.33572535457125 L315.8745297389928,369.0550069644772 M315.8745297389928,369.0550069644772 L318.9135517047263,364.9135365526471 M318.9135517047263,364.9135365526471 L322.56330362592814,360.9422585663536 M322.56330362592814,360.9422585663536 L326.7952255934656,357.1707356044991 M326.7952255934656,357.1707356044991 L331.57653879945485,353.62693901507475 M331.57653879945485,353.62693901507475 L336.8705110690575,350.33706569193663 M336.8705110690575,350.33706569193663 L342.63674963245427,347.3253580697125 M342.63674963245427,347.3253580697125 L348.83150376101867,344.61394162621207 M348.83150376101867,344.61394162621207 L355.40799643514254,342.2226844467426 M355.40799643514254,342.2226844467426 L362.31677571242295,340.16906690216325 M362.31677571242295,340.16906690216325 L369.50605974718377,338.468070208083 M369.50605974718377,338.468070208083 L376.9221146937601,337.1320775398258 M376.9221146937601,337.1320775398258 L384.5096339033286,336.17080551198006 M384.5096339033286,336.17080551198006 L392.2121305309751,335.59123722171944 M392.2121305309751,335.59123722171944 L399.97231112084165,335.3975810834665 M399.97231112084165,335.3975810834665 L407.73249171070825,335.59123722171944 M407.73249171070825,335.59123722171944 L415.4349883383547,336.17080551198006 M415.4349883383547,336.17080551198006 L423.0225075479233,337.1320775398258 M423.0225075479233,337.1320775398258 L430.43856249449954,338.468070208083 M430.43856249449954,338.468070208083 L437.6278465292604,340.16906690216325 M437.6278465292604,340.16906690216325 L444.5366258065408,342.2226844467426 M444.5366258065408,342.2226844467426 L451.11311848066464,344.61394162621207 M451.11311848066464,344.61394162621207 L457.30787260922904,347.3253580697125 M457.30787260922904,347.3253580697125 L463.07411117262563,350.3370656919366 M463.00438542671213,364.95005836860827 L468.29247000387244,368.24364205680564 M468.29247000387244,368.24364205680564 L473.06845354082543,371.79143129066574 M473.06845354082543,371.79143129066574 L477.2956451645292,375.5671987968751 M477.2956451645292,375.5671987968751 L480.9413033120412,379.54294093134735 M480.9413033120412,379.54294093134735 L483.97690094436706,383.6890611194879 M483.97690094436706,383.6890611194879 L486.3783728321742,387.9745795225152 M486.3783728321742,387.9745795225152 L488.1263112855304,392.36735106051594 M488.1263112855304,392.36735106051594 L489.2061587318677,396.8342987476341 M489.2061587318677,396.8342987476341 L489.60835219218455,401.3416434366831 M489.60835219218455,401.3416434366831 L489.32845004670463,405.85516525608335 M489.32845004670463,405.85516525608335 L488.3671785119523,410.34045668438984 M488.3671785119523,410.34045668438984 L486.7304978971462,414.7631812865452 M486.7304978971462,414.7631812865452 L484.42958558169875,419.0893521373415 M484.42958558169875,419.0893521373415 L481.4807939375011,423.28558914352794 M481.4807939375011,423.28558914352794 L477.90555058632964,427.31938988343114 M477.90555058632964,427.31938988343114 L473.73024290340254,431.1593938605451 M473.73024290340254,431.1593938605451 L468.9860358291437,434.77564583027544 M468.9860358291437,434.77564583027544 L463.70865441337,438.13983839378653 M463.70865441337,438.13983839378653 L457.9381208186895,441.2255554881238 M457.9381208186895,441.2255554881238 L451.7184620638755,444.00850033692774 M451.7184620638755,444.00850033692774 L445.0973687843986,446.46670117275903 M445.0973687843986,446.46670117275903 L438.12581489499433,448.5807050031547 M438.12581489499433,448.5807050031547 L430.85766523909297,450.333748531901 M430.85766523909297,450.333748531901 L423.3492330098561,451.7119109422812 M423.3492330098561,451.7119109422812 L415.65882069818207,452.70422854466 M415.65882069818207,452.70422854466 L407.8462349995499,453.3027995766861 M407.8462349995499,453.3027995766861 L399.97231112084165,453.5028530452003 M399.97231112084165,453.5028530452003 L392.09838724213347,453.3027995766861 M392.09838724213347,453.3027995766861 L384.2858015435013,452.70422854466 M384.2858015435013,452.70422854466 L376.5953892318272,451.7119109422812 M376.5953892318272,451.7119109422812 L369.08695700259034,450.333748531901 M369.08695700259034,450.333748531901 L361.818807346689,448.5807050031547 M361.818807346689,448.5807050031547 L354.84725345728475,446.46670117275903 M354.84725345728475,446.46670117275903 L348.2261601778078,444.00850033692774 M348.2261601778078,444.00850033692774 L342.0065014229938,441.2255554881238 M342.0065014229938,441.2255554881238 L336.23596782831345,438.13983839378665 M463.07411117262563,350.3370656919366 L468.3680834422285,353.6269390150748 M468.3680834422285,353.6269390150748 L473.1493966482177,357.1707356044991 M473.1493966482177,357.1707356044991 L477.38131861575516,360.9422585663536 M477.38131861575516,360.9422585663536 L481.03107053695703,364.9135365526471 M481.03107053695703,364.9135365526471 L484.0700925026905,369.0550069644772 M484.0700925026905,369.0550069644772 L486.4742910959245,373.33572535457125 M486.4742910959245,373.33572535457125 L488.2242353804184,377.72358318083434 M488.2242353804184,377.72358318083434 L489.3053497416128,382.18554085932095 M489.3053497416128,382.18554085932095 L489.7080585782484,386.6878572357453 M489.7080585782484,386.6878572357453 L489.42791326865796,391.1963507195812 M489.42791326865796,391.1963507195812 L488.4656387617681,395.6766520712098 M488.4656387617681,395.6766520712098 L486.82719997039095,400.0944628507607 M486.82719997039095,400.0944628507607 L484.52378479227235,404.41583353863956 M484.52378479227235,404.41583353863956 L481.57176204482056,408.60742058438206 M481.57176204482056,408.60742058438206 L477.99258166619524,412.63675696385536 M477.99258166619524,412.63675696385536 L473.8126591385136,416.4725161631056 M473.8126591385136,416.4725161631056 L469.0631931369261,420.0847752410633 M469.0631931369261,420.0847752410633 L463.77994786224315,423.4452571860842 M463.77994786224315,423.4452571860842 L458.0029897716799,426.5275741705934 M458.0029897716799,426.5275741705934 L451.7763950057464,429.30745528524704 M451.7763950057464,429.30745528524704 L445.1479077659966,431.76295206981234 M445.1479077659966,431.76295206981234 L438.1685595396627,433.87463210038555 M438.1685595396627,433.87463210038555 L430.8922762866177,435.6257497552556 M430.8922762866177,435.6257497552556 L423.37543533140416,437.00239885987986 M423.37543533140416,437.00239885987986 L415.6764057544923,437.9936272342621 M415.6764057544923,437.9936272342621 L407.8550627055076,438.5915413990489 M407.8550627055076,438.5915413990489 L399.97231112084165,438.79137535737897 M399.97231112084165,438.79137535737897 L392.0895595361758,438.5915413990489 M392.0895595361758,438.5915413990489 L384.26821648719107,437.9936272342621 M384.26821648719107,437.9936272342621 L376.5691869102792,437.00239885987986 M376.5691869102792,437.00239885987986 L369.0523459550656,435.6257497552556 M369.0523459550656,435.6257497552556 L361.77606270202074,433.87463210038555 M361.77606270202074,433.87463210038555 L354.79671447568677,431.76295206981234 M354.79671447568677,431.76295206981234 L348.16822723593697,429.30745528524704 M348.16822723593697,429.30745528524704 L341.94163247000347,426.5275741705934 M341.94163247000347,426.5275741705934 L336.1646743794404,423.44525718608423" stroke="black"  stroke-width="4"  fill="red"/>
<path d="M394.5022307377098,476.3482371712097 L394.4924300622301,452.8793735503882 M311.51446589645417,427.8663849177418 L312.2395352573839,432.22065750300357 M312.2395352573839,432.22065750300357 L313.60295731321037,436.5261362631339 M313.60295731321037,436.5261362631339 L315.5960464339757,440.75133393287535 M315.5960464339757,440.75133393287535 L318.2054331059548,444.86523686469997 M318.2054331059548,444.86523686469997 L321.4131745644446,448.8375254744014 M321.4131745644446,448.8375254744014 L325.19682495153774,452.6388233790443 M325.19682495153774,452.6388233790443 L329.52958474156617,456.2409195663101 M329.52958474156617,456.2409195663101 L334.38047590191184,459.6169933638038 M334.38047590191184,459.6169933638038 L339.71454548277984,462.7418313213724 M339.71454548277984,462.7418313213724 L345.49312374582223,465.59202744606654 M345.49312374582223,465.59202744606654 L351.67410068821096,468.1461730157161 M351.67410068821096,468.1461730157161 L358.21223008091823,470.3850404607863 M358.21223008091823,470.3850404607863 L365.0594731627851,472.2917392315445 M365.0594731627851,472.2917392315445 L372.1653680669678,473.85185768606243 M372.1653680669678,473.85185768606243 L379.47740669534903,475.0535913239733 M379.47740669534903,475.0535913239733 L386.94147083537877,475.88782491909217 M386.94147083537877,475.88782491909217 L394.5022307377098,476.3482371712097 M311.51446589645417,427.8663849177418 L311.35713252122275,404.48238865798123 M394.4924300622301,452.8793735503882 L386.9181252561886,452.41976131286896 M386.9181252561886,452.41976131286896 L379.44069337705747,451.586977576123 M379.44069337705747,451.586977576123 L372.115565413233,450.38733315109164 M372.115565413233,450.38733315109164 L364.9969584194952,448.82992811796714 M364.9969584194952,448.82992811796714 L358.1374761531702,446.92654732985403 M358.1374761531702,446.92654732985403 L351.5876721132657,444.6915783896917 M351.5876721132657,444.6915783896917 L345.39567194002035,442.1418836005331 M345.39567194002035,442.1418836005331 L339.60680328906074,439.29665828095824 M339.60680328906074,439.29665828095824 L334.26325149847645,436.17727512265975 M334.26325149847645,436.17727512265975 L329.40375499808545,432.80710058069616 M329.40375499808545,432.80710058069616 L325.06332829749175,429.21130534245367 M325.06332829749175,429.21130534245367 L321.2730034177204,425.41666439497953 M321.2730034177204,425.41666439497953 L318.05962597383007,421.45134047711394 M318.05962597383007,421.45134047711394 L315.44567975065837,417.3446594632422 M315.44567975065837,417.3446594632422 L313.4491370715738,413.1268885477248 M313.4491370715738,413.1268885477248 L312.08338858670425,408.8289875147991 M312.08338858670425,408.8289875147991 L311.35713252122275,404.48238865798123 M394.4937364427947,451.2997546883497 L394.4924300622301,452.8793735503882 M394.50353245447684,474.7658683005803 L394.5022307377098,476.3482371712097 M394.50353245447684,474.7658683005803 L394.4937364427947,451.2997546883497 M311.51446589645417,427.8663849177418 L314.2052689305506,427.8663835180007 M314.2052689305506,427.8663835180007 L314.98658192002654,432.3385062677872 M314.98658192002654,432.3385062677872 L316.46227382789965,436.75448444295495 M316.46227382789965,436.75448444295495 L318.62164907697235,441.0780521905738 M318.62164907697235,441.0780521905738 L321.44832497158893,445.27356058752423 M321.44832497158893,445.27356058752423 L324.9203381330899,449.30627892207815 M324.9203381330899,449.30627892207815 L329.0102668773333,453.1427125963588 M329.0102668773333,453.1427125963588 L333.68545595728295,456.7508731723627 M333.68545595728295,456.7508731723627 L338.9082319984729,460.10058096854334 M338.9082319984729,460.10058096854334 L344.6362034125977,463.1637344164734 M344.6362034125977,463.1637344164734 L350.8226162456027,465.91455623312487 M350.8226162456027,465.91455623312487 L357.4167211104423,468.32983999507775 M357.4167211104423,468.32983999507775 L364.36419382548274,470.38916979820976 M364.36419382548274,470.38916979820976 L371.60762882152306,472.075094774559 M371.60762882152306,472.075094774559 L379.08699236495954,473.3733112235494 M379.08699236495954,473.3733112235494 L386.7401751358167,474.2727858195869 M386.7401751358167,474.2727858195869 L394.50353245447684,474.7658683005803 M311.35713252122275,404.48238865798123 L314.052721486123,404.48238726070855 M314.2052689305506,427.8663835180007 L314.052721486123,404.48238726070855 M394.4937364427947,451.2997546883497 L386.7164746803617,450.8075294131848 M386.7164746803617,450.8075294131848 L379.04958913739,449.90961885706673 M379.04958913739,449.90961885706673 L371.5568408268231,448.61366056116606 M371.5568408268231,448.61366056116606 L364.3004523715482,446.9306694794133 M364.3004523715482,446.9306694794133 L357.34056672135324,444.8749254512686 M357.34056672135324,444.8749254512686 L350.7346935097547,442.4638501649795 M350.7346935097547,442.4638501649795 L344.5372549600039,439.7178252926693 M344.5372549600039,439.7178252926693 L338.79909155321394,436.6600182212489 M338.79909155321394,436.6600182212489 L333.56704061530576,433.3161627158922 M333.56704061530576,433.3161627158922 L328.8835687262484,429.7143127149063 M328.8835687262484,429.7143127149063 L324.78641525400536,425.88459652690034 M324.78641525400536,425.88459652690034 L321.30829194292147,421.85894788722015 M321.30829194292147,421.85894788722015 L318.47666714995285,417.67080383791716 M318.47666714995285,417.67080383791716 L316.3135407728296,413.35483510820757 M316.3135407728296,413.35483510820757 L314.8353217407386,408.9466287309499 M314.8353217407386,408.9466287309499 L314.052721486123,404.48238726070855" stroke="black"  stroke-width="4"  fill="red"/>
<path d="M297.2251474020555,435.15686451863087 L297.168139821925,427.8663849177418 M310.34785066829306,454.5540972300287 L306.6613930440162,450.3946529658613 M306.6613930440162,450.3946529658613 L303.5506031380489,446.0834130900107 M303.5506031380489,446.0834130900107 L301.03351012964833,441.6472255573997 M301.03351012964833,441.6472255573997 L299.12440252206596,437.11360077242 M299.12440252206596,437.11360077242 L297.83374010959795,432.5105474068828 M297.83374010959795,432.5105474068828 L297.168139821925,427.8663849177418 M310.3977502008005,461.8591217272119 L310.34785066829306,454.5540972300287 M297.2251474020555,435.15686451863087 L297.8904183485612,439.80356668112654 M297.8904183485612,439.80356668112654 L299.18040345461264,444.4091336683684 M299.18040345461264,444.4091336683684 L301.08848852263594,448.94523068659834 M301.08848852263594,448.94523068659834 L303.60421867666855,453.3838339805945 M303.60421867666855,453.3838339805945 L306.71331253227777,457.69741841274043 M306.71331253227777,457.69741841274043 L310.3977502008005,461.8591217272119 M297.168139821925,427.8663849177418 L314.2052689305506,427.8663835180007 M314.2528289805699,435.15686311812357 L314.2052689305506,427.8663835180007 M297.2251474020555,435.15686451863087 L314.2528289805699,435.15686311812357 M394.50353245447684,474.7658683005803 L386.7401751358167,474.2727858195869 M386.7401751358167,474.2727858195869 L379.08699236495954,473.3733112235494 M379.08699236495954,473.3733112235494 L371.60762882152306,472.075094774559 M371.60762882152306,472.075094774559 L364.36419382548274,470.38916979820976 M364.36419382548274,470.38916979820976 L357.4167211104423,468.32983999507775 M357.4167211104423,468.32983999507775 L350.8226162456027,465.91455623312487 M350.8226162456027,465.91455623312487 L344.6362034125977,463.1637344164734 M344.6362034125977,463.1637344164734 L338.908231998473,460.10058096854334 M338.908231998473,460.10058096854334 L333.68545595728295,456.7508731723627 M333.68545595728295,456.7508731723627 L329.0102668773333,453.1427125963588 M329.0102668773333,453.1427125963588 L324.9203381330899,449.30627892207815 M324.9203381330899,449.30627892207815 L321.44832497158893,445.27356058752423 M321.44832497158893,445.27356058752423 L318.62164907697235,441.0780521905738 M318.62164907697235,441.0780521905738 L316.46227382789965,436.75448444295495 M316.46227382789965,436.75448444295495 L314.98658192002654,432.3385062677872 M314.98658192002654,432.3385062677872 L314.2052689305506,427.8663835180007 M394.50353245447684,474.7658683005803 L394.49529301665444,484.79752605310307 M394.49529301665444,484.79752605310307 L386.4212156201649,484.3627843797679 M386.4212156201649,484.3627843797679 L378.4320182480978,483.5611124968166 M378.4320182480978,483.5611124968166 L370.577698442462,482.3976641490058 M370.577698442462,482.3976641490058 L362.9073466057303,480.8799066487682 M362.9073466057303,480.8799066487682 L355.4688028269059,479.01757787282907 M355.4688028269059,479.01757787282907 L348.30836394968287,476.82259883359603 M355.3618552245519,472.72216617606296 L348.30836394968287,476.82259883359603 M317.40106580199455,450.4810212476777 L355.3618552245519,472.72216617606296 M310.34785066829306,454.5540972300287 L317.40106580199455,450.4810212476777 M317.40106580199455,450.4810212476777 L317.44701018510096,457.78383363184867 M310.3977502008005,461.8591217272119 L317.44701018510096,457.78383363184867 M314.2528289805699,435.15686311812357 L315.03374056217757,439.63143152539647 M315.03374056217757,439.63143152539647 L316.50864451201335,444.049821361586 M316.50864451201335,444.049821361586 L318.6668501984195,448.37574713285727 M318.6668501984195,448.37574713285727 L321.4919831067562,452.5735407128342 M321.4919831067562,452.5735407128342 L324.96209124586875,456.608452779159 M324.96209124586875,456.608452779159 L329.0497674844543,460.44697087689275 M329.0497674844543,460.44697087689275 L333.72237419094597,464.0570895967715 M333.72237419094597,464.0570895967715 L338.9422585665785,467.408613319547 M338.9422585665785,467.408613319547 L344.6670524036815,470.4734257007037 M344.6670524036815,470.4734257007037 L350.85002774109256,473.22573595724333 M350.85002774109256,473.22573595724333 L357.44046359177156,475.642325556282 M357.44046359177156,475.642325556282 L364.3840663397074,477.7027679748833 M364.3840663397074,477.7027679748833 L371.6234628586293,479.38960329367967 M371.6234628586293,479.38960329367967 L379.09865346371885,480.68852041062036 M379.09865346371885,480.68852041062036 L386.74756415761925,481.588480301485 M386.74756415761925,481.588480301485 L394.50658652790776,482.0818287583759 M394.50658652790776,482.0818287583759 L394.4983562958097,492.1188888761785 M348.3372249067011,484.1396682819418 L355.4936719442814,486.3358300724864 M355.4936719442814,486.3358300724864 L362.92806475633756,488.19916171923074 M362.92806475633756,488.19916171923074 L370.5941328461043,489.7177361070043 M370.5941328461043,489.7177361070043 L378.44406343490397,490.8818103843556 M378.44406343490397,490.8818103843556 L386.42879421194937,491.68391343070834 M386.42879421194937,491.68391343070834 L394.4983562958097,492.1188888761785 M355.3867605706307,480.0370239652008 L348.3372249067011,484.1396682819418 M317.44701018510096,457.78383363184867 L355.3867605706307,480.0370239652008 M394.50658652790776,482.0818287583759 L394.50353245447684,474.7658683005803 M394.4983562958097,492.1188888761785 L394.49529301665444,484.79752605310307 M348.3372249067011,484.1396682819418 L348.30836394968287,476.82259883359603 M355.3618552245519,472.72216617606296 L355.3867605706307,480.0370239652008" stroke="black"  stroke-width="4"  fill="red"/>
<path d="M319.56569479800453,459.55433779717106 L163.23215948989179,549.9739716560941 M163.23215948989179,549.9739716560941 L163.63414072992626,572.0904332812192 M170.22150560137854,568.2678143836256 L163.63414072992626,572.0904332812192 M170.0914677897873,560.9060147324506 L170.22150560137854,568.2678143836256 M319.6555446318663,474.21021119116205 L170.0914677897873,560.9060147324506 M319.56569479800453,459.55433779717106 L319.6555446318663,474.21021119116205 M163.23215948989179,549.9739716560941 L158.16718598984343,546.9203575903384 M158.16718598984343,546.9203575903384 L314.4987602869726,456.58214073055706 M314.4987602869726,456.58214073055706 L319.56569479800453,459.55433779717106 M158.16718598984343,546.9203575903384 L158.57758165367744,569.0319921464982 M163.63414072992626,572.0904332812192 L158.57758165367744,569.0319921464982 M170.22150560137854,568.2678143836256 L165.1648259027047,565.2128316545661 M158.57758165367744,569.0319921464982 L165.1648259027047,565.2128316545661 M170.0914677897873,560.9060147324506 L165.031986184885,557.8526355658439 M165.1648259027047,565.2128316545661 L165.031986184885,557.8526355658439 M314.59422946024847,471.2347859861689 L319.6555446318663,474.21021119116205 M165.031986184885,557.8526355658439 L314.59422946024847,471.2347859861689 M314.4987602869726,456.58214073055706 L314.59422946024847,471.2347859861689" stroke="black"  stroke-width="4"  fill="red"/>
<path d="M355.3618552245519,472.72216617606296 L355.3867605706307,480.0370239652008 M186.56647287746551,570.8486217488914 L186.68736900155534,578.2156321818909 M355.3618552245519,472.72216617606296 L186.56647287746551,570.8486217488914 M355.3867605706307,480.0370239652008 L186.68736900155534,578.2156321818909 M148.6202534295415,547.9482131770901 L148.76216403121907,555.3031969309873 M186.56647287746551,570.8486217488914 L148.6202534295415,547.9482131770901 M186.68736900155534,578.2156321818909 L148.76216403121907,555.3031969309873 M317.40106580199455,450.4810212476777 L317.44701018510096,457.78383363184867 M148.6202534295415,547.9482131770901 L317.40106580199455,450.4810212476777 M148.76216403121907,555.3031969309873 L317.44701018510096,457.78383363184867 M317.40106580199455,450.4810212476777 L355.3618552245519,472.72216617606296 M317.44701018510096,457.78383363184867 L355.3867605706307,480.0370239652008" stroke="black"  stroke-width="4"  fill="red"/></svg>