<svg viewBox="0 0 800 800" xmlns="http://www.w3.org/2000/svg"><path d="M636.0865392454407,265.0564505678864 L636.3437045048458,250.54502847587008 M636.3437045048458,250.54502847587008 L647.1702582580176,256.8038677706804 M647.1702582580176,256.8038677706804 L657.5082804216731,263.34317177561746 M657.5082804216731,263.34317177561746 L667.3357582576002,270.1508226662817 M667.3357582576002,270.1508226662817 L676.6315382896855,277.214097651051 M676.6315382896855,277.214097651051 L685.3752798040989,284.51972987868066 M685.3752798040989,284.51972987868066 L693.5475679493738,292.0539092266573 M693.5475679493738,292.0539092266573 L701.130002977367,299.80224727984677 M701.130002977367,299.80224727984677 L708.105126389705,307.7498837567543 M708.105126389705,307.7498837567543 L714.4565571752962,315.8814337301177 M714.4565571752962,315.8814337301177 L720.1690631165018,324.1810249203077 M720.1690631165018,324.1810249203077 L725.2284968648914,332.63236633206014 M725.2284968648914,332.63236633206014 L729.6219303603875,341.2187140377635 M729.6219303603875,341.2187140377635 L733.3377180112509,349.9229034254289 M733.3377180112509,349.9229034254289 L736.3654473048759,358.7274049316168 M736.3654473048759,358.7274049316168 L738.6960439030247,367.61435938195314 M738.6960439030247,367.61435938195314 L740.3218377236335,376.5655703575738 M740.3218377236335,376.5655703575738 L741.2365176635085,385.5625644206002 M741.2365176635085,385.5625644206002 L741.4352108207918,394.5866142214907 M741.4352108207918,394.5866142214907 L740.9146028964319,403.6187855249794 M740.9146028964319,403.6187855249794 L739.6728069097585,412.63998612506344 M739.6728069097585,412.63998612506344 L737.7095001574285,421.6309489826953 M737.7095001574285,421.6309489826953 L735.0259425312499,430.5723576365319 M735.0259425312499,430.5723576365319 L731.6249579249018,439.44483295481666 M731.6249579249018,439.44483295481666 L727.5109764066217,448.2289776165637 M727.5109764066217,448.2289776165637 L722.6900673730008,456.9054508600493 M722.6900673730008,456.9054508600493 L717.1699302158977,465.45499966327156 M717.1699302158977,465.45499966327156 L710.9598798156287,473.8585171198878 M710.9598798156287,473.8585171198878 L704.0708875902212,482.0970680804456 M704.0708875902212,482.0970680804456 L696.515549179451,490.15195914031597 M696.515549179451,490.15195914031597 L688.3080726597564,498.00477280114796 M688.3080726597564,498.00477280114796 L679.4643439036101,505.6374735673316 M679.4643439036101,505.6374735673316 L670.0017386168679,513.0323579235203 M670.0017386168679,513.0323579235203 L659.9392787744691,520.1721993822277 M659.9392787744691,520.1721993822277 L649.2974996137689,527.0402585936197 M649.2974996137689,527.0402585936197 L638.098422654376,533.620323162838 M638.098422654376,533.620323162838 L626.3655451932827,539.896783865552 M626.3655451932827,539.896783865552 L614.1237552685643,545.8546588110736 M614.1237552685643,545.8546588110736 L601.3993582505177,551.479691739276 M601.3993582505177,551.479691739276 L588.2198738636416,556.758299879736 M588.2198738636416,556.758299879736 L574.6141232487498,561.6777271405022 M574.6141232487498,561.6777271405022 L560.6120687033263,566.2260093495428 M560.6120687033263,566.2260093495428 L546.2447489805802,570.3920466333648 M546.2447489805802,570.3920466333648 L531.5442727141024,574.1656383762293 M531.5442727141024,574.1656383762293 L516.5435797008097,577.5375112911734 M516.5435797008097,577.5375112911734 L501.27656841928956,580.4993640790365 M501.27656841928956,580.4993640790365 L485.7778116883434,583.0438694310632 M485.7778116883434,583.0438694310632 L470.0825600712089,585.1647396608197 M470.0825600712089,585.1647396608197 L454.2266222886456,586.8566961026087 M454.2266222886456,586.8566961026087 L438.2462752042554,588.1155612043123 M438.2462752042554,588.1155612043123 L422.1781207505408,588.9381651650746 M422.1781207505408,588.9381651650746 L406.05905330165774,589.3224937712952 M406.05905330165774,589.3224937712952 L389.92607485441215,589.2675675278673 M389.92607485441215,589.2675675278673 L373.8162804920079,588.7735382571576 M373.8162804920079,588.7735382571576 L357.76664356120136,587.841629541501 M357.76664356120136,587.841629541501 L341.8139709514154,586.4741641809674 M341.8139709514154,586.4741641809674 L325.9948089710959,584.6745481948581 M325.9948089710959,584.6745481948581 L310.3453505097472,582.4472292666809 M310.3453505097472,582.4472292666809 L294.90124237927046,579.7977599657246 M294.90124237927046,579.7977599657246 L279.69760597168033,576.7326756476007 M279.69760597168033,576.7326756476007 L264.7688178773216,573.2595601596375 M264.7688178773216,573.2595601596375 L250.14857433794393,569.3869443918785 M250.14857433794393,569.3869443918785 L235.8696114626777,565.1243541113165 M235.8696114626777,565.1243541113165 L221.9637497741546,560.4822148236127 M221.9637497741546,560.4822148236127 L208.46180523919082,555.4718411836926 M208.46180523919082,555.4718411836926 L195.3934468881855,550.1053915711607 M195.3934468881855,550.1053915711607 L182.7871536028437,544.3958556471987 M182.7871536028437,544.3958556471987 L170.6701963041281,538.3569592564054 M170.6701963041281,538.3569592564054 L159.0684997083859,532.003161727703 M159.0684997083859,532.003161727703 L148.00659858361996,525.3496121580149 M148.00659858361996,525.3496121580149 L137.50762626144575,518.4120755207443 M137.50762626144575,518.4120755207443 L127.59326663896957,511.20688282918803 M127.59326663896957,511.20688282918803 L118.28366841376095,503.7509044732731 M118.28366841376095,503.7509044732731 L109.59741441263026,496.0615075786573 M109.59741441263026,496.0615075786573 L101.55156452004974,488.15646180292447 M101.55156452004974,488.15646180292447 L94.16154270703169,480.05391660841394 M94.16154270703169,480.05391660841394 L87.44116520236082,471.77236771834254 M87.44116520236082,471.77236771834254 L81.4026170897572,463.3305687742551 M81.4026170897572,463.3305687742551 L76.05648623594561,454.7474776248258 M76.05648623594561,454.7474776248258 L71.41165341264963,446.04228082271516 M71.41165341264963,446.04228082271516 L67.47542828913777,437.2342370725189 M67.47542828913777,437.2342370725189 L64.25342780249542,428.3427190127442 M64.25342780249542,428.3427190127442 L61.74973736452313,419.38709736812376 M61.74973736452313,419.38709736812376 L59.96675391879876,410.38676287208466 M59.96675391879876,410.38676287208466 L58.90533822993842,401.36103109108785 M58.90533822993842,401.36103109108785 L58.564789179208276,392.32910576885683 M58.564789179208276,392.32910576885683 L58.94285739189684,383.31004385161737 M58.94285739189684,383.31004385161737 L60.035825165609765,374.32274998663235 M60.035825165609765,374.32274998663235 L61.838445680707935,365.38587792051857 M61.838445680707935,365.38587792051857 L64.34412741286911,356.5178452172285 M64.34412741286911,356.5178452172285 L67.5447649304786,347.7367550281302 M67.5447649304786,347.7367550281302 L71.43099890389499,339.0604026841432 M71.43099890389499,339.0604026841432 L75.99208224987439,330.50622281914474 M75.99208224987439,330.50622281914474 L81.21604216528317,322.0912656392237 M81.21604216528317,322.0912656392237 L87.08963907140662,313.83215806723194 M87.08963907140662,313.83215806723194 L93.5984742964082,305.7451316436391 M93.5984742964082,305.7451316436391 L100.7269976720022,297.84589321744363 M100.7269976720022,297.84589321744363 L108.45856936477401,290.14972038509507 M108.45856936477401,290.14972038509507 L116.77550022874806,282.6713560661474 M116.77550022874806,282.6713560661474 L125.65909342482007,275.42502911279126 M125.65909342482007,275.42502911279126 L135.08974473385337,268.4244413580496 M135.08974473385337,268.4244413580496 L145.04686738959737,261.682703405884 M145.04686738959737,261.682703405884 L155.50911364073028,255.21240005597116 M155.50911364073028,255.21240005597116 L166.45426606112952,249.02550031504518 M166.45426606112952,249.02550031504518 L177.85936577294677,243.13338758577683 M177.85936577294677,243.13338758577683 L189.70072014538545,237.5468288588314 M189.70072014538545,237.5468288588314 L201.95399193449524,232.2759812211884 M201.95399193449524,232.2759812211884 L214.59422795234704,227.33038811898024 M214.59422795234704,227.33038811898024 L227.59583918019533,222.71891713403963 M227.59583918019533,222.71891713403963 L240.93279657956077,218.44984859443423 M240.93279657956077,218.44984859443423 L254.57851205271524,214.53078080890526 M254.57851205271524,214.53078080890526 L268.50597110140063,210.96866612782617 M268.50597110140063,210.96866612782617 L282.68774895415805,207.76980492716916 M282.68774895415805,207.76980492716916 L297.09608636962054,204.93982549474472 M297.09608636962054,204.93982549474472 L311.70289224544445,202.48370255194274 M311.70289224544445,202.48370255194274 L326.4798019475557,200.40574296812395 M326.4798019475557,200.40574296812395 L341.3981916964511,198.7095730190445 M341.3981916964511,198.7095730190445 L356.4292668101993,197.39814552887057 M356.4292668101993,197.39814552887057 L371.5441019427682,196.47375098718715 M371.5441019427682,196.47375098718715 L386.7135866967528,195.9379957753397 M386.7135866967528,195.9379957753397 L401.90860561560373,195.7917948808733 M401.90860561560373,195.7917948808733 L417.09998259467017,196.03543166698805 M417.09998259467017,196.03543166698805 L432.2585381487277,196.66846891475222 M432.2585381487277,196.66846891475222 L447.3551464356479,197.68979532942961 M447.3551464356479,197.68979532942961 L462.36075531227107,199.0976496518334 M462.36075531227107,199.0976496518334 L477.2464722090595,200.88957497549035 M477.2464722090595,200.88957497549035 L491.98353793218786,203.06243489594993 M491.98353793218786,203.06243489594993 L506.5433771163475,205.61244951971346 M506.5433771163475,205.61244951971346 L520.8976862784491,208.53514585639135 M520.8976862784491,208.53514585639135 L535.0184861126154,211.82537021650393 M535.0184861126154,211.82537021650393 L548.8780631017014,215.4773418627471 M548.8780631017014,215.4773418627471 L562.4490896191353,219.48459460291707 M562.4490896191353,219.48459460291707 L575.7046953557028,223.8399939294257 M575.7046953557028,223.8399939294257 L588.6183860647452,228.53579320173029 M588.6183860647452,228.53579320173029 L601.1642398575109,233.56356965167998 M601.1642398575109,233.56356965167998 L613.316862416731,238.91425505099664 M613.316862416731,238.91425505099664 L625.0514076612906,244.57818000521715 M625.0514076612906,244.57818000521715 L636.3437045048458,250.54502847587008 M636.0865392454407,265.0564505678864 L624.8067565706365,259.08266192682464 M624.8067565706365,259.08266192682464 L613.0851721909708,253.41213799844127 M613.0851721909708,253.41213799844127 L600.9459311417229,248.0552086097947 M600.9459311417229,248.0552086097947 L588.4138530470586,243.02155616492593 M588.4138530470586,243.02155616492593 L575.5143054871357,238.32026115969828 M575.5143054871357,238.32026115969828 L562.2731833447874,233.95975782076823 M562.2731833447874,233.95975782076823 L548.7169535296584,229.94780338740742 M548.7169535296584,229.94780338740742 L534.8724588771677,226.29154216736947 M534.8724588771677,226.29154216736947 L520.7669992985784,222.99744927574193 M520.7669992985784,222.99744927574193 L506.428260411779,220.07131346329106 M506.428260411779,220.07131346329106 L491.88419354653905,217.51829558141137 M491.88419354653905,217.51829558141137 L477.16307404815467,215.34287485806436 M477.16307404815467,215.34287485806436 L462.29344901492397,213.548836476751 M462.29344901492397,213.548836476751 L447.3040493137363,212.13932123550086 M447.3040493137363,212.13932123550086 L432.22373915626275,211.11678948943606 M432.22373915626275,211.11678948943606 L417.08154224187035,210.48300497757984 M417.08154224187035,210.48300497757984 L401.9065559481317,210.23908055611787 M401.9065559481317,210.23908055611787 L386.72793126925654,210.38545405642373 M386.72793126925654,210.38545405642373 L371.57481582594403,210.92184172298164 M371.57481582594403,210.92184172298164 L356.4762966319091,211.84732727670232 M356.4762966319091,211.84732727670232 L341.4614555951491,213.1603020767371 M341.4614555951491,213.1603020767371 L326.5591896924788,214.8584724178152 M326.5591896924788,214.8584724178152 L311.79826527147577,216.93888133406418 M311.79826527147577,216.93888133406418 L297.20727782931203,219.39789747463624 M297.20727782931203,219.39789747463624 L282.81456383951286,222.23120796031355 M282.81456383951286,222.23120796031355 L268.6481863570045,225.43383114836217 M268.6481863570045,225.43383114836217 L254.7358767290627,229.0001309443566 M254.7358767290627,229.0001309443566 L241.10503196693523,232.9237982692128 M241.10503196693523,232.9237982692128 L227.7826390045696,237.19787120822835 M227.7826390045696,237.19787120822835 L214.7952585701718,241.81474104678176 M214.7952585701718,241.81474104678176 L202.16889265310166,246.7661161807975 M202.16889265310166,246.7661161807975 L189.92910340219683,252.04311700763722 M189.92910340219683,252.04311700763722 L178.10081751114038,257.6361872271588 M178.10081751114038,257.6361872271588 L166.7083460749063,263.535156153872 M166.7083460749063,263.535156153872 L155.77535594325118,269.72924247489544 M155.77535594325118,269.72924247489544 L145.32478067128878,276.2070477510976 M145.32478067128878,276.2070477510976 L135.37881282649187,282.9565872782227 M135.37881282649187,282.9565872782227 L125.95877590274438,289.9652598808106 M125.95877590274438,289.9652598808106 L117.08523289669358,297.2199380227469 M117.08523289669358,297.2199380227469 L108.77776498848567,304.70690232473316 M108.77776498848567,304.70690232473316 L101.055046636248,312.4119058660746 M101.055046636248,312.4119058660746 L93.93474538251178,320.32018716877025 M93.93474538251178,320.32018716877025 L87.43348029111439,328.41644958164215 M87.43348029111439,328.41644958164215 L81.56678165874553,336.6849668418717 M81.56678165874553,336.6849668418717 L76.34902926350583,345.10948754316456 M76.34902926350583,345.10948754316456 L71.79344480281156,353.6733646075538 M71.79344480281156,353.6733646075538 L67.91198434990258,362.3595273669488 M67.91198434990258,362.3595273669488 L64.71537939043083,371.1505204759924 M64.71537939043083,371.1505204759924 L62.21297499520949,380.0285276817792 M62.21297499520949,380.0285276817792 L60.41286355887706,388.9754247707968 M60.41286355887706,388.9754247707968 L59.3216251080043,397.97277297879765 M59.3216251080043,397.97277297879765 L58.94449635225038,407.0018973163338 M58.94449635225038,407.0018973163338 L59.285186508326376,416.043871840594 M59.285186508326376,416.043871840594 L60.34593806168226,425.079618371586 M60.34593806168226,425.079618371586 L62.12744696211507,434.0899120022131 M62.12744696211507,434.0899120022131 L64.62884904889751,443.05541611278454 M64.62884904889751,443.05541611278454 L67.84774576389623,451.95671906647465 M67.84774576389623,451.95671906647465 L71.78005207338072,460.7744294868617 M71.78005207338072,460.7744294868617 L76.42015326906284,469.4891543063589 M76.42015326906284,469.4891543063589 L81.76074398235949,478.0816147341145 M81.76074398235949,478.0816147341145 L87.79294970850128,486.532604419604 M87.79294970850128,486.532604419604 L94.50619100691881,494.82314616486906 M94.50619100691881,494.82314616486906 L101.88829328429495,502.9344673882339 M101.88829328429495,502.9344673882339 L109.9254529353201,510.8480538798501 M109.9254529353201,510.8480538798501 L118.60226074907052,518.5457382240431 M118.60226074907052,518.5457382240431 L127.90167379402953,526.009733361915 M127.90167379402953,526.009733361915 L137.8051282824681,533.2226553244476 M137.8051282824681,533.2226553244476 L148.29249671153153,540.1676175177441 M148.29249671153153,540.1676175177441 L159.34211851482428,546.8282733885948 M159.34211851482428,546.8282733885948 L170.93088574089077,553.1888430945862 M170.93088574089077,553.1888430945862 L183.03429100467008,559.2341633717355 M183.03429100467008,559.2341633717355 L195.62643896724583,564.9497614820508 M195.62643896724583,564.9497614820508 L208.68009002932686,570.3218989533711 M208.68009002932686,570.3218989533711 L222.1667984117723,575.3375742586435 M222.1667984117723,575.3375742586435 L236.05692994031773,579.9846179924601 M236.05692994031773,579.9846179924601 L250.31970519485208,584.2517053053642 M250.31970519485208,584.2517053053642 L264.92334171095365,588.1284013553548 M264.92334171095365,588.1284013553548 L279.8351428262567,591.6051718884697 M279.8351428262567,591.6051718884697 L295.0214531622967,594.673478458445 M295.0214531622967,594.673478458445 L310.4479380592485,597.3257305247832 M310.4479380592485,597.3257305247832 L326.07951916693327,599.5553869927312 M326.07951916693327,599.5553869927312 L341.8805935404746,601.3568904250513 M341.8805935404746,601.3568904250513 L357.81501297134844,602.7257892577747 M357.81501297134844,602.7257892577747 L373.8462763861339,603.658674502568 M373.8462763861339,603.658674502568 L389.9376225385569,604.153221337891 M389.9376225385569,604.153221337891 L406.0521239840796,604.2082051191267 M406.0521239840796,604.2082051191267 L422.15273170757416,603.8234738893175 M422.15273170757416,603.8234738893175 L438.2024896577622,603.0000079987587 M438.2024896577622,603.0000079987587 L454.16454922505477,601.7398234069342 M454.16454922505477,601.7398234069342 L470.00235380668437,600.0460926824755 M470.00235380668437,600.0460926824755 L485.67967135725297,597.9229970191043 M485.67967135725297,597.9229970191043 L501.16073725906966,595.3758197049915 M501.16073725906966,595.3758197049915 L516.410344197855,592.4108539446261 M516.410344197855,592.4108539446261 L531.3939615776173,589.0354335058812 M531.3939615776173,589.0354335058812 L546.0777320892164,585.2578670343717 M546.0777320892164,585.2578670343717 L560.4287556976974,581.0874360656675 M560.4287556976974,581.0874360656675 L574.4149622446187,576.534350337707 M574.4149622446187,576.534350337707 L588.0053498706329,571.6097197099376 M588.0053498706329,571.6097197099376 L601.169991565431,566.3255191880688 M601.169991565431,566.3255191880688 L613.8800997820699,560.6945164905161 M613.8800997820699,560.6945164905161 L626.108186501695,554.7303068662137 M626.108186501695,554.7303068662137 L637.8279762687505,548.4471597659339 M637.8279762687505,548.4471597659339 L649.0146089330835,541.8600710613332 M649.0146089330835,541.8600710613332 L659.6446130936924,534.9846646662102 M659.6446130936924,534.9846646662102 L669.6959910442542,527.8371683700316 M669.6959910442542,527.8371683700316 L679.1482292779747,520.4343375627203 M679.1482292779747,520.4343375627203 L687.9823254511891,512.7934153956494 M687.9823254511891,512.7934153956494 L696.1809212557662,504.9321226813561 M696.1809212557662,504.9321226813561 L703.7281461862344,496.868512708593 M703.7281461862344,496.868512708593 L710.6098053096916,488.6210213364346 M710.6098053096916,488.6210213364346 L716.813314010403,480.2083607994349 M716.813314010403,480.2083607994349 L722.3277097906002,471.6494855237146 M722.3277097906002,471.6494855237146 L727.143684583277,462.9635220757604 M727.143684583277,462.9635220757604 L731.253543781713,454.1697435043318 M731.253543781713,454.1697435043318 L734.6512207658736,445.2875109100189 M734.6512207658736,445.2875109100189 L737.3322862607583,436.3362422380634 M737.3322862607583,436.3362422380634 L739.2939152587724,427.3353374531075 M739.2939152587724,427.3353374531075 L740.534844931926,418.3041340122306 M740.534844931926,418.3041340122306 L741.0553932390187,409.26192012947683 M741.0553932390187,409.26192012947683 L740.8574406709172,400.2278092256835 M740.8574406709172,400.2278092256835 L739.9442934777603,391.22075680709617 M739.9442934777603,391.22075680709617 L738.3208148443771,382.25951149194464 M738.3208148443771,382.25951149194464 L735.9933046585938,373.36256792613 M735.9933046585938,373.36256792613 L732.9694204095722,364.5481436425252 M732.9694204095722,364.5481436425252 L729.2582224487028,355.834118758692 M729.2582224487028,355.834118758692 L724.8701080092274,347.23804360856633 M724.8701080092274,347.23804360856633 L719.8167062556352,338.7771033504464 M719.8167062556352,338.7771033504464 L714.1109276460813,330.46806215790315 M714.1109276460813,330.46806215790315 L707.7669008462785,322.32723092084007 M707.7669008462785,322.32723092084007 L700.7998384762868,314.37050148624604 M700.7998384762868,314.37050148624604 L693.2261009857282,306.61327792747056 M693.2261009857282,306.61327792747056 L685.0631254429245,299.0704391914058 M685.0631254429245,299.0704391914058 L676.3292894563835,291.7563919215022 M676.3292894563835,291.7563919215022 L667.0439849625011,284.684963891762 M667.0439849625011,284.684963891762 L657.2275290877476,277.8694390505104 M657.2275290877476,277.8694390505104 L646.9010511766505,271.32255671347656 M646.9010511766505,271.32255671347656 L636.0865392454407,265.0564505678864 M336.21717754624797,438.18610726663644 L342.0773829867173,441.3158909644031 M342.0773829867173,441.3158909644031 L348.39917870841845,444.13371308957875 M348.39917870841845,444.13371308957875 L355.1327157575899,446.6166955912323 M355.1327157575899,446.6166955912323 L362.22467470966956,448.74462984352493 M362.22467470966956,448.74462984352493 L369.61869430748374,450.5001638726011 M369.61869430748374,450.5001638726011 L377.2558597190971,451.8689591215825 M377.2558597190971,451.8689591215825 L385.07518591065616,452.83981294139295 M385.07518591065616,452.83981294139295 L393.0141092382582,453.4047828805983 M393.0141092382582,453.4047828805983 L401.0090773547171,453.55923478630217 M401.0090773547171,453.55923478630217 L408.9960304885054,453.30190503396796 M408.9960304885054,453.30190503396796 L416.9109869596436,452.6348999775186 M416.9109869596436,452.6348999775186 L424.6905820958815,451.56368504712793 M424.6905820958815,451.56368504712793 L432.27260979232676,450.0970309815502 M432.27260979232676,450.0970309815502 L439.59654772922056,448.2469331458211 M439.59654772922056,448.2469331458211 L446.6040729611673,446.0284938378151 M446.6040729611673,446.0284938378151 L453.23954272979176,443.4597991113987 M453.23954272979176,443.4597991113987 L459.45047240431006,440.56174313934736 M459.45047240431006,440.56174313934736 L465.1879317319461,437.357835144854 M465.1879317319461,437.357835144854 L470.40698131650714,433.8740093473989 M470.40698131650714,433.8740093473989 L475.0669735976807,430.1383652178868 M475.0669735976807,430.1383652178868 L479.1319159201119,426.180951131758 M479.1319159201119,426.180951131758 L482.57069365853073,422.0334834433942 M482.57069365853073,422.0334834433942 L485.35731356490044,417.7290793387963 M485.35731356490044,417.7290793387963 L487.47107575782746,413.30198458963326 M487.47107575782746,413.30198458963326 L488.89670096774535,408.7872823133202 M488.89670096774535,408.7872823133202 L489.62438995628526,404.2206034884925 M489.62438995628526,404.2206034884925 L489.64989432232375,399.6378397126873 M489.64989432232375,399.6378397126873 L488.9744661068457,395.074863405115 M488.9744661068457,395.074863405115 L487.6048284375003,390.5672472047746 M487.6048284375003,390.5672472047746 L485.55307216389616,386.1499797992108 M485.55307216389616,386.1499797992108 L482.83651711609684,381.8572127776065 M482.83651711609684,381.8572127776065 L479.4775235350365,377.7220039149213 M479.4775235350365,377.7220039149213 L475.5033073399028,373.7760751540672 M475.5033073399028,373.7760751540672 L470.9456989113247,370.04957694169985 M470.9456989113247,370.04957694169985 L465.84084006926685,366.5708928745775 M465.84084006926685,366.5708928745775 L460.2289265636984,363.36642346760596 M460.2289265636984,363.36642346760596 L454.1538624422381,360.4604145490798 M454.1538624422381,360.4604145490798 L447.66292128633313,357.87479529158173 M447.66292128633313,357.87479529158173 L440.80640152698265,355.6290176755354 M440.80640152698265,355.6290176755354 L433.6372169793076,353.73995085208 M433.6372169793076,353.73995085208 L426.21053672785763,352.22175223291725 M426.21053672785763,352.22175223291725 L418.58336934068,351.0857758329796 M418.58336934068,351.0857758329796 L410.81415049107187,350.3405130844761 M410.81415049107187,350.3405130844761 L402.9623192477966,349.9915304141233 M402.9623192477966,349.9915304141233 L395.08791406658594,350.04143271212325 M395.08791406658594,350.04143271212325 L387.25112795833775,350.48984341865577 M387.25112795833775,350.48984341865577 L379.5118810888686,351.3334217108395 M379.5118810888686,351.3334217108395 L371.929404343939,352.56586178940046 M371.929404343939,352.56586178940046 L364.56181760733506,354.17795424713177 M364.56181760733506,354.17795424713177 L357.46570966911196,356.1576335267102 M357.46570966911196,356.1576335267102 L350.69571816531453,358.4900560002642 M350.69571816531453,358.4900560002642 L344.3041424824283,361.15769522497834 M344.3041424824283,361.15769522497834 L338.34056316384186,364.14046965566683 M338.34056316384186,364.14046965566683 L332.85143367291295,367.4158512511216 M332.85143367291295,367.4158512511216 L327.87977485113225,370.9590460048187 M327.87977485113225,370.9590460048187 L323.4647869218956,374.7431331292448 M323.4647869218956,374.7431331292448 L319.6415686721873,378.73927551994217 M319.6415686721873,378.73927551994217 L316.44081938750844,382.916903287662 M316.44081938750844,382.916903287662 L313.88855641891803,387.2439408827066 M313.88855641891803,387.2439408827066 L312.0059077036142,391.6870344019979 M312.0059077036142,391.6870344019979 L310.8088987738733,396.21179894995964 M310.8088987738733,396.21179894995964 L310.3082882654939,400.78307319308334 M310.3082882654939,400.78307319308334 L310.5094353509514,405.3651865074251 M310.5094353509514,405.3651865074251 L311.41222758798784,409.9222293176955 M311.41222758798784,409.9222293176955 L313.01101495069247,414.4183562353703 M313.01101495069247,414.4183562353703 L315.29464267377875,418.81803657806637 M315.29464267377875,418.81803657806637 L318.24645225547596,423.0863753189281 M318.24645225547596,423.0863753189281 L321.8444091184667,427.18938644200756 M321.8444091184667,427.18938644200756 L326.0612257190601,431.09427059571124 M326.0612257190601,431.09427059571124 L330.8645445005889,434.76970487268176 M330.8645445005889,434.76970487268176 L336.21717754624797,438.18610726663644 M319.3881343441385,436.08105678333135 L314.30777799087355,433.1114956524073 M314.30777799087355,433.1114956524073 L157.55419050882125,523.3717226465085 M157.55419050882125,523.3717226465085 L162.6325734907882,526.4227773868483 M162.6325734907882,526.4227773868483 L319.3881343441385,436.08105678333135 M336.145822229061,423.4787741304259 L330.7872418003607,420.06613996945293 M330.7872418003607,420.06613996945293 L325.97859886064265,416.3947640263012 M325.97859886064265,416.3947640263012 L321.7571220714644,412.4941965487965 M321.7571220714644,412.4941965487965 L318.15520399804126,408.3957266601519 M318.15520399804126,408.3957266601519 L315.2001612227629,404.1321181614576 M315.2001612227629,404.1321181614576 L312.91405123178805,399.73732004335506 M312.91405123178805,399.73732004335506 L311.3135492209644,395.2461891158633 M311.3135492209644,395.2461891158633 L310.4098203516842,390.69421693728776 M310.4098203516842,390.69421693728776 L310.20851881157745,386.1172092084964 M310.20851881157745,386.1172092084964 L310.709755000187,381.55103552567135 M310.709755000187,381.55103552567135 L311.90816163948017,377.03132657977926 M311.90816163948017,377.03132657977926 L313.7929660719977,372.59320412542246 M313.7929660719977,372.59320412542246 L316.3481230383567,368.2710141442751 M316.3481230383567,368.2710141442751 L319.5524794096728,364.09807259347053 M319.5524794096728,364.09807259347053 L323.379987466472,360.1064183450845 M323.379987466472,360.1064183450845 L327.7999126514519,356.3265861616233 M327.7999126514519,356.3265861616233 L332.7771163495628,352.78737985782254 M332.7771163495628,352.78737985782254 L338.2723543067545,349.5156890083816 M338.2723543067545,349.5156890083816 L344.24255777250943,346.5362787558382 M344.24255777250943,346.5362787558382 L350.64122192712085,343.8716508184869 M350.64122192712085,343.8716508184869 L357.4187117529455,341.541863198063 M357.4187117529455,341.541863198063 L364.5226707031676,339.56442172912455 M364.5226707031676,339.56442172912455 L371.8984016870176,337.95415254124475 M371.8984016870176,337.95415254124475 L379.48925455514234,336.72310693811096 M379.48925455514234,336.72310693811096 L387.237046578424,335.88048342902493 M387.237046578424,335.88048342902493 L395.08248295202213,335.432580342631 M395.08248295202213,335.432580342631 L402.965578926791,335.38273454036215 M402.965578926791,335.38273454036215 L410.8260766448902,335.73132213565674 M410.8260766448902,335.73132213565674 L418.60387295168334,336.4757413272029 M418.60387295168334,336.4757413272029 L426.23946465908324,337.61043228468463 M426.23946465908324,337.61043228468463 L433.67435294304596,339.12691362741754 M433.67435294304596,339.12691362741754 L440.851467468393,341.01384475994627 M440.851467468393,341.01384475994627 L447.7155791753474,343.25708496946953 M447.7155791753474,343.25708496946953 L454.2137164849144,345.83978495350874 M454.2137164849144,345.83978495350874 L460.29552578034617,348.74251555470937 M460.29552578034617,348.74251555470937 L465.9136813032173,351.9433732461463 M465.9136813032173,351.9433732461463 L471.02423020753935,355.4181404521952 M471.02423020753935,355.4181404521952 L475.5869316976784,359.14044729974347 M475.5869316976784,359.14044729974347 L479.56560305347693,363.08194299450855 M479.56560305347693,363.08194299450855 L482.92837744613047,367.2125117758012 M482.92837744613047,367.2125117758012 L485.648007327311,371.50046801895036 M485.648007327311,371.50046801895036 L487.70210595463385,375.91279160652056 M487.70210595463385,375.91279160652056 L489.07333237880033,380.41536965051057 M489.07333237880033,380.41536965051057 L489.7495802792554,384.9732529014263 M489.7495802792554,384.9732529014263 L489.7241169218933,389.55090859831574 M489.7241169218933,389.55090859831574 L488.9956867048196,394.112504314961 M488.9956867048196,394.112504314961 L487.56854061417636,398.6221882475488 M487.56854061417636,398.6221882475488 L485.4524867427666,403.0443687054895 M485.4524867427666,403.0443687054895 L482.662819470248,407.3440010458617 M482.662819470248,407.3440010458617 L479.220260038258,411.4868768541261 M479.220260038258,411.4868768541261 L475.1508292177933,415.439914884357 M475.1508292177933,415.439914884357 L470.4856751740595,419.1714330318659 M470.4856751740595,419.1714330318659 L465.2608298841995,422.65141521722524 M465.2608298841995,422.65141521722524 L459.5169857889627,425.8517920367944 M459.5169857889627,425.8517920367944 L453.2991323315128,428.7466569080257 M453.2991323315128,428.7466569080257 L446.6562546437142,431.3125255658704 M446.6562546437142,431.3125255658704 L439.64089656850507,433.52852594495437 M439.64089656850507,433.52852594495437 L432.30876394354254,435.3765910711682 M432.30876394354254,435.3765910711682 L424.7182460918042,436.8416345382379 M424.7182460918042,436.8416345382379 L416.92993442642626,437.9116735777444 M416.92993442642626,437.9116735777444 L409.00610623138255,438.5779466467858 M409.00610623138255,438.5779466467858 L401.01019879581185,438.8349940393436 M401.01019879581185,438.8349940393436 L393.0062671832912,438.68071160613965 M393.0062671832912,438.68071160613965 L385.0584446448842,438.1163616492396 M385.0584446448842,438.1163616492396 L377.23035637993496,437.1465734687297 M377.23035637993496,437.1465734687297 L369.5846376527869,435.77928119167757 M369.5846376527869,435.77928119167757 L362.1823431641008,434.0256757079634 M362.1823431641008,434.0256757079634 L355.08245485390506,431.90008049482833 M355.08245485390506,431.90008049482833 L348.34139794109427,429.4198292332893 M348.34139794109427,429.4198292332893 L342.01255208240275,426.60510918380425 M342.01255208240275,426.60510918380425 L336.145822229061,423.4787741304259 M336.21717754624797,438.18610726663644 L336.145822229061,423.4787741304259 M319.4242587741899,441.9735003250612 L314.3461616223238,439.0026300988909 M314.3461616223238,439.0026300988909 L314.30777799087355,433.1114956524073 M319.4242587741899,441.9735003250612 L319.3881343441385,436.08105678333135 M162.74038602973252,532.354476786713 L319.4242587741899,441.9735003250612 M162.74038602973252,532.354476786713 L162.6325734907882,526.4227773868483 M157.664259577305,529.3021142971236 L162.74038602973252,532.354476786713 M157.664259577305,529.3021142971236 L157.55419050882125,523.3717226465085 M314.3461616223238,439.0026300988909 L157.664259577305,529.3021142971236" stroke="black"  stroke-width="4"  fill="red"/>
<path d="M311.1587213681952,381.0117575460708 L311.3167524350849,404.4994496625203 M394.51435022931526,429.3648817039198 L386.9198671386235,428.90568004736855 M386.9198671386235,428.90568004736855 L379.42251900995836,428.0736405440351 M379.42251900995836,428.0736405440351 L372.0778866328329,426.8750688632702 M372.0778866328329,426.8750688632702 L364.94033340135957,425.3190576505105 M364.94033340135957,425.3190576505105 L358.0626048138733,423.4173820978267 M358.0626048138733,423.4173820978267 L351.4953902848597,421.1844179608573 M351.4953902848597,421.1844179608573 L345.286944487363,418.63701358458576 M345.286944487363,418.63701358458576 L339.4827162032987,415.7943483020766 M339.4827162032987,415.7943483020766 L334.12500304993426,412.6777768848907 M334.12500304993426,412.6777768848907 L329.2526460698887,409.31064604982805 M329.2526460698887,409.31064604982805 L324.9007519887891,405.71810504979084 M324.9007519887891,405.71810504979084 L321.1004339809065,401.92690587396544 M321.1004339809065,401.92690587396544 L317.8786072458739,397.9651868508829 M317.8786072458739,397.9651868508829 L315.25781316776914,393.86224819487836 M315.25781316776914,393.86224819487836 L313.25606934752136,389.6483303563251 M313.25606934752136,389.6483303563251 L311.8867992762346,385.3543654886156 M311.8867992762346,385.3543654886156 L311.1587213681952,381.0117575460708 M394.51435022931526,429.3648817039198 L394.5241946228677,452.9384333626942 M311.3167524350849,404.4994496625203 L312.0436387441435,408.8498204892291 M312.0436387441435,408.8498204892291 L313.410572422847,413.1514512321704 M313.410572422847,413.1514512321704 L315.4088476977196,417.37288232094613 M315.4088476977196,417.37288232094613 L318.0250622982537,421.4831271044793 M318.0250622982537,421.4831271044793 L321.2412283047342,425.451892122598 M321.2412283047342,425.451892122598 L325.0348424209394,429.249826051981 M325.0348424209394,429.249826051981 L329.3790357352392,432.8487417142193 M329.3790357352392,432.8487417142193 L334.24274929708173,436.2218408869846 M334.24274929708173,436.2218408869846 L339.59093821134104,439.3439310398181 M339.59093821134104,439.3439310398181 L345.3848304310664,442.19162544029786 M345.3848304310664,442.19162544029786 L351.5822040098151,444.7435328495515 M351.5822040098151,444.7435328495515 L358.1376919567108,446.9804412913396 M358.1376919567108,446.9804412913396 L365.0031268681794,448.885473829536 M365.0031268681794,448.885473829536 L372.12791137498664,450.444230375668 M372.12791137498664,450.444230375668 L379.45939607037,451.64491584975855 M379.45939607037,451.64491584975855 L386.9433168500965,452.4784222745842 M386.9433168500965,452.4784222745842 L394.5241946228677,452.9384333626942 M314.01468062675735,404.4994482640351 L311.3167524350849,404.4994496625203 M313.86145671378455,381.01175615008253 L311.1587213681952,381.0117575460708 M313.86145671378455,381.01175615008253 L314.01468062675735,404.4994482640351 M394.51435022931526,429.3648817039198 L394.5156624365459,427.78667442549346 M394.5156624365459,427.78667442549346 L386.7176851323636,427.2948892896059 M386.7176851323636,427.2948892896059 L379.03038241853534,426.39778196667817 M379.03038241853534,426.39778196667817 L371.51768750021,425.1029837488602 M371.51768750021,425.1029837488602 L364.24199081251703,423.42150055224477 M364.24199081251703,423.42150055224477 L357.263597206454,421.3676004555474 M357.263597206454,421.3676004555474 L350.64017075510003,418.95869072992457 M350.64017075510003,418.95869072992457 L344.426279390638,416.21513608622917 M344.426279390638,416.21513608622917 L338.67289921437924,413.16008450598275 M338.67289921437924,413.16008450598275 L333.4269919398321,409.8192480421133 M333.4269919398321,409.8192480421133 L328.7311363220174,406.22065677423666 M328.7311363220174,406.22065677423666 L324.6231707614323,402.3944131669476 M324.6231707614323,402.3944131669476 L321.1358921316464,398.3724233114249 M321.1358921316464,398.3724233114249 L318.29683949873873,394.1880950259193 M318.29683949873873,394.1880950259193 L316.1280685236972,389.8760684342084 M316.1280685236972,389.8760684342084 L314.6460287147236,385.4718988320624 M314.6460287147236,385.4718988320624 L313.86145671378455,381.01175615008253 M394.5241946228677,452.9384333626942 L394.5255021371068,451.3574437105314 M394.5156624365459,427.78667442549346 L394.5255021371068,451.3574437105314 M314.01468062675735,404.4994482640351 L314.797960020326,408.96756379419463 M314.797960020326,408.96756379419463 L316.27746184796933,413.3795956042277 M316.27746184796933,413.3795956042277 L318.4424653818843,417.69930972306446 M318.4424653818843,417.69930972306446 L321.2765474532477,421.8910882354898 M321.2765474532477,421.8910882354898 L324.75768907286164,425.9202303250973 M324.75768907286164,425.9202303250973 L328.85839804678426,429.75326993323665 M328.85839804678426,429.75326993323665 L333.54593424348366,433.3582456125294 M333.54593424348366,433.3582456125294 L338.78252554484766,436.70500290908 M338.78252554484766,436.70500290908 L344.5256685184925,439.76546353942894 M344.5256685184925,439.76546353942894 L350.72848519315903,442.513871406692 M350.72848519315903,442.513871406692 L357.3400909684651,444.9270390193457 M357.3400909684651,444.9270390193457 L364.30601639366154,446.9845670180922 M364.30601639366154,446.9845670180922 L371.5687019284857,448.6690185961769 M371.5687019284857,448.6690185961769 L379.06795243121695,449.96610152212355 M379.06795243121695,449.96610152212355 L386.7414912822988,450.8647912832462 M386.7414912822988,450.8647912832462 L394.5255021371068,451.3574437105314" stroke="black"  stroke-width="4"  fill="red"/>
<path d="M394.50488360559905,431.8816445745954 L394.50735651300914,437.791994712435 M340.3070811849979,426.9532316285512 L347.267068426725,429.55187314470004 M347.267068426725,429.55187314470004 L354.56967667694533,431.8217309747205 M354.56967667694533,431.8217309747205 L362.1677667015189,433.7477105833674 M362.1677667015189,433.7477105833674 L370.0121457399854,435.3169746153835 M370.0121457399854,435.3169746153835 L378.0518986739726,436.5190463598048 M378.0518986739726,436.5190463598048 L386.2347344349156,437.3458988040718 M386.2347344349156,437.3458988040718 L394.50735651300914,437.791994712435 M340.2802892048123,421.0476854741982 L340.3070811849979,426.9532316285512 M394.50488360559905,431.8816445745954 L386.2285434088705,431.4357460717428 M386.2285434088705,431.4357460717428 L378.04203095056016,430.6092595959812 M378.04203095056016,430.6092595959812 L369.99866729593987,429.4077200590711 M369.99866729593987,429.4077200590711 L362.15076756230906,427.8391511007342 M362.15076756230906,427.8391511007342 L354.5492702251882,425.9140250219602 M354.5492702251882,425.9140250219602 L347.2433905387213,423.6451737626723 M347.2433905387213,423.6451737626723 L340.2802892048123,421.0476854741982 M394.50735651300914,437.791994712435 L394.5156624365459,427.78667442549346 M394.51319699108427,421.88075830536684 L394.5156624365459,427.78667442549346 M394.50488360559905,431.8816445745954 L394.51319699108427,421.88075830536684 M313.86145671378455,381.01175615008253 L314.6460287147236,385.4718988320624 M314.6460287147236,385.4718988320624 L316.1280685236972,389.8760684342084 M316.1280685236972,389.8760684342084 L318.29683949873873,394.1880950259193 M318.29683949873873,394.1880950259193 L321.1358921316464,398.3724233114249 M321.1358921316464,398.3724233114249 L324.6231707614323,402.3944131669476 M324.6231707614323,402.3944131669476 L328.7311363220174,406.22065677423666 M328.7311363220174,406.22065677423666 L333.4269919398321,409.8192480421133 M333.4269919398321,409.8192480421133 L338.6728992143792,413.16008450598275 M338.6728992143792,413.16008450598275 L344.426279390638,416.21513608622917 M344.426279390638,416.21513608622917 L350.64017075510003,418.95869072992457 M350.64017075510003,418.95869072992457 L357.263597206454,421.3676004555474 M357.263597206454,421.3676004555474 L364.24199081251703,423.42150055224477 M364.24199081251703,423.42150055224477 L371.51768750021,425.1029837488602 M371.51768750021,425.1029837488602 L379.03038241853534,426.39778196667817 M379.03038241853534,426.39778196667817 L386.7176851323636,427.2948892896059 M386.7176851323636,427.2948892896059 L394.5156624365459,427.78667442549346 M313.86145671378455,381.01175615008253 L296.74877680193725,381.0117575460708 M296.74877680193725,381.0117575460708 L297.4369772163364,385.73635827381037 M297.4369772163364,385.73635827381037 L298.7784353841827,390.4177263394918 M298.7784353841827,390.4177263394918 L300.7659697070411,395.0258836215605 M300.7659697070411,395.0258836215605 L303.38823188773756,399.531196998667 M303.38823188773756,399.531196998667 L306.6297098664995,403.90457926695115 M306.6297098664995,403.90457926695115 L310.47081247181274,408.1176826913417 M310.47081247181274,408.1176826913417 L314.88797846704944,412.1430903781354 M323.4074939815057,407.25275259036346 L314.88797846704944,412.1430903781354 M348.8268230963342,422.04094118235514 L323.4074939815057,407.25275259036346 M340.3070811849979,426.9532316285512 L348.8268230963342,422.04094118235514 M348.8268230963342,422.04094118235514 L348.8038715232333,416.13757750977385 M348.8038715232333,416.13757750977385 L340.2802892048123,421.0476854741982 M394.51319699108427,421.88075830536684 L386.71172024001925,421.3891914618175 M386.71172024001925,421.3891914618175 L379.02096884206065,420.49248242906185 M379.02096884206065,420.49248242906185 L371.5049052843635,419.1982592572357 M371.5049052843635,419.1982592572357 L364.22594852095693,417.5175231804039 M364.22594852095693,417.5175231804039 L357.24443089264946,415.4645361964649 M357.24443089264946,415.4645361964649 L350.618042665059,413.0566981406693 M350.618042665059,413.0566981406693 L344.4013764463794,410.31436500091445 M344.4013764463794,410.31436500091445 L338.64543126458204,407.2606748120585 M338.64543126458204,407.2606748120585 L333.39718981549237,403.92132853921424 M333.39718981549237,403.92132853921424 L328.6992497265022,400.32434412728117 M328.6992497265022,400.32434412728117 L324.589466005038,396.49981095357737 M324.589466005038,396.49981095357737 L321.10064974087624,392.47962117488817 M321.10064974087624,392.47962117488817 L318.26035174304025,388.29716794953026 M318.26035174304025,388.29716794953026 L316.09063685944614,383.98707612460464 M316.09063685944614,383.98707612460464 L314.6079611961674,379.5848852347646 M314.6079611961674,379.5848852347646 L313.82306538078865,375.1267490924009 M323.3732204525885,401.355978908731 L348.8038715232333,416.13757750977385 M314.8498648355071,406.24413415758573 L323.3732204525885,401.355978908731 M314.8498648355071,406.24413415758573 L310.4307454648615,402.22052275875706 M310.4307454648615,402.22052275875706 L306.58795070852204,398.009301731741 M306.58795070852204,398.009301731741 L303.3450518057569,393.63787601793155 M303.3450518057569,393.63787601793155 L300.72164805860785,389.1345809295332 M300.72164805860785,389.1345809295332 L298.73325775252164,384.52849085453596 M298.73325775252164,384.52849085453596 L297.391233485765,379.8492257855538 M297.391233485765,379.8492257855538 L296.70275925167846,375.1267504877606 M313.82306538078865,375.1267490924009 L296.70275925167846,375.1267504877606 M313.82306538078865,375.1267490924009 L313.86145671378455,381.01175615008253 M296.70275925167846,375.1267504877606 L296.74877680193725,381.0117575460708 M314.8498648355071,406.24413415758573 L314.88797846704944,412.1430903781354 M323.4074939815057,407.25275259036346 L323.3732204525885,401.355978908731" stroke="black"  stroke-width="4"  fill="red"/>
<path d="M314.3461616223238,439.0026300988909 L157.664259577305,529.3021142971236 M157.664259577305,529.3021142971236 L157.27857991361535,508.5221486913051 M163.90289043359047,504.7163323167041 L157.27857991361535,508.5221486913051 M164.01013819224494,510.6585651573683 L163.90289043359047,504.7163323167041 M314.25013800446806,424.2648884769429 L164.01013819224494,510.6585651573683 M314.3461616223238,439.0026300988909 L314.25013800446806,424.2648884769429 M157.664259577305,529.3021142971236 L162.74038602973252,532.354476786713 M162.74038602973252,532.354476786713 L319.4242587741899,441.9735003250612 M319.4242587741899,441.9735003250612 L314.3461616223238,439.0026300988909 M162.74038602973252,532.354476786713 L162.36261300219428,511.56991811964485 M157.27857991361535,508.5221486913051 L162.36261300219428,511.56991811964485 M168.98704594506515,507.7606393544278 L163.90289043359047,504.7163323167041 M162.36261300219428,511.56991811964485 L168.98704594506515,507.7606393544278 M164.01013819224494,510.6585651573683 L169.09203198694942,513.7041891347887 M168.98704594506515,507.7606393544278 L169.09203198694942,513.7041891347887 M319.3338869312638,427.2324793194384 L314.25013800446806,424.2648884769429 M169.09203198694942,513.7041891347887 L319.3338869312638,427.2324793194384 M319.4242587741899,441.9735003250612 L319.3338869312638,427.2324793194384" stroke="black"  stroke-width="4"  fill="red"/>
<path d="M323.4074939815057,407.25275259036346 L323.36464727766304,399.8809609031231 M153.86018829866904,504.575610256244 L153.72047400487136,497.15026894577596 M323.4074939815057,407.25275259036346 L153.86018829866904,504.575610256244 M323.36464727766304,399.8809609031231 L153.72047400487136,497.15026894577596 M179.26968874295756,519.8037490040552 L179.1441118045297,512.3701739772974 M153.86018829866904,504.575610256244 L179.26968874295756,519.8037490040552 M153.72047400487136,497.15026894577596 L179.1441118045297,512.3701739772974 M348.8268230963342,422.04094118235514 L348.7981304132895,414.6609092337867 M179.26968874295756,519.8037490040552 L348.8268230963342,422.04094118235514 M179.1441118045297,512.3701739772974 L348.7981304132895,414.6609092337867 M348.8268230963342,422.04094118235514 L323.4074939815057,407.25275259036346 M348.7981304132895,414.6609092337867 L323.36464727766304,399.8809609031231" stroke="black"  stroke-width="4"  fill="red"/></svg>