<svg viewBox="0 0 800 800" xmlns="http://www.w3.org/2000/svg"><path d="M211.40776867348777,242.85973158442368 L176.8547052736459,222.9722597664691 M176.8547052736459,222.9722597664691 L176.67428914636065,207.56025794961542 M211.24969964331035,227.43405253145187 L176.67428914636065,207.56025794961542 M211.24969964331035,227.43405253145187 L211.40776867348777,242.85973158442368 M87.07372855186503,273.25718564698343 L121.62218952413144,293.319432727085 M87.47342947205988,260.64469644311623 L86.64170551111852,264.83950458341144 M86.64170551111852,264.83950458341144 L86.50784694899937,269.05624883684027 M86.50784694899937,269.05624883684027 L87.07372855186503,273.25718564698343 M121.62218952413144,293.319432727085 L121.59311393842228,290.82935500452544 M121.59311393842228,290.82935500452544 L121.78853982993121,288.3407057514852 M121.78853982993121,288.3407057514852 L122.20780778888985,285.86008002710213 M154.80785451938112,222.9722597664691 L87.47342947205988,260.64469644311623 M198.3926197730246,243.0704758032034 L122.20780778888985,285.86008002710213 M176.8547052736459,222.9722597664691 L169.52649590088203,222.57701772471776 M169.52649590088203,222.57701772471776 L162.15580578043688,222.5770010146702 M162.15580578043688,222.5770010146702 L154.80785451938112,222.9722597664691 M198.3926197730246,243.0704758032034 L202.7255205471197,242.87317806622104 M202.7255205471197,242.87317806622104 L207.06769439266557,242.80287005931714 M207.06769439266557,242.80287005931714 L211.40776867348777,242.85973158442368 M170.5997480747369,230.8003452675564 L171.42590446844218,230.211728333392 M171.42590446844218,230.211728333392 L171.98274441398704,229.52994257680564 M171.98274441398704,229.52994257680564 L172.23792508171698,228.79461898606675 M172.23792508171698,228.79461898606675 L172.17667172704637,228.04851286672073 M172.17667172704637,228.04851286672073 L171.8026181875153,227.33498380172563 M171.8026181875153,227.33498380172563 L171.1375274699692,226.69546628789743 M171.1375274699692,226.69546628789743 L170.22011088883932,226.1671123310129 M170.22011088883932,226.1671123310129 L169.10365960306876,225.78057838969727 M169.10365960306876,225.78057838969727 L167.85305800193066,225.55831530437607 M167.85305800193066,225.55831530437607 L166.54091353613177,225.51320596250105 M166.54091353613177,225.51320596250105 L165.24342819126963,225.6478758456023 M165.24342819126963,225.6478758456023 L164.03596600051654,225.95451030727267 M164.03596600051654,225.95451030727267 L162.98862906915986,226.41530249570084 M162.98862906915986,226.41530249570084 L162.1623135186969,227.00353037842183 M162.1623135186969,227.00353037842183 L161.60501110812777,227.6850174112907 M161.60501110812777,227.6850174112907 L161.34917863811398,228.4201965261886 M161.34917863811398,228.4201965261886 L161.4097283571825,229.16635213935584 M161.4097283571825,229.16635213935584 L161.78319566933936,229.88010882114153 M161.78319566933936,229.88010882114153 L162.44794759097334,230.519982325973 M162.44794759097334,230.519982325973 L163.3653542059582,231.04873697049487 M163.3653542059582,231.04873697049487 L164.48212663822,231.43562451426334 M164.48212663822,231.43562451426334 L165.73330314402597,231.6581152126708 M165.73330314402597,231.6581152126708 L167.04614884285795,231.7032716579152 M167.04614884285795,231.7032716579152 L168.3442930581461,231.56846207764286 M168.3442930581461,231.56846207764286 L169.55223263353633,231.26152649673656 M169.55223263353633,231.26152649673656 L170.5997480747369,230.8003452675564 M101.01921105880513,269.7859980133772 L101.8517489532673,269.1933788633258 M101.8517489532673,269.1933788633258 L102.41462453960253,268.5069564574091 M102.41462453960253,268.5069564574091 L102.67513590180062,267.7666361340681 M102.67513590180062,267.7666361340681 L102.61821138064983,267.01545669617445 M102.61821138064983,267.01545669617445 L102.24722523703065,266.2970772880265 M102.24722523703065,266.2970772880265 L101.58376696166033,265.65321159284076 M101.58376696166033,265.65321159284076 L100.66644921332897,265.1212664505049 M100.66644921332897,265.1212664505049 L99.54855762447528,264.7321065721733 M99.54855762447528,264.7321065721733 L98.2950644471897,264.5083328806693 M98.2950644471897,264.5083328806693 L96.97874067955735,264.46291816003156 M96.97874067955735,264.46291816003156 L95.67603924361993,264.5985009122835 M95.67603924361993,264.5985009122835 L94.46261427364823,264.90722063471014 M94.46261427364823,264.90722063471014 L93.40892241141927,265.3711447284528 M93.40892241141927,265.3711447284528 L92.5762266513666,265.96337085303605 M92.5762266513666,265.96337085303605 L92.01289158112934,266.6494890738908 M92.01289158112934,266.6494890738908 L91.75171626103162,267.38966826559266 M91.75171626103162,267.38966826559266 L91.80793636410021,268.14089529288367 M91.80793636410021,268.14089529288367 L92.17833090661316,268.85950464284815 M92.17833090661316,268.85950464284815 L92.84145021427071,269.50372755537455 M92.84145021427071,269.50372755537455 L93.75875548457509,270.0360774782321 M93.75875548457509,270.0360774782321 L94.87696394333028,270.4255969809286 M94.87696394333028,270.4255969809286 L96.13103454521274,270.64960061050715 M96.13103454521274,270.64960061050715 L97.44805972279795,270.69506532564543 M97.44805972279795,270.69506532564543 L98.75143396623827,270.55933662929135 M98.75143396623827,270.55933662929135 L99.96533710009646,270.2503151217873 M99.96533710009646,270.2503151217873 L101.01921105880513,269.7859980133772 M154.80785451938112,222.9722597664691 L154.61300510191307,207.56025794961542 M176.67428914636065,207.56025794961542 L169.3412886367062,207.16528818506427 M169.3412886367062,207.16528818506427 L161.96577335374644,207.16527148652847 M161.96577335374644,207.16527148652847 L154.61300510191307,207.56025794961542 M86.8334874924787,257.81068843096364 L121.40428648824735,277.8592532698885 M87.233713931679,245.2068242995581 L86.4013561108809,249.3987618006049 M86.4013561108809,249.3987618006049 L86.26732153474018,253.61262242474112 M86.26732153474018,253.61262242474112 L86.8334874924787,257.81068843096364 M121.40428648824735,277.8592532698885 L121.37523876759423,275.3708712602789 M121.37523876759423,275.3708712602789 L121.57084031610071,272.88391745358985 M121.57084031610071,272.88391745358985 L121.99043107003757,270.40498241191335 M154.61300510191307,207.56025794961542 L87.233713931679,245.2068242995581 M198.22601235973727,227.64465205624396 L121.99043107003757,270.40498241191335 M198.22601235973727,227.64465205624396 L202.5617575116715,227.44748978093457 M202.5617575116715,227.44748978093457 L206.90677994036946,227.37723004752823 M206.90677994036946,227.37723004752823 L211.24969964331035,227.43405253145187 M170.41511113740776,215.38295445129245 L171.24181819537242,214.79474248909094 M171.24181819537242,214.79474248909094 L171.79903382676582,214.11342585453755 M171.79903382676582,214.11342585453755 L172.05439340636792,213.37860828344628 M172.05439340636792,213.37860828344628 L171.9931118646316,212.63301566683836 M171.9931118646316,212.63301566683836 L171.6188247650258,211.91997774299125 M171.6188247650258,211.91997774299125 L170.95330873737709,211.28090047549622 M170.95330873737709,211.28090047549622 L170.03529987107373,210.75291027468924 M170.03529987107373,210.75291027468924 L168.91812373098583,210.36664247071866 M168.91812373098583,210.36664247071866 L167.66670681481625,210.14453242626143 M167.66670681481625,210.14453242626143 L166.35370387699822,210.09945414543915 M166.35370387699822,210.09945414543915 L165.05536671913254,210.23403129924816 M165.05536671913254,210.23403129924816 L163.8471088144318,210.54045463013466 M163.8471088144318,210.54045463013466 L162.79907843871462,211.0009295638241 M162.79907843871462,211.0009295638241 L161.9722120217795,211.58875248768814 M161.9722120217795,211.58875248768814 L161.4145333256182,212.26977040780508 M161.4145333256182,212.26977040780508 L161.15852108917005,213.00444350948658 M161.15852108917005,213.00444350948658 L161.21909807385035,213.7500856174663 M161.21909807385035,213.7500856174663 L161.59279817417575,214.46335115043624 M161.59279817417575,214.46335115043624 L162.25797495754483,215.10278439616013 M162.25797495754483,215.10278439616013 L163.17597383810735,215.63117527110649 M163.17597383810735,215.63117527110649 L164.29347153835084,216.01779666640041 M164.29347153835084,216.01779666640041 L165.5454641088312,216.24013431627623 M165.5454641088312,216.24013431627623 L166.8591691964122,216.2852596996632 M166.8591691964122,216.2852596996632 L168.15816609316389,216.15054285182487 M168.15816609316389,216.15054285182487 L169.36690201158095,215.84381841262837 M169.36690201158095,215.84381841262837 L170.41511113740776,215.38295445129245 M100.78820924873594,254.34187276652196 L101.62130625766093,253.7496587086018 M101.62130625766093,253.7496587086018 L102.1845655354183,253.06370556522754 M102.1845655354183,253.06370556522754 L102.4452628997841,252.32389141114365 M102.4452628997841,252.32389141114365 L102.38831596349695,251.57322563091827 M102.38831596349695,251.57322563091827 L102.01710037315894,250.85533751189556 M102.01710037315894,250.85533751189556 L101.35321900718964,250.21191219699048 M101.35321900718964,250.21191219699048 L100.43530916831958,249.6803309210715 M100.43530916831958,249.6803309210715 L99.31669088403714,249.29143726018728 M99.31669088403714,249.29143726018728 L98.06237862463541,249.06781665615824 M98.06237862463541,249.06781665615824 L96.74519090757866,249.02243300521747 M96.74519090757866,249.02243300521747 L95.44163079410288,249.15792300156687 M95.44163079410288,249.15792300156687 L94.22740224818097,249.46643152812894 M94.22740224818097,249.46643152812894 L93.17300854379516,249.93003827077268 M93.17300854379516,249.93003827077268 L92.33975346968259,250.521859313844 M92.33975346968259,250.521859313844 L91.77603410862804,251.2075082811653 M91.77603410862804,251.2075082811653 L91.51467191904419,251.94718130584334 M91.51467191904419,251.94718130584334 L91.57091350866551,252.69789467497026 M91.57091350866551,252.69789467497026 L91.94153671536469,253.41601272959667 M91.94153671536469,253.41601272959667 L92.60507865926957,254.05979525298054 M92.60507865926957,254.05979525298054 L93.5229759954945,254.59178129848442 M93.5229759954945,254.59178129848442 L94.6419115604325,254.9810345732266 M94.6419115604325,254.9810345732266 L95.89680199899465,255.20488510911747 M95.89680199899465,255.20488510911747 L97.21469204865303,255.25031875241774 M97.21469204865303,255.25031875241774 L98.51892585440987,255.11468281748978 M98.51892585440987,255.11468281748978 L99.73363320046764,254.8058725132142 M99.73363320046764,254.8058725132142 L100.78820924873594,254.34187276652196 M198.22601235973727,227.64465205624396 L198.3926197730246,243.0704758032034 M121.40428648824735,277.8592532698885 L121.62218952413144,293.319432727085 M87.07372855186503,273.25718564698343 L86.8334874924787,257.81068843096364 M87.47342947205988,260.64469644311623 L87.233713931679,245.2068242995581 M121.99043107003757,270.40498241191335 L122.20780778888985,285.86008002710213 M170.41511113740776,215.38295445129245 L170.5997480747369,230.8003452675564 M100.78820924873594,254.34187276652196 L101.01921105880513,269.7859980133772" stroke="black"  stroke-width="4"  fill="red"/>
<path d="M124.70942784241254,551.8353568704732 L124.93027631532749,567.4779121489775 M132.28169538654623,302.08755759354375 L119.77017135353935,312.5540461367175 M119.77017135353935,312.5540461367175 L108.27074128233568,323.41550904206866 M108.27074128233568,323.41550904206866 L97.82136276126494,334.6398946389519 M97.82136276126494,334.6398946389519 L88.45707917030086,346.19389458115455 M88.45707917030086,346.19389458115455 L80.20989477212726,358.0430226586718 M80.20989477212726,358.0430226586718 L73.10863647617526,370.15166165479724 M73.10863647617526,370.15166165479724 L67.1788620282224,382.4832179641578 M67.1788620282224,382.4832179641578 L62.442630483941514,395.00016204771083 M62.442630483941514,395.00016204771083 L58.91857256011161,407.66415044772043 M58.91857256011161,407.66415044772043 L56.62160661397286,420.4361764624696 M56.62160661397286,420.4361764624696 L55.562963882671,433.2765669102373 M55.562963882671,433.2765669102373 L55.750083635942985,446.1452296311104 M55.750083635942985,446.1452296311104 L57.18646134353622,459.00171806125826 M57.18646134353622,459.00171806125826 L59.87166729798474,471.80529947999486 M59.87166729798474,471.80529947999486 L63.801307704540704,484.5152167890313 M63.801307704540704,484.5152167890313 L68.96687450409695,497.0907062314164 M68.96687450409695,497.0907062314164 L75.35590103655045,509.49117855560814 M75.35590103655045,509.49117855560814 L82.95176843720486,521.6763799505156 M82.95176843720486,521.6763799505156 L91.73382772331246,533.60647681832 M91.73382772331246,533.60647681832 L101.67738451624041,545.2422649109209 M101.67738451624041,545.2422649109209 L112.75374810861967,556.5452742118305 M112.75374810861967,556.5452742118305 L124.93027631532749,567.4779121489775 M132.07065333812716,286.6214127749384 L132.28169538654623,302.08755759354375 M124.70942784241254,551.8353568704732 L112.52490063591733,540.909827527969 M112.52490063591733,540.909827527969 L101.44130114933972,529.6141819686293 M101.44130114933972,529.6141819686293 L91.49129131544504,517.9859896309658 M91.49129131544504,517.9859896309658 L82.70357861188188,506.063696664772 M82.70357861188188,506.063696664772 L75.10287121383527,493.88648279274497 M75.10287121383527,493.88648279274497 L68.70982893040303,481.49415648031385 M68.70982893040303,481.49415648031385 L63.541078534389214,468.9269459219892 M63.541078534389214,468.9269459219892 L59.60909163551935,456.22541431262044 M59.60909163551935,456.22541431262044 L56.92237845876639,443.43029900933385 M56.92237845876639,443.43029900933385 L55.485332123614455,430.58233048109014 M55.485332123614455,430.58233048109014 L55.29837896545814,417.7222145981705 M55.29837896545814,417.7222145981705 L56.35801752103271,404.89037102603146 M56.35801752103271,404.89037102603146 L58.656799937946516,392.12686502628264 M58.656799937946516,392.12686502628264 L62.18348395210165,379.4713429304241 M62.18348395210165,379.4713429304241 L66.92313785089374,366.9627848110607 M66.92313785089374,366.9627848110607 L72.85711525564153,354.6395077262169 M72.85711525564153,354.6395077262169 L79.96333937044062,342.539015158083 M79.96333937044062,342.539015158083 L88.21623262034637,330.6978750948142 M88.21623262034637,330.6978750948142 L97.58694636121106,319.15167961938886 M97.58694636121106,319.15167961938886 L108.04345278092,307.93489041414847 M108.04345278092,307.93489041414847 L119.550683250845,297.0807919552112 M119.550683250845,297.0807919552112 L132.07065333812716,286.6214127749384 M171.77164820718258,540.5237015107322 L124.93027631532749,567.4779121489775 M171.58281783945415,524.8986969508094 L124.70942784241254,551.8353568704732 M171.58281783945415,524.8986969508094 L171.77164820718258,540.5237015107322 M176.8290994222657,327.9619497854565 L165.91271197947253,337.86887590180817 M165.91271197947253,337.86887590180817 L156.05199915435077,348.15091849863 M156.05199915435077,348.15091849863 L147.28625200765066,358.7710894221743 M147.28625200765066,358.7710894221743 L139.65092413309696,369.69094385090955 M139.65092413309696,369.69094385090955 L133.17760078997514,380.87075309237036 M133.17760078997514,380.87075309237036 L127.89375098156364,392.2695879487051 M127.89375098156364,392.2695879487051 L123.8226334413664,403.8454694647857 M123.8226334413664,403.8454694647857 L120.98312035620933,415.5555290852034 M120.98312035620933,415.5555290852034 L119.38962882811308,427.3561291806783 M119.38962882811308,427.3561291806783 L119.05191144271998,439.20300803412977 M119.05191144271998,439.20300803412977 L119.975064671832,451.0514994519042 M119.975064671832,451.0514994519042 L122.15945450707966,462.85661914525645 M122.15945450707966,462.85661914525645 L125.60055181923406,474.57329524234535 M125.60055181923406,474.57329524234535 L130.28899352523746,486.15653507203007 M130.28899352523746,486.15653507203007 L136.21050902796497,497.5615772478868 M136.21050902796497,497.5615772478868 L143.3459601657329,508.74409385778023 M143.3459601657329,508.74409385778023 L151.67130806230668,519.6603929175362 M151.67130806230668,519.6603929175362 L161.15775063456005,530.2675603260413 M161.15775063456005,530.2675603260413 L171.77164820718258,540.5237015107322 M132.28169538654623,302.08755759354375 L176.8290994222657,327.9619497854565 M176.64701512893026,312.47825250643297 L176.8290994222657,327.9619497854565 M132.07065333812716,286.6214127749384 L176.64701512893026,312.47825250643297 M171.58281783945415,524.8986969508094 L160.9619498685641,514.649255608031 M160.9619498685641,514.649255608031 L151.4693125664456,504.0490299632256 M151.4693125664456,504.0490299632256 L143.1385659631428,493.1398883671684 M143.1385659631428,493.1398883671684 L135.99852894474316,481.9647178560773 M135.99852894474316,481.9647178560773 L130.07325372958644,470.5671826449449 M130.07325372958644,470.5671826449449 L125.3818883114389,458.991582249047 M125.3818883114389,458.991582249047 L121.93870967904013,447.28264914995634 M121.93870967904013,447.28264914995634 L119.7530838896202,435.4853467291952 M119.7530838896202,435.4853467291952 L118.829539728773,423.6447172780087 M118.829539728773,423.6447172780087 L119.16770755422579,411.8057153206582 M119.16770755422579,411.8057153206582 L120.76248409937182,400.0129772556767 M120.76248409937182,400.0129772556767 L123.60410693858279,388.31073503547213 M123.60410693858279,388.31073503547213 L127.67814612981033,376.74259670830673 M127.67814612981033,376.74259670830673 L132.96571383274818,365.35140153923277 M132.96571383274818,365.35140153923277 L139.4435329365499,354.17909957735407 M139.4435329365499,354.17909957735407 L147.08411349531684,343.26659162191356 M147.08411349531684,343.26659162191356 L155.85584684179292,332.65357859371517 M155.85584684179292,332.65357859371517 L165.72325370534554,322.37847824603074 M165.72325370534554,322.37847824603074 L176.64701512893026,312.47825250643297" stroke="black"  stroke-width="4"  fill="red"/>
<path d="M226.4100519204492,233.60624836397375 L226.55826488436765,249.03616596905778 M678.3224145195434,249.0361659690579 L659.9883207106695,242.12432424298322 M659.9883207106695,242.12432424298322 L641.034347938029,235.81074317119794 M641.034347938029,235.81074317119794 L621.5180550899261,230.113269247758 M621.5180550899261,230.113269247758 L601.4983868811684,225.04795102273116 M601.4983868811684,225.04795102273116 L581.0355203084273,220.62901650689366 M581.0355203084273,220.62901650689366 L560.1907748934752,216.86884334878772 M560.1907748934752,216.86884334878772 L539.026346983707,213.77795729969193 M539.026346983707,213.77795729969193 L517.6052492314832,211.36495141073271 M517.6052492314832,211.36495141073271 L495.99112029770095,209.63657366691183 M495.99112029770095,209.63657366691183 L474.2479938652558,208.59761577878163 M474.2479938652558,208.59761577878163 L452.44033970195545,208.25097003295286 M452.44033970195545,208.25097003295286 L430.6326855386551,208.59761577878163 M430.6326855386551,208.59761577878163 L408.88955910620996,209.63657366691183 M408.88955910620996,209.63657366691183 L387.27543017242766,211.36495141073271 M387.27543017242766,211.36495141073271 L365.85433242020395,213.77795729969193 M365.85433242020395,213.77795729969193 L344.6899045104356,216.86884334878764 M344.6899045104356,216.86884334878764 L323.8451590954836,220.62901650689366 M323.8451590954836,220.62901650689366 L303.38229252274255,225.04795102273116 M303.38229252274255,225.04795102273116 L283.36262431398484,230.113269247758 M283.36262431398484,230.113269247758 L263.8463314658819,235.81074317119794 M263.8463314658819,235.81074317119794 L244.89235869324133,242.12432424298322 M244.89235869324133,242.12432424298322 L226.55826488436765,249.03616596905778 M678.4706274834617,233.60624836397375 L678.3224145195434,249.0361659690579 M226.4100519204492,233.60624836397375 L244.7562575498772,226.69915014990443 M244.7562575498772,226.69915014990443 L263.72272748556907,220.38990677013084 M263.72272748556907,220.38990677013084 L283.2518662332496,214.696351147751 M283.2518662332496,214.696351147751 L303.28469185580093,209.63451958096482 M303.28469185580093,209.63451958096482 L323.7609895947168,205.21862918058054 M323.7609895947168,205.21862918058054 L344.61940165907356,201.46104808324552 M344.61940165907356,201.46104808324552 L365.79769306956365,198.37229393132887 M365.79769306956365,198.37229393132887 L387.2328121875265,195.96095313772574 M387.2328121875265,195.96095313772574 L408.861081101868,194.23376846937677 M408.861081101868,194.23376846937677 L430.6184267320755,193.19552792350294 M430.6184267320755,193.19552792350294 L452.44033970195545,192.84912154452957 M452.44033970195545,192.84912154452957 L474.2622526718354,193.19552792350294 M474.2622526718354,193.19552792350294 L496.0195983020428,194.23376846937677 M496.0195983020428,194.23376846937677 L517.6478672163844,195.96095313772574 M517.6478672163844,195.96095313772574 L539.0829863343472,198.37229393132887 M539.0829863343472,198.37229393132887 L560.2612777448373,201.46104808324552 M560.2612777448373,201.46104808324552 L581.1196898091941,205.21862918058054 M581.1196898091941,205.21862918058054 L601.5959875481099,209.63451958096482 M601.5959875481099,209.63451958096482 L621.6288131706613,214.696351147751 M621.6288131706613,214.696351147751 L641.1579519183418,220.38990677013084 M641.1579519183418,220.38990677013084 L660.1244218540337,226.6991501499045 M660.1244218540337,226.6991501499045 L678.4706274834617,233.60624836397375 M271.1108220281543,274.6733102546396 L226.55826488436765,249.03616596905778 M270.9915770055875,259.22584575162 L226.4100519204492,233.60624836397375 M270.9915770055875,259.22584575162 L271.1108220281543,274.6733102546396 M633.7698573757566,274.6733102546396 L616.4856681489011,268.6187670973674 M616.4856681489011,268.6187670973674 L598.6079153873402,263.1833291857537 M598.6079153873402,263.1833291857537 L580.2020167325186,258.38578663320106 M580.2020167325186,258.38578663320106 L561.3350810246103,254.24263610774133 M561.3350810246103,254.24263610774133 L542.0755997872817,250.76811957472415 M542.0755997872817,250.76811957472415 L522.4933033554206,247.97413952220896 M522.4933033554206,247.97413952220896 L502.6589133182422,245.87026174995944 M502.6589133182422,245.87026174995944 L482.6438904102141,244.463670951241 M482.6438904102141,244.463670951241 L462.52026190655977,243.7591843788404 M462.52026190655977,243.7591843788404 L442.3604174973511,243.7591843788404 M442.3604174973511,243.7591843788404 L422.23678899369673,244.463670951241 M422.23678899369673,244.463670951241 L402.2217660856687,245.87026174995944 M402.2217660856687,245.87026174995944 L382.38737604849024,247.97413952220896 M382.38737604849024,247.97413952220896 L362.80507961662914,250.76811957472415 M362.80507961662914,250.76811957472415 L343.54559837930066,254.24263610774133 M343.54559837930066,254.24263610774133 L324.67866267139226,258.38578663320106 M324.67866267139226,258.38578663320106 L306.2727640165707,263.1833291857537 M306.2727640165707,263.1833291857537 L288.3950112550097,268.6187670973674 M288.3950112550097,268.6187670973674 L271.1108220281543,274.6733102546396 M678.3224145195434,249.0361659690579 L633.7698573757566,274.6733102546396 M633.8891023983234,259.2258457516201 L633.7698573757566,274.6733102546396 M678.4706274834617,233.60624836397375 L633.8891023983234,259.2258457516201 M270.9915770055875,259.22584575162 L288.28718925888415,253.17543976383104 M288.28718925888415,253.17543976383104 L306.1767378639825,247.74371953627715 M306.1767378639825,247.74371953627715 L324.5947634263245,242.94946116360228 M324.5947634263245,242.94946116360228 L343.47411452613227,238.80914896213332 M343.47411452613227,238.80914896213332 L362.74625640612527,235.33701420440192 M362.74625640612527,235.33701420440192 L382.34141490567004,232.54495041873815 M382.34141490567004,232.54495041873815 L402.1888241440545,230.44251619011922 M402.1888241440545,230.44251619011922 L422.2169787566833,229.03689078363607 M422.2169787566833,229.03689078363607 L442.3538065723816,228.33288780965893 M442.3538065723816,228.33288780965893 L462.52687283152926,228.33288780965893 M462.52687283152926,228.33288780965893 L482.66370064722753,229.03689078363607 M482.66370064722753,229.03689078363607 L502.6918552598565,230.44251619011922 M502.6918552598565,230.44251619011922 L522.539264498241,232.54495041873815 M522.539264498241,232.54495041873815 L542.1344229977856,235.337014204402 M542.1344229977856,235.337014204402 L561.4065648777786,238.80914896213332 M561.4065648777786,238.80914896213332 L580.2859159775863,242.94946116360228 M580.2859159775863,242.94946116360228 L598.7039415399285,247.74371953627715 M598.7039415399285,247.74371953627715 L616.5934901450267,253.17543976383112 M616.5934901450267,253.17543976383112 L633.8891023983234,259.2258457516201" stroke="black"  stroke-width="4"  fill="red"/>
<path d="M248.3437701184809,551.2687852398286 L210.31980171957758,528.8380700587823 M192.07909670589896,528.838065026313 L198.1596788853949,528.5880899667773 M198.1596788853949,528.5880899667773 L204.2498697123849,528.5880849345215 M204.2498697123849,528.5880849345215 L210.31980171957758,528.8380700587823 M192.07909670589896,528.838065026313 L113.96963968117916,573.7850568083651 M113.66285483990151,584.507538505173 L113.33428680869008,580.9341812845596 M113.33428680869008,580.9341812845596 L113.43684225196137,577.3541033059861 M113.43684225196137,577.3541033059861 L113.96963968117916,573.7850568083651 M113.66285483990151,584.507538505173 L151.68194200878662,607.1508784554704 M248.3437701184809,551.2687852398286 L151.68194200878662,607.1508784554704 M134.85585415458002,576.15095665694 L133.80173834643944,575.661657025496 M133.80173834643944,575.661657025496 L132.57418873503116,575.3360698262803 M132.57418873503116,575.3360698262803 L131.24452398269426,575.1930718581953 M131.24452398269426,575.1930718581953 L129.88995829956707,575.2409707836918 M129.88995829956707,575.2409707836918 L128.589155691117,575.4769788936031 M128.589155691117,575.4769788936031 L127.41763544593448,575.8874172356192 M127.41763544593448,575.8874172356192 L126.44348074931304,576.4484475234561 M126.44348074931304,576.4484475234561 L125.72327665694377,577.1275184411934 M125.72327665694377,577.1275184411934 L125.29893932439518,577.8851811566583 M125.29893932439518,577.8851811566583 L125.19515454154583,578.6774389706205 M125.19515454154583,578.6774389706205 L125.41803197227,579.4582503523026 M125.41803197227,579.4582503523026 L125.95466120807708,580.1822248747113 M125.95466120807708,580.1822248747113 L126.77392812866378,580.8072484947955 M126.77392812866378,580.8072484947955 L127.82821163121389,581.2969738270691 M127.82821163121389,581.2969738270691 L129.05625119828017,581.6228904647808 M129.05625119828017,581.6228904647808 L130.38660786346975,581.7660413678103 M130.38660786346975,581.7660413678103 L131.74192073616638,581.7180908628192 M131.74192073616638,581.7180908628192 L133.04334659180512,581.4818336970463 M133.04334659180512,581.4818336970463 L134.21522763823356,581.0710084020544 M134.21522763823356,581.0710084020544 L135.18939425032806,580.5095396789497 M135.18939425032806,580.5095396789497 L135.90925864304813,579.8300792719732 M135.90925864304813,579.8300792719732 L136.33298626588635,579.0721674965954 M136.33298626588635,579.0721674965954 L136.43602673179277,578.2798555647933 M136.43602673179277,578.2798555647933 L136.21244893762548,577.4992021923015 M136.21244893762548,577.4992021923015 L135.675311908349,576.7755545800071 M135.675311908349,576.7755545800071 L134.85585415458002,576.15095665694 M206.16202173286143,535.0688773334208 L205.10862723661765,534.582969552343 M205.10862723661765,534.582969552343 L203.8833840769159,534.2596392631233 M203.8833840769159,534.2596392631233 L202.5574768237943,534.1176325108679 M202.5574768237943,534.1176325108679 L201.20790171613885,534.1651994177771 M201.20790171613885,534.1651994177771 L199.91303312430205,534.399571582545 M199.91303312430205,534.399571582545 L198.7480461523857,534.8071647983451 M198.7480461523857,534.8071647983451 L197.7806444950777,535.3643059096447 M197.7806444950777,535.3643059096447 L197.0670211732605,536.0386691236818 M197.0670211732605,536.0386691236818 L196.64870967948087,536.7910789754251 M196.64870967948087,536.7910789754251 L196.55004555252813,537.5778437205475 M196.55004555252813,537.5778437205475 L196.7768403813204,538.3532410385553 M196.7768403813204,538.3532410385553 L197.315955661694,539.0721952805925 M197.315955661694,539.0721952805925 L198.1361321553978,539.6928845330953 M198.1361321553978,539.6928845330953 L199.18969573155974,540.1792135952579 M199.18969573155974,540.1792135952579 L200.4154274292001,540.5028699070269 M200.4154274292001,540.5028699070269 L201.7420226984049,540.6450279976623 M201.7420226984049,540.6450279976623 L203.0923395136085,540.5974100511468 M203.0923395136085,540.5974100511468 L204.3878255404804,540.3627914162848 M204.3878255404804,540.3627914162848 L205.5531685031345,539.954815269338 M205.5531685031345,539.954815269338 L206.52057936884532,539.3972402747278 M206.52057936884532,539.3972402747278 L207.23386300746427,538.7224916108614 M207.23386300746427,538.7224916108614 L207.65156752812538,537.9698352850144 M207.65156752812538,537.9698352850144 L207.74949216753896,537.1830169795429 M207.74949216753896,537.1830169795429 L207.52200279196302,536.4077760389811 M207.52200279196302,536.4077760389811 L206.98238518839236,535.6891453086112 M206.98238518839236,535.6891453086112 L206.16202173286143,535.0688773334208 M210.15706754029387,513.2207001098475 L210.31980171957758,528.8380700587823 M248.2063313510846,535.6367742972221 L210.15706754029387,513.2207001098475 M248.3437701184809,551.2687852398286 L248.2063313510846,535.6367742972221 M191.90410257474744,513.2206950806694 L197.9887752659379,512.9708835081938 M197.9887752659379,512.9708835081938 L204.08305934827135,512.9708784792293 M204.08305934827135,512.9708784792293 L210.15706754029387,513.2207001098475 M191.90410257474744,513.2206950806694 L192.07909670589896,528.838065026313 M113.74127833197304,558.138406710252 L113.96963968117916,573.7850568083651 M191.90410257474744,513.2206950806694 L113.74127833197304,558.138406710252 M113.43407919061906,568.8539374033121 L113.1053584352569,565.2828952071084 M113.1053584352569,565.2828952071084 L113.20805237923184,561.7051380667125 M113.20805237923184,561.7051380667125 L113.74127833197304,558.138406710252 M113.43407919061906,568.8539374033121 L113.66285483990151,584.507538505173 M151.47845188856127,591.4826415430517 L151.68194200878662,607.1508784554704 M113.43407919061906,568.8539374033121 L151.47845188856127,591.4826415430517 M151.47845188856127,591.4826415430517 L174.0147088192992,578.4713275375636 M174.09309220683969,584.9988278071147 L174.0147088192992,578.4713275375636 M225.89664354437076,555.0734221148468 L174.09309220683969,584.9988278071147 M225.8330094621378,548.5540177124717 L225.89664354437076,555.0734221148468 M225.8330094621378,548.5540177124717 L248.2063313510846,535.6367742972221 M134.6415415536202,560.5027717031799 L133.58672330436508,560.0137894480112 M133.58672330436508,560.0137894480112 L132.35835129502772,559.6884134507774 M132.35835129502772,559.6884134507774 L131.02779194050765,559.5455082464674 M131.02779194050765,559.5455082464674 L129.67231136064703,559.5933760993386 M129.67231136064703,559.5933760993386 L128.37062664905017,559.8292311116895 M128.37062664905017,559.8292311116895 L127.19830826923157,560.2394032190421 M127.19830826923157,560.2394032190421 L126.22348576929573,560.8000696204078 M126.22348576929573,560.8000696204078 L125.50278299376964,561.4787001380508 M125.50278299376964,561.4787001380508 L125.07814513986273,562.2358715460688 M125.07814513986273,562.2358715460688 L124.9742755139377,563.0276156893325 M124.9742755139377,563.0276156893325 L125.19728880614662,563.807920891767 M125.19728880614662,563.807920891767 L125.73426678178907,564.5314261428462 M125.73426678178907,564.5314261428462 L126.55407513218665,565.1560446784085 M126.55407513218665,565.1560446784085 L127.60906129448017,565.6454526455498 M127.60906129448017,565.6454526455498 L128.83792391360151,565.9711580890469 M128.83792391360151,565.9711580890469 L130.16917611538003,566.1142162340159 M130.16917611538003,566.1142162340159 L131.52540489329368,566.0662967994442 M131.52540489329368,566.0662967994442 L132.82771369826384,565.8301927247126 M132.82771369826384,565.8301927247126 L134.00039337220784,565.4196336533998 M134.00039337220784,565.4196336533998 L134.97522781176013,564.85852880529 M134.97522781176013,564.85852880529 L135.69559043751428,564.1795087890686 M135.69559043751428,564.1795087890686 L136.11961776295618,563.4220883146183 M136.11961776295618,563.4220883146183 L136.22274206927534,562.630290052954 M136.22274206927534,562.630290052954 L135.99902746209472,561.8501428621339 M135.99902746209472,561.8501428621339 L135.46154100271332,561.1269645305822 M135.46154100271332,561.1269645305822 L134.6415415536202,560.5027717031799 M134.6415415536202,560.5027717031799 L134.85585415458002,576.15095665694 M205.99640544685573,519.4474346540449 L204.94230942689882,518.961844324619 M204.94230942689882,518.961844324619 L203.71624694105668,518.6387252873792 M203.71624694105668,518.6387252873792 L202.389450133415,518.4968113208181 M202.389450133415,518.4968113208181 L201.03896685997535,518.5443471477626 M201.03896685997535,518.5443471477626 L199.74322418890227,518.7785661787675 M199.74322418890227,518.7785661787675 L198.5774479341563,519.185893096786 M198.5774479341563,519.185893096786 L197.60938763935192,519.7426702350125 M197.60938763935192,519.7426702350125 L196.89527458226343,520.4165929436292 M196.89527458226343,520.4165929436292 L196.4766707767769,521.168511369759 M196.4766707767769,521.168511369759 L196.37792880082927,521.9547623198871 M196.37792880082927,521.9547623198871 L196.60486486221998,522.7296533354131 M196.60486486221998,522.7296533354131 L197.14433231750743,523.4481381912055 M197.14433231750743,523.4481381912055 L197.96505153924875,524.0684222594736 M197.96505153924875,524.0684222594736 L199.0193168606274,524.5544338780492 M199.0193168606274,524.5544338780492 L200.24586853572208,524.8778789432324 M200.24586853572208,524.8778789432324 L201.57335428599717,525.0199442527646 M201.57335428599717,525.0199442527646 L202.9245802643712,524.9723573843897 M202.9245802643712,524.9723573843897 L204.22094120486545,524.7378918785724 M204.22094120486545,524.7378918785724 L205.38707393343236,524.3301820212297 M205.38707393343236,524.3301820212297 L206.35514345523308,523.7729709913865 M206.35514345523308,523.7729709913865 L207.06891637896777,523.0986628264088 M207.06891637896777,523.0986628264088 L207.48691239807442,522.3464979214568 M207.48691239807442,522.3464979214568 L207.58491389357926,521.5601934108014 M207.58491389357926,521.5601934108014 L207.35728234566807,520.7854587740209 M207.35728234566807,520.7854587740209 L206.81731188803474,520.0672974369359 M206.81731188803474,520.0672974369359 L205.99640544685573,519.4474346540449 M205.99640544685573,519.4474346540449 L206.16202173286143,535.0688773334208 M174.0147088192992,578.4713275375636 L169.8148476414828,575.4611384077349 M169.8148476414828,575.4611384077349 L166.6444637231707,572.0447475586052 M166.6444637231707,572.0447475586052 L164.61085068978593,568.3391044415465 M164.61085068978593,568.3391044415465 L163.78229685219486,564.4708190842376 M163.78229685219486,564.4708190842376 L164.18585899717948,560.5718083189261 M164.18585899717948,560.5718083189261 L165.80659767239527,556.7747811161968 M165.80659767239527,556.7747811161968 L168.58826383731744,553.2087222356794 M168.58826383731744,553.2087222356794 L172.43531257026686,549.99456253275 M172.43531257026686,549.99456253275 L177.21633058622484,547.2410947988784 M177.21633058622484,547.2410947988784 L182.7685306653006,545.0413802627917 M182.7685306653006,545.0413802627917 L188.9033003108531,543.4696692502007 M188.9033003108531,543.4696692502007 L195.4125241688773,542.5789812400967 M195.4125241688773,542.5789812400967 L202.0756237828903,542.3993301366444 M202.0756237828903,542.3993301366444 L208.66688929103654,542.9367702101686 M208.66688929103654,542.9367702101686 L214.9630165748228,544.1731889829648 M214.9630165748228,544.1731889829648 L220.7505521895373,546.0668986189474 M220.7505521895373,546.0668986189474 L225.8330094621378,548.5540177124717 M174.09309220683969,584.9988278071147 L169.89439315631068,581.9878260229518 M169.89439315631068,581.9878260229518 L166.72487832832195,578.5705123356357 M166.72487832832195,578.5705123356357 L164.6918121283521,574.8638676193431 M164.6918121283521,574.8638676193431 L163.86346479317947,570.9945360050315 M163.86346479317947,570.9945360050315 L164.2668867313614,567.0944699517676 M164.2668867313614,567.0944699517676 L165.88714393688633,563.296414368132 M165.88714393688633,563.296414368132 L168.6680043593668,559.7293890370103 M168.6680043593668,559.7293890370103 L172.51395096511794,556.5143577343912 M172.51395096511794,556.5143577343912 L177.29360822694025,553.7601429379686 M177.29360822694025,553.7601429379686 L182.8442352467762,551.559831322713 M182.8442352467762,551.559831322713 L188.97727283655428,549.987693551942 M188.97727283655428,549.987693551942 L195.48466416829078,549.0967636459574 M195.48466416829078,549.0967636459574 L202.14589258039172,548.917063747712 M202.14589258039172,548.917063747712 L208.73531126193174,549.4546497900319 M208.73531126193174,549.4546497900319 L215.02967834098735,550.6914043221434 M215.02967834098735,550.6914043221434 L220.8155997830907,552.5856280689356 M220.8155997830907,552.5856280689356 L225.89664354437076,555.0734221148468" stroke="black"  stroke-width="4"  fill="red"/>
<path d="M744.5097226226361,264.4255447333497 L706.4880596308863,243.0704758032035 M688.6896754953799,243.0704710118409 L694.6125499727915,242.83246260877303 M694.6125499727915,242.83246260877303 L700.5550452203407,242.8324673999373 M700.5550452203407,242.8324673999373 L706.4880596308863,243.0704758032035 M688.6896754953799,243.0704710118409 L614.3293374391645,285.8600848541903 M614.4725091819222,296.06673678248524 L614.0044817759934,292.6653342034977 M614.0044817759934,292.6653342034977 L613.9568140280742,289.2574744622081 M613.9568140280742,289.2574744622081 L614.3293374391645,285.8600848541903 M614.4725091819222,296.06673678248524 L652.4980589638573,317.6192869380919 M744.5097226226361,264.4255447333497 L652.4980589638573,317.6192869380919 M624.9124558629846,293.8115059734205 L625.9612858511339,294.2777705757952 M625.9612858511339,294.2777705757952 L627.1729306126973,294.5880733671324 M627.1729306126973,294.5880733671324 L628.4769060393521,294.72436613949105 M628.4769060393521,294.72436613949105 L629.797386277202,294.67871287535877 M629.797386277202,294.67871287535877 L631.0575561570403,294.45377432521224 M631.0575561570403,294.45377432521224 L632.1841576809086,294.0626303427366 M632.1841576809086,294.0626303427366 L633.1116569653962,293.52805870737546 M633.1116569653962,293.52805870737546 L633.7861785576129,292.8811461203292 M633.7861785576129,292.8811461203292 L634.1685244730852,292.1595380531719 M634.1685244730852,292.1595380531719 L634.2365463726134,291.40517518952385 M634.2365463726134,291.40517518952385 L633.9863459219729,290.66191008465137 M633.9863459219729,290.66191008465137 L633.4325254755919,289.97291840819037 M633.4325254755919,289.97291840819037 L632.607291109552,289.3782312271112 M632.607291109552,289.3782312271112 L631.5586378380051,288.9123621107941 M631.5586378380051,288.9123621107941 L630.3474728146555,288.6023654048311 M630.3474728146555,288.6023654048311 L629.0441621843977,288.4662146540566 M629.0441621843977,288.4662146540566 L627.7243913342188,288.511820028912 M627.7243913342188,288.511820028912 L626.4648048731491,288.73652720032067 M626.4648048731491,288.73652720032067 L625.3385314195875,289.12731172368734 M625.3385314195875,289.12731172368734 L624.4110259156573,289.66147604239876 M624.4110259156573,289.66147604239876 L623.736165238895,290.30802675552013 M623.736165238895,290.30802675552013 L623.3532288386581,291.0294034401744 M623.3532288386581,291.0294034401744 L623.2844960521406,291.7837159977961 M623.2844960521406,291.7837159977961 L623.5340361173154,292.5271279554803 M623.5340361173154,292.5271279554803 L624.0873861361002,293.2164233098248 M624.0873861361002,293.2164233098248 L624.9124558629846,293.8115059734205 M692.8617805250223,254.6634260730272 L693.909789156981,255.12653511225594 M693.909789156981,255.12653511225594 L695.1191460138195,255.43473778104826 M695.1191460138195,255.43473778104826 L696.4195002347004,255.57010810914466 M696.4195002347004,255.57010810914466 L697.7352366692221,255.52476383246062 M697.7352366692221,255.52476383246062 L698.9898163389893,255.3013476790139 M698.9898163389893,255.3013476790139 L700.1103064122392,254.91285091066553 M700.1103064122392,254.91285091066553 L701.031528746484,254.38189704581094 M701.031528746484,254.38189704581094 L701.6999727001329,253.73936228584137 M701.6999727001329,253.73936228584137 L702.0767936802912,253.02263724179943 M702.0767936802912,253.02263724179943 L702.1401640413541,252.27337872394395 M702.1401640413541,252.27337872394395 L701.8864554577088,251.53514254815326 M701.8864554577088,251.53514254815326 L701.3304736449979,250.8508122993006 M701.3304736449979,250.8508122993006 L700.5045500253307,250.2601482987961 M700.5045500253307,250.2601482987961 L699.4567192248089,249.79743073844259 M699.4567192248089,249.79743073844259 L698.2478406555991,249.48953105774223 M698.2478406555991,249.48953105774223 L696.9481475481632,249.35430130409293 M696.9481475481632,249.35430130409293 L695.6331154288112,249.39959818079436 M695.6331154288112,249.39959818079436 L694.3791138784234,249.62278529990175 M694.3791138784234,249.62278529990175 L693.2589475628051,250.01092625535392 M693.2589475628051,250.01092625535392 L692.337716671526,250.5414769306122 M692.337716671526,250.5414769306122 L691.6689338062739,251.18365347920513 M691.6689338062739,251.18365347920513 L691.2915249849513,251.90014948518026 M691.2915249849513,251.90014948518026 L691.2274482458567,252.64935820265902 M691.2274482458567,252.64935820265902 L691.480501784839,253.3877397514372 M691.480501784839,253.3877397514372 L692.0360181199729,254.07237059715266 M692.0360181199729,254.07237059715266 L692.8617805250223,254.6634260730272 M706.6546670441737,227.64465205624396 L706.4880596308863,243.0704758032035 M744.7016210345419,248.9850851470968 L706.6546670441737,227.64465205624396 M744.5097226226361,264.4255447333497 L744.7016210345419,248.9850851470968 M688.8446105238147,227.64464726817107 L694.7713660008917,227.4068022786625 M694.7713660008917,227.4068022786625 L700.7177583244415,227.4068070665371 M700.7177583244415,227.4068070665371 L706.6546670441737,227.64465205624396 M688.8446105238147,227.64464726817107 L688.6896754953799,243.0704710118409 M614.4359014380451,270.4049872357109 L614.3293374391645,285.8600848541903 M688.8446105238147,227.64464726817107 L614.4359014380451,270.4049872357109 M614.5792618073165,280.60468726437045 L614.1108946853903,277.20560011107625 M614.1108946853903,277.20560011107625 L614.0631641285446,273.80006151358754 M614.0631641285446,273.80006151358754 L614.4359014380451,270.4049872357109 M614.5792618073165,280.60468726437045 L614.4725091819222,296.06673678248524 M652.6301102637001,302.14259667533787 L652.4980589638573,317.6192869380919 M614.5792618073165,280.60468726437045 L652.6301102637001,302.14259667533787 M652.6301102637001,302.14259667533787 L674.0796035242514,289.7587259673775 M674.0187286680833,296.20632032839893 L674.0796035242514,289.7587259673775 M723.3292018152739,267.7210934335725 L674.0187286680833,296.20632032839893 M723.4034403151268,261.2815955187004 L723.3292018152739,267.7210934335725 M723.4034403151268,261.2815955187004 L744.7016210345419,248.9850851470968 M625.0260645026955,278.35099150390255 L626.0755899801711,278.8169386904122 M626.0755899801711,278.8169386904122 L627.2880359875637,279.1270302527072 M627.2880359875637,279.1270302527072 L628.5928717793855,279.26323025143927 M628.5928717793855,279.26323025143927 L629.9142214338893,279.21760806295873 M629.9142214338893,279.21760806295873 L631.1752191662123,278.99282262936515 M631.1752191662123,278.99282262936515 L632.3025588196389,278.60194491386585 M632.3025588196389,278.60194491386585 L633.2306635560037,278.06773721048694 M633.2306635560037,278.06773721048694 L633.9056227543978,277.42126507978213 M633.9056227543978,277.42126507978213 L634.2882130196068,276.70014838234954 M634.2882130196068,276.70014838234954 L634.3562718926026,275.94629925584127 M634.3562718926026,275.94629925584127 L634.105898966577,275.20354039374104 M634.105898966577,275.20354039374104 L633.5517066973936,274.5150180503039 M633.5517066973936,274.5150180503039 L632.7259228095653,273.9207360066443 M632.7259228095653,273.9207360066443 L631.6765742855151,273.4551842971316 M631.6765742855151,273.4551842971316 L630.4646086501131,273.14539881240336 M630.4646086501131,273.14539881240336 L629.1604385348631,273.0093408335915 M629.1604385348631,273.0093408335915 L627.839799200828,273.05491513309727 M627.839799200828,273.05491513309727 L626.5793856536535,273.2794691932541 M626.5793856536535,273.2794691932541 L625.4523744977721,273.66998745708474 M625.4523744977721,273.66998745708474 L624.5242635296684,274.2037878531456 M624.5242635296684,274.2037878531456 L623.8489647977148,274.84989811901113 M623.8489647977148,274.84989811901113 L623.4657832673914,275.5707834392418 M623.4657832673914,275.5707834392418 L623.3970125716444,276.3245822616712 M623.3970125716444,276.3245822616712 L623.6467242407504,277.0674879716288 M623.6467242407504,277.0674879716288 L624.2004454669683,277.756313986787 M624.2004454669683,277.756313986787 L625.0260645026955,278.35099150390255 M625.0260645026955,278.35099150390255 L624.9124558629846,293.8115059734205 M693.0196107331723,239.2296505700185 L694.0683137365615,239.69244227491694 M694.0683137365615,239.69244227491694 L695.2784688041195,240.00043376879205 M695.2784688041195,240.00043376879205 L696.5796786146889,240.13571134700024 M696.5796786146889,240.13571134700024 L697.8962782280917,240.09039813801883 M697.8962782280917,240.09039813801883 L699.151678413734,239.86713506192388 M699.151678413734,239.86713506192388 L700.2728986081423,239.47890449224838 M700.2728986081423,239.47890449224838 L701.1947181804759,238.94831446574463 M701.1947181804759,238.94831446574463 L701.8635917986318,238.30622004837318 M701.8635917986318,238.30622004837318 L702.2406499207389,237.58998624661712 M702.2406499207389,237.58998624661712 L702.3040511995838,236.84124133204395 M702.3040511995838,236.84124133204395 L702.0501655882262,236.10351126650357 M702.0501655882262,236.10351126650357 L701.4938091673278,235.41965022726814 M701.4938091673278,235.41965022726814 L700.6673351686811,234.82939125723334 M700.6673351686811,234.82939125723334 L699.6188102357044,234.3669910196199 M699.6188102357044,234.3669910196199 L698.4091340866518,234.0593025040797 M698.4091340866518,234.0593025040797 L697.1085862624155,233.92416549773074 M697.1085862624155,233.92416549773074 L695.7926918869744,233.96943130734593 M695.7926918869744,233.96943130734593 L694.5378705766605,234.1924653558822 M694.5378705766605,234.1924653558822 L693.416974558654,234.58034012240861 M693.416974558654,234.58034012240861 L692.4951464124258,235.11052697125294 M692.4951464124258,235.11052697125294 L691.8259334340381,235.7522631886397 M691.8259334340381,235.7522631886397 L691.4482866956627,236.46826795910994 M691.4482866956627,236.46826795910994 L691.3841781119294,237.21696307556758 M691.3841781119294,237.21696307556758 L691.6374078176937,237.95483850821768 M691.6374078176937,237.95483850821768 L692.1932981553784,238.63900013620338 M692.1932981553784,238.63900013620338 L693.0196107331723,239.2296505700185 M693.0196107331723,239.2296505700185 L692.8617805250223,254.6634260730272 M674.0796035242514,289.7587259673775 L669.8580829478992,286.8936022604556 M669.8580829478992,286.8936022604556 L666.6241322942675,283.6418092091774 M666.6241322942675,283.6418092091774 L664.4872661993412,280.11464794680273 M664.4872661993412,280.11464794680273 L663.5193526241318,276.4326205977129 M663.5193526241318,276.4326205977129 L663.7522574881422,272.7212878416947 M663.7522574881422,272.7212878416947 L665.1769077218669,269.10697234845077 M665.1769077218669,269.10697234845077 L667.7437700895531,265.7124595301771 M667.7437700895531,265.7124595301771 L671.3646329493306,262.652874933818 M671.3646329493306,262.652874933818 L675.9157786284295,260.0317944991237 M675.9157786284295,260.0317944991237 L681.2422185204333,257.9378213110407 M681.2422185204333,257.9378213110407 L687.1629797363089,256.4416515784237 M687.1629797363089,256.4416515784237 L693.4771756493506,255.59376847751605 M693.4771756493506,255.59376847751605 L699.970804454572,255.42275071476004 M699.970804454572,255.42275071476004 L706.4238674775371,255.93436310915223 M706.4238674775371,255.93436310915223 L712.6177192110762,257.11135918118543 M712.6177192110762,257.11135918118543 L718.3423601113531,258.9140448640511 M718.3423601113531,258.9140448640511 L723.4034403151268,261.2815955187004 M674.0187286680833,296.20632032839893 L669.7983823782102,293.34038377293564 M669.7983823782102,293.34038377293564 L666.5653362966078,290.0876676999565 M666.5653362966078,290.0876676999565 L664.4290745842833,286.5595046836268 M664.4290745842833,286.5595046836268 L663.4614451153512,282.8764309652061 M663.4614451153512,282.8764309652061 L663.6943047354979,279.1640428588241 M663.6943047354979,279.1640428588241 L665.1185825420595,275.5486989728902 M665.1185825420595,275.5486989728902 L667.6847585442193,272.15321973694324 M667.6847585442193,272.15321973694324 L671.3046449079469,269.0927636070718 M671.3046449079469,269.0927636070718 L675.8545574457423,266.4709361940228 M675.8545574457423,266.4709361940228 L681.1795495517824,264.37636601226365 M681.1795495517824,264.37636601226365 L687.0986974197367,262.8797695924658 M687.0986974197367,262.8797695924658 L693.4111689559429,262.03164463958 M693.4111689559429,262.03164463958 L699.9030205211952,261.86057809120746 M699.9030205211952,261.86057809120746 L706.3543133420842,262.3723364272643 M706.3543133420842,262.3723364272643 L712.5464615882719,263.54966819986305 M712.5464615882719,263.54966819986305 L718.2695232187369,265.3528679134695 M718.2695232187369,265.3528679134695 L723.3292018152739,267.7210934335725" stroke="black"  stroke-width="4"  fill="red"/>
<path d="M290.55134196474637,285.8600848541902 L290.9238653758368,289.2574744622081 M290.9238653758368,289.2574744622081 L290.87619762791746,292.6653342034977 M290.87619762791746,292.6653342034977 L290.4081702219887,296.06673678248524 M290.30141759659443,280.60468726437045 L290.4081702219887,296.06673678248524 M290.4447779658658,270.4049872357108 L290.8175152753663,273.80006151358754 M290.8175152753663,273.80006151358754 L290.76978471852044,277.20560011107625 M290.76978471852044,277.20560011107625 L290.30141759659443,280.60468726437045 M290.4447779658658,270.4049872357108 L290.55134196474637,285.8600848541902 M290.55134196474637,285.8600848541902 L216.19100390853092,243.07047101184082 M198.3926197730246,243.0704758032034 L204.32563418357012,242.8324673999372 M204.32563418357012,242.8324673999372 L210.26812943111935,242.83246260877303 M210.26812943111935,242.83246260877303 L216.19100390853092,243.07047101184082 M214.21491560644716,339.2524093378497 L290.4081702219887,296.06673678248524 M198.3926197730246,243.0704758032034 L122.20780778888985,285.86008002710213 M214.21491560644716,339.2524093378497 L208.23235631075795,339.4944260744416 M208.23235631075795,339.4944260744416 L202.23988944536902,339.4944212023862 M202.23988944536902,339.4944212023862 L196.26765769746171,339.2524142097018 M121.91576482778095,296.06673194685584 L121.59276875191347,292.66532453793354 M121.59276875191347,292.66532453793354 L121.69040724324452,289.2574744622081 M121.69040724324452,289.2574744622081 L122.20780778888985,285.86008002710213 M121.91576482778095,296.06673194685584 L196.26765769746171,339.2524142097018 M142.43418878872296,293.8115059734204 L143.26634481315648,293.2164233098247 M143.26634481315648,293.2164233098247 L143.82790517021147,292.5271267473137 M143.82790517021147,292.5271267473137 L144.08629355643654,291.78371720580714 M144.08629355643654,291.78371720580714 L144.0265453386922,291.02940344017435 M144.0265453386922,291.02940344017435 L143.652199156496,290.30802675552013 M143.652199156496,290.30802675552013 L142.98503981055052,289.6614748348316 M142.98503981055052,289.6614748348316 L142.0638951830706,289.12731051623206 M142.0638951830706,289.12731051623206 L140.94227307941281,288.73652720032055 M140.94227307941281,288.73652720032055 L139.68536245142565,288.5118200289119 M139.68536245142565,288.5118200289119 L138.36613252673266,288.4662158613737 M138.36613252673266,288.4662158613737 L137.06120489611533,288.6023641974856 M137.06120489611533,288.6023641974856 L135.84634625672606,288.912362110794 M135.84634625672606,288.912362110794 L134.79214537410058,289.3782312271112 M134.79214537410058,289.3782312271112 L133.95982941995254,289.97291840819037 M133.95982941995254,289.97291840819037 L133.3978065474255,290.661908876875 M133.3978065474255,290.661908876875 L133.13875093266967,291.40517639745565 M133.13875093266967,291.40517639745565 L133.19779196027702,292.15953805317184 M133.19779196027702,292.15953805317184 L133.57154490238509,292.8811461203291 M133.57154490238509,292.8811461203291 L134.23836515045895,293.52805749899943 M134.23836515045895,293.52805749899943 L135.15949870813324,294.0626291342487 M135.15949870813324,294.0626291342487 L136.28144030572537,294.45377432521224 M136.28144030572537,294.45377432521224 L137.53893159720246,294.6787128753587 M137.53893159720246,294.6787128753587 L138.85886604339538,294.72436734811737 M138.85886604339538,294.72436734811737 L140.16446875341762,294.58807215853443 M140.16446875341762,294.58807215853443 L141.37980648001178,294.2777705757952 M141.37980648001178,294.2777705757952 L142.43418878872296,293.8115059734204 M217.7126159429525,284.50555837845314 L214.7068133334576,283.14913641175144 M214.7068133334576,283.14913641175144 L211.21171381824323,282.24665130875445 M211.21171381824323,282.24665130875445 L207.43007095812357,281.8503142301498 M207.43007095812357,281.8503142301498 L203.58120266238893,281.98306704511555 M203.58120266238893,281.98306704511555 L199.88826920254616,282.6372264945746 M199.88826920254616,282.6372264945746 L196.56547293468446,283.7749489213203 M196.56547293468446,283.7749489213203 L193.8056550824249,285.3303634794263 M193.8056550824249,285.3303634794263 L191.7691997462005,287.21337027518877 M191.7691997462005,287.21337027518877 L190.57471316021957,289.3148099436682 M190.57471316021957,289.3148099436682 L190.2920258989268,291.51271594878034 M190.2920258989268,291.51271594878034 L190.93808618507066,293.67939468505426 M190.93808618507066,293.67939468505426 L192.47581191903788,295.6888084481919 M192.47581191903788,295.6888084481919 L194.81621447766022,297.4239738887514 M194.81621447766022,297.4239738887514 L197.8233949371697,298.78375418355034 M197.8233949371697,298.78375418355034 L201.32245553830137,299.6888282420826 M201.32245553830137,299.6888282420826 L205.10973530739847,300.08639185120705 M205.10973530739847,300.08639185120705 L208.964624964304,299.9532221216815 M208.964624964304,299.9532221216815 L212.6625848239489,299.29709783406116 M212.6625848239489,299.29709783406116 L215.9882610171115,298.15631275170693 M215.9882610171115,298.15631275170693 L218.7481526073246,296.59743936897115 M218.7481526073246,296.59743936897115 L220.78185860303756,294.7113699456355 M220.78185860303756,294.7113699456355 L221.9714025685638,292.60796543852274 M221.9714025685638,292.60796543852274 L222.24808624898566,290.4096425162439 M222.24808624898566,290.4096425162439 L221.59633675928384,288.2441902982391 M221.59633675928384,288.2441902982391 L220.0545395493023,286.2373654954883 M220.0545395493023,286.2373654954883 L217.7126159429525,284.50555837845314 M212.01889887888868,254.66342607302713 L212.84466128393797,254.07237059715266 M212.84466128393797,254.07237059715266 L213.4001776190719,253.3877397514372 M213.4001776190719,253.3877397514372 L213.65323115805424,252.64935820265902 M213.65323115805424,252.64935820265902 L213.58915441895962,251.90014948518026 M213.58915441895962,251.90014948518026 L213.21174559763693,251.18365347920513 M213.21174559763693,251.18365347920513 L212.5429627323849,250.5414769306122 M212.5429627323849,250.5414769306122 L211.62173184110583,250.01092625535392 M211.62173184110583,250.01092625535392 L210.50156552548754,249.62278529990175 M210.50156552548754,249.62278529990175 L209.24756397509975,249.39959818079436 M209.24756397509975,249.39959818079436 L207.9325318557477,249.35430130409281 M207.9325318557477,249.35430130409281 L206.63283874831183,249.48953105774223 M206.63283874831183,249.48953105774223 L205.42396017910193,249.79743073844247 M205.42396017910193,249.79743073844247 L204.3761293785803,250.26014829879603 M204.3761293785803,250.26014829879603 L203.55020575891297,250.85081229930051 M203.55020575891297,250.85081229930051 L202.99422394620203,251.53514254815326 M202.99422394620203,251.53514254815326 L202.74051536255692,252.27337872394386 M202.74051536255692,252.27337872394386 L202.8038857236197,253.02263724179943 M202.8038857236197,253.02263724179943 L203.1807067037781,253.73936228584128 M203.1807067037781,253.73936228584128 L203.8491506574269,254.38189704581094 M203.8491506574269,254.38189704581094 L204.77037299167168,254.91285091066553 M204.77037299167168,254.91285091066553 L205.89086306492155,255.30134767901382 M205.89086306492155,255.30134767901382 L207.14544273468883,255.52476383246062 M207.14544273468883,255.52476383246062 L208.46117916921048,255.57010810914466 M208.46117916921048,255.57010810914466 L209.76153339009136,255.43473778104826 M209.76153339009136,255.43473778104826 L210.97089024692988,255.12653511225585 M210.97089024692988,255.12653511225585 L212.01889887888868,254.66342607302713 M210.3779323913664,333.2267861989905 L211.20941548069953,332.62763504782964 M211.20941548069953,332.62763504782964 L211.76882307924947,331.93362613537056 M211.76882307924947,331.93362613537056 L212.02370457896268,331.18513461943974 M212.02370457896268,331.18513461943974 L211.95929955238603,330.42566467381505 M211.95929955238603,330.42566467381505 L211.57941772917408,329.6993572702629 M211.57941772917408,329.6993572702629 L210.90616568080796,329.0483863323907 M210.90616568080796,329.0483863323907 L209.97872558871504,328.5105713247842 M209.97872558871504,328.5105713247842 L208.85097074543415,328.1171173495534 M208.85097074543415,328.1171173495534 L207.58844634237772,327.89087454395053 M207.58844634237772,327.89087454395053 L206.26444723289802,327.8449587241648 M206.26444723289802,327.8449587241648 L204.95587180250695,327.98203748186927 M204.95587180250695,327.98203748186927 L203.73869836343968,328.2941539253211 M203.73869836343968,328.2941539253211 L202.6836502413221,328.7632069053291 M202.6836502413221,328.7632069053291 L201.85200378706014,329.3619585119501 M201.85200378706014,329.3619585119501 L201.29212869145317,330.0556581908259 M201.29212869145317,330.0556581908259 L201.03657457586826,330.8040062188262 M201.03657457586826,330.8040062188262 L201.1002678544342,331.56352455056583 M201.1002678544342,331.56352455056583 L201.47955375255432,332.2900657131637 M201.47955375255432,332.2900657131637 L202.15246650639816,332.9413998051808 M202.15246650639816,332.9413998051808 L203.07989786507738,333.4796263130093 M203.07989786507738,333.4796263130093 L204.20797653655194,333.8734458759816 M204.20797653655194,333.8734458759816 L205.47108694252805,334.0999224368264 M205.47108694252805,334.0999224368264 L206.79579569463613,334.1458890743705 M206.79579569463613,334.1458890743705 L208.10504993477298,334.0086619631544 M208.10504993477298,334.0086619631544 L209.32270394499193,333.6962387271159 M209.32270394499193,333.6962387271159 L210.3779323913664,333.2267861989905 M279.96822354092626,293.8115059734204 L280.7932932678106,293.2164233098247 M280.7932932678106,293.2164233098247 L281.3466432865955,292.5271279554803 M281.3466432865955,292.5271279554803 L281.59618335177015,291.7837159977961 M281.59618335177015,291.7837159977961 L281.5274505652528,291.02940344017435 M281.5274505652528,291.02940344017435 L281.14451416501583,290.30802675552013 M281.14451416501583,290.30802675552013 L280.4696534882536,289.66147604239876 M280.4696534882536,289.66147604239876 L279.5421479843234,289.12731172368734 M279.5421479843234,289.12731172368734 L278.4158745307617,288.73652720032055 M278.4158745307617,288.73652720032055 L277.1562880696921,288.5118200289119 M277.1562880696921,288.5118200289119 L275.8365172195132,288.4662146540566 M275.8365172195132,288.4662146540566 L274.5332065892554,288.6023654048311 M274.5332065892554,288.6023654048311 L273.3220415659058,288.912362110794 M273.3220415659058,288.912362110794 L272.2733882943589,289.3782312271112 M272.2733882943589,289.3782312271112 L271.4481539283189,289.97291840819037 M271.4481539283189,289.97291840819037 L270.894333481938,290.66191008465137 M270.894333481938,290.66191008465137 L270.64413303129754,291.40517518952373 M270.64413303129754,291.40517518952373 L270.7121549308257,292.15953805317184 M270.7121549308257,292.15953805317184 L271.09450084629805,292.8811461203291 M271.09450084629805,292.8811461203291 L271.7690224385148,293.52805870737546 M271.7690224385148,293.52805870737546 L272.6965217230022,294.0626303427366 M272.6965217230022,294.0626303427366 L273.82312324687064,294.45377432521224 M273.82312324687064,294.45377432521224 L275.0832931267089,294.6787128753587 M275.0832931267089,294.6787128753587 L276.40377336455873,294.724366139491 M276.40377336455873,294.724366139491 L277.7077487912135,294.58807336713227 M277.7077487912135,294.58807336713227 L278.919393552777,294.2777705757952 M278.919393552777,294.2777705757952 L279.96822354092626,293.8115059734204 M214.0573769855998,323.7610768436474 L290.30141759659443,280.60468726437045 M214.0573769855998,323.7610768436474 L214.21491560644716,339.2524093378497 M198.22601235973727,227.64465205624396 L204.16292107946938,227.4068070665371 M204.16292107946938,227.4068070665371 L210.10931340301917,227.4068022786625 M210.10931340301917,227.4068022786625 L216.0360688800961,227.64464726817098 M198.22601235973727,227.64465205624396 L121.99043107003757,270.40498241191335 M290.4447779658658,270.4049872357108 L216.0360688800961,227.64464726817098 M121.6980033411354,280.6046824320319 L121.37485868777259,277.20559045209353 M121.37485868777259,277.20559045209353 L121.47262581448103,273.80006151358754 M121.47262581448103,273.80006151358754 L121.99043107003757,270.40498241191335 M121.6980033411354,280.6046824320319 L196.098250543746,323.76108171220795 M214.0573769855998,323.7610768436474 L208.07085804672252,324.00293007459703 M208.07085804672252,324.00293007459703 L202.0744282765766,324.00292520583315 M202.0744282765766,324.00292520583315 L196.098250543746,323.76108171220795 M211.8610686707387,239.2296505700184 L212.68738124853243,238.63900013620338 M212.68738124853243,238.63900013620338 L213.24327158621725,237.95483850821768 M213.24327158621725,237.95483850821768 L213.49650129198153,237.21696307556758 M213.49650129198153,237.21696307556758 L213.43239270824827,236.46826795910994 M213.43239270824827,236.46826795910994 L213.05474596987276,235.7522631886396 M213.05474596987276,235.7522631886396 L212.38553299148506,235.11052697125285 M212.38553299148506,235.11052697125285 L211.4637048452569,234.58034012240861 M211.4637048452569,234.58034012240861 L210.3428088272505,234.19246535588212 M210.3428088272505,234.19246535588212 L209.0879875169365,233.96943130734584 M209.0879875169365,233.96943130734584 L207.77209314149528,233.92416549773066 M207.77209314149528,233.92416549773066 L206.4715453172591,234.0593025040797 M206.4715453172591,234.0593025040797 L205.2618691682065,234.3669910196199 M205.2618691682065,234.3669910196199 L204.21334423522973,234.82939125723325 M204.21334423522973,234.82939125723325 L203.38687023658318,235.41965022726814 M203.38687023658318,235.41965022726814 L202.83051381568475,236.1035112665035 M202.83051381568475,236.1035112665035 L202.57662820432705,236.84124133204395 M202.57662820432705,236.84124133204395 L202.640029483172,237.589986246617 M202.640029483172,237.589986246617 L203.01708760527913,238.30622004837318 M203.01708760527913,238.30622004837318 L203.685961223435,238.94831446574463 M203.685961223435,238.94831446574463 L204.60778079576858,239.47890449224838 M204.60778079576858,239.47890449224838 L205.72900099017684,239.8671350619238 M205.72900099017684,239.8671350619238 L206.98440117581916,240.09039813801874 M206.98440117581916,240.09039813801874 L208.30100078922206,240.13571134700024 M208.30100078922206,240.13571134700024 L209.60221059979142,240.00043376879205 M209.60221059979142,240.00043376879205 L210.81236566734935,239.69244227491686 M210.81236566734935,239.69244227491686 L211.8610686707387,239.2296505700184 M142.22998547811727,278.35099150390255 L143.0627001498192,277.7563139867869 M143.0627001498192,277.7563139867869 L143.62464253201358,277.06748676428487 M143.62464253201358,277.06748676428487 L143.88321418403052,276.3245834688596 M143.88321418403052,276.3245834688596 L143.82343989349505,275.57078343924167 M143.82343989349505,275.57078343924167 L143.4488598987346,274.84989811901113 M143.4488598987346,274.84989811901113 L142.78127264202539,274.2037866464012 M142.78127264202539,274.2037866464012 L141.85953092983402,273.669986250452 M141.85953092983402,273.669986250452 L140.73717725243176,273.279469193254 M140.73717725243176,273.279469193254 L139.479443063097,273.0549151330972 M139.479443063097,273.0549151330972 L138.15934536846981,273.00934204008604 M138.15934536846981,273.00934204008604 L136.85355612008715,273.14539760588036 M136.85355612008715,273.14539760588036 L135.6378920045447,273.4551842971315 M135.6378920045447,273.4551842971315 L134.58298856146178,273.92073600664423 M134.58298856146178,273.92073600664423 L133.7501137564106,274.5150180503038 M133.7501137564106,274.5150180503038 L133.18770825340613,275.2035391867873 M133.18770825340613,275.2035391867873 L132.9284684990978,275.9463004629503 M132.9284684990978,275.9463004629503 L132.987534665432,276.7001483823495 M132.987534665432,276.7001483823495 L133.36152063430723,277.4212650797821 M133.36152063430723,277.4212650797821 L134.02876833849336,278.06773600293354 M134.02876833849336,278.06773600293354 L134.95049895899348,278.6019437062006 M134.95049895899348,278.6019437062006 L136.07317254622382,278.99282262936515 M136.07317254622382,278.99282262936515 L137.33148815998118,279.21760806295873 M137.33148815998118,279.21760806295873 L138.65229130489666,279.2632314592429 M138.65229130489666,279.2632314592429 L139.9587565219664,279.127029044932 M139.9587565219664,279.127029044932 L141.1749003628147,278.81693869041214 M141.1749003628147,278.81693869041214 L142.22998547811727,278.35099150390255 M217.55812374315556,269.05138424025085 L219.90156578008975,270.7820106942983 M219.90156578008975,270.7820106942983 L221.4443514780964,272.78746776781287 M221.4443514780964,272.78746776781287 L222.09650162500785,274.9514446607539 M222.09650162500785,274.9514446607539 L221.81960683035064,277.1482704098628 M221.81960683035064,277.1482704098628 L220.62925157650938,279.2502429039192 M220.62925157650938,279.2502429039192 L218.59418070509145,281.1350287063477 M218.59418070509145,281.1350287063477 L215.8324496793051,282.6928414572901 M215.8324496793051,282.6928414572901 L212.50456640363294,283.8328505437755 M212.50456640363294,283.8328505437755 L208.80416039617194,284.4885285833789 M208.80416039617194,284.4885285833789 L204.9467282644585,284.62160774653125 M204.9467282644585,284.62160774653125 L201.15695812795622,284.22431451936313 M201.15695812795622,284.22431451936313 L197.6556046481557,283.3198560664933 M197.6556046481557,283.3198560664933 L194.6464624760646,281.96100083114527 M194.6464624760646,281.96100083114527 L192.304543538088,280.22701613087594 M192.304543538088,280.22701613087594 L190.76583471675673,278.21897015656856 M190.76583471675673,278.21897015656856 L190.11938128630237,276.0537667735911 M190.11938128630237,276.0537667735911 L190.40228756582505,273.8573579320522 M190.40228756582505,273.8573579320522 L191.59759192451557,271.75735023140123 M191.59759192451557,271.75735023140123 L193.63541571571162,269.87562698604916 M193.63541571571162,269.87562698604916 L196.39707285777044,268.3212729801217 M196.39707285777044,268.3212729801217 L199.7220723707186,267.18432647874977 M199.7220723707186,267.18432647874977 L203.41744532835548,266.5306132320825 M203.41744532835548,266.5306132320825 L207.2688481597509,266.3979509738938 M207.2688481597509,266.3979509738938 L211.05297397775777,266.79401769877325 M211.05297397775777,266.79401769877325 L214.5503611892143,267.6958872556991 M214.5503611892143,267.6958872556991 L217.55812374315556,269.05138424025085 M279.8546149012154,278.35099150390255 L280.6802339369426,277.7563139867869 M280.6802339369426,277.7563139867869 L281.2339551631606,277.0674879716288 M281.2339551631606,277.0674879716288 L281.48366683226647,276.3245822616712 M281.48366683226647,276.3245822616712 L281.4148961365195,275.57078343924167 M281.4148961365195,275.57078343924167 L281.03171460619603,274.84989811901113 M281.03171460619603,274.84989811901113 L280.35641587424254,274.2037878531456 M280.35641587424254,274.2037878531456 L279.4283049061388,273.66998745708474 M279.4283049061388,273.66998745708474 L278.30129375025734,273.2794691932541 M278.30129375025734,273.2794691932541 L277.0408802030829,273.0549151330972 M277.0408802030829,273.0549151330972 L275.72024086904764,273.0093408335915 M275.72024086904764,273.0093408335915 L274.4160707537977,273.14539881240336 M274.4160707537977,273.14539881240336 L273.2041051183958,273.4551842971315 M273.2041051183958,273.4551842971315 L272.1547565943456,273.92073600664423 M272.1547565943456,273.92073600664423 L271.3289727065172,274.5150180503038 M271.3289727065172,274.5150180503038 L270.7747804373339,275.20354039374104 M270.7747804373339,275.20354039374104 L270.52440751130814,275.94629925584127 M270.52440751130814,275.94629925584127 L270.5924663843041,276.7001483823495 M270.5924663843041,276.7001483823495 L270.975056649513,277.4212650797821 M270.975056649513,277.4212650797821 L271.65001584790707,278.06773721048694 M271.65001584790707,278.06773721048694 L272.578120584272,278.60194491386574 M272.578120584272,278.60194491386574 L273.7054602376985,278.99282262936515 M273.7054602376985,278.99282262936515 L274.9664579700216,279.21760806295873 M274.9664579700216,279.21760806295873 L276.28780762452527,279.26323025143927 M276.28780762452527,279.26323025143927 L277.5926434163472,279.1270302527072 M277.5926434163472,279.1270302527072 L278.8050894237398,278.81693869041214 M278.8050894237398,278.81693869041214 L279.8546149012154,278.35099150390255 M210.21793961299468,317.7395267467178 L211.04998052530266,317.1407808201863 M211.04998052530266,317.1407808201863 L211.60976738133837,316.4472413387724 M211.60976738133837,316.4472413387724 L211.86482759772332,315.6992561677247 M211.86482759772332,315.6992561677247 L211.80039043297603,314.94030005902243 M211.80039043297603,314.94030005902243 L211.42026756891406,314.2144841170136 M211.42026756891406,314.2144841170136 L210.74657963890849,313.5639537147796 M210.74657963890849,313.5639537147796 L209.81853421217258,313.0265027025294 M209.81853421217258,313.0265027025294 L208.69003974498628,312.633315039412 M208.69003974498628,312.633315039412 L207.42668439756847,312.4072253758472 M207.42668439756847,312.4072253758472 L206.10181123023855,312.36134063684375 M206.10181123023855,312.36134063684375 L204.79236935391418,312.4983266055633 M204.79236935391418,312.4983266055633 L203.5743873501532,312.8102317845342 M203.5743873501532,312.8102317845342 L202.51863549811347,313.27896729419297 M202.51863549811347,313.27896729419297 L201.6864310105036,313.87731368264497 M201.6864310105036,313.87731368264497 L201.1261760422574,314.5705439362787 M201.1261760422574,314.5705439362787 L200.87044232559444,315.3183856201096 M200.87044232559444,315.3183856201096 L200.93416679923226,316.07739011494766 M200.93416679923226,316.07739011494766 L201.3136929470498,316.80343981222256 M201.3136929470498,316.80343981222256 L201.9870411274328,317.4543333635327 M201.9870411274328,317.4543333635327 L202.9150778034297,317.99219586935124 M202.9150778034297,317.99219586935124 L204.04389652322783,318.3857491134958 M204.04389652322783,318.3857491134958 L205.30783864503437,318.6120725285229 M205.30783864503437,318.6120725285229 L206.63342239391477,318.65800808366 M206.63342239391477,318.65800808366 L207.94354397667863,318.5208737654338 M207.94354397667863,318.5208737654338 L209.16200719268116,318.2086617980335 M209.16200719268116,318.2086617980335 L210.21793961299468,317.7395267467178 M216.0360688800961,227.64464726817098 L216.19100390853092,243.07047101184082 M198.22601235973727,227.64465205624396 L198.3926197730246,243.0704758032034 M121.99043107003757,270.40498241191335 L122.20780778888985,285.86008002710213 M196.098250543746,323.76108171220795 L196.26765769746171,339.2524142097018 M121.6980033411354,280.6046824320319 L121.91576482778095,296.06673194685584 M142.22998547811727,278.35099150390255 L142.43418878872296,293.8115059734204 M217.7126159429525,284.50555837845314 L217.55812374315556,269.05138424025085 M211.8610686707387,239.2296505700184 L212.01889887888868,254.66342607302713 M210.21793961299468,317.7395267467178 L210.3779323913664,333.2267861989905 M279.8546149012154,278.35099150390255 L279.96822354092626,293.8115059734204" stroke="black"  stroke-width="4"  fill="red"/></svg>